<svg width="73" height="10" viewBox="0 0 73 10" fill="none" xmlns="http://www.w3.org/2000/svg">
<path d="M3.78504 8.07609H3.01951V5.30838H0.546242V4.66062H3.01951V1.95181H3.78504V4.66062H6.25831V5.30838H3.78504C3.78504 5.30838 3.78504 8.07609 3.78504 8.07609ZM7.37717 8.4883C10.4982 6.01503 12.147 4.60174 12.147 3.12956C12.147 2.0107 11.2637 1.5396 10.3215 1.5396C9.26156 1.5396 8.49603 1.95181 7.96604 2.59957L7.37717 1.95181C8.02493 1.0685 9.14379 0.5974 10.3804 0.5974C11.7937 0.5974 13.2659 1.42182 13.2659 3.12956C13.2659 4.89617 11.4993 6.48613 9.0849 8.42941H13.2659V9.37161H7.37717V8.4883ZM15.2681 7.42833C15.7981 8.07609 16.6814 8.54718 17.6824 8.54718C18.9191 8.54718 19.6846 7.89943 19.6846 6.89834C19.6846 5.83837 18.8013 5.36727 17.5058 5.36727C17.1525 5.36727 16.7402 5.36727 16.6225 5.36727V4.36619C16.7402 4.36619 17.1525 4.36619 17.5058 4.36619C18.5658 4.36619 19.5079 3.95398 19.5079 2.95289C19.5079 2.01069 18.6246 1.48071 17.5647 1.48071C16.6225 1.48071 15.9158 1.83403 15.2681 2.54068L14.6792 1.89292C15.327 1.12739 16.328 0.538513 17.6236 0.538513C19.2724 0.538513 20.5679 1.36294 20.5679 2.83512C20.5679 4.07175 19.508 4.71951 18.6835 4.83729C19.4491 4.89617 20.6857 5.60282 20.6857 6.95723C20.6857 8.37052 19.508 9.43049 17.6236 9.43049C16.1514 9.43049 15.0914 8.78273 14.5614 8.0172L15.2681 7.42833ZM27.1633 2.12847L25.75 3.60065L25.1022 2.95289L27.2811 0.715177H28.2233V9.37161H27.1633V2.12847ZM29.931 8.4883C33.052 6.01503 34.7009 4.60174 34.7009 3.12956C34.7009 2.0107 33.8176 1.5396 32.8754 1.5396C31.8154 1.5396 31.0499 1.95181 30.5199 2.59957L29.8721 1.89292C30.5199 1.00961 31.6387 0.538513 32.8754 0.538513C34.2887 0.538513 35.7608 1.36294 35.7608 3.07067C35.7608 4.83729 33.9942 6.42724 31.5798 8.37053H35.8197V9.31272H29.931V8.4883ZM39.5885 4.89617C38.5874 4.60174 37.6452 3.95398 37.6452 2.83512C37.6452 1.30405 39.1763 0.5974 40.5896 0.5974C42.0029 0.5974 43.534 1.30405 43.534 2.83512C43.534 3.95398 42.5918 4.60174 41.5907 4.89617C42.6507 5.2495 43.6517 6.01503 43.6517 7.19278C43.6517 8.66496 42.2384 9.54827 40.5307 9.54827C38.823 9.54827 37.4097 8.66496 37.4097 7.19278C37.5275 6.01503 38.5285 5.2495 39.5885 4.89617ZM40.5896 5.36727C40.0596 5.42616 38.5874 5.89726 38.5874 7.01612C38.5874 7.95831 39.5296 8.54718 40.5896 8.54718C41.6496 8.54718 42.5918 7.95831 42.5918 7.01612C42.6507 5.95614 41.1196 5.48504 40.5896 5.36727ZM40.5896 1.5396C39.5296 1.5396 38.7052 2.06958 38.7052 2.95289C38.7052 4.01286 40.0596 4.36619 40.5896 4.42507C41.1196 4.3073 42.474 4.01286 42.474 2.95289C42.474 2.06958 41.6496 1.5396 40.5896 1.5396ZM48.716 0.715177H49.776V5.95614C49.776 7.5461 50.6593 8.54718 52.2493 8.54718C53.8392 8.54718 54.7226 7.5461 54.7226 5.95614V0.715177H55.7825V6.01503C55.7825 8.19386 54.6048 9.54827 52.2493 9.54827C49.8938 9.54827 48.716 8.13498 48.716 6.01503V0.715177ZM57.9025 7.31055C58.4913 7.95831 59.4335 8.54718 60.6113 8.54718C62.1424 8.54718 62.6723 7.72276 62.6723 7.075C62.6723 6.01503 61.6124 5.77948 60.4935 5.42616C59.0802 5.07284 57.5491 4.66062 57.5491 2.95289C57.5491 1.5396 58.8447 0.538513 60.4935 0.538513C61.789 0.538513 62.849 0.950724 63.5556 1.71626L62.9079 2.4818C62.2601 1.77515 61.3768 1.42182 60.4346 1.42182C59.3746 1.42182 58.668 1.95181 58.668 2.77623C58.668 3.65954 59.6691 3.89509 60.7879 4.18952C62.2012 4.54285 63.7912 5.01395 63.7912 6.83945C63.7912 8.07609 62.9079 9.37161 60.6113 9.37161C59.0802 9.37161 58.0202 8.78273 57.3136 8.0172L57.9025 7.31055ZM65.3812 0.715177H68.3255C71.0343 0.715177 72.7421 2.59957 72.7421 5.01395C72.7421 7.48721 70.9754 9.31272 68.3255 9.31272H65.3812V0.715177ZM68.3255 8.42941C70.4455 8.42941 71.6232 6.89834 71.6232 5.07283C71.6232 3.18844 70.4455 1.71626 68.3255 1.71626H66.4411V8.42941H68.3255Z" fill="#15B272"/>
</svg>
