<svg width="51" height="8" viewBox="0 0 51 8" fill="none" xmlns="http://www.w3.org/2000/svg">
<path d="M0.630188 4.37613H2.7741V4.96756H0.630188V4.37613ZM8.42959 5.30024H5.62033V4.67185L8.13388 0.901518H9.13191V4.67185H9.98208V5.3372H9.13191V6.85273H8.39263L8.42959 5.30024ZM6.35961 4.67185H8.42959V1.56687L6.35961 4.67185ZM11.8672 1.86258L10.9062 2.86061L10.4626 2.41705L11.9412 0.901518H12.6065V6.81576H11.8672V1.86258ZM14.3069 5.48506C14.7135 5.96559 15.194 6.2613 15.9333 6.2613C16.7465 6.2613 17.301 5.70684 17.301 5.00453C17.301 4.22828 16.7465 3.71079 15.9333 3.71079C15.4158 3.71079 14.9722 3.89561 14.5656 4.26525L14.0112 4.08043V0.901518H17.6336V1.56687H14.7874V3.63685C15.0831 3.34114 15.5637 3.11936 16.1551 3.11936C17.1531 3.11936 18.0402 3.78471 18.0402 5.00453C18.0402 6.22434 17.1161 6.96362 15.9333 6.96362C14.9353 6.96362 14.3069 6.59398 13.8633 6.00256L14.3069 5.48506ZM19.0013 7.66594C19.297 7.48112 19.5558 7.14844 19.5927 6.85273C19.5927 6.85273 19.5188 6.85273 19.4818 6.85273C19.2231 6.85273 19.0383 6.6679 19.0383 6.40916C19.0383 6.15041 19.26 5.92863 19.5188 5.92863C19.8145 5.92863 20.0733 6.18737 20.0733 6.59398C20.0733 7.14844 19.7406 7.62897 19.334 7.92468L19.0013 7.66594ZM21.6627 5.66988C21.9584 6.03952 22.3281 6.2613 22.9195 6.2613C24.1023 6.2613 24.5829 5.07845 24.5829 3.93257C24.5829 3.85864 24.5829 3.78471 24.5829 3.71079C24.3241 4.11739 23.6588 4.63489 22.9195 4.63489C21.8475 4.63489 20.9604 4.0065 20.9604 2.74972C20.9604 1.71473 21.7366 0.827591 23.0304 0.827591C24.6938 0.827591 25.3222 2.26919 25.3222 3.89561C25.3222 5.48506 24.5829 6.96362 22.9195 6.96362C22.1802 6.96362 21.6627 6.66791 21.2931 6.2613L21.6627 5.66988ZM23.1043 1.45598C22.2172 1.45598 21.7366 2.15829 21.7366 2.71275C21.7366 3.59989 22.3281 4.00649 23.1043 4.00649C23.6957 4.00649 24.2502 3.63686 24.5829 3.11936C24.5089 2.38008 24.1023 1.45598 23.1043 1.45598ZM26.8377 5.48506C27.2443 5.96559 27.7248 6.2613 28.4641 6.2613C29.2773 6.2613 29.8318 5.70684 29.8318 5.00453C29.8318 4.22828 29.2773 3.71079 28.4641 3.71079C27.9466 3.71079 27.503 3.89561 27.0964 4.26525L26.542 4.08043V0.901518H30.1644V1.56687H27.2812V3.63685C27.577 3.34114 28.0575 3.11936 28.6489 3.11936C29.6469 3.11936 30.5341 3.78471 30.5341 5.00453C30.5341 6.22434 29.61 6.96362 28.4271 6.96362C27.4291 6.96362 26.8007 6.59398 26.3571 6.00256L26.8377 5.48506ZM34.0087 0.901518H34.748V4.48703C34.748 5.55898 35.3394 6.2613 36.4114 6.2613C37.5203 6.2613 38.0747 5.59595 38.0747 4.48703V0.901518H38.814V4.52399C38.814 6.00256 38.0008 6.92666 36.4114 6.92666C34.8219 6.92666 34.0087 5.96559 34.0087 4.52399V0.901518ZM40.2926 5.41113C40.6992 5.8547 41.3276 6.2613 42.1408 6.2613C43.2127 6.2613 43.5454 5.70684 43.5454 5.22631C43.5454 4.52399 42.8431 4.33917 42.0299 4.11739C41.0688 3.85864 40.0338 3.59989 40.0338 2.45401C40.0338 1.49294 40.921 0.827591 42.0669 0.827591C42.954 0.827591 43.6563 1.1233 44.1738 1.6408L43.7302 2.19526C43.2867 1.71473 42.6583 1.49294 42.0299 1.49294C41.3276 1.49294 40.8101 1.86258 40.8101 2.41705C40.8101 3.00847 41.4754 3.19329 42.2517 3.37811C43.2127 3.63685 44.3217 3.93257 44.3217 5.18935C44.3217 6.03952 43.7302 6.92666 42.1408 6.92666C41.1058 6.92666 40.3665 6.52005 39.886 6.00256L40.2926 5.41113ZM45.4306 0.901518H47.4636C49.3118 0.901518 50.4946 2.19526 50.4946 3.85864C50.4946 5.55899 49.3118 6.81576 47.4636 6.81576H45.4306V0.901518ZM47.4266 6.15041C48.8682 6.15041 49.6815 5.11542 49.6815 3.85864C49.6815 2.5649 48.8682 1.56687 47.4266 1.56687H46.1329V6.18738L47.4266 6.15041Z" fill="#F16667"/>
</svg>
