<svg width="66" height="10" viewBox="0 0 66 10" fill="none" xmlns="http://www.w3.org/2000/svg">
<path d="M0.614502 5.77948H3.73553V6.66279H0.614502V5.77948ZM5.7377 7.66388C6.14991 8.19386 6.67989 8.54718 7.5632 8.54718C9.32982 8.54718 9.97758 6.78057 9.97758 5.19061C9.97758 5.07284 9.97758 4.95506 9.97758 4.83729C9.62426 5.42616 8.62317 6.19169 7.5632 6.19169C6.03213 6.19169 4.73661 5.2495 4.73661 3.42399C4.73661 1.95181 5.85547 0.5974 7.73986 0.5974C10.1542 0.5974 11.0964 2.71734 11.0964 5.07283C11.0964 7.42833 10.0365 9.54827 7.5632 9.54827C6.44434 9.54827 5.7377 9.13606 5.14882 8.4883L5.7377 7.66388ZM7.79875 1.5396C6.50323 1.5396 5.79658 2.54068 5.79658 3.36511C5.79658 4.66063 6.67989 5.2495 7.79875 5.2495C8.68206 5.2495 9.50648 4.71951 9.97758 3.95398C9.91869 2.89401 9.32982 1.5396 7.79875 1.5396ZM17.8685 4.89617C16.8674 4.60174 15.9252 3.95398 15.9252 2.83512C15.9252 1.30405 17.4563 0.5974 18.8696 0.5974C20.2829 0.5974 21.8139 1.30405 21.8139 2.83512C21.8139 3.95398 20.8717 4.60174 19.8706 4.89617C20.9306 5.2495 21.9317 6.01503 21.9317 7.19278C21.9317 8.66496 20.5184 9.54827 18.8107 9.54827C17.1029 9.54827 15.6896 8.66496 15.6896 7.19278C15.8074 6.01503 16.7496 5.2495 17.8685 4.89617ZM18.8696 5.36727C18.3396 5.42616 16.8674 5.89726 16.8674 7.01612C16.8674 7.95831 17.8096 8.54718 18.8696 8.54718C19.9295 8.54718 20.8717 7.95831 20.8717 7.01612C20.8717 5.95614 19.3995 5.48504 18.8696 5.36727ZM18.8696 1.5396C17.8096 1.5396 16.9852 2.06958 16.9852 2.95289C16.9852 4.01286 18.3396 4.36619 18.8696 4.42507C19.3995 4.3073 20.754 4.01286 20.754 2.95289C20.754 2.06958 19.9295 1.5396 18.8696 1.5396ZM26.8193 0.5974C27.9382 0.5974 28.7037 1.00961 29.2337 1.65737L28.7037 2.4818C28.2915 1.95181 27.7615 1.59849 26.8782 1.59849C25.2294 1.59849 24.4639 3.30622 24.4639 5.01395C24.4639 5.13172 24.4639 5.2495 24.4639 5.36727C24.8172 4.7784 25.8183 4.01286 26.9371 4.01286C28.4682 4.01286 29.7637 4.95506 29.7637 6.78057C29.7637 8.31164 28.6449 9.60716 26.7605 9.60716C24.3461 9.60716 23.4039 7.48722 23.4039 5.13172C23.2861 2.71735 24.405 0.5974 26.8193 0.5974ZM26.5838 4.89617C25.7005 4.89617 24.8761 5.42616 24.405 6.19169C24.5227 7.25166 25.0527 8.60607 26.5838 8.60607C27.9382 8.60607 28.586 7.60499 28.586 6.78057C28.586 5.48505 27.7027 4.89617 26.5838 4.89617ZM34.828 7.19278H30.7059V6.30947L34.4158 0.774063H35.888V6.30947H37.1246V7.25167H35.888V9.43049H34.828V7.19278ZM31.7659 6.25058H34.7691V1.71626L31.7659 6.25058ZM41.8945 0.715177H42.9545V5.95614C42.9545 7.5461 43.8378 8.54718 45.4277 8.54718C47.0177 8.54718 47.901 7.5461 47.901 5.95614V0.715177H48.961V6.01503C48.961 8.19386 47.7832 9.54827 45.4277 9.54827C43.0722 9.54827 41.8945 8.13498 41.8945 6.01503V0.715177ZM51.0809 7.31055C51.6698 7.95831 52.612 8.54718 53.7897 8.54718C55.3208 8.54718 55.8508 7.72276 55.8508 7.075C55.8508 6.01503 54.7908 5.77948 53.672 5.42616C52.2587 5.07284 50.7276 4.66062 50.7276 2.95289C50.7276 1.5396 52.0231 0.538513 53.672 0.538513C54.9675 0.538513 56.0275 0.950724 56.7341 1.71626L56.0863 2.4818C55.4386 1.77515 54.5553 1.42182 53.6131 1.42182C52.5531 1.42182 51.8465 1.95181 51.8465 2.77623C51.8465 3.65954 52.8475 3.89509 53.9664 4.18952C55.3797 4.54285 56.9696 5.01395 56.9696 6.83945C56.9696 8.07609 56.0863 9.37161 53.7897 9.37161C52.2587 9.37161 51.1987 8.78273 50.492 8.0172L51.0809 7.31055ZM58.5596 0.715177H61.504C64.2128 0.715177 65.9205 2.59957 65.9205 5.01395C65.9205 7.48721 64.1539 9.31272 61.504 9.31272H58.5596V0.715177ZM61.504 8.42941C63.6239 8.42941 64.8017 6.89834 64.8017 5.07283C64.8017 3.18844 63.6239 1.71626 61.504 1.71626H59.6196V8.42941H61.504Z" fill="#F16667"/>
</svg>
