<svg width="1000" height="1000" viewBox="0 0 1000 1000" fill="none" xmlns="http://www.w3.org/2000/svg">
<g clip-path="url(#clip0_3_2427)">
<path d="M482.353 980.392C216.498 980.392 0.980408 765.094 0.980408 499.51C0.980408 233.926 216.498 18.6274 482.353 18.6274C748.208 18.6274 963.726 233.926 963.726 499.51C963.726 765.094 748.208 980.392 482.353 980.392Z" stroke="url(#paint0_linear_3_2427)" stroke-width="1.96078"/>
<path fill-rule="evenodd" clip-rule="evenodd" d="M517.647 981.372C251.251 981.372 35.2941 765.635 35.2941 499.51C35.2941 233.384 251.251 17.647 517.647 17.647C784.043 17.647 1000 233.384 1000 499.51C1000 765.635 784.043 981.372 517.647 981.372ZM517.647 667.967C610.776 667.967 686.275 592.547 686.275 499.51C686.275 406.474 610.776 331.055 517.647 331.055C424.518 331.055 349.02 406.474 349.02 499.51C349.02 592.547 424.518 667.967 517.647 667.967Z" fill="url(#paint1_linear_3_2427)"/>
</g>
<defs>
<linearGradient id="paint0_linear_3_2427" x1="-50606.7" y1="17060.1" x2="-64747.8" y2="66455.3" gradientUnits="userSpaceOnUse">
<stop stop-color="#EBF1F7"/>
<stop offset="1" stop-color="white"/>
</linearGradient>
<linearGradient id="paint1_linear_3_2427" x1="50465.3" y1="19247.8" x2="65879" y2="66591.4" gradientUnits="userSpaceOnUse">
<stop stop-color="#F2F5F8"/>
<stop offset="1" stop-color="white"/>
</linearGradient>
<clipPath id="clip0_3_2427">
<rect width="1000" height="964.706" fill="white" transform="translate(0 17.647)"/>
</clipPath>
</defs>
</svg>
