<svg width="26" height="6" viewBox="0 0 26 6" fill="none" xmlns="http://www.w3.org/2000/svg">
<path d="M0.277344 0.767815H1.82986C2.42128 0.767815 2.79092 1.13746 2.79092 1.65495C2.79092 2.09852 2.49521 2.39423 2.1995 2.4312C2.56914 2.50512 2.86483 2.87477 2.86483 3.28137C2.86483 3.83583 2.4952 4.20547 1.86682 4.20547H0.277344V0.767815ZM1.7559 2.24638C2.16251 2.24638 2.34732 2.02459 2.34732 1.69192C2.34732 1.3962 2.12555 1.13745 1.7559 1.13745H0.720939V2.24638H1.7559ZM1.7559 3.83583C2.16251 3.83583 2.38432 3.61404 2.38432 3.2444C2.38432 2.91173 2.16251 2.65298 1.7559 2.65298H0.683939V3.83583H1.7559ZM5.19358 3.83583C5.00876 4.05761 4.67607 4.24244 4.30643 4.24244C3.78894 4.24244 3.49324 3.98368 3.49324 3.42922V1.65495H3.86288V3.31834C3.86288 3.7619 4.08467 3.8728 4.41734 3.8728C4.71305 3.8728 5.00877 3.68798 5.15662 3.50316V1.65495H5.52626V4.1685H5.15662L5.19358 3.83583ZM6.33945 3.57708C6.48731 3.7619 6.81997 3.94672 7.15264 3.94672C7.52228 3.94672 7.7441 3.7619 7.7441 3.54012C7.7441 3.28137 7.44837 3.17048 7.11569 3.09655C6.70908 2.98566 6.19159 2.87477 6.19159 2.35727C6.19159 1.95066 6.52426 1.65495 7.11569 1.65495C7.52229 1.65495 7.85497 1.80281 8.03979 2.02459L7.85497 2.28334C7.70711 2.09852 7.44837 1.95066 7.11569 1.95066C6.78301 1.95066 6.56123 2.09852 6.56123 2.3203C6.56123 2.57905 6.85697 2.65298 7.18964 2.72691C7.63321 2.8378 8.11374 2.9487 8.11374 3.50316C8.11374 3.90976 7.78104 4.24244 7.11569 4.24244C6.70908 4.24244 6.37643 4.13154 6.11768 3.83583L6.33945 3.57708ZM8.70516 1.02656C8.70516 0.878706 8.81603 0.767815 8.96389 0.767815C9.11175 0.767815 9.22267 0.878706 9.22267 1.02656C9.22267 1.17442 9.11175 1.28531 8.96389 1.28531C8.81603 1.28531 8.70516 1.17442 8.70516 1.02656ZM8.77907 1.69192H9.18567V4.20547H8.77907V1.69192ZM11.0339 1.65495C11.7731 1.65495 12.2167 2.24638 12.2167 2.98566V3.09655H10.1837C10.2207 3.57708 10.5534 3.94672 11.0709 3.94672C11.3666 3.94672 11.6623 3.83583 11.8471 3.61404L12.0319 3.8728C11.7732 4.13154 11.4405 4.24244 11.0339 4.24244C10.2946 4.24244 9.77713 3.72494 9.77713 2.91173C9.77713 2.20941 10.2946 1.65495 11.0339 1.65495ZM10.1837 2.80084H11.8101C11.8101 2.4312 11.5514 1.95066 10.9969 1.95066C10.4794 1.95066 10.2207 2.4312 10.1837 2.80084ZM12.8451 3.57708C12.993 3.7619 13.3257 3.94672 13.6583 3.94672C14.028 3.94672 14.2498 3.7619 14.2498 3.54012C14.2498 3.28137 13.954 3.17048 13.6213 3.09655C13.2147 2.98566 12.6972 2.87477 12.6972 2.35727C12.6972 1.95066 13.0299 1.65495 13.6213 1.65495C14.028 1.65495 14.3606 1.80281 14.5454 2.02459L14.3606 2.28334C14.2128 2.09852 13.954 1.95066 13.6213 1.95066C13.2887 1.95066 13.0669 2.09852 13.0669 2.3203C13.0669 2.57905 13.3626 2.65298 13.6953 2.72691C14.1389 2.8378 14.6194 2.9487 14.6194 3.50316C14.6194 3.90976 14.2867 4.24244 13.6213 4.24244C13.2147 4.24244 12.8821 4.13154 12.6233 3.83583L12.8451 3.57708ZM15.3217 3.68798V2.06156H14.9151V1.72888H15.3217V1.06353H15.7283V1.72888H16.2458V2.06156H15.7283V3.61404C15.7283 3.79886 15.8022 3.94672 15.9871 3.94672C16.0979 3.94672 16.2089 3.90976 16.2458 3.83583L16.3567 4.13154C16.2458 4.24244 16.1349 4.2794 15.8762 4.2794C15.5066 4.2794 15.3217 4.05762 15.3217 3.68798ZM19.9422 3.83583C19.7574 4.09458 19.4617 4.2794 19.092 4.2794C18.4267 4.2794 17.9831 3.79886 17.9831 2.98566C17.9831 2.17245 18.4267 1.65495 19.092 1.65495C19.4247 1.65495 19.7205 1.80281 19.9422 2.09852V0.767815H20.3488V4.20547H19.9422V3.83583ZM19.9422 2.39424C19.7944 2.17245 19.4987 1.98763 19.203 1.98763C18.6855 1.98763 18.3897 2.39424 18.3897 2.9487C18.3897 3.50316 18.6855 3.90976 19.203 3.90976C19.4987 3.90976 19.8313 3.72494 19.9422 3.50316V2.39424ZM22.6406 3.90976C22.4188 4.13154 22.1601 4.24244 21.8274 4.24244C21.4208 4.24244 20.9402 3.94672 20.9402 3.42922C20.9402 2.87476 21.3838 2.61602 21.8274 2.61602C22.1601 2.61602 22.4558 2.72691 22.6406 2.9487V2.50512C22.6406 2.17245 22.3819 1.98763 22.0122 1.98763C21.7165 1.98763 21.4578 2.09852 21.236 2.3203L21.0512 2.06156C21.3099 1.76584 21.6426 1.65495 22.0492 1.65495C22.5667 1.65495 23.0102 1.87673 23.0102 2.50512V4.24244H22.6036L22.6406 3.90976ZM22.6406 3.20744C22.4927 2.98566 22.234 2.91173 21.9383 2.91173C21.5686 2.91173 21.3099 3.13351 21.3099 3.46619C21.3099 3.79887 21.5686 4.02065 21.9383 4.02065C22.197 4.02065 22.4927 3.90976 22.6406 3.72494V3.20744ZM23.9343 4.87082C24.1191 4.87082 24.23 4.7969 24.304 4.61208L24.4518 4.24244L23.4168 1.72888H23.8235L24.6736 3.7619L25.4868 1.72888H25.8934L24.6366 4.72296C24.4888 5.0926 24.23 5.24046 23.8974 5.24046C23.8234 5.24046 23.6756 5.24046 23.6016 5.2035L23.6756 4.83386C23.7865 4.87082 23.8974 4.87082 23.9343 4.87082Z" fill="#93A1AA"/>
</svg>
