<svg width="6" height="7" viewBox="0 0 6 7" fill="none" xmlns="http://www.w3.org/2000/svg">
<path d="M4.53809 1.65323H5.27737C5.49915 1.65323 5.64701 1.80108 5.64701 2.02287V6.08891C5.64701 6.3107 5.49915 6.45855 5.27737 6.45855H0.841686C0.619902 6.45855 0.472046 6.3107 0.472046 6.08891V2.02287C0.472046 1.80108 0.619902 1.65323 0.841686 1.65323H1.58097V1.09877C1.58097 0.987876 1.65489 0.913948 1.76579 0.913948C1.87668 0.913948 1.95061 0.987876 1.95061 1.09877V1.65323H4.16845V1.09877C4.16845 0.987876 4.24238 0.913948 4.35327 0.913948C4.46416 0.913948 4.53809 0.987876 4.53809 1.09877V1.65323ZM4.53809 2.02287V2.20769C4.53809 2.31858 4.46416 2.39251 4.35327 2.39251C4.24238 2.39251 4.16845 2.31858 4.16845 2.20769V2.02287H1.95061V2.20769C1.95061 2.31858 1.87668 2.39251 1.76579 2.39251C1.65489 2.39251 1.58097 2.31858 1.58097 2.20769V2.02287H1.02651C0.915614 2.02287 0.841686 2.0968 0.841686 2.20769V2.94697C0.841686 3.05786 0.915614 3.13179 1.02651 3.13179H5.09255C5.20344 3.13179 5.27737 3.05786 5.27737 2.94697V2.20769C5.27737 2.0968 5.20344 2.02287 5.09255 2.02287H4.53809ZM0.841686 3.68625V5.90409C0.841686 6.01498 0.915614 6.08891 1.02651 6.08891H5.09255C5.20344 6.08891 5.27737 6.01498 5.27737 5.90409V3.68625C5.27737 3.57536 5.20344 3.50143 5.09255 3.50143H1.02651C0.915614 3.50143 0.841686 3.57536 0.841686 3.68625ZM1.58097 4.05589C1.58097 3.945 1.65489 3.87107 1.76579 3.87107H2.13543C2.24632 3.87107 2.32025 3.945 2.32025 4.05589C2.32025 4.16678 2.24632 4.24071 2.13543 4.24071H1.76579C1.65489 4.24071 1.58097 4.16678 1.58097 4.05589ZM2.68989 4.05589C2.68989 3.945 2.76382 3.87107 2.87471 3.87107H3.24435C3.35524 3.87107 3.42917 3.945 3.42917 4.05589C3.42917 4.16678 3.35524 4.24071 3.24435 4.24071H2.87471C2.76382 4.24071 2.68989 4.16678 2.68989 4.05589ZM3.79881 4.05589C3.79881 3.945 3.87274 3.87107 3.98363 3.87107H4.35327C4.46416 3.87107 4.53809 3.945 4.53809 4.05589C4.53809 4.16678 4.46416 4.24071 4.35327 4.24071H3.98363C3.87274 4.24071 3.79881 4.16678 3.79881 4.05589ZM1.58097 4.79517C1.58097 4.68428 1.65489 4.61035 1.76579 4.61035H2.13543C2.24632 4.61035 2.32025 4.68428 2.32025 4.79517C2.32025 4.90606 2.24632 4.97999 2.13543 4.97999H1.76579C1.65489 4.97999 1.58097 4.90606 1.58097 4.79517ZM2.68989 4.79517C2.68989 4.68428 2.76382 4.61035 2.87471 4.61035H3.24435C3.35524 4.61035 3.42917 4.68428 3.42917 4.79517C3.42917 4.90606 3.35524 4.97999 3.24435 4.97999H2.87471C2.76382 4.97999 2.68989 4.90606 2.68989 4.79517ZM3.79881 4.79517C3.79881 4.68428 3.87274 4.61035 3.98363 4.61035H4.35327C4.46416 4.61035 4.53809 4.68428 4.53809 4.79517C4.53809 4.90606 4.46416 4.97999 4.35327 4.97999H3.98363C3.87274 4.97999 3.79881 4.90606 3.79881 4.79517ZM1.58097 5.53445C1.58097 5.42356 1.65489 5.34963 1.76579 5.34963H2.13543C2.24632 5.34963 2.32025 5.42356 2.32025 5.53445C2.32025 5.64534 2.24632 5.71927 2.13543 5.71927H1.76579C1.65489 5.71927 1.58097 5.64534 1.58097 5.53445ZM2.68989 5.53445C2.68989 5.42356 2.76382 5.34963 2.87471 5.34963H3.24435C3.35524 5.34963 3.42917 5.42356 3.42917 5.53445C3.42917 5.64534 3.35524 5.71927 3.24435 5.71927H2.87471C2.76382 5.71927 2.68989 5.64534 2.68989 5.53445ZM3.79881 5.53445C3.79881 5.42356 3.87274 5.34963 3.98363 5.34963H4.35327C4.46416 5.34963 4.53809 5.42356 4.53809 5.53445C4.53809 5.64534 4.46416 5.71927 4.35327 5.71927H3.98363C3.87274 5.71927 3.79881 5.64534 3.79881 5.53445Z" fill="#B1BFC7"/>
</svg>
