<svg width="382" height="4" viewBox="0 0 382 4" fill="none" xmlns="http://www.w3.org/2000/svg">
<path d="M0.296478 0.666704H1.29451C2.21861 0.666704 2.81004 1.29509 2.81004 2.14527C2.81004 2.99544 2.21861 3.62383 1.29451 3.62383H0.296478V0.666704ZM1.29451 3.29114C1.99683 3.29114 2.4404 2.77365 2.4404 2.14527C2.4404 1.51688 2.03379 0.99939 1.29451 0.99939H0.666119V3.29114H1.29451ZM4.32556 1.44294C4.99091 1.44294 5.36055 1.96045 5.36055 2.58884V2.66277H3.62324C3.6602 3.06938 3.91896 3.40205 4.39949 3.40205C4.65824 3.40205 4.88002 3.29115 5.06484 3.1433L5.2127 3.36507C4.99092 3.58686 4.6952 3.69776 4.36252 3.69776C3.73413 3.69776 3.2536 3.25419 3.2536 2.58884C3.2536 1.92349 3.69717 1.44294 4.32556 1.44294ZM3.62324 2.40402H5.02788C5.02788 2.07134 4.80609 1.70169 4.32556 1.70169C3.84502 1.70169 3.62324 2.10831 3.62324 2.40402ZM6.83912 1.44294C7.24572 1.44294 7.46751 1.5908 7.61536 1.81258L7.39358 2.03438C7.24572 1.84956 7.0609 1.73867 6.83912 1.73867C6.39555 1.73867 6.09984 2.07133 6.09984 2.55186C6.09984 3.03239 6.39555 3.36507 6.83912 3.36507C7.0609 3.36507 7.24572 3.29115 7.39358 3.06937L7.61536 3.29114C7.46751 3.51293 7.20876 3.66078 6.83912 3.66078C6.21073 3.66078 5.76716 3.18025 5.76716 2.55186C5.76716 1.92347 6.21073 1.44294 6.83912 1.44294ZM9.68534 1.14723L9.20481 1.66474L8.98303 1.44294L9.72231 0.666704H10.055V3.62383H9.68534V1.14723ZM22.9924 0.703659H23.9904C24.9145 0.703659 25.506 1.33205 25.506 2.18222C25.506 3.03239 24.9145 3.66078 23.9904 3.66078H22.9924V0.703659ZM23.9904 3.32812C24.6927 3.32812 25.1363 2.81061 25.1363 2.18222C25.1363 1.55383 24.7297 1.03634 23.9904 1.03634H23.362V3.32812H23.9904ZM26.9845 1.47992C27.6499 1.47992 28.0195 1.9974 28.0195 2.62579V2.69973H26.2822C26.3192 3.10633 26.5779 3.43901 27.0584 3.43901C27.3172 3.43901 27.539 3.32811 27.7238 3.18025L27.8716 3.40205C27.6499 3.62384 27.3542 3.73471 27.0215 3.73471C26.3931 3.73471 25.9126 3.29115 25.9126 2.62579C25.9495 1.96044 26.3931 1.47992 26.9845 1.47992ZM26.2822 2.44097H27.6868C27.6868 2.1083 27.465 1.73867 26.9845 1.73867C26.5409 1.73867 26.3192 2.14526 26.2822 2.44097ZM29.4981 1.47992C29.9047 1.47992 30.1265 1.62777 30.2743 1.84956L30.0525 2.07133C29.9047 1.88651 29.7198 1.77563 29.4981 1.77563C29.0545 1.77563 28.7588 2.10831 28.7588 2.58884C28.7588 3.06937 29.0545 3.40205 29.4981 3.40205C29.7198 3.40205 29.9047 3.32811 30.0525 3.10632L30.2743 3.32812C30.1265 3.5499 29.8677 3.69776 29.4981 3.69776C28.8697 3.69776 28.4261 3.21723 28.4261 2.58884C28.4261 1.96045 28.8697 1.47992 29.4981 1.47992ZM31.9377 2.99543C32.1225 3.21722 32.4182 3.40205 32.7509 3.40205C33.1945 3.40205 33.4532 3.18027 33.4532 2.84759C33.4532 2.47795 33.1575 2.33009 32.7139 2.33009C32.603 2.33009 32.4552 2.33009 32.4182 2.33009V1.9974C32.4552 1.9974 32.603 1.9974 32.7139 1.9974C33.0836 1.9974 33.4163 1.84955 33.4163 1.51687C33.4163 1.1842 33.1205 0.99939 32.7509 0.99939C32.4182 0.99939 32.1964 1.11028 31.9747 1.36903L31.7529 1.14723C31.9747 0.888484 32.3073 0.703659 32.7509 0.703659C33.3054 0.703659 33.7489 0.999385 33.7489 1.47992C33.7489 1.92349 33.3793 2.10829 33.1205 2.18222C33.3793 2.21918 33.7859 2.44097 33.7859 2.9215C33.7859 3.40203 33.3793 3.77169 32.7509 3.77169C32.2334 3.77169 31.8638 3.54989 31.7159 3.29114L31.9377 2.99543ZM46.6124 0.703659H47.6104C48.5345 0.703659 49.126 1.33205 49.126 2.18222C49.126 3.03239 48.5345 3.66078 47.6104 3.66078H46.6124V0.703659ZM47.6474 3.32812C48.3497 3.32812 48.7933 2.81061 48.7933 2.18222C48.7933 1.55383 48.3867 1.03634 47.6474 1.03634H47.019V3.32812H47.6474ZM50.6415 1.47992C51.3068 1.47992 51.6765 1.9974 51.6765 2.62579V2.69973H49.9392C49.9761 3.10633 50.2349 3.43901 50.7154 3.43901C50.9742 3.43901 51.196 3.32811 51.3808 3.18025L51.5286 3.40205C51.3068 3.62384 51.0111 3.73471 50.6785 3.73471C50.0501 3.73471 49.5695 3.29115 49.5695 2.62579C49.6065 1.96044 50.0501 1.47992 50.6415 1.47992ZM49.9392 2.44097H51.3438C51.3438 2.1083 51.122 1.73867 50.6415 1.73867C50.1979 1.73867 49.9761 2.14526 49.9392 2.44097ZM53.155 1.47992C53.5616 1.47992 53.7834 1.62777 53.9313 1.84956L53.7095 2.07133C53.5616 1.88651 53.3768 1.77563 53.155 1.77563C52.7115 1.77563 52.4158 2.10831 52.4158 2.58884C52.4158 3.06937 52.7115 3.40205 53.155 3.40205C53.3768 3.40205 53.5616 3.32811 53.7095 3.10632L53.9313 3.32812C53.7834 3.5499 53.5247 3.69776 53.155 3.69776C52.5267 3.69776 52.0831 3.21723 52.0831 2.58884C52.0831 1.96045 52.5267 1.47992 53.155 1.47992ZM55.7425 2.99543C55.9273 3.25418 56.1861 3.40205 56.5557 3.40205C56.9623 3.40205 57.2211 3.1433 57.2211 2.77366C57.2211 2.36705 56.9254 2.14527 56.5557 2.14527C56.297 2.14527 56.0752 2.21919 55.8904 2.44097L55.6316 2.33009V0.703659H57.4429V1.03634H56.0013V2.07133C56.1491 1.92348 56.4079 1.81258 56.7036 1.81258C57.1841 1.81258 57.6277 2.14527 57.6277 2.77366C57.6277 3.36508 57.1841 3.73471 56.5927 3.73471C56.0752 3.73471 55.7795 3.5499 55.5577 3.25419L55.7425 2.99543ZM70.4172 0.703659H71.4153C72.3394 0.703659 72.9308 1.33205 72.9308 2.18222C72.9308 3.03239 72.3394 3.66078 71.4153 3.66078H70.4172V0.703659ZM71.4153 3.32812C72.1176 3.32812 72.5612 2.81061 72.5612 2.18222C72.5612 1.55383 72.1545 1.03634 71.4153 1.03634H70.7869V3.32812H71.4153ZM74.4463 1.47992C75.1117 1.47992 75.4813 1.9974 75.4813 2.62579V2.69973H73.744C73.781 3.10633 74.0397 3.43901 74.5203 3.43901C74.779 3.43901 75.0008 3.32811 75.1856 3.18025L75.3335 3.40205C75.1117 3.62384 74.816 3.73471 74.4833 3.73471C73.8549 3.73471 73.3744 3.29115 73.3744 2.62579C73.3744 1.96044 73.8179 1.47992 74.4463 1.47992ZM73.744 2.44097H75.1486C75.1486 2.1083 74.9269 1.73867 74.4463 1.73867C73.9658 1.73867 73.744 2.14526 73.744 2.44097ZM76.9599 1.47992C77.3665 1.47992 77.5883 1.62777 77.7361 1.84956L77.5143 2.07133C77.3665 1.88651 77.1817 1.77563 76.9599 1.77563C76.5163 1.77563 76.2206 2.10831 76.2206 2.58884C76.2206 3.06937 76.5163 3.40205 76.9599 3.40205C77.1817 3.40205 77.3665 3.32811 77.5143 3.10632L77.7361 3.32812C77.5883 3.5499 77.3295 3.69776 76.9599 3.69776C76.3315 3.69776 75.8879 3.21723 75.8879 2.58884C75.8879 1.96045 76.2945 1.47992 76.9599 1.47992ZM80.7302 1.03634H79.1408V0.703659H81.1738V0.962412L79.954 3.66078H79.5474L80.7302 1.03634ZM93.8894 0.703659H94.8874C95.8115 0.703659 96.403 1.33205 96.403 2.18222C96.403 3.03239 95.8115 3.66078 94.8874 3.66078H93.8894V0.703659ZM94.8874 3.32812C95.5897 3.32812 96.0333 2.81061 96.0333 2.18222C96.0333 1.55383 95.6267 1.03634 94.8874 1.03634H94.259V3.32812H94.8874ZM97.9185 1.47992C98.5838 1.47992 98.9535 1.9974 98.9535 2.62579V2.69973H97.1792C97.2162 3.10633 97.4749 3.43901 97.9554 3.43901C98.2142 3.43901 98.436 3.32811 98.6208 3.18025L98.7686 3.40205C98.5469 3.62384 98.2512 3.73471 97.9185 3.73471C97.2901 3.73471 96.8096 3.29115 96.8096 2.62579C96.8465 1.96044 97.2901 1.47992 97.9185 1.47992ZM97.1792 2.44097H98.5838C98.5838 2.1083 98.3621 1.73867 97.8815 1.73867C97.438 1.73867 97.2162 2.14526 97.1792 2.44097ZM100.395 1.47992C100.802 1.47992 101.023 1.62777 101.171 1.84956L100.95 2.07133C100.802 1.88651 100.617 1.77563 100.395 1.77563C99.9515 1.77563 99.6558 2.10831 99.6558 2.58884C99.6558 3.06937 99.9515 3.40205 100.395 3.40205C100.617 3.40205 100.802 3.32811 100.95 3.10632L101.171 3.32812C101.023 3.5499 100.765 3.69776 100.395 3.69776C99.7667 3.69776 99.3231 3.21723 99.3231 2.58884C99.3601 1.96045 99.7667 1.47992 100.395 1.47992ZM103.02 3.06937C103.167 3.25419 103.352 3.36507 103.648 3.36507C104.239 3.36507 104.498 2.77366 104.498 2.2192C104.498 2.18223 104.498 2.14527 104.498 2.10831C104.387 2.33009 104.055 2.55186 103.648 2.55186C103.13 2.55186 102.687 2.21919 102.687 1.5908C102.687 1.07331 103.093 0.629749 103.722 0.629749C104.535 0.629749 104.868 1.36902 104.868 2.14527C104.868 2.95847 104.498 3.66078 103.648 3.66078C103.278 3.66078 103.02 3.51293 102.835 3.29114L103.02 3.06937ZM103.759 0.99939C103.315 0.99939 103.093 1.33205 103.093 1.62776C103.093 2.07133 103.389 2.25615 103.759 2.25615C104.055 2.25615 104.35 2.07133 104.498 1.81258C104.461 1.44294 104.239 0.99939 103.759 0.99939ZM117.657 0.703659H118.655C119.579 0.703659 120.171 1.33205 120.171 2.18222C120.171 3.03239 119.579 3.66078 118.655 3.66078H117.657V0.703659ZM118.692 3.29114C119.395 3.29114 119.838 2.77365 119.838 2.14527C119.838 1.51688 119.432 0.99939 118.692 0.99939H118.064V3.29114H118.692ZM121.686 1.44294C122.352 1.44294 122.721 1.96045 122.721 2.58884V2.66277H120.984C121.021 3.06938 121.28 3.40205 121.76 3.40205C122.019 3.40205 122.241 3.29115 122.426 3.1433L122.573 3.36507C122.352 3.58686 122.056 3.69776 121.723 3.69776C121.095 3.69776 120.614 3.25419 120.614 2.58884C120.651 1.92349 121.095 1.44294 121.686 1.44294ZM120.984 2.40402H122.389C122.389 2.07134 122.167 1.70169 121.686 1.70169C121.243 1.70169 121.021 2.10831 120.984 2.40402ZM124.2 1.44294C124.607 1.44294 124.828 1.5908 124.976 1.81258L124.754 2.03438C124.607 1.84956 124.422 1.73867 124.2 1.73867C123.756 1.73867 123.461 2.07133 123.461 2.55186C123.461 3.03239 123.756 3.36507 124.2 3.36507C124.422 3.36507 124.607 3.29115 124.754 3.06937L124.976 3.29114C124.828 3.51293 124.57 3.66078 124.2 3.66078C123.572 3.66078 123.128 3.18025 123.128 2.55186C123.128 1.92347 123.572 1.44294 124.2 1.44294ZM127.046 1.14723L126.566 1.66474L126.344 1.44294L127.083 0.666704H127.416V3.62383H127.046V1.14723ZM128.562 1.14723L128.081 1.66474L127.859 1.44294L128.599 0.666704H128.931V3.62383H128.562V1.14723ZM141.869 0.666704H142.867C143.791 0.666704 144.382 1.29509 144.382 2.14527C144.382 2.99544 143.791 3.62383 142.867 3.62383H141.869V0.666704ZM142.867 3.29114C143.569 3.29114 144.013 2.77365 144.013 2.14527C144.013 1.51688 143.606 0.99939 142.867 0.99939H142.238V3.29114H142.867ZM145.898 1.44294C146.563 1.44294 146.933 1.96045 146.933 2.58884V2.66277H145.195C145.232 3.06938 145.491 3.40205 145.972 3.40205C146.23 3.40205 146.452 3.29115 146.637 3.1433L146.785 3.36507C146.563 3.58686 146.267 3.69776 145.935 3.69776C145.306 3.69776 144.826 3.25419 144.826 2.58884C144.826 1.92349 145.269 1.44294 145.898 1.44294ZM145.159 2.40402H146.563C146.563 2.07134 146.341 1.70169 145.861 1.70169C145.417 1.70169 145.195 2.10831 145.159 2.40402ZM148.374 1.44294C148.781 1.44294 149.003 1.5908 149.151 1.81258L148.929 2.03438C148.781 1.84956 148.596 1.73867 148.374 1.73867C147.931 1.73867 147.635 2.07133 147.635 2.55186C147.635 3.03239 147.931 3.36507 148.374 3.36507C148.596 3.36507 148.781 3.29115 148.929 3.06937L149.151 3.29114C149.003 3.51293 148.744 3.66078 148.374 3.66078C147.746 3.66078 147.302 3.18025 147.302 2.55186C147.339 1.92347 147.746 1.44294 148.374 1.44294ZM151.258 1.14723L150.777 1.66474L150.555 1.44294L151.295 0.666704H151.627V3.62383H151.258V1.14723ZM152.293 2.95848C152.477 3.18026 152.773 3.36507 153.106 3.36507C153.549 3.36507 153.808 3.14329 153.808 2.81061C153.808 2.44097 153.512 2.29313 153.069 2.29313C152.958 2.29313 152.81 2.29313 152.773 2.29313V1.96045C152.81 1.96045 152.958 1.96045 153.069 1.96045C153.438 1.96045 153.771 1.81259 153.771 1.47992C153.771 1.14724 153.475 0.962412 153.106 0.962412C152.773 0.962412 152.551 1.0733 152.33 1.33205L152.108 1.11028C152.33 0.851529 152.662 0.666704 153.106 0.666704C153.66 0.666704 154.104 0.962407 154.104 1.44294C154.104 1.88651 153.734 2.07134 153.475 2.14527C153.734 2.18223 154.141 2.40401 154.141 2.88455C154.141 3.36508 153.734 3.73471 153.106 3.73471C152.588 3.73471 152.219 3.51293 152.071 3.25419L152.293 2.95848ZM167.004 0.666704H168.002C168.926 0.666704 169.518 1.29509 169.518 2.14527C169.518 2.99544 168.926 3.62383 168.002 3.62383H167.004V0.666704ZM168.002 3.29114C168.705 3.29114 169.148 2.77365 169.148 2.14527C169.148 1.51688 168.742 0.99939 168.002 0.99939H167.374V3.29114H168.002ZM171.033 1.44294C171.699 1.44294 172.068 1.96045 172.068 2.58884V2.66277H170.331C170.368 3.06938 170.627 3.40205 171.107 3.40205C171.366 3.40205 171.588 3.29115 171.773 3.1433L171.92 3.36507C171.699 3.58686 171.403 3.69776 171.07 3.69776C170.442 3.69776 169.961 3.25419 169.961 2.58884C169.961 1.92349 170.405 1.44294 171.033 1.44294ZM170.331 2.40402H171.736C171.736 2.07134 171.514 1.70169 171.033 1.70169C170.553 1.70169 170.331 2.10831 170.331 2.40402ZM173.547 1.44294C173.953 1.44294 174.175 1.5908 174.323 1.81258L174.101 2.03438C173.953 1.84956 173.769 1.73867 173.547 1.73867C173.103 1.73867 172.808 2.07133 172.808 2.55186C172.808 3.03239 173.103 3.36507 173.547 3.36507C173.769 3.36507 173.953 3.29115 174.101 3.06937L174.323 3.29114C174.175 3.51293 173.917 3.66078 173.547 3.66078C172.918 3.66078 172.475 3.18025 172.475 2.55186C172.475 1.92347 172.918 1.44294 173.547 1.44294ZM176.393 1.14723L175.913 1.66474L175.691 1.44294L176.43 0.666704H176.763V3.62383H176.393V1.14723ZM177.613 2.95848C177.798 3.21723 178.056 3.36507 178.426 3.36507C178.833 3.36507 179.091 3.10632 179.091 2.73668C179.091 2.33008 178.796 2.10831 178.426 2.10831C178.167 2.10831 177.946 2.18223 177.761 2.40402L177.502 2.29313V0.666704H179.313V0.99939H177.872V2.03438C178.02 1.88652 178.278 1.77563 178.574 1.77563C179.055 1.77563 179.498 2.10829 179.498 2.73668C179.498 3.32811 179.055 3.69776 178.463 3.69776C177.946 3.69776 177.65 3.51294 177.428 3.21723L177.613 2.95848ZM192.288 0.666704H193.286C194.21 0.666704 194.801 1.29509 194.801 2.14527C194.801 2.99544 194.21 3.62383 193.286 3.62383H192.288V0.666704ZM193.323 3.29114C194.025 3.29114 194.469 2.77365 194.469 2.14527C194.469 1.51688 194.062 0.99939 193.323 0.99939H192.694V3.29114H193.323ZM196.317 1.44294C196.982 1.44294 197.352 1.96045 197.352 2.58884V2.66277H195.614C195.651 3.06938 195.91 3.40205 196.391 3.40205C196.649 3.40205 196.871 3.29115 197.056 3.1433L197.204 3.36507C196.982 3.58686 196.686 3.69776 196.354 3.69776C195.725 3.69776 195.245 3.25419 195.245 2.58884C195.282 1.92349 195.725 1.44294 196.317 1.44294ZM195.614 2.40402H197.019C197.019 2.07134 196.797 1.70169 196.317 1.70169C195.873 1.70169 195.651 2.10831 195.614 2.40402ZM198.83 1.44294C199.237 1.44294 199.459 1.5908 199.607 1.81258L199.385 2.03438C199.237 1.84956 199.052 1.73867 198.83 1.73867C198.387 1.73867 198.091 2.07133 198.091 2.55186C198.091 3.03239 198.387 3.36507 198.83 3.36507C199.052 3.36507 199.237 3.29115 199.385 3.06937L199.607 3.29114C199.459 3.51293 199.2 3.66078 198.83 3.66078C198.202 3.66078 197.758 3.18025 197.758 2.55186C197.758 1.92347 198.202 1.44294 198.83 1.44294ZM201.677 1.14723L201.196 1.66474L200.974 1.44294L201.713 0.666704H202.046V3.62383H201.677V1.14723ZM204.116 0.99939H202.527V0.666704H204.56V0.925457L203.34 3.62383H202.933L204.116 0.99939ZM217.275 0.666704H218.273C219.197 0.666704 219.789 1.29509 219.789 2.14527C219.789 2.99544 219.197 3.62383 218.273 3.62383H217.275V0.666704ZM218.273 3.29114C218.976 3.29114 219.419 2.77365 219.419 2.14527C219.419 1.51688 219.013 0.99939 218.273 0.99939H217.645V3.29114H218.273ZM221.304 1.44294C221.97 1.44294 222.339 1.96045 222.339 2.58884V2.66277H220.602C220.639 3.06938 220.898 3.40205 221.378 3.40205C221.637 3.40205 221.859 3.29115 222.044 3.1433L222.192 3.36507C221.97 3.58686 221.674 3.69776 221.341 3.69776C220.713 3.69776 220.232 3.25419 220.232 2.58884C220.232 1.92349 220.676 1.44294 221.304 1.44294ZM220.602 2.40402H222.007C222.007 2.07134 221.785 1.70169 221.304 1.70169C220.824 1.70169 220.602 2.10831 220.602 2.40402ZM223.818 1.44294C224.225 1.44294 224.446 1.5908 224.594 1.81258L224.372 2.03438C224.225 1.84956 224.04 1.73867 223.818 1.73867C223.374 1.73867 223.079 2.07133 223.079 2.55186C223.079 3.03239 223.374 3.36507 223.818 3.36507C224.04 3.36507 224.225 3.29115 224.372 3.06937L224.594 3.29114C224.446 3.51293 224.188 3.66078 223.818 3.66078C223.19 3.66078 222.746 3.18025 222.746 2.55186C222.746 1.92347 223.153 1.44294 223.818 1.44294ZM226.664 1.14723L226.184 1.66474L225.962 1.44294L226.701 0.666704H227.034V3.62383H226.664V1.14723ZM227.921 3.03241C228.069 3.21723 228.254 3.32812 228.549 3.32812C229.141 3.32812 229.4 2.73668 229.4 2.18222C229.4 2.14526 229.4 2.1083 229.4 2.07133C229.289 2.29312 228.956 2.51491 228.549 2.51491C228.032 2.51491 227.588 2.18224 227.588 1.55385C227.588 1.03635 227.995 0.592772 228.623 0.592772C229.436 0.592772 229.769 1.33207 229.769 2.10831C229.769 2.92152 229.4 3.62383 228.586 3.62383C228.217 3.62383 227.958 3.47597 227.773 3.25419L227.921 3.03241ZM228.623 0.962412C228.18 0.962412 227.958 1.29509 227.958 1.5908C227.958 2.03437 228.254 2.2192 228.623 2.2192C228.919 2.2192 229.215 2.03437 229.363 1.77563C229.363 1.40598 229.141 0.962412 228.623 0.962412ZM242.559 0.666704H243.557C244.481 0.666704 245.072 1.29509 245.072 2.14527C245.072 2.99544 244.481 3.62383 243.557 3.62383H242.559V0.666704ZM243.594 3.29114C244.296 3.29114 244.74 2.77365 244.74 2.14527C244.74 1.51688 244.333 0.99939 243.594 0.99939H242.965V3.29114H243.594ZM246.588 1.44294C247.253 1.44294 247.623 1.96045 247.623 2.58884V2.66277H245.885C245.922 3.06938 246.181 3.40205 246.662 3.40205C246.92 3.40205 247.142 3.29115 247.327 3.1433L247.475 3.36507C247.253 3.58686 246.957 3.69776 246.625 3.69776C245.996 3.69776 245.516 3.25419 245.516 2.58884C245.553 1.92349 245.996 1.44294 246.588 1.44294ZM245.885 2.40402H247.29C247.29 2.07134 247.068 1.70169 246.588 1.70169C246.144 1.70169 245.922 2.10831 245.885 2.40402ZM249.101 1.44294C249.508 1.44294 249.73 1.5908 249.878 1.81258L249.656 2.03438C249.508 1.84956 249.323 1.73867 249.101 1.73867C248.658 1.73867 248.362 2.07133 248.362 2.55186C248.362 3.03239 248.658 3.36507 249.101 3.36507C249.323 3.36507 249.508 3.29115 249.656 3.06937L249.878 3.29114C249.73 3.51293 249.471 3.66078 249.101 3.66078C248.473 3.66078 248.029 3.18025 248.029 2.55186C248.029 1.92347 248.473 1.44294 249.101 1.44294ZM251.393 3.32812C252.465 2.47795 253.02 1.99741 253.02 1.47992C253.02 1.11028 252.724 0.925457 252.391 0.925457C252.022 0.925457 251.763 1.07331 251.578 1.2951L251.356 1.0733C251.578 0.777587 251.985 0.592772 252.391 0.592772C252.872 0.592772 253.389 0.888493 253.389 1.47992C253.389 2.07134 252.761 2.62579 251.948 3.29114H253.389V3.62383H251.356L251.393 3.32812ZM254.572 1.14723L254.091 1.66474L253.87 1.44294L254.609 0.666704H254.942V3.62383H254.572V1.14723ZM267.842 0.666704H268.84C269.764 0.666704 270.356 1.29509 270.356 2.14527C270.356 2.99544 269.764 3.62383 268.84 3.62383H267.842V0.666704ZM268.877 3.29114C269.579 3.29114 270.023 2.77365 270.023 2.14527C270.023 1.51688 269.616 0.99939 268.877 0.99939H268.249V3.29114H268.877ZM271.871 1.44294C272.537 1.44294 272.906 1.96045 272.906 2.58884V2.66277H271.169C271.206 3.06938 271.465 3.40205 271.945 3.40205C272.204 3.40205 272.426 3.29115 272.61 3.1433L272.758 3.36507C272.537 3.58686 272.241 3.69776 271.908 3.69776C271.28 3.69776 270.799 3.25419 270.799 2.58884C270.836 1.92349 271.28 1.44294 271.871 1.44294ZM271.169 2.40402H272.574C272.574 2.07134 272.352 1.70169 271.871 1.70169C271.428 1.70169 271.206 2.10831 271.169 2.40402ZM274.385 1.40598C274.791 1.40598 275.013 1.55384 275.161 1.77563L274.939 1.9974C274.791 1.81258 274.607 1.70169 274.385 1.70169C273.941 1.70169 273.645 2.03437 273.645 2.51491C273.645 2.99544 273.941 3.32812 274.385 3.32812C274.607 3.32812 274.791 3.2542 274.939 3.03241L275.161 3.25419C275.013 3.47597 274.754 3.62383 274.385 3.62383C273.756 3.62383 273.313 3.14329 273.313 2.51491C273.313 1.88652 273.756 1.40598 274.385 1.40598ZM276.677 3.29114C277.748 2.44097 278.303 1.96044 278.303 1.44294C278.303 1.0733 278.007 0.888479 277.675 0.888479C277.305 0.888479 277.046 1.03634 276.861 1.25812L276.64 1.03634C276.861 0.740632 277.268 0.555817 277.675 0.555817C278.155 0.555817 278.673 0.851515 278.673 1.44294C278.673 2.03436 278.044 2.58883 277.231 3.25419H278.673V3.58687H276.64L276.677 3.29114ZM279.412 2.9215C279.597 3.14329 279.892 3.32812 280.225 3.32812C280.669 3.32812 280.927 3.10633 280.927 2.77366C280.927 2.40402 280.632 2.25615 280.188 2.25615C280.077 2.25615 279.929 2.25615 279.892 2.25615V1.92349C279.929 1.92349 280.077 1.92349 280.188 1.92349C280.558 1.92349 280.89 1.77562 280.89 1.44294C280.89 1.11026 280.595 0.925457 280.225 0.925457C279.892 0.925457 279.671 1.03635 279.449 1.2951L279.227 1.0733C279.449 0.814551 279.781 0.629749 280.225 0.629749C280.78 0.629749 281.223 0.925452 281.223 1.40598C281.223 1.84955 280.853 2.03438 280.595 2.10831C280.853 2.14527 281.26 2.36706 281.26 2.84759C281.26 3.32812 280.853 3.69776 280.225 3.69776C279.708 3.69776 279.338 3.47598 279.19 3.21723L279.412 2.9215ZM294.124 0.629749H295.122C296.046 0.629749 296.637 1.25814 296.637 2.10831C296.637 2.95848 296.046 3.58687 295.122 3.58687H294.124V0.629749ZM295.122 3.25419C295.824 3.25419 296.267 2.7367 296.267 2.10831C296.267 1.47992 295.861 0.962412 295.122 0.962412H294.493V3.25419H295.122ZM298.116 1.40598C298.781 1.40598 299.151 1.92347 299.151 2.55186V2.62579H297.413C297.45 3.0324 297.709 3.36507 298.19 3.36507C298.448 3.36507 298.67 3.25418 298.855 3.10632L299.003 3.32812C298.781 3.5499 298.485 3.66078 298.153 3.66078C297.524 3.66078 297.044 3.21721 297.044 2.55186C297.081 1.88651 297.524 1.40598 298.116 1.40598ZM297.413 2.36704H298.818C298.818 2.03436 298.596 1.66474 298.116 1.66474C297.672 1.66474 297.45 2.07133 297.413 2.36704ZM300.629 1.40598C301.036 1.40598 301.258 1.55384 301.405 1.77563L301.184 1.9974C301.036 1.81258 300.851 1.70169 300.629 1.70169C300.186 1.70169 299.89 2.03437 299.89 2.51491C299.89 2.99544 300.186 3.32812 300.629 3.32812C300.851 3.32812 301.036 3.2542 301.184 3.03241L301.405 3.25419C301.258 3.47597 300.999 3.62383 300.629 3.62383C300.001 3.62383 299.557 3.14329 299.557 2.51491C299.594 1.88652 300.001 1.40598 300.629 1.40598ZM302.958 3.29114C304.03 2.44097 304.584 1.96044 304.584 1.44294C304.584 1.0733 304.289 0.888479 303.956 0.888479C303.586 0.888479 303.328 1.03634 303.143 1.25812L302.921 1.03634C303.143 0.740632 303.549 0.555817 303.956 0.555817C304.437 0.555817 304.954 0.851515 304.954 1.44294C304.954 2.03436 304.326 2.58883 303.512 3.25419H304.954V3.58687H302.921L302.958 3.29114ZM305.841 2.9215C306.026 3.18025 306.285 3.32812 306.654 3.32812C307.061 3.32812 307.32 3.06937 307.32 2.69973C307.32 2.29312 307.024 2.07133 306.654 2.07133C306.396 2.07133 306.174 2.14526 305.989 2.36704L305.73 2.25615V0.629749H307.541V0.962412H306.1V1.9974C306.248 1.84954 306.506 1.73867 306.802 1.73867C307.283 1.73867 307.726 2.07134 307.726 2.69973C307.726 3.29115 307.283 3.66078 306.691 3.66078C306.174 3.66078 305.878 3.47597 305.656 3.18025L305.841 2.9215ZM320.516 0.629749H321.514C322.438 0.629749 323.029 1.25814 323.029 2.10831C323.029 2.95848 322.438 3.58687 321.514 3.58687H320.516V0.629749ZM321.514 3.25419C322.216 3.25419 322.66 2.7367 322.66 2.10831C322.66 1.47992 322.253 0.962412 321.514 0.962412H320.885V3.25419H321.514ZM324.545 1.40598C325.21 1.40598 325.58 1.92347 325.58 2.55186V2.62579H323.843C323.88 3.0324 324.138 3.36507 324.619 3.36507C324.878 3.36507 325.099 3.25418 325.284 3.10632L325.432 3.32812C325.21 3.5499 324.915 3.66078 324.582 3.66078C323.953 3.66078 323.473 3.21721 323.473 2.55186C323.473 1.88651 323.917 1.40598 324.545 1.40598ZM323.843 2.36704H325.247C325.247 2.03436 325.025 1.66474 324.545 1.66474C324.064 1.66474 323.843 2.07133 323.843 2.36704ZM327.058 1.40598C327.465 1.40598 327.687 1.55384 327.835 1.77563L327.613 1.9974C327.465 1.81258 327.28 1.70169 327.058 1.70169C326.615 1.70169 326.319 2.03437 326.319 2.51491C326.319 2.99544 326.615 3.32812 327.058 3.32812C327.28 3.32812 327.465 3.2542 327.613 3.03241L327.835 3.25419C327.687 3.47597 327.428 3.62383 327.058 3.62383C326.43 3.62383 325.987 3.14329 325.987 2.51491C325.987 1.88652 326.393 1.40598 327.058 1.40598ZM329.35 3.29114C330.422 2.44097 330.977 1.96044 330.977 1.44294C330.977 1.0733 330.681 0.888479 330.348 0.888479C329.979 0.888479 329.72 1.03634 329.535 1.25812L329.313 1.03634C329.535 0.740632 329.942 0.555817 330.348 0.555817C330.829 0.555817 331.346 0.851515 331.346 1.44294C331.346 2.03436 330.718 2.58883 329.905 3.25419H331.346V3.58687H329.313L329.35 3.29114ZM333.453 0.962412H331.864V0.629749H333.897V0.888479L332.677 3.58687H332.27L333.453 0.962412ZM346.575 0.629749H347.574C348.498 0.629749 349.089 1.25814 349.089 2.10831C349.089 2.95848 348.498 3.58687 347.574 3.58687H346.575V0.629749ZM347.574 3.25419C348.276 3.25419 348.719 2.7367 348.719 2.10831C348.719 1.47992 348.313 0.962412 347.574 0.962412H346.945V3.25419H347.574ZM350.605 1.40598C351.27 1.40598 351.64 1.92347 351.64 2.55186V2.62579H349.902C349.939 3.0324 350.198 3.36507 350.679 3.36507C350.937 3.36507 351.159 3.25418 351.344 3.10632L351.492 3.32812C351.27 3.5499 350.974 3.66078 350.642 3.66078C350.013 3.66078 349.533 3.21721 349.533 2.55186C349.533 1.88651 349.976 1.40598 350.605 1.40598ZM349.902 2.36704H351.307C351.307 2.03436 351.085 1.66474 350.605 1.66474C350.124 1.66474 349.902 2.07133 349.902 2.36704ZM353.118 1.40598C353.525 1.40598 353.747 1.55384 353.894 1.77563L353.673 1.9974C353.525 1.81258 353.34 1.70169 353.118 1.70169C352.675 1.70169 352.379 2.03437 352.379 2.51491C352.379 2.99544 352.675 3.32812 353.118 3.32812C353.34 3.32812 353.525 3.2542 353.673 3.03241L353.894 3.25419C353.747 3.47597 353.488 3.62383 353.118 3.62383C352.49 3.62383 352.046 3.14329 352.046 2.51491C352.046 1.88652 352.49 1.40598 353.118 1.40598ZM355.41 3.29114C356.482 2.44097 357.036 1.96044 357.036 1.44294C357.036 1.0733 356.741 0.888479 356.408 0.888479C356.038 0.888479 355.78 1.03634 355.595 1.25812L355.373 1.03634C355.595 0.740632 356.001 0.555817 356.408 0.555817C356.888 0.555817 357.406 0.851515 357.406 1.44294C357.406 2.03436 356.778 2.58883 355.964 3.25419H357.406V3.58687H355.373L355.41 3.29114ZM358.33 2.99543C358.478 3.18025 358.663 3.29114 358.958 3.29114C359.55 3.29114 359.809 2.69973 359.809 2.14527C359.809 2.1083 359.809 2.07134 359.809 2.03438C359.698 2.25616 359.365 2.47795 358.958 2.47795C358.441 2.47795 357.997 2.14526 357.997 1.51687C357.997 0.999376 358.404 0.555817 359.032 0.555817C359.846 0.555817 360.178 1.29509 360.178 2.07133C360.178 2.88454 359.809 3.58687 358.995 3.58687C358.626 3.58687 358.367 3.43902 358.182 3.21723L358.33 2.99543ZM359.069 0.925457C358.626 0.925457 358.404 1.25814 358.404 1.55385C358.404 1.99742 358.7 2.18222 359.069 2.18222C359.365 2.18222 359.661 1.99742 359.809 1.73867C359.772 1.36903 359.55 0.925457 359.069 0.925457ZM369.308 0.666704H370.306C371.231 0.666704 371.822 1.29509 371.822 2.14527C371.822 2.99544 371.231 3.62383 370.306 3.62383H369.308V0.666704ZM370.306 3.29114C371.009 3.29114 371.452 2.77365 371.452 2.14527C371.452 1.51688 371.046 0.99939 370.306 0.99939H369.678V3.29114H370.306ZM373.3 1.44294C373.966 1.44294 374.335 1.96045 374.335 2.58884V2.66277H372.598C372.635 3.06938 372.894 3.40205 373.374 3.40205C373.633 3.40205 373.855 3.29115 374.04 3.1433L374.188 3.36507C373.966 3.58686 373.67 3.69776 373.337 3.69776C372.709 3.69776 372.229 3.25419 372.229 2.58884C372.265 1.92349 372.709 1.44294 373.3 1.44294ZM372.598 2.40402H374.003C374.003 2.07134 373.781 1.70169 373.3 1.70169C372.857 1.70169 372.635 2.10831 372.598 2.40402ZM375.814 1.44294C376.221 1.44294 376.442 1.5908 376.59 1.81258L376.369 2.03438C376.221 1.84956 376.036 1.73867 375.814 1.73867C375.37 1.73867 375.075 2.07133 375.075 2.55186C375.075 3.03239 375.37 3.36507 375.814 3.36507C376.036 3.36507 376.221 3.29115 376.369 3.06937L376.59 3.29114C376.442 3.51293 376.184 3.66078 375.814 3.66078C375.186 3.66078 374.742 3.18025 374.742 2.55186C374.742 1.92347 375.186 1.44294 375.814 1.44294ZM378.217 2.95848C378.402 3.18026 378.697 3.36507 379.03 3.36507C379.473 3.36507 379.732 3.14329 379.732 2.81061C379.732 2.44097 379.437 2.29313 378.993 2.29313C378.882 2.29313 378.734 2.29313 378.697 2.29313V1.96045C378.734 1.96045 378.882 1.96045 378.993 1.96045C379.363 1.96045 379.695 1.81259 379.695 1.47992C379.695 1.14724 379.4 0.962412 379.03 0.962412C378.697 0.962412 378.475 1.0733 378.254 1.33205L378.032 1.11028C378.254 0.851529 378.586 0.666704 379.03 0.666704C379.584 0.666704 380.028 0.962407 380.028 1.44294C380.028 1.88651 379.658 2.07134 379.4 2.14527C379.658 2.18223 380.065 2.40401 380.065 2.88455C380.065 3.36508 379.658 3.73471 379.03 3.73471C378.512 3.73471 378.143 3.51293 377.995 3.25419L378.217 2.95848ZM381.137 1.14723L380.656 1.66474L380.435 1.44294L381.174 0.666704H381.506V3.62383H381.137V1.14723Z" fill="#93A1AA"/>
</svg>
