<svg width="136" height="136" viewBox="0 0 136 136" fill="none" xmlns="http://www.w3.org/2000/svg">
<g filter="url(#filter0_d_3_2455)">
<rect x="28" y="18" width="80" height="80" rx="40" fill="white" shape-rendering="crispEdges"/>
<g clip-path="url(#clip0_3_2455)">
<path d="M64.4818 76.3447C64.4818 76.3682 64.6042 76.3911 64.8491 76.4136C65.094 76.436 65.4439 76.4577 65.8987 76.4785V76.5088C64.2893 76.5114 63.0036 76.5213 62.0414 76.5386C61.0793 76.5558 60.5982 76.5765 60.5982 76.6006C60.5982 76.6312 61.158 76.6525 62.2776 76.6646C63.3972 76.6766 64.6042 76.6859 65.8987 76.6924V76.7842C64.9891 76.7816 64.1756 76.7762 63.4584 76.7681C62.7412 76.7599 62.1551 76.751 61.7003 76.7412L60.0734 76.7842C60.7382 76.7972 61.5516 76.8083 62.5137 76.8174C63.4759 76.8265 64.6042 76.832 65.8987 76.834V76.877H67.893V76.834C69.7823 76.8307 71.1556 76.8198 72.0127 76.8013C72.8699 76.7827 73.2985 76.7611 73.2985 76.7363C73.2985 76.7051 72.7212 76.6831 71.5667 76.6704C70.4121 76.6577 69.1875 76.6481 67.893 76.6416V76.5596C67.963 76.5602 68.0417 76.5607 68.1292 76.561C68.2166 76.5614 68.2954 76.5618 68.3653 76.5625C69.275 76.5846 70.3071 76.6051 71.4617 76.624C72.6163 76.6423 73.867 76.6579 75.2141 76.6709C76.5611 76.6839 78.0043 76.694 79.5437 76.7012C81.0481 76.7083 82.6051 76.7119 84.2145 76.7119C83.9696 76.7523 83.3398 76.79 82.3252 76.8252C81.3105 76.8604 80.016 76.891 78.4416 76.917C76.8672 76.943 75.0828 76.9632 73.0886 76.9775C71.0593 76.9925 68.9251 77 66.686 77C64.2369 77 61.9452 76.9915 59.811 76.9746C57.6418 76.957 55.7612 76.9334 54.1693 76.9038C52.5774 76.8742 51.3091 76.8392 50.3645 76.7988C49.4548 76.7591 49 76.7165 49 76.6709C49 76.6292 49.4024 76.5895 50.2071 76.5518C50.9768 76.5146 52.0614 76.4814 53.4608 76.4521C54.8603 76.4229 56.5047 76.3988 58.394 76.3799C60.2833 76.361 62.3126 76.3493 64.4818 76.3447ZM70.3071 76.7422C70.3071 76.7513 70.1234 76.7601 69.7561 76.7686C69.3887 76.777 68.7677 76.7822 67.893 76.7842V76.7021C68.5928 76.7061 69.17 76.7109 69.6249 76.7168C70.0797 76.7227 70.3071 76.7311 70.3071 76.7422ZM63.5896 76.5967C63.5896 76.5863 63.7995 76.5775 64.2194 76.5703C64.6392 76.5632 65.199 76.5589 65.8987 76.5576V76.6318C65.234 76.6279 64.6829 76.6234 64.2456 76.6182C63.8083 76.613 63.5896 76.6058 63.5896 76.5967ZM84.3719 76.6709C81.9228 76.6709 79.6312 76.6621 77.497 76.6445C75.3627 76.6276 73.4909 76.6042 71.8815 76.5742C70.2721 76.5443 69.0126 76.5094 68.1029 76.4697C67.1583 76.43 66.686 76.3874 66.686 76.3418C66.686 76.2962 67.1583 76.2536 68.1029 76.2139C69.0126 76.1735 70.2721 76.1385 71.8815 76.1089C73.4909 76.0793 75.3627 76.0557 77.497 76.0381C79.6312 76.0212 81.9228 76.0127 84.3719 76.0127C86.821 76.0127 89.1127 76.0212 91.2469 76.0381C93.4161 76.0557 95.2966 76.0793 96.8885 76.1089C98.4804 76.1385 99.7487 76.1735 100.693 76.2139C101.603 76.2536 102.058 76.2962 102.058 76.3418C102.058 76.3874 101.603 76.43 100.693 76.4697C99.7487 76.5094 98.4804 76.5443 96.8885 76.5742C95.2966 76.6042 93.4161 76.6276 91.2469 76.6445C89.1127 76.6621 86.821 76.6709 84.3719 76.6709ZM85.9463 76.5059V76.4482H92.1915V76.4141H85.9463V76.3691H92.1915V76.3359H87.1009L92.7688 76.1768H89.2001L84.3719 76.3174L79.4912 76.1768H75.9225L81.6429 76.3359H76.4998V76.3691H82.7975V76.4141H76.4998V76.4482H82.7975V76.5059H85.9463Z" fill="#12C48B"/>
</g>
</g>
<defs>
<filter id="filter0_d_3_2455" x="0" y="0" width="136" height="136" filterUnits="userSpaceOnUse" color-interpolation-filters="sRGB">
<feFlood flood-opacity="0" result="BackgroundImageFix"/>
<feColorMatrix in="SourceAlpha" type="matrix" values="0 0 0 0 0 0 0 0 0 0 0 0 0 0 0 0 0 0 127 0" result="hardAlpha"/>
<feOffset dy="10"/>
<feGaussianBlur stdDeviation="14"/>
<feComposite in2="hardAlpha" operator="out"/>
<feColorMatrix type="matrix" values="0 0 0 0 0.501961 0 0 0 0 0.541176 0 0 0 0 0.576471 0 0 0 0.2 0"/>
<feBlend mode="normal" in2="BackgroundImageFix" result="effect1_dropShadow_3_2455"/>
<feBlend mode="normal" in="SourceGraphic" in2="effect1_dropShadow_3_2455" result="shape"/>
</filter>
<clipPath id="clip0_3_2455">
<rect width="53.7401" height="1" fill="white" transform="matrix(1 0 0 -1 49 77)"/>
</clipPath>
</defs>
</svg>
