<svg width="137" height="136" viewBox="0 0 137 136" fill="none" xmlns="http://www.w3.org/2000/svg">
<g filter="url(#filter0_d_3_2449)">
<rect x="28.97" y="18" width="80" height="80" rx="40" fill="white" shape-rendering="crispEdges"/>
<g clip-path="url(#clip0_3_2449)">
<path d="M101.727 76.9316C101.693 76.9316 101.605 76.9263 101.465 76.9155C101.325 76.9048 101.098 76.8893 100.783 76.8691C100.433 76.8464 99.8382 76.8263 98.9985 76.8091C98.1588 76.7918 97.1267 76.7793 95.9021 76.7715L86.6656 76.7129C85.441 76.7031 84.5139 76.6833 83.8841 76.6533C83.2543 76.6234 82.9045 76.6019 82.8345 76.5889C83.5342 76.5778 84.0853 76.5638 84.4876 76.5469C84.89 76.5299 85.0911 76.5104 85.0911 76.4883C85.0911 76.4766 85.1961 76.4688 85.406 76.4648C85.6159 76.4609 85.6859 76.459 85.6159 76.459C85.7909 76.459 85.9483 76.4582 86.0883 76.4565C86.2282 76.4549 86.2982 76.4531 86.2982 76.4512C86.2982 76.4499 86.4731 76.4388 86.823 76.418C87.1729 76.3971 87.3478 76.3786 87.3478 76.3623C87.3478 76.3623 87.3478 76.3617 87.3478 76.3604C87.3478 76.359 87.3478 76.3584 87.3478 76.3584C87.2778 76.3538 87.1554 76.3486 86.9804 76.3428C86.8055 76.3369 86.5781 76.3324 86.2982 76.3291V76.2188C86.2982 76.1862 86.0708 76.1624 85.6159 76.1475C85.1611 76.1325 84.6013 76.1227 83.9366 76.1182C83.9716 76.1006 83.438 76.0789 82.3359 76.0532C81.2338 76.0275 79.0734 76.0146 75.8546 76.0146C74.1752 76.0146 72.6532 76.0215 71.2887 76.0352C69.9592 76.0488 68.8134 76.0659 67.8513 76.0864C66.8891 76.1069 66.1457 76.1296 65.6208 76.1543C65.096 76.1784 64.8336 76.2012 64.8336 76.2227C64.8336 76.2402 64.8249 76.2567 64.8074 76.272C64.7899 76.2873 64.7462 76.2998 64.6762 76.3096C64.6762 76.3128 64.6762 76.3167 64.6762 76.3213C64.6762 76.3258 64.6762 76.3298 64.6762 76.333C64.5013 76.3343 64.3263 76.3376 64.1514 76.3428C63.9765 76.348 63.854 76.3522 63.784 76.3555C63.784 76.3555 63.784 76.356 63.784 76.3569C63.784 76.3579 63.784 76.3584 63.784 76.3584C63.784 76.3747 63.9327 76.3929 64.2301 76.4131C64.5275 76.4333 64.7287 76.4443 64.8336 76.4463C64.9036 76.4476 65.0173 76.4495 65.1748 76.4521C65.3322 76.4548 65.4459 76.4561 65.5159 76.4561C65.5159 76.4561 65.6034 76.4575 65.7783 76.4604C65.9532 76.4634 66.0407 76.4707 66.0407 76.4824C66.0407 76.5052 66.4955 76.5267 67.4052 76.5469C68.3149 76.5671 69.0321 76.5811 69.5569 76.5889C69.4519 76.6019 69.1196 76.6229 68.5598 76.6519C68 76.6808 67.1078 76.7002 65.8832 76.71L56.2793 76.7676C55.0548 76.776 53.9964 76.7889 53.1042 76.8062C52.2121 76.8234 51.591 76.8431 51.2412 76.8652C50.9963 76.8822 50.7951 76.8962 50.6376 76.9072C50.4802 76.9183 50.3665 76.9264 50.2965 76.9316C50.2615 76.9329 50.2178 76.9368 50.1653 76.9434C50.1128 76.9499 50.0516 76.9587 49.9816 76.9697C49.9466 76.9736 49.9904 76.9771 50.1128 76.98C50.2353 76.9829 50.4015 76.9847 50.6114 76.9854C50.6114 76.9854 50.6201 76.9854 50.6376 76.9854C50.6551 76.9854 50.6814 76.9854 50.7164 76.9854H101.308C101.518 76.9854 101.693 76.984 101.832 76.9814C101.972 76.9788 102.042 76.9756 102.042 76.9717C102.042 76.971 102.042 76.9705 102.042 76.9702C102.042 76.9699 102.042 76.9694 102.042 76.9688C101.937 76.9577 101.859 76.9491 101.806 76.9429C101.754 76.9367 101.727 76.9329 101.727 76.9316Z" fill="#12C48B"/>
</g>
</g>
<defs>
<filter id="filter0_d_3_2449" x="0.969971" y="0" width="136" height="136" filterUnits="userSpaceOnUse" color-interpolation-filters="sRGB">
<feFlood flood-opacity="0" result="BackgroundImageFix"/>
<feColorMatrix in="SourceAlpha" type="matrix" values="0 0 0 0 0 0 0 0 0 0 0 0 0 0 0 0 0 0 127 0" result="hardAlpha"/>
<feOffset dy="10"/>
<feGaussianBlur stdDeviation="14"/>
<feComposite in2="hardAlpha" operator="out"/>
<feColorMatrix type="matrix" values="0 0 0 0 0.501961 0 0 0 0 0.541176 0 0 0 0 0.576471 0 0 0 0.2 0"/>
<feBlend mode="normal" in2="BackgroundImageFix" result="effect1_dropShadow_3_2449"/>
<feBlend mode="normal" in="SourceGraphic" in2="effect1_dropShadow_3_2449" result="shape"/>
</filter>
<clipPath id="clip0_3_2449">
<rect width="53.7401" height="1" fill="white" transform="matrix(1 0 0 -1 49.97 77)"/>
</clipPath>
</defs>
</svg>
