<svg width="64" height="13" viewBox="0 0 64 13" fill="none" xmlns="http://www.w3.org/2000/svg">
<path d="M1.48479 0.405411H62.1058C62.919 0.405411 63.5844 1.07076 63.5844 1.88397V10.7553C63.5844 11.5685 62.919 12.2339 62.1058 12.2339H1.48479C0.671578 12.2339 0.00622559 11.5685 0.00622559 10.7553V1.88397C0.00622559 1.07076 0.671578 0.405411 1.48479 0.405411Z" fill="white"/>
<path d="M1.6696 0.590225H61.921C62.7342 0.590225 63.3995 1.25558 63.3995 2.06879V10.5705C63.3995 11.3837 62.7342 12.0491 61.921 12.0491H1.6696C0.856393 12.0491 0.19104 11.3837 0.19104 10.5705V2.06879C0.19104 1.25558 0.856393 0.590225 1.6696 0.590225Z" stroke="#E5EBEE" stroke-width="0.36964"/>
<path d="M47.9486 4.91503L46.7657 7.79822H46.5809L45.398 4.91503V7.79822H44.9545V4.36057H45.5828L46.6548 6.98501L47.7268 4.36057H48.3552V7.79822H47.9116V4.91503H47.9486ZM49.0205 6.54145C49.0205 5.80217 49.501 5.24771 50.2403 5.24771C51.0166 5.24771 51.4601 5.83913 51.4601 6.54145C51.4601 7.24376 50.9796 7.87215 50.2403 7.87215C49.501 7.87215 49.0205 7.28073 49.0205 6.54145ZM51.0905 6.54145C51.0905 6.02395 50.7948 5.58038 50.2773 5.58038C49.7598 5.58038 49.4271 6.02395 49.4271 6.54145C49.4271 7.05894 49.7228 7.50251 50.2773 7.50251C50.7948 7.50251 51.0905 7.05894 51.0905 6.54145ZM53.8258 6.17181C53.8258 5.72824 53.6041 5.58038 53.2714 5.58038C52.9757 5.58038 52.6799 5.7652 52.5321 5.98699V7.79822H52.1625V5.28467H52.5321V5.65431C52.7169 5.43252 53.0496 5.24771 53.4192 5.24771C53.9367 5.24771 54.2324 5.50645 54.2324 6.06091V7.79822H53.8628V6.17181H53.8258ZM55.0456 7.28073V5.65431H54.639V5.32163H55.0456V4.65628H55.4153V5.32163H55.9328V5.65431H55.4522V7.20679C55.4522 7.39161 55.5262 7.53947 55.711 7.53947C55.8219 7.53947 55.9328 7.50251 55.9697 7.42858L56.0806 7.72429C55.9698 7.83519 55.8589 7.87215 55.6001 7.87215C55.2305 7.87215 55.0456 7.65037 55.0456 7.28073ZM58.1876 6.13484C58.1876 5.69127 57.9658 5.58038 57.6331 5.58038C57.3374 5.58038 57.0417 5.7652 56.8938 5.98699V7.79822H56.5242V4.36057H56.8938V5.69127C57.0787 5.46949 57.4113 5.28467 57.781 5.28467C58.2985 5.28467 58.5942 5.54341 58.5942 6.09787V7.87215H58.1876V6.13484ZM59.3335 7.16983C59.4813 7.35465 59.814 7.53947 60.1467 7.53947C60.5163 7.53947 60.7381 7.35465 60.7381 7.13287C60.7381 6.87412 60.4424 6.76323 60.1097 6.6893C59.7031 6.57841 59.1856 6.46752 59.1856 5.95002C59.1856 5.54342 59.5183 5.24771 60.1097 5.24771C60.5163 5.24771 60.849 5.39556 61.0338 5.61735L60.849 5.87609C60.7011 5.69127 60.4424 5.54341 60.1097 5.54341C59.777 5.54341 59.5553 5.69127 59.5553 5.91305C59.5553 6.1718 59.851 6.24573 60.1836 6.31966C60.6272 6.43055 61.1077 6.54145 61.1077 7.09591C61.1077 7.50251 60.7751 7.83519 60.1097 7.83519C59.7031 7.83519 59.3704 7.72429 59.1117 7.42858L59.3335 7.16983Z" fill="#798893"/>
<path d="M26.4725 5.02592L25.6962 7.79822H25.2157L24.2177 4.36057H24.6982L25.4744 7.24376L26.2507 4.36057H26.6203L27.3966 7.24376L28.1728 4.36057H28.6533L27.6553 7.79822H27.1748L26.4725 5.02592ZM30.021 5.24771C30.7603 5.24771 31.2039 5.83913 31.2039 6.57841V6.6893H29.2078C29.2448 7.16983 29.5774 7.53947 30.0949 7.53947C30.3906 7.53947 30.6864 7.42858 30.8712 7.20679L31.056 7.46555C30.7972 7.7243 30.4646 7.83519 30.058 7.83519C29.3187 7.83519 28.8012 7.31769 28.8012 6.50448C28.8012 5.80216 29.3187 5.24771 30.021 5.24771ZM29.2078 6.39359H30.8342C30.8342 6.02395 30.5755 5.54341 30.021 5.54341C29.4665 5.54341 29.2078 6.02395 29.2078 6.39359ZM32.9412 5.24771C33.6804 5.24771 34.124 5.83913 34.124 6.57841V6.6893H32.091C32.1279 7.16983 32.4606 7.53947 32.9781 7.53947C33.2738 7.53947 33.5695 7.42858 33.7544 7.20679L33.9392 7.46555C33.6804 7.7243 33.3478 7.83519 32.9412 7.83519C32.2019 7.83519 31.6844 7.31769 31.6844 6.50448C31.6844 5.80216 32.2019 5.24771 32.9412 5.24771ZM32.128 6.39359H33.7544C33.7544 6.02395 33.4956 5.54341 32.9412 5.54341C32.3867 5.54341 32.128 6.02395 32.128 6.39359ZM35.5656 6.6893L35.159 7.09591V7.79822H34.7524V4.36057H35.159V6.65233L36.4897 5.32163H36.9702L35.8613 6.46751L36.9702 7.83519H36.4897L35.5656 6.6893ZM37.3768 7.16983C37.5247 7.35465 37.8574 7.53947 38.19 7.53947C38.5597 7.53947 38.7815 7.35465 38.7815 7.13287C38.7815 6.87412 38.4858 6.76323 38.1531 6.6893C37.7465 6.57841 37.229 6.46752 37.229 5.95002C37.229 5.54342 37.5617 5.24771 38.1531 5.24771C38.5597 5.24771 38.8924 5.39556 39.0772 5.61735L38.8924 5.87609C38.7445 5.69127 38.4858 5.54341 38.1531 5.54341C37.8204 5.54341 37.5986 5.69127 37.5986 5.91305C37.5986 6.1718 37.8943 6.24573 38.227 6.31966C38.6706 6.43055 39.1511 6.54145 39.1511 7.09591C39.1511 7.50251 38.8184 7.83519 38.1531 7.83519C37.7465 7.83519 37.4138 7.72429 37.1551 7.42858L37.3768 7.16983Z" fill="#798893"/>
<path d="M21.2606 0.590225V12.0491" stroke="#E5EBEE" stroke-width="0.36964" stroke-linecap="square"/>
<path d="M42.33 0.590225V12.0491" stroke="#E5EBEE" stroke-width="0.36964" stroke-linecap="square"/>
<path d="M5.25513 4.36057H6.47494C7.54689 4.36057 8.2492 5.09984 8.2492 6.09787C8.2492 7.0959 7.54689 7.83519 6.47494 7.83519H5.25513V4.36057ZM6.47494 7.35465C7.28814 7.35465 7.73171 6.80019 7.73171 6.09787C7.73171 5.39556 7.28814 4.8411 6.47494 4.8411H5.77262V7.39161H6.47494V7.35465ZM10.4301 7.53947C10.2453 7.76126 9.94955 7.87215 9.61688 7.87215C9.21027 7.87215 8.72974 7.57644 8.72974 7.05894C8.72974 6.50448 9.17331 6.24573 9.61688 6.24573C9.94955 6.24573 10.2453 6.35662 10.4301 6.57841V6.17181C10.4301 5.87609 10.1713 5.69127 9.8017 5.69127C9.50599 5.69127 9.2842 5.80216 9.06242 6.02395L8.8776 5.69127C9.17331 5.43252 9.50598 5.28467 9.91259 5.28467C10.467 5.28467 10.9106 5.50645 10.9106 6.17181V7.87215H10.4301V7.53947ZM10.4301 6.83715C10.2822 6.65233 10.0604 6.54145 9.8017 6.54145C9.46902 6.54145 9.21027 6.72626 9.21027 7.02197C9.21027 7.31769 9.43206 7.50251 9.8017 7.50251C10.0604 7.50251 10.3192 7.39161 10.4301 7.20679V6.83715ZM11.7978 8.38965C11.9826 8.38965 12.0935 8.31571 12.1674 8.13089L12.3152 7.79822L11.2803 5.28467H11.7608L12.537 7.24376L13.3133 5.28467H13.8308L12.611 8.27875C12.4631 8.68536 12.1674 8.79625 11.7978 8.83321C11.7238 8.83321 11.576 8.83321 11.502 8.79625L11.576 8.38965C11.6499 8.38965 11.7238 8.38965 11.7978 8.38965ZM14.2004 7.13287C14.3852 7.31769 14.7179 7.50251 15.0506 7.50251C15.4202 7.50251 15.6051 7.35465 15.6051 7.13287C15.6051 6.87412 15.3093 6.80019 15.0136 6.72627C14.607 6.61537 14.0895 6.50448 14.0895 5.98699C14.0895 5.58038 14.4222 5.24771 15.0506 5.24771C15.4942 5.24771 15.7899 5.39556 16.0117 5.61735L15.7899 5.95002C15.642 5.7652 15.3833 5.65431 15.0506 5.65431C14.7179 5.65431 14.5331 5.7652 14.5331 5.98699C14.5331 6.20877 14.7918 6.2827 15.1245 6.35663C15.5681 6.46752 16.0856 6.57841 16.0856 7.13287C16.0856 7.57644 15.7159 7.90911 15.0875 7.90911C14.6809 7.90911 14.3113 7.79822 14.0526 7.50251L14.2004 7.13287Z" fill="#12C48B"/>
</svg>
