<svg width="137" height="136" viewBox="0 0 137 136" fill="none" xmlns="http://www.w3.org/2000/svg">
<g filter="url(#filter0_d_3_2443)">
<rect x="28.98" y="18" width="80" height="80" rx="40" fill="white" shape-rendering="crispEdges"/>
<g clip-path="url(#clip0_3_2443)">
<path d="M51.0821 76.3379C50.8372 76.3379 50.6185 76.3366 50.4261 76.334C50.2337 76.3314 50.1025 76.3278 50.0325 76.3232C49.9625 76.3187 49.98 76.3143 50.085 76.3101C50.1899 76.3058 50.3474 76.3027 50.5573 76.3008L76.6401 76.0166C76.8151 76.0153 76.9988 76.0146 77.1912 76.0146C77.3836 76.0146 77.5673 76.0156 77.7422 76.0176L101.516 76.2988C101.726 76.3001 101.892 76.3026 102.015 76.3062C102.137 76.3097 102.198 76.3135 102.198 76.3174C102.198 76.3232 102.093 76.3281 101.883 76.332C101.673 76.3359 101.411 76.3379 101.096 76.3379H51.0821ZM101.096 76.8242C101.376 76.8242 101.621 76.8262 101.831 76.8301C102.041 76.834 102.146 76.8385 102.146 76.8438V76.9658C102.146 76.971 102.041 76.9756 101.831 76.9795C101.621 76.9834 101.376 76.9854 101.096 76.9854H51.0821C50.7672 76.9854 50.5048 76.9834 50.2949 76.9795C50.085 76.9756 49.98 76.971 49.98 76.9658V76.8438C49.98 76.8385 50.085 76.834 50.2949 76.8301C50.5048 76.8262 50.7672 76.8242 51.0821 76.8242H101.096ZM66.3015 76.4189H65.1994V76.7432H66.3015C66.6164 76.7432 66.8788 76.7451 67.0887 76.749C67.2986 76.7529 67.4036 76.7575 67.4036 76.7627C67.4036 76.7686 67.2899 76.7734 67.0624 76.7773C66.835 76.7812 66.5814 76.7832 66.3015 76.7832H55.438C55.1231 76.7832 54.8607 76.7812 54.6508 76.7773C54.4409 76.7734 54.3359 76.7686 54.3359 76.7627C54.3359 76.7575 54.4409 76.7529 54.6508 76.749C54.8607 76.7451 55.1231 76.7432 55.438 76.7432H56.5401V76.4189H55.438C55.1231 76.4189 54.8607 76.417 54.6508 76.4131C54.4409 76.4092 54.3359 76.4043 54.3359 76.3984C54.3359 76.3932 54.4409 76.3887 54.6508 76.3848C54.8607 76.3809 55.1231 76.3789 55.438 76.3789H66.3015C66.6164 76.3789 66.8788 76.3809 67.0887 76.3848C67.2986 76.3887 67.4036 76.3932 67.4036 76.3984C67.4036 76.4043 67.2899 76.4092 67.0624 76.4131C66.835 76.417 66.5814 76.4189 66.3015 76.4189ZM81.5208 76.4189H80.4187V76.7432H81.5208C81.8007 76.7432 82.0544 76.7451 82.2818 76.749C82.5092 76.7529 82.6229 76.7575 82.6229 76.7627C82.6229 76.7686 82.5092 76.7734 82.2818 76.7773C82.0544 76.7812 81.8007 76.7832 81.5208 76.7832H70.6574C70.3425 76.7832 70.0801 76.7812 69.8702 76.7773C69.6602 76.7734 69.5553 76.7686 69.5553 76.7627C69.5553 76.7575 69.6602 76.7529 69.8702 76.749C70.0801 76.7451 70.3425 76.7432 70.6574 76.7432H71.707V76.4189H70.6574C70.3425 76.4189 70.0801 76.417 69.8702 76.4131C69.6602 76.4092 69.5553 76.4043 69.5553 76.3984C69.5553 76.3932 69.6602 76.3887 69.8702 76.3848C70.0801 76.3809 70.3425 76.3789 70.6574 76.3789H81.5208C81.8007 76.3789 82.0544 76.3809 82.2818 76.3848C82.5092 76.3887 82.6229 76.3932 82.6229 76.3984C82.6229 76.4043 82.5092 76.4092 82.2818 76.4131C82.0544 76.417 81.8007 76.4189 81.5208 76.4189ZM96.7402 76.4189H95.6381V76.7432H96.7402C97.0201 76.7432 97.265 76.7451 97.4749 76.749C97.6849 76.7529 97.7898 76.7575 97.7898 76.7627C97.7898 76.7686 97.6849 76.7734 97.4749 76.7773C97.265 76.7812 97.0201 76.7832 96.7402 76.7832H85.8767C85.5618 76.7832 85.2994 76.7812 85.0895 76.7773C84.8796 76.7734 84.7746 76.7686 84.7746 76.7627C84.7746 76.7575 84.8796 76.7529 85.0895 76.749C85.2994 76.7451 85.5618 76.7432 85.8767 76.7432H86.9263V76.4189H85.8767C85.5618 76.4189 85.2994 76.417 85.0895 76.4131C84.8796 76.4092 84.7746 76.4043 84.7746 76.3984C84.7746 76.3932 84.8796 76.3887 85.0895 76.3848C85.2994 76.3809 85.5618 76.3789 85.8767 76.3789H96.7402C97.0201 76.3789 97.265 76.3809 97.4749 76.3848C97.6849 76.3887 97.7898 76.3932 97.7898 76.3984C97.7898 76.4043 97.6849 76.4092 97.4749 76.4131C97.265 76.417 97.0201 76.4189 96.7402 76.4189Z" fill="#12C48B"/>
</g>
</g>
<defs>
<filter id="filter0_d_3_2443" x="0.980011" y="0" width="136" height="136" filterUnits="userSpaceOnUse" color-interpolation-filters="sRGB">
<feFlood flood-opacity="0" result="BackgroundImageFix"/>
<feColorMatrix in="SourceAlpha" type="matrix" values="0 0 0 0 0 0 0 0 0 0 0 0 0 0 0 0 0 0 127 0" result="hardAlpha"/>
<feOffset dy="10"/>
<feGaussianBlur stdDeviation="14"/>
<feComposite in2="hardAlpha" operator="out"/>
<feColorMatrix type="matrix" values="0 0 0 0 0.501961 0 0 0 0 0.541176 0 0 0 0 0.576471 0 0 0 0.2 0"/>
<feBlend mode="normal" in2="BackgroundImageFix" result="effect1_dropShadow_3_2443"/>
<feBlend mode="normal" in="SourceGraphic" in2="effect1_dropShadow_3_2443" result="shape"/>
</filter>
<clipPath id="clip0_3_2443">
<rect width="53.7401" height="1" fill="white" transform="matrix(1 0 0 -1 49.98 77)"/>
</clipPath>
</defs>
</svg>
