<svg width="28" height="29" viewBox="0 0 28 29" fill="none" xmlns="http://www.w3.org/2000/svg">
<rect y="0.5" width="28" height="28" rx="14" fill="#1EADCF"/>
<g clip-path="url(#clip0_3_2301)">
<path d="M16.505 8.555V7.745C16.505 7.52 16.685 7.325 16.925 7.325H18.59C18.815 7.325 19.01 7.505 19.01 7.745V11.06L21.35 13.415C21.44 13.475 21.5 13.565 21.5 13.685C21.5 13.865 21.365 14 21.185 14H20.24V21.185C20.24 21.365 20.105 21.5 19.925 21.5H16.175C16.01 21.5 15.86 21.365 15.86 21.185V15.875H12.11V21.185C12.11 21.365 11.975 21.5 11.795 21.5H8.045C7.88 21.5 7.73 21.365 7.73 21.185V14H6.815C6.695 14 6.575 13.925 6.53 13.805C6.47 13.685 6.5 13.55 6.59 13.46L13.235 6.8C13.64 6.395 14.345 6.395 14.735 6.8L16.505 8.555Z" fill="white"/>
</g>
<defs>
<clipPath id="clip0_3_2301">
<rect width="15" height="15" fill="white" transform="translate(6.5 6.5)"/>
</clipPath>
</defs>
</svg>
