<svg width="28" height="29" viewBox="0 0 28 29" fill="none" xmlns="http://www.w3.org/2000/svg">
<rect y="0.5" width="28" height="28" rx="14" fill="#F964A0"/>
<g clip-path="url(#clip0_3_2294)">
<path d="M12.86 6.77C12.845 6.62 12.725 6.5 12.605 6.5C12.605 6.5 12.605 6.5 12.59 6.5C12.455 6.5 12.35 6.635 12.335 6.785L12.11 10.07C12.095 10.28 11.795 10.28 11.78 10.07L11.54 6.785C11.54 6.62 11.42 6.5 11.285 6.5C11.15 6.5 11.03 6.62 11.015 6.785L10.79 10.07C10.775 10.28 10.475 10.28 10.46 10.07L10.22 6.785C10.22 6.635 10.1 6.5 9.965 6.5C9.965 6.5 9.965 6.5 9.95 6.5C9.815 6.5 9.71 6.62 9.695 6.77L9.23 10.55C9.095 11.66 9.59 12.725 10.46 13.16L10.055 19.925C10.025 20.33 10.145 20.735 10.385 21.035C10.625 21.335 10.955 21.5 11.3 21.5C11.645 21.5 11.975 21.335 12.215 21.035C12.455 20.735 12.575 20.33 12.545 19.925L12.14 13.16C12.995 12.725 13.505 11.66 13.37 10.55L12.86 6.77Z" fill="white"/>
<path d="M15.995 6.56C16.07 6.5 16.16 6.485 16.25 6.515C16.28 6.53 18.875 7.505 18.875 10.55C18.875 12.74 18.11 13.865 17.735 14.315L18.11 14.72C18.155 14.765 18.185 14.84 18.2 14.915L18.515 20.015C18.515 20.87 18.035 21.515 17.18 21.515C16.415 21.515 15.875 21.005 15.875 20.165V6.815C15.86 6.71 15.92 6.62 15.995 6.56Z" fill="white"/>
</g>
<defs>
<clipPath id="clip0_3_2294">
<rect width="15" height="15" fill="white" transform="translate(6.5 6.5)"/>
</clipPath>
</defs>
</svg>
