<svg width="75" height="13" viewBox="0 0 75 13" fill="none" xmlns="http://www.w3.org/2000/svg">
<path d="M2.24968 0.0912399H73.2206C74.0338 0.0912399 74.6992 0.756592 74.6992 1.5698V11.1804C74.6992 11.9937 74.0338 12.659 73.2206 12.659H2.24968C1.43647 12.659 0.771118 11.9937 0.771118 11.1804V1.5698C0.771118 0.756592 1.43647 0.0912399 2.24968 0.0912399Z" fill="white"/>
<path d="M2.43449 0.276062H73.0358C73.849 0.276062 74.5144 0.941415 74.5144 1.75462V10.9956C74.5144 11.8088 73.849 12.4742 73.0358 12.4742H2.43449C1.62129 12.4742 0.955933 11.8088 0.955933 10.9956V1.75462C0.955933 0.941415 1.62129 0.276062 2.43449 0.276062Z" stroke="#E5EBEE" stroke-width="0.36964"/>
<path d="M71.2985 6.00519L69.6721 7.63161L68.0457 6.00519" stroke="#BACDD7" stroke-width="0.739281"/>
<path d="M4.13483 4.41603H4.57839V7.85369H4.13483V4.41603ZM7.05498 6.22727C7.05498 5.7837 6.8332 5.63584 6.50052 5.63584C6.20481 5.63584 5.9091 5.82066 5.76124 6.04245V7.85369H5.35464V5.34013H5.76124V5.70977C5.94606 5.48799 6.27874 5.30317 6.64838 5.30317C7.16587 5.30317 7.46159 5.56192 7.46159 6.11638V7.85369H7.05498V6.22727ZM9.30979 5.30317C9.75336 5.30317 10.0491 5.48799 10.2339 5.74674L9.97514 5.96852C9.82728 5.74674 9.60551 5.63584 9.34676 5.63584C8.82926 5.63584 8.49658 6.04245 8.49658 6.59691C8.49658 7.15137 8.82926 7.55797 9.34676 7.55797C9.60551 7.55797 9.82728 7.44708 9.97514 7.2253L10.2339 7.44708C10.0491 7.70583 9.79032 7.89065 9.30979 7.89065C8.57051 7.89065 8.05302 7.33619 8.05302 6.55995C8.05302 5.85763 8.57051 5.30317 9.30979 5.30317ZM10.7514 4.41603H11.121V7.85369H10.7514V4.41603ZM13.6346 7.48405C13.4498 7.70583 13.1171 7.89065 12.7474 7.89065C12.2299 7.89065 11.9342 7.6319 11.9342 7.07744V5.30317H12.3039V6.96655C12.3039 7.41012 12.5257 7.52101 12.8583 7.52101C13.1541 7.52101 13.4498 7.33619 13.5976 7.15137V5.30317H13.9673V7.81672H13.5976V7.48405H13.6346ZM16.5917 7.48405C16.4069 7.74279 16.1112 7.92761 15.7415 7.92761C15.0762 7.92761 14.6326 7.44708 14.6326 6.63387C14.6326 5.82066 15.0762 5.30317 15.7415 5.30317C16.0742 5.30317 16.3699 5.45103 16.5917 5.74674V4.41603H16.9983V7.85369H16.5917V7.48405ZM16.5917 6.04245C16.4438 5.82066 16.1481 5.63584 15.8524 5.63584C15.3349 5.63584 15.0392 6.04245 15.0392 6.59691C15.0392 7.15137 15.3349 7.55797 15.8524 7.55797C16.1481 7.55797 16.4808 7.37315 16.5917 7.15137V6.04245ZM18.8465 5.30317C19.5858 5.30317 20.0294 5.89459 20.0294 6.63387V6.74477H17.9963C18.0333 7.2253 18.366 7.59494 18.8835 7.59494C19.1792 7.59494 19.4749 7.48405 19.6597 7.26226L19.8445 7.52101C19.5858 7.77976 19.2531 7.89065 18.8465 7.89065C18.1072 7.89065 17.5897 7.37315 17.5897 6.55995C17.6267 5.85763 18.1442 5.30317 18.8465 5.30317ZM18.0333 6.44905H19.6597C19.6597 6.07941 19.401 5.59888 18.8465 5.59888C18.292 5.59888 18.0333 6.07941 18.0333 6.44905ZM23.5779 7.55797C23.3561 7.77976 23.0974 7.89065 22.7647 7.89065C22.3581 7.89065 21.8776 7.59494 21.8776 7.07744C21.8776 6.52298 22.3211 6.26423 22.7647 6.26423C23.0974 6.26423 23.3931 6.37512 23.5779 6.59691V6.15334C23.5779 5.82067 23.3192 5.63584 22.9495 5.63584C22.6538 5.63584 22.3951 5.74674 22.1733 5.96852L21.9884 5.70977C22.2472 5.41406 22.5799 5.30317 22.9865 5.30317C23.504 5.30317 23.9475 5.52495 23.9475 6.15334V7.89065H23.5409V7.55797H23.5779ZM23.5779 6.85566C23.4301 6.63387 23.1713 6.55995 22.8756 6.55995C22.5059 6.55995 22.2472 6.78173 22.2472 7.11441C22.2472 7.44708 22.5059 7.66887 22.8756 7.66887C23.1343 7.66887 23.4301 7.55797 23.5779 7.37315V6.85566ZM24.7238 4.41603H25.1304V7.85369H24.7238V4.41603ZM25.9066 4.41603H26.2763V7.85369H25.9066V4.41603ZM28.3832 8.81475V5.3771H28.7529V5.74674C28.9377 5.48799 29.2334 5.30317 29.603 5.30317C30.2684 5.30317 30.712 5.7837 30.712 6.59691C30.712 7.41012 30.2684 7.92761 29.603 7.92761C29.2704 7.92761 28.9747 7.77976 28.7529 7.48405V8.81475H28.3832ZM29.5291 5.63584C29.2334 5.63584 28.9007 5.82066 28.7898 6.04245V7.18833C28.9377 7.41012 29.2334 7.59494 29.5291 7.59494C30.0466 7.59494 30.3423 7.18833 30.3423 6.63387C30.3423 6.07941 30.0466 5.63584 29.5291 5.63584ZM31.3773 4.41603H31.7839V7.85369H31.3773V4.41603ZM34.1127 7.55797C33.8909 7.77976 33.6321 7.89065 33.2994 7.89065C32.8928 7.89065 32.4123 7.59494 32.4123 7.07744C32.4123 6.52298 32.8559 6.26423 33.2994 6.26423C33.6321 6.26423 33.9278 6.37512 34.1127 6.59691V6.15334C34.1127 5.82067 33.8539 5.63584 33.4843 5.63584C33.1886 5.63584 32.9298 5.74674 32.708 5.96852L32.5232 5.70977C32.7819 5.41406 33.1146 5.30317 33.5212 5.30317C34.0387 5.30317 34.4823 5.52495 34.4823 6.15334V7.89065H34.0757V7.55797H34.1127ZM34.1127 6.85566C33.9648 6.63387 33.706 6.55995 33.4103 6.55995C33.0407 6.55995 32.7819 6.78173 32.7819 7.11441C32.7819 7.44708 33.0407 7.66887 33.4103 7.66887C33.6691 7.66887 33.9648 7.55797 34.1127 7.37315V6.85566ZM36.3675 5.30317C36.811 5.30317 37.1067 5.48799 37.2916 5.74674L37.0328 5.96852C36.885 5.74674 36.6632 5.63584 36.4044 5.63584C35.8869 5.63584 35.5543 6.04245 35.5543 6.59691C35.5543 7.15137 35.8869 7.55797 36.4044 7.55797C36.6632 7.55797 36.885 7.44708 37.0328 7.2253L37.2916 7.44708C37.1067 7.70583 36.848 7.89065 36.3675 7.89065C35.6282 7.89065 35.1107 7.33619 35.1107 6.55995C35.1107 5.85763 35.6282 5.30317 36.3675 5.30317ZM38.918 5.30317C39.6573 5.30317 40.1008 5.89459 40.1008 6.63387V6.74477H38.0678C38.1048 7.2253 38.4374 7.59494 38.9549 7.59494C39.2506 7.59494 39.5464 7.48405 39.7312 7.26226L39.916 7.52101C39.6573 7.77976 39.3246 7.89065 38.918 7.89065C38.1787 7.89065 37.6612 7.37315 37.6612 6.55995C37.6612 5.85763 38.1787 5.30317 38.918 5.30317ZM38.0678 6.44905H39.6942C39.6942 6.07941 39.4355 5.59888 38.881 5.59888C38.3635 5.59888 38.1048 6.07941 38.0678 6.44905ZM40.7292 7.2253C40.8771 7.41012 41.2097 7.59494 41.5424 7.59494C41.9121 7.59494 42.1338 7.41012 42.1338 7.18833C42.1338 6.92958 41.8381 6.81869 41.5055 6.74477C41.0989 6.63387 40.5814 6.52298 40.5814 6.00549C40.5814 5.59888 40.914 5.30317 41.5055 5.30317C41.9121 5.30317 42.2447 5.45102 42.4296 5.67281L42.2447 5.93156C42.0969 5.74674 41.8381 5.59888 41.5055 5.59888C41.1728 5.59888 40.951 5.74674 40.951 5.96852C40.951 6.22727 41.2467 6.3012 41.5794 6.37513C42.023 6.48602 42.5035 6.59691 42.5035 7.15137C42.5035 7.55797 42.1708 7.89065 41.5055 7.89065C41.0989 7.89065 40.7662 7.77976 40.5074 7.48405L40.7292 7.2253Z" fill="#798893"/>
</svg>
