<svg width="208" height="184" viewBox="0 0 208 184" fill="none" xmlns="http://www.w3.org/2000/svg">
<path d="M2.12498 0.843163H205.875C206.523 0.843163 207.053 1.37315 207.053 2.02092V182.218C207.053 182.865 206.523 183.395 205.875 183.395H2.12498C1.47722 183.395 0.947235 182.865 0.947235 182.218V2.02092C0.947235 1.37315 1.47722 0.843163 2.12498 0.843163Z" fill="white"/>
<path d="M2.12498 0.843163H205.875C206.523 0.843163 207.053 1.37315 207.053 2.02092V182.218C207.053 182.865 206.523 183.395 205.875 183.395H2.12498C1.47722 183.395 0.947235 182.865 0.947235 182.218V2.02092C0.947235 1.37315 1.47722 0.843163 2.12498 0.843163Z" fill="white"/>
<path d="M21.44 176.682C21.6167 176.918 21.9111 177.153 22.3233 177.153C22.9122 177.153 23.2655 176.741 23.2655 176.152V172.855H23.8544V176.152C23.8544 177.153 23.2066 177.683 22.3822 177.683C21.8522 177.683 21.44 177.507 21.0867 177.094L21.44 176.682ZM27.211 177.094C26.9754 177.389 26.5043 177.683 25.9743 177.683C25.2677 177.683 24.9144 177.33 24.9144 176.623V174.15H25.4444V176.388C25.4444 176.977 25.7388 177.153 26.2099 177.153C26.6221 177.153 27.0343 176.918 27.211 176.623V174.15H27.741V177.566H27.211V177.094ZM31.0975 175.328C31.0975 174.739 30.8031 174.562 30.332 174.562C29.9198 174.562 29.5076 174.798 29.3309 175.092V177.566H28.8009V174.15H29.3309V174.621C29.5665 174.327 30.0376 174.032 30.5676 174.032C31.2742 174.032 31.6275 174.386 31.6275 175.151V177.566H31.0975V175.328ZM35.2785 173.62L34.513 174.444L34.1597 174.091L35.3374 172.855H35.8674V177.566H35.2785V173.62ZM60.9534 176.682C61.1301 176.918 61.4245 177.153 61.8367 177.153C62.4256 177.153 62.7789 176.741 62.7789 176.152V172.855H63.3678V176.152C63.3678 177.153 62.72 177.683 61.8956 177.683C61.3656 177.683 61.0123 177.507 60.659 177.153L60.9534 176.682ZM66.7832 177.094C66.5477 177.389 66.0766 177.683 65.5466 177.683C64.84 177.683 64.4866 177.33 64.4866 176.623V174.15H65.0166V176.388C65.0166 176.977 65.3111 177.153 65.7822 177.153C66.1944 177.153 66.6066 176.918 66.7832 176.623V174.15H67.3132V177.566H66.7832V177.094ZM70.6698 175.328C70.6698 174.739 70.3754 174.562 69.9043 174.562C69.4921 174.562 69.0799 174.798 68.9032 175.092V177.566H68.3732V174.15H68.9032V174.621C69.1387 174.327 69.6098 174.032 70.1398 174.032C70.8465 174.032 71.1998 174.386 71.1998 175.151V177.566H70.6698V175.328ZM75.0275 175.151C74.4975 174.974 73.9675 174.621 73.9675 174.032C73.9675 173.149 74.7919 172.796 75.6163 172.796C76.3819 172.796 77.2063 173.149 77.2063 174.032C77.2063 174.68 76.6763 175.033 76.1463 175.151C76.7352 175.328 77.2652 175.74 77.2652 176.388C77.2652 177.212 76.4996 177.683 75.5575 177.683C74.6153 177.683 73.8497 177.212 73.8497 176.388C73.9086 175.74 74.4386 175.328 75.0275 175.151ZM75.6163 175.387C75.3219 175.446 74.4975 175.681 74.4975 176.27C74.4975 176.8 75.0275 177.094 75.6163 177.094C76.2052 177.094 76.7352 176.8 76.7352 176.27C76.6763 175.681 75.9108 175.446 75.6163 175.387ZM75.6163 173.326C75.0275 173.326 74.6153 173.62 74.6153 174.091C74.6153 174.68 75.3808 174.857 75.6163 174.916C75.9108 174.857 76.6174 174.68 76.6174 174.091C76.6174 173.62 76.1463 173.326 75.6163 173.326ZM100.231 176.682C100.408 176.918 100.702 177.153 101.115 177.153C101.703 177.153 102.057 176.741 102.057 176.152V172.855H102.646V176.152C102.646 177.153 101.998 177.683 101.173 177.683C100.643 177.683 100.29 177.507 99.9368 177.153L100.231 176.682ZM106.061 177.094C105.826 177.389 105.354 177.683 104.824 177.683C104.118 177.683 103.764 177.33 103.764 176.623V174.15H104.294V176.388C104.294 176.977 104.589 177.153 105.06 177.153C105.472 177.153 105.884 176.918 106.061 176.623V174.15H106.591V177.566H106.061V177.094ZM109.948 175.328C109.948 174.739 109.653 174.562 109.182 174.562C108.77 174.562 108.358 174.798 108.181 175.092V177.566H107.651V174.15H108.181V174.621C108.417 174.327 108.888 174.032 109.418 174.032C110.124 174.032 110.478 174.386 110.478 175.151V177.566H109.948V175.328ZM114.07 173.62L113.304 174.444L112.951 174.091L114.129 172.855H114.659V177.566H114.07V173.62ZM116.072 176.506C116.366 176.918 116.779 177.153 117.367 177.153C118.015 177.153 118.427 176.741 118.427 176.152C118.427 175.504 117.956 175.151 117.367 175.151C116.955 175.151 116.602 175.269 116.307 175.622L115.895 175.446V172.855H118.781V173.385H116.484V175.033C116.72 174.798 117.132 174.621 117.603 174.621C118.369 174.621 119.075 175.151 119.075 176.152C119.075 177.094 118.369 177.683 117.426 177.683C116.602 177.683 116.131 177.389 115.777 176.918L116.072 176.506ZM139.921 176.682C140.098 176.918 140.392 177.153 140.805 177.153C141.393 177.153 141.747 176.741 141.747 176.152V172.855H142.336V176.152C142.336 177.153 141.688 177.683 140.863 177.683C140.333 177.683 139.98 177.507 139.627 177.153L139.921 176.682ZM145.751 177.094C145.516 177.389 145.044 177.683 144.514 177.683C143.808 177.683 143.455 177.33 143.455 176.623V174.15H143.984V176.388C143.984 176.977 144.279 177.153 144.75 177.153C145.162 177.153 145.574 176.918 145.751 176.623V174.15H146.281V177.566H145.751V177.094ZM149.638 175.328C149.638 174.739 149.343 174.562 148.872 174.562C148.46 174.562 148.048 174.798 147.871 175.092V177.566H147.341V174.15H147.871V174.621C148.107 174.327 148.578 174.032 149.108 174.032C149.814 174.032 150.168 174.386 150.168 175.151V177.566H149.638V175.328ZM152.935 177.094C154.643 175.74 155.526 174.974 155.526 174.15C155.526 173.561 155.055 173.267 154.525 173.267C153.936 173.267 153.524 173.502 153.23 173.856L152.876 173.561C153.23 173.09 153.878 172.796 154.525 172.796C155.291 172.796 156.115 173.267 156.115 174.209C156.115 175.151 155.114 176.034 153.819 177.094H156.115V177.624H152.876V177.094H152.935ZM157.057 177.094C158.765 175.74 159.649 174.974 159.649 174.15C159.649 173.561 159.177 173.267 158.647 173.267C158.059 173.267 157.646 173.502 157.352 173.856L156.999 173.502C157.352 173.031 158 172.737 158.647 172.737C159.413 172.737 160.237 173.208 160.237 174.15C160.237 175.092 159.236 175.976 157.941 177.036H160.237V177.566H156.999V177.094H157.057ZM180.318 176.682C180.495 176.918 180.789 177.153 181.201 177.153C181.79 177.153 182.143 176.741 182.143 176.152V172.855H182.732V176.152C182.732 177.153 182.085 177.683 181.26 177.683C180.73 177.683 180.377 177.507 180.024 177.153L180.318 176.682ZM186.148 177.094C185.912 177.389 185.441 177.683 184.911 177.683C184.205 177.683 183.851 177.33 183.851 176.623V174.15H184.381V176.388C184.381 176.977 184.676 177.153 185.147 177.153C185.559 177.153 185.971 176.918 186.148 176.623V174.15H186.678V177.566H186.148V177.094ZM190.034 175.328C190.034 174.739 189.74 174.562 189.269 174.562C188.857 174.562 188.444 174.798 188.268 175.092V177.566H187.738V174.15H188.268V174.621C188.503 174.327 188.974 174.032 189.504 174.032C190.211 174.032 190.564 174.386 190.564 175.151V177.566H190.034V175.328ZM193.332 177.094C195.04 175.74 195.923 174.974 195.923 174.15C195.923 173.561 195.452 173.267 194.922 173.267C194.333 173.267 193.921 173.502 193.626 173.856L193.273 173.502C193.626 173.031 194.274 172.737 194.922 172.737C195.688 172.737 196.512 173.208 196.512 174.15C196.512 175.092 195.511 175.976 194.215 177.036H196.512V177.566H193.273V177.094H193.332ZM197.984 176.623C198.22 176.918 198.514 177.094 198.985 177.094C199.927 177.094 200.34 176.152 200.34 175.269V175.092C200.163 175.446 199.633 175.799 198.985 175.799C198.161 175.799 197.454 175.269 197.454 174.268C197.454 173.443 198.102 172.737 199.103 172.737C200.399 172.737 200.929 173.915 200.929 175.151C200.929 176.447 200.34 177.566 198.985 177.566C198.396 177.566 197.984 177.33 197.69 176.977L197.984 176.623ZM199.103 173.326C198.396 173.326 198.043 173.856 198.043 174.327C198.043 175.033 198.514 175.328 199.103 175.328C199.574 175.328 200.045 175.033 200.281 174.621C200.222 174.032 199.927 173.326 199.103 173.326Z" fill="#B2BABF"/>
<path d="M5.12824 60.4376C6.83597 59.0832 7.71928 58.3177 7.71928 57.4933C7.71928 56.9044 7.24818 56.6099 6.7182 56.6099C6.12932 56.6099 5.71711 56.8455 5.42268 57.1988L5.12824 56.8455C5.48156 56.3744 6.12932 56.08 6.77708 56.08C7.54262 56.08 8.36704 56.5511 8.36704 57.4933C8.36704 58.4354 7.36596 59.3188 6.07044 60.3787H8.36704V60.9087H5.12824V60.4376ZM11.0759 56.1388C12.3714 56.1388 12.9014 57.4344 12.9014 58.5532C12.9014 59.6721 12.3714 60.9676 11.0759 60.9676C9.78034 60.9676 9.25035 59.6721 9.25035 58.5532C9.25035 57.4344 9.78034 56.1388 11.0759 56.1388ZM11.0759 56.6688C10.1925 56.6688 9.89811 57.611 9.89811 58.5532C9.89811 59.4954 10.1925 60.4965 11.0759 60.4965C11.9592 60.4965 12.2536 59.4954 12.2536 58.5532C12.2536 57.611 11.9592 56.6688 11.0759 56.6688ZM14.8446 59.3776L14.2558 59.9076V60.9087H13.7258V56.1977H14.2558V59.3188L16.0224 57.4933H16.6701L15.1391 59.0243L16.6701 60.9087H15.9635L14.8446 59.3776ZM7.77817 80.5182L7.01263 81.3426L6.65931 80.9893L7.83705 79.7526H8.36704V84.4636H7.77817V80.5182ZM11.0759 79.6938C12.3714 79.6938 12.9014 80.9893 12.9014 82.1081C12.9014 83.227 12.3714 84.5225 11.0759 84.5225C9.78034 84.5225 9.25035 83.227 9.25035 82.1081C9.25035 80.9893 9.78034 79.6938 11.0759 79.6938ZM11.0759 80.2237C10.1925 80.2237 9.89811 81.1659 9.89811 82.1081C9.89811 83.0503 10.1925 84.0514 11.0759 84.0514C11.9592 84.0514 12.2536 83.0503 12.2536 82.1081C12.2536 81.1659 11.9592 80.2237 11.0759 80.2237ZM14.8446 82.9326L14.2558 83.4625V84.4636H13.7258V79.7526H14.2558V82.8737L16.0224 81.0482H16.6701L15.1391 82.5792L16.6701 84.4636H15.9635L14.8446 82.9326ZM11.0759 103.249C12.3714 103.249 12.9014 104.544 12.9014 105.663C12.9014 106.782 12.3714 108.077 11.0759 108.077C9.78034 108.077 9.25035 106.782 9.25035 105.663C9.25035 104.544 9.78034 103.249 11.0759 103.249ZM11.0759 103.779C10.1925 103.779 9.89811 104.721 9.89811 105.663C9.89811 106.605 10.1925 107.606 11.0759 107.606C11.9592 107.606 12.2536 106.605 12.2536 105.663C12.2536 104.721 11.9592 103.779 11.0759 103.779ZM14.8446 106.487L14.2558 107.017V108.019H13.7258V103.308H14.2558V106.429L16.0224 104.603H16.6701L15.1391 106.134L16.6701 108.019H15.9635L14.8446 106.487ZM4.59825 129.63H6.30599V130.101H4.59825V129.63ZM7.77817 127.628L7.01263 128.452L6.65931 128.099L7.83705 126.862H8.36704V131.573H7.77817V127.628ZM11.0759 126.804C12.3714 126.804 12.9014 128.099 12.9014 129.218C12.9014 130.337 12.3714 131.632 11.0759 131.632C9.78034 131.632 9.25035 130.337 9.25035 129.218C9.25035 128.099 9.78034 126.804 11.0759 126.804ZM11.0759 127.334C10.1925 127.334 9.89811 128.276 9.89811 129.218C9.89811 130.16 10.1925 131.161 11.0759 131.161C11.9592 131.161 12.2536 130.16 12.2536 129.218C12.2536 128.276 11.9592 127.334 11.0759 127.334ZM14.8446 130.042L14.2558 130.572V131.573H13.7258V126.862H14.2558V129.984L16.0224 128.158H16.6701L15.1391 129.689L16.6701 131.573H15.9635L14.8446 130.042ZM2.83163 153.185H4.53937V153.656H2.83163V153.185ZM5.12824 154.657C6.83597 153.303 7.71928 152.537 7.71928 151.713C7.71928 151.124 7.24818 150.83 6.7182 150.83C6.12932 150.83 5.71711 151.065 5.42268 151.418L5.06935 151.065C5.42268 150.594 6.07044 150.3 6.7182 150.3C7.48373 150.3 8.30815 150.771 8.30815 151.713C8.30815 152.655 7.30707 153.538 6.01155 154.598H8.30815V155.128H5.12824V154.657ZM11.0759 150.359C12.3714 150.359 12.9014 151.654 12.9014 152.773C12.9014 153.892 12.3714 155.187 11.0759 155.187C9.78034 155.187 9.25035 153.892 9.25035 152.773C9.25035 151.654 9.78034 150.359 11.0759 150.359ZM11.0759 150.889C10.1925 150.889 9.89811 151.831 9.89811 152.773C9.89811 153.715 10.1925 154.716 11.0759 154.716C11.9592 154.716 12.2536 153.715 12.2536 152.773C12.2536 151.831 11.9592 150.889 11.0759 150.889ZM14.8446 153.597L14.2558 154.127V155.128H13.7258V150.417H14.2558V153.538L16.0224 151.713H16.6701L15.1391 153.244L16.6701 155.128H15.9635L14.8446 153.597Z" fill="#B2BABF"/>
<path d="M19.6145 160.547H202.754" stroke="#E2E6E9" stroke-width="0.294436" stroke-linecap="square"/>
<path d="M19.6145 136.992H202.754" stroke="#E2E6E9" stroke-width="0.294436" stroke-linecap="square"/>
<path d="M19.6145 113.437H202.754" stroke="#E2E6E9" stroke-width="0.294436" stroke-linecap="square"/>
<path d="M19.6145 89.2927H202.754" stroke="#E2E6E9" stroke-width="0.294436" stroke-linecap="square"/>
<path d="M19.6145 65.7375H202.754" stroke="#E2E6E9" stroke-width="0.294436" stroke-linecap="square"/>
<path d="M19.5556 113.437H202.695" stroke="#A1B4BE" stroke-width="0.294436" stroke-linecap="square"/>
<path d="M28.6243 113.319H24.5022V132.752H28.6243V113.319Z" fill="#FB6666"/>
<path d="M33.9241 113.319H29.802V152.185H33.9241V113.319Z" fill="#FB6666"/>
<path d="M44.5238 113.319H40.4017V132.752H44.5238V113.319Z" fill="#FB6666"/>
<path d="M49.8237 113.319H45.7016V159.251H49.8237V113.319Z" fill="#FB6666"/>
<path d="M71.0231 113.319H66.901V130.985H71.0231V113.319Z" fill="#FB6666"/>
<path d="M81.6228 113.319H77.5007V132.752H81.6228V113.319Z" fill="#FB6666"/>
<path d="M86.9227 113.319H82.8006V122.152H86.9227V113.319Z" fill="#FB6666"/>
<path d="M102.822 113.319H98.7001V149.829H102.822V113.319Z" fill="#FB6666"/>
<path d="M113.422 113.319H109.3V134.518H113.422V113.319Z" fill="#FB6666"/>
<path d="M134.621 113.319H130.499V119.797H134.621V113.319Z" fill="#FB6666"/>
<path d="M145.221 113.319H141.099V124.508H145.221V113.319Z" fill="#FB6666"/>
<path d="M171.72 113.319H167.598V149.829H171.72V113.319Z" fill="#FB6666"/>
<path d="M108.122 82.697H104V113.318H108.122V82.697Z" fill="#12C48B"/>
<path d="M107.533 4.96527H201.753C202.401 4.96527 202.931 5.49526 202.931 6.14302V47.3641H106.355V6.14302C106.355 5.49526 106.885 4.96527 107.533 4.96527Z" fill="#F9FAFB"/>
<path d="M131.677 17.626L130.499 22.0426H129.734L128.144 16.5661H128.909L130.146 21.1593L131.383 16.5661H131.971L133.208 21.1593L134.445 16.5661H135.21L133.62 22.0426H132.855L131.677 17.626ZM138.096 21.5715C137.742 21.9248 137.33 22.1015 136.8 22.1015C136.152 22.1015 135.387 21.6304 135.387 20.8059C135.387 19.9226 136.094 19.5104 136.8 19.5104C137.33 19.5104 137.801 19.6871 138.096 20.0404V19.3338C138.096 18.8038 137.684 18.5093 137.095 18.5093C136.624 18.5093 136.211 18.686 135.858 19.0393L135.564 18.6271C135.976 18.156 136.506 17.9794 137.154 17.9794C137.978 17.9794 138.685 18.3327 138.685 19.3338V22.0426H138.037V21.5715H138.096ZM138.096 20.4526C137.86 20.0993 137.448 19.9815 136.977 19.9815C136.388 19.9815 135.976 20.3348 135.976 20.8648C135.976 21.3948 136.388 21.7481 136.977 21.7481C137.389 21.7481 137.86 21.5715 138.096 21.277V20.4526ZM139.98 16.5661H140.628V22.0426H139.98V16.5661ZM141.806 16.5661H142.395V22.0426H141.806V16.5661ZM145.398 17.9794C146.576 17.9794 147.282 18.9216 147.282 20.0993V20.276H144.043C144.102 21.0415 144.632 21.6304 145.457 21.6304C145.928 21.6304 146.399 21.4537 146.693 21.1004L146.988 21.5126C146.576 21.9248 146.046 22.1015 145.398 22.1015C144.22 22.1015 143.396 21.277 143.396 19.9815C143.454 18.8627 144.279 17.9794 145.398 17.9794ZM144.102 19.8049H146.693C146.693 19.216 146.281 18.4505 145.398 18.4505C144.573 18.4505 144.102 19.216 144.102 19.8049ZM148.46 21.2182V18.6271H147.812V18.0971H148.46V17.0372H149.108V18.0971H149.932V18.6271H149.108V21.1004C149.108 21.3948 149.225 21.6304 149.52 21.6304C149.697 21.6304 149.873 21.5715 149.932 21.4537L150.109 21.9248C149.932 22.1015 149.755 22.1604 149.343 22.1604C148.754 22.1604 148.46 21.807 148.46 21.2182ZM152.876 16.5661H155.35C156.292 16.5661 156.881 17.1549 156.881 17.9794C156.881 18.686 156.41 19.1571 155.939 19.216C156.527 19.3338 156.999 19.9226 156.999 20.5704C156.999 21.4537 156.41 22.0426 155.409 22.0426H152.876V16.5661ZM155.232 18.9216C155.88 18.9216 156.174 18.5682 156.174 18.0382C156.174 17.5671 155.821 17.1549 155.232 17.1549H153.583V18.9216H155.232ZM155.232 21.4537C155.88 21.4537 156.233 21.1004 156.233 20.5115C156.233 19.9815 155.88 19.5693 155.232 19.5693H153.524V21.4537H155.232ZM160.532 21.5715C160.178 21.9248 159.766 22.1015 159.236 22.1015C158.589 22.1015 157.823 21.6304 157.823 20.8059C157.823 19.9226 158.53 19.5104 159.236 19.5104C159.766 19.5104 160.237 19.6871 160.532 20.0404V19.3338C160.532 18.8038 160.12 18.5093 159.531 18.5093C159.06 18.5093 158.647 18.686 158.294 19.0393L158 18.6271C158.412 18.156 158.942 17.9794 159.59 17.9794C160.414 17.9794 161.121 18.3327 161.121 19.3338V22.0426H160.532V21.5715ZM160.532 20.4526C160.296 20.0993 159.884 19.9815 159.413 19.9815C158.824 19.9815 158.412 20.3348 158.412 20.8648C158.412 21.3948 158.824 21.7481 159.413 21.7481C159.825 21.7481 160.296 21.5715 160.532 21.277V20.4526ZM162.416 16.5661H163.064V22.0426H162.416V16.5661ZM166.715 21.5715C166.362 21.9248 165.949 22.1015 165.419 22.1015C164.772 22.1015 164.006 21.6304 164.006 20.8059C164.006 19.9226 164.713 19.5104 165.419 19.5104C165.949 19.5104 166.421 19.6871 166.715 20.0404V19.3338C166.715 18.8038 166.303 18.5093 165.714 18.5093C165.243 18.5093 164.831 18.686 164.477 19.0393L164.183 18.6271C164.595 18.156 165.125 17.9794 165.773 17.9794C166.597 17.9794 167.304 18.3327 167.304 19.3338V22.0426H166.656V21.5715H166.715ZM166.715 20.4526C166.479 20.0993 166.067 19.9815 165.596 19.9815C165.007 19.9815 164.595 20.3348 164.595 20.8648C164.595 21.3948 165.007 21.7481 165.596 21.7481C166.008 21.7481 166.479 21.5715 166.715 21.277V20.4526ZM171.308 19.4515C171.308 18.7449 170.955 18.5093 170.425 18.5093C169.954 18.5093 169.483 18.8038 169.247 19.1571V22.0426H168.599V18.0382H169.247V18.6271C169.542 18.2738 170.072 17.9794 170.66 17.9794C171.485 17.9794 171.956 18.3916 171.956 19.2749V22.0426H171.308V19.4515ZM174.9 17.9794C175.607 17.9794 176.078 18.2738 176.372 18.686L175.96 19.0393C175.725 18.686 175.371 18.5093 174.959 18.5093C174.135 18.5093 173.605 19.1571 173.605 20.0404C173.605 20.9237 174.135 21.5715 174.959 21.5715C175.371 21.5715 175.725 21.3948 175.96 21.0415L176.372 21.3948C176.078 21.807 175.666 22.1015 174.9 22.1015C173.723 22.1015 172.898 21.2182 172.898 19.9815C172.898 18.8627 173.723 17.9794 174.9 17.9794ZM178.964 17.9794C180.141 17.9794 180.848 18.9216 180.848 20.0993V20.276H177.609C177.668 21.0415 178.198 21.6304 179.022 21.6304C179.494 21.6304 179.965 21.4537 180.259 21.1004L180.553 21.5126C180.141 21.9248 179.611 22.1015 178.964 22.1015C177.786 22.1015 176.961 21.277 176.961 19.9815C176.961 18.8627 177.786 17.9794 178.964 17.9794ZM177.609 19.8049H180.2C180.2 19.216 179.788 18.4505 178.905 18.4505C178.08 18.4505 177.668 19.216 177.609 19.8049Z" fill="#91999F"/>
<path d="M121.077 31.1701H123.904V31.9357H121.077V31.1701ZM128.026 26.4591C129.027 26.4591 129.734 26.8713 130.205 27.4013L129.734 28.108C129.322 27.6369 128.85 27.2836 128.026 27.2836C126.495 27.2836 125.788 28.8146 125.788 30.3457C125.788 30.4635 125.788 30.5224 125.788 30.6401C126.142 30.1101 127.025 29.4035 128.026 29.4035C129.439 29.4035 130.617 30.2279 130.617 31.9357C130.617 33.2901 129.557 34.5267 127.849 34.5267C125.671 34.5267 124.846 32.5834 124.846 30.4635C124.846 28.3435 125.847 26.4591 128.026 26.4591ZM127.79 30.3457C127.025 30.3457 126.259 30.8168 125.847 31.5234C125.965 32.5245 126.436 33.7023 127.849 33.7023C129.086 33.7023 129.675 32.819 129.675 32.0534C129.616 30.8757 128.85 30.3457 127.79 30.3457ZM132.678 32.8778C133.09 33.3489 133.561 33.7023 134.386 33.7023C135.976 33.7023 136.624 32.1123 136.624 30.6401C136.624 30.5224 136.624 30.4046 136.624 30.3457C136.27 30.8757 135.387 31.5823 134.386 31.5823C132.973 31.5823 131.795 30.7579 131.795 29.0502C131.795 27.6958 132.855 26.4591 134.563 26.4591C136.741 26.4591 137.625 28.4024 137.625 30.5224C137.625 32.6423 136.624 34.5856 134.445 34.5856C133.444 34.5856 132.737 34.2323 132.266 33.6434L132.678 32.8778ZM134.563 27.2836C133.385 27.2836 132.737 28.2258 132.737 28.9324C132.737 30.1101 133.561 30.6401 134.563 30.6401C135.328 30.6401 136.094 30.169 136.506 29.4624C136.447 28.5202 135.917 27.2836 134.563 27.2836ZM144.809 26.4591C146.929 26.4591 147.812 28.5791 147.812 30.5224C147.812 32.4067 146.929 34.5856 144.809 34.5856C142.63 34.5856 141.806 32.4067 141.806 30.5224C141.806 28.5791 142.63 26.4591 144.809 26.4591ZM144.809 27.2836C143.337 27.2836 142.807 28.8735 142.807 30.4635C142.807 32.0534 143.337 33.6434 144.809 33.6434C146.281 33.6434 146.811 31.9945 146.811 30.4635C146.811 28.9324 146.281 27.2836 144.809 27.2836ZM149.049 33.6434C151.875 31.4057 153.406 30.1101 153.406 28.7557C153.406 27.7547 152.582 27.3424 151.758 27.3424C150.815 27.3424 150.109 27.7547 149.638 28.3435L149.049 27.6958C149.638 26.9302 150.698 26.4591 151.758 26.4591C153.053 26.4591 154.408 27.2247 154.408 28.7557C154.408 30.3457 152.759 31.8179 150.58 33.5256H154.408V34.4089H148.99V33.6434H149.049ZM157.823 30.3457C156.94 30.1101 156.056 29.5213 156.056 28.4613C156.056 27.048 157.411 26.4002 158.765 26.4002C160.061 26.4002 161.474 27.048 161.474 28.4613C161.474 29.5213 160.65 30.1101 159.707 30.3457C160.708 30.6401 161.592 31.3468 161.592 32.4067C161.592 33.7612 160.296 34.5267 158.765 34.5267C157.234 34.5267 155.939 33.7612 155.939 32.4067C155.939 31.3468 156.822 30.6401 157.823 30.3457ZM158.765 30.8168C158.294 30.8757 156.94 31.2879 156.94 32.3479C156.94 33.1723 157.823 33.7023 158.765 33.7023C159.707 33.7023 160.591 33.1723 160.591 32.3479C160.591 31.2879 159.236 30.8757 158.765 30.8168ZM158.765 27.2836C157.823 27.2836 157.057 27.7547 157.057 28.5791C157.057 29.5213 158.294 29.8746 158.765 29.9335C159.236 29.8746 160.473 29.5213 160.473 28.5791C160.473 27.8135 159.707 27.2836 158.765 27.2836ZM166.126 26.5769H167.127V31.3468C167.127 32.7601 167.893 33.7023 169.365 33.7023C170.837 33.7023 171.603 32.819 171.603 31.3468V26.5769H172.604V31.3468C172.604 33.2901 171.544 34.5267 169.424 34.5267C167.304 34.5267 166.244 33.2901 166.244 31.3468V26.5769H166.126ZM174.488 32.5834C175.018 33.1723 175.842 33.7023 176.961 33.7023C178.375 33.7023 178.787 32.9367 178.787 32.3479C178.787 31.4057 177.845 31.1701 176.785 30.8757C175.548 30.5224 174.135 30.169 174.135 28.638C174.135 27.3424 175.313 26.4591 176.844 26.4591C178.021 26.4591 178.964 26.8713 179.611 27.578L179.022 28.2846C178.434 27.6369 177.609 27.3424 176.726 27.3424C175.784 27.3424 175.136 27.8724 175.136 28.5791C175.136 29.3446 176.019 29.5802 177.02 29.8746C178.316 30.2279 179.788 30.6401 179.788 32.289C179.788 33.4078 179.022 34.5856 176.902 34.5856C175.548 34.5856 174.547 34.0556 173.899 33.3489L174.488 32.5834ZM181.26 26.5769H183.969C186.383 26.5769 187.973 28.2846 187.973 30.5224C187.973 32.7601 186.383 34.4678 183.969 34.4678H181.26V26.5769ZM183.969 33.5256C185.853 33.5256 186.972 32.1712 186.972 30.4635C186.972 28.7557 185.912 27.4013 183.969 27.4013H182.261V33.5256H183.969Z" fill="#F26869"/>
<path d="M30.3909 17.626L29.2131 22.0426H28.4476L26.8576 16.5661H27.6232L28.8598 21.1593L30.0964 16.5661H30.6853L31.9219 21.1593L33.1586 16.5661H33.9241L32.3342 22.0426H31.5686L30.3909 17.626ZM36.8096 21.5715C36.4563 21.9248 36.0441 22.1015 35.5141 22.1015C34.8663 22.1015 34.1008 21.6304 34.1008 20.8059C34.1008 19.9226 34.8074 19.5104 35.5141 19.5104C36.0441 19.5104 36.5152 19.6871 36.8096 20.0404V19.3338C36.8096 18.8038 36.3974 18.5093 35.8085 18.5093C35.3374 18.5093 34.9252 18.686 34.5719 19.0393L34.2774 18.6271C34.6896 18.156 35.2196 17.9794 35.8674 17.9794C36.6918 17.9794 37.3985 18.3327 37.3985 19.3338V22.0426H36.7507L36.8096 21.5715ZM36.8096 20.4526C36.574 20.0993 36.1618 19.9815 35.6907 19.9815C35.1019 19.9815 34.6896 20.3348 34.6896 20.8648C34.6896 21.3948 35.1019 21.7481 35.6907 21.7481C36.1029 21.7481 36.574 21.5715 36.8096 21.277V20.4526ZM38.694 16.5661H39.3417V22.0426H38.694V16.5661ZM40.5195 16.5661H41.1672V22.0426H40.5195V16.5661ZM44.1116 17.9794C45.2894 17.9794 45.996 18.9216 45.996 20.0993V20.276H42.7572C42.8161 21.0415 43.3461 21.6304 44.1705 21.6304C44.6416 21.6304 45.1127 21.4537 45.4071 21.1004L45.7016 21.5126C45.2894 21.9248 44.7594 22.1015 44.1116 22.1015C42.9339 22.1015 42.1094 21.277 42.1094 19.9815C42.1683 18.8627 42.9928 17.9794 44.1116 17.9794ZM42.8161 19.8049H45.4071C45.4071 19.216 44.9949 18.4505 44.1116 18.4505C43.2872 18.4505 42.8161 19.216 42.8161 19.8049ZM47.1738 21.2182V18.6271H46.526V18.0971H47.1738V17.0372H47.8215V18.0971H48.6459V18.6271H47.8215V21.1004C47.8215 21.3948 47.9393 21.6304 48.2337 21.6304C48.4104 21.6304 48.587 21.5715 48.6459 21.4537L48.8226 21.9248C48.6459 22.0426 48.4104 22.1604 48.0571 22.1604C47.4682 22.1604 47.1738 21.807 47.1738 21.2182ZM51.5903 16.5661H54.0636C55.0058 16.5661 55.5946 17.1549 55.5946 17.9794C55.5946 18.686 55.1235 19.1571 54.6524 19.216C55.2413 19.3338 55.7124 19.9226 55.7124 20.5704C55.7124 21.4537 55.1235 22.0426 54.1225 22.0426H51.5903V16.5661ZM53.9458 18.9216C54.5936 18.9216 54.888 18.5682 54.888 18.0382C54.888 17.5671 54.5347 17.1549 53.9458 17.1549H52.2969V18.9216H53.9458ZM53.9458 21.4537C54.5936 21.4537 54.9469 21.1004 54.9469 20.5115C54.9469 19.9815 54.5936 19.5693 53.9458 19.5693H52.2381V21.4537H53.9458ZM59.2456 21.5715C58.8923 21.9248 58.4801 22.1015 57.9501 22.1015C57.3024 22.1015 56.5368 21.6304 56.5368 20.8059C56.5368 19.9226 57.2435 19.5104 57.9501 19.5104C58.4801 19.5104 58.9512 19.6871 59.2456 20.0404V19.3338C59.2456 18.8038 58.8334 18.5093 58.2446 18.5093C57.7735 18.5093 57.3613 18.686 57.0079 19.0393L56.7135 18.6271C57.1257 18.156 57.6557 17.9794 58.3035 17.9794C59.1279 17.9794 59.8345 18.3327 59.8345 19.3338V22.0426H59.2456V21.5715ZM59.2456 20.4526C59.0101 20.0993 58.5979 19.9815 58.1268 19.9815C57.5379 19.9815 57.1257 20.3348 57.1257 20.8648C57.1257 21.3948 57.5379 21.7481 58.1268 21.7481C58.539 21.7481 59.0101 21.5715 59.2456 21.277V20.4526ZM61.13 16.5661H61.7778V22.0426H61.13V16.5661ZM65.4288 21.5715C65.0755 21.9248 64.6633 22.1015 64.1333 22.1015C63.4855 22.1015 62.72 21.6304 62.72 20.8059C62.72 19.9226 63.4266 19.5104 64.1333 19.5104C64.6633 19.5104 65.1344 19.6871 65.4288 20.0404V19.3338C65.4288 18.8038 65.0166 18.5093 64.4277 18.5093C63.9566 18.5093 63.5444 18.686 63.1911 19.0393L62.8967 18.6271C63.3089 18.156 63.8389 17.9794 64.4866 17.9794C65.311 17.9794 66.0177 18.3327 66.0177 19.3338V22.0426H65.3699L65.4288 21.5715ZM65.4288 20.4526C65.1933 20.0993 64.7811 19.9815 64.31 19.9815C63.7211 19.9815 63.3089 20.3348 63.3089 20.8648C63.3089 21.3948 63.7211 21.7481 64.31 21.7481C64.7222 21.7481 65.1933 21.5715 65.4288 21.277V20.4526ZM70.022 19.4515C70.022 18.7449 69.6687 18.5093 69.1387 18.5093C68.6676 18.5093 68.1965 18.8038 67.961 19.1571V22.0426H67.3132V18.0382H67.961V18.6271C68.2554 18.2738 68.7854 17.9794 69.3743 17.9794C70.1987 17.9794 70.6698 18.3916 70.6698 19.2749V22.0426H70.022V19.4515ZM73.6142 17.9794C74.3208 17.9794 74.7919 18.2738 75.0863 18.686L74.6741 19.0393C74.4386 18.686 74.0852 18.5093 73.673 18.5093C72.8486 18.5093 72.3186 19.1571 72.3186 20.0404C72.3186 20.9237 72.8486 21.5715 73.673 21.5715C74.0852 21.5715 74.4386 21.3948 74.6741 21.0415L75.0863 21.3948C74.7919 21.807 74.3797 22.1015 73.6142 22.1015C72.4364 22.1015 71.612 21.2182 71.612 19.9815C71.612 18.8627 72.4364 17.9794 73.6142 17.9794ZM77.6774 17.9794C78.8551 17.9794 79.5618 18.9216 79.5618 20.0993V20.276H76.323C76.3819 21.0415 76.9118 21.6304 77.7363 21.6304C78.2074 21.6304 78.6785 21.4537 78.9729 21.1004L79.2673 21.5126C78.8551 21.9248 78.3251 22.1015 77.6774 22.1015C76.4996 22.1015 75.6752 21.277 75.6752 19.9815C75.6752 18.8627 76.4996 17.9794 77.6774 17.9794ZM76.323 19.8049H78.914C78.914 19.216 78.5018 18.4505 77.6185 18.4505C76.7941 18.4505 76.3819 19.216 76.323 19.8049Z" fill="#91999F"/>
<path d="M19.7912 31.1701H22.6178V31.9357H19.7912V31.1701ZM26.7399 26.4591C27.741 26.4591 28.4476 26.8713 28.9187 27.4013L28.4476 28.108C28.0354 27.6369 27.5643 27.2836 26.7399 27.2836C25.2088 27.2836 24.5022 28.8146 24.5022 30.3457C24.5022 30.4635 24.5022 30.5224 24.5022 30.6401C24.8555 30.1101 25.7388 29.4035 26.7399 29.4035C28.1532 29.4035 29.3309 30.2279 29.3309 31.9357C29.3309 33.2901 28.2709 34.5267 26.5632 34.5267C24.3844 34.5267 23.56 32.5834 23.56 30.4635C23.56 28.3435 24.561 26.4591 26.7399 26.4591ZM26.5043 30.3457C25.7388 30.3457 24.9732 30.8168 24.561 31.5234C24.6788 32.5245 25.1499 33.7023 26.5632 33.7023C27.7998 33.7023 28.3887 32.819 28.3887 32.0534C28.3298 30.8757 27.5643 30.3457 26.5043 30.3457ZM31.392 32.8778C31.8042 33.3489 32.2753 33.7023 33.0997 33.7023C34.6897 33.7023 35.3374 32.1123 35.3374 30.6401C35.3374 30.5224 35.3374 30.4046 35.3374 30.3457C34.9841 30.8757 34.1008 31.5823 33.0997 31.5823C31.6864 31.5823 30.5087 30.7579 30.5087 29.0502C30.5087 27.6958 31.5686 26.4591 33.2764 26.4591C35.4552 26.4591 36.3385 28.4024 36.3385 30.5224C36.3385 32.6423 35.3374 34.5856 33.1586 34.5856C32.1575 34.5856 31.4509 34.2323 30.9798 33.6434L31.392 32.8778ZM33.2764 27.2836C32.0986 27.2836 31.4509 28.2258 31.4509 28.9324C31.4509 30.1101 32.2753 30.6401 33.2764 30.6401C34.0419 30.6401 34.8074 30.169 35.2196 29.4624C35.1608 28.5202 34.6308 27.2836 33.2764 27.2836ZM43.5228 26.4591C45.6427 26.4591 46.526 28.5791 46.526 30.5224C46.526 32.4067 45.6427 34.5856 43.5228 34.5856C41.3439 34.5856 40.5195 32.4067 40.5195 30.5224C40.5195 28.5791 41.3439 26.4591 43.5228 26.4591ZM43.5228 27.2836C42.0506 27.2836 41.5206 28.8735 41.5206 30.4635C41.5206 32.0534 42.0506 33.6434 43.5228 33.6434C44.9949 33.6434 45.5249 31.9945 45.5249 30.4635C45.5249 28.9324 44.9949 27.2836 43.5228 27.2836ZM47.7626 33.6434C50.5892 31.4057 52.1203 30.1101 52.1203 28.7557C52.1203 27.7547 51.2959 27.3424 50.4714 27.3424C49.5293 27.3424 48.8226 27.7547 48.3515 28.3435L47.7626 27.6958C48.3515 26.9302 49.4115 26.4591 50.4714 26.4591C51.767 26.4591 53.1214 27.2247 53.1214 28.7557C53.1214 30.3457 51.4725 31.8179 49.2937 33.5256H53.1214V34.4089H47.7037L47.7626 33.6434ZM56.5368 30.3457C55.6535 30.1101 54.7702 29.5213 54.7702 28.4613C54.7702 27.048 56.1246 26.4002 57.479 26.4002C58.7746 26.4002 60.1879 27.048 60.1879 28.4613C60.1879 29.5213 59.3634 30.1101 58.4212 30.3457C59.4223 30.6401 60.3056 31.3468 60.3056 32.4067C60.3056 33.7612 59.0101 34.5267 57.479 34.5267C55.948 34.5267 54.6524 33.7612 54.6524 32.4067C54.6524 31.3468 55.5358 30.6401 56.5368 30.3457ZM57.479 30.8168C57.0079 30.8757 55.6535 31.2879 55.6535 32.3479C55.6535 33.1723 56.5368 33.7023 57.479 33.7023C58.4212 33.7023 59.3045 33.1723 59.3045 32.3479C59.3045 31.2879 57.9501 30.8757 57.479 30.8168ZM57.479 27.2836C56.5368 27.2836 55.7713 27.7547 55.7713 28.5791C55.7713 29.5213 57.0079 29.8746 57.479 29.9335C57.9501 29.8746 59.1868 29.5213 59.1868 28.5791C59.1868 27.8135 58.4212 27.2836 57.479 27.2836ZM64.84 26.5769H65.841V31.3468C65.841 32.7601 66.6066 33.7023 68.0788 33.7023C69.5509 33.7023 70.3165 32.819 70.3165 31.3468V26.5769H71.3176V31.3468C71.3176 33.2901 70.2576 34.5267 68.1376 34.5267C66.0177 34.5267 64.9577 33.2901 64.9577 31.3468V26.5769H64.84ZM73.2019 32.5834C73.7319 33.1723 74.5564 33.7023 75.6752 33.7023C77.0885 33.7023 77.5007 32.9367 77.5007 32.3479C77.5007 31.4057 76.5585 31.1701 75.4986 30.8757C74.2619 30.5224 72.8486 30.169 72.8486 28.638C72.8486 27.3424 74.0264 26.4591 75.5574 26.4591C76.7352 26.4591 77.6774 26.8713 78.3251 27.578L77.7363 28.2846C77.1474 27.6369 76.323 27.3424 75.4397 27.3424C74.4975 27.3424 73.8497 27.8724 73.8497 28.5791C73.8497 29.3446 74.733 29.5802 75.7341 29.8746C77.0296 30.2279 78.5018 30.6401 78.5018 32.289C78.5018 33.4078 77.7363 34.5856 75.6163 34.5856C74.2619 34.5856 73.2608 34.0556 72.6131 33.3489L73.2019 32.5834ZM79.974 26.5769H82.6828C85.0972 26.5769 86.6871 28.2846 86.6871 30.5224C86.6871 32.7601 85.0972 34.4678 82.6828 34.4678H79.974C79.974 34.4678 79.974 26.5769 79.974 26.5769ZM82.6828 33.5256C84.5672 33.5256 85.686 32.1712 85.686 30.4635C85.686 28.7557 84.6261 27.4013 82.6828 27.4013H80.9751V33.5256H82.6828Z" fill="#F26869"/>
</svg>
