<svg width="32" height="8" viewBox="0 0 32 8" fill="none" xmlns="http://www.w3.org/2000/svg">
<path d="M0.451233 0.639893H1.27565V7.29416H0.451233V0.639893ZM6.04553 4.11424C6.04553 3.28982 5.63331 2.99538 4.98555 2.99538C4.39668 2.99538 3.80781 3.34871 3.57226 3.76092V7.29416H2.80672V2.4654H3.57226V3.17205C3.92558 2.75984 4.57334 2.34763 5.27999 2.34763C6.28107 2.34763 6.81106 2.87761 6.81106 3.93758V7.29416H6.04553V4.11424ZM10.4621 2.34763C11.3454 2.34763 11.8754 2.70095 12.2287 3.17205L11.6987 3.64315C11.4043 3.23094 10.9921 2.99538 10.4621 2.99538C9.4021 2.99538 8.81323 3.76092 8.81323 4.87978C8.81323 5.93975 9.46099 6.76417 10.4621 6.76417C10.9332 6.76417 11.3454 6.58751 11.6987 6.11641L12.2287 6.58751C11.8754 7.05861 11.3454 7.41193 10.4621 7.41193C9.04878 7.41193 8.04769 6.29308 8.04769 4.87978C8.04769 3.46649 8.98989 2.34763 10.4621 2.34763ZM12.9942 4.87978C12.9942 3.46649 13.9364 2.34763 15.4086 2.34763C16.8808 2.34763 17.823 3.46649 17.823 4.87978C17.823 6.29308 16.8808 7.41193 15.4086 7.41193C13.9364 7.41193 12.9942 6.29308 12.9942 4.87978ZM16.9986 4.87978C16.9986 3.8787 16.4097 2.99538 15.4086 2.99538C14.3486 2.99538 13.8186 3.8787 13.8186 4.87978C13.8186 5.88086 14.4075 6.76417 15.4086 6.76417C16.4097 6.76417 16.9986 5.88086 16.9986 4.87978ZM24.8306 3.99647C24.8306 3.4076 24.5361 2.99538 23.9473 2.99538C23.4762 2.99538 22.8873 3.34871 22.6517 3.76092V7.29416H21.8862V3.99647C21.8862 3.4076 21.6507 2.99538 21.0029 2.99538C20.5318 2.99538 20.0018 3.34871 19.7074 3.76092V7.29416H18.9418V2.4654H19.7074V3.17205C19.884 2.87761 20.5318 2.34763 21.2973 2.34763C22.0629 2.34763 22.4751 2.75984 22.5929 3.23093C22.8873 2.81872 23.5351 2.34763 24.2417 2.34763C25.125 2.34763 25.5961 2.81872 25.5961 3.81981V7.29416H24.8306V3.99647ZM29.1882 2.34763C30.6604 2.34763 31.4848 3.46648 31.4848 4.93867V5.11533H27.5983C27.6572 5.99864 28.3049 6.76417 29.3649 6.76417C29.8949 6.76417 30.4838 6.52862 30.8371 6.1753L31.1904 6.6464C30.7193 7.1175 30.0715 7.41193 29.2471 7.41193C27.8338 7.41193 26.7739 6.35196 26.7739 4.87978C26.8327 3.46649 27.8338 2.34763 29.1882 2.34763ZM27.5983 4.58534H30.7782C30.7782 3.8787 30.3071 2.99538 29.1882 2.99538C28.1283 2.9365 27.6572 3.81981 27.5983 4.58534Z" fill="#2A3E49"/>
</svg>
