<svg width="37" height="36" viewBox="0 0 37 36" fill="none" xmlns="http://www.w3.org/2000/svg">
<path d="M18.4147 34.3975C9.40497 34.3975 2.16183 27.1544 2.16183 18.2035C2.16183 9.25262 9.40497 1.95059 18.4147 1.95059C27.4245 1.95059 34.6676 9.19373 34.6676 18.2035C34.6676 27.2132 27.3656 34.3975 18.4147 34.3975ZM18.4736 25.3288C22.4191 25.3288 25.599 22.1489 25.599 18.2035C25.599 14.258 22.4191 11.0781 18.4736 11.0781C14.5282 11.0781 11.3483 14.258 11.3483 18.2035C11.3483 22.1489 14.5282 25.3288 18.4736 25.3288Z" fill="#D8D8D8" fill-opacity="0.9"/>
<path d="M14.9993 24.4456L10.5827 32.4542C6.63727 30.3343 3.69291 26.5655 2.57405 22.0901L11.466 19.8524C11.996 21.8545 13.2915 23.5034 14.9993 24.4456Z" fill="#40C3F9"/>
<path d="M22.7135 23.9745L28.1311 31.2176C25.4223 33.2198 22.0657 34.3975 18.4147 34.3975C15.4115 34.3975 12.6438 33.632 10.2883 32.2187L14.8226 24.3278C15.8826 24.9755 17.1192 25.3289 18.4736 25.3289C20.0636 25.3289 21.5358 24.7989 22.7135 23.9745Z" fill="#FE5A61"/>
<path d="M24.2446 13.9636L31.7233 8.78152C33.6077 11.4315 34.7265 14.6703 34.7265 18.2035C34.7265 23.68 32.0177 28.4499 27.8956 31.3942L22.6546 24.0333C24.4801 22.7378 25.6579 20.6179 25.6579 18.2035C25.599 16.6135 25.069 15.2002 24.2446 13.9636Z" fill="#00BC7C"/>
<path d="M18.4147 11.0781V1.95059C23.9501 1.95059 28.8378 4.7183 31.7821 8.89929L24.3035 14.0814C23.0079 12.2559 20.888 11.0781 18.4147 11.0781Z" fill="#FF6FAF"/>
<path d="M11.5838 19.9701L2.69182 22.3256C2.3385 21.0301 2.16183 19.6168 2.16183 18.2035C2.16183 9.25262 9.40497 1.95059 18.4147 1.95059L18.3558 11.0781C14.4693 11.137 11.3483 14.258 11.3483 18.2035C11.3483 18.7924 11.4071 19.3812 11.5838 19.9701Z" fill="#FFC053"/>
<path d="M18.4147 24.0922C21.667 24.0922 24.3035 21.4558 24.3035 18.2035C24.3035 14.9513 21.667 12.3148 18.4147 12.3148C15.1625 12.3148 12.526 14.9513 12.526 18.2035C12.526 21.4558 15.1625 24.0922 18.4147 24.0922Z" stroke="white" stroke-width="23.5549" stroke-dasharray="235.55 235.55"/>
</svg>
