<svg width="49" height="5" viewBox="0 0 49 5" fill="none" xmlns="http://www.w3.org/2000/svg">
<path d="M0.853019 1.57729V4.34959H0.409424V0.911933H0.853019L2.84904 3.64727V0.911933H3.29264V4.34959H2.88604L0.853019 1.57729ZM3.92101 3.09281C3.92101 2.35353 4.40156 1.79907 5.14084 1.79907C5.91708 1.79907 6.36062 2.39049 6.36062 3.09281C6.36062 3.79513 5.88012 4.42352 5.14084 4.42352C4.40156 4.42352 3.92101 3.83209 3.92101 3.09281ZM5.99098 3.09281C5.99098 2.57531 5.69529 2.13175 5.17779 2.13175C4.6603 2.13175 4.3276 2.57531 4.3276 3.09281C4.3276 3.61031 4.62333 4.05388 5.17779 4.05388C5.69529 4.05388 5.99098 3.61031 5.99098 3.09281ZM6.65635 1.83603H7.06295L7.91314 3.86906L8.72633 1.83603H9.13293L8.09796 4.34959H7.69136L6.65635 1.83603ZM10.9072 3.57334C11.092 3.83209 11.4617 4.01691 11.8683 4.01691C12.3858 4.01691 12.6815 3.75816 12.6815 3.35156C12.6815 2.90799 12.3119 2.72317 11.8313 2.72317C11.6835 2.72317 11.5356 2.72317 11.4617 2.72317V2.31657C11.5356 2.31657 11.6835 2.31657 11.8313 2.31657C12.2749 2.31657 12.6445 2.13175 12.6445 1.76211C12.6445 1.39247 12.2749 1.17068 11.8683 1.17068C11.4986 1.17068 11.2029 1.31854 10.9442 1.57729L10.7224 1.31854C10.9811 1.02282 11.3877 0.801041 11.9052 0.801041C12.5706 0.801041 13.0881 1.13372 13.0881 1.72514C13.0881 2.20567 12.6815 2.46442 12.3488 2.53835C12.6815 2.57531 13.162 2.83406 13.162 3.38852C13.162 3.97995 12.7185 4.38655 11.9422 4.38655C11.3508 4.38655 10.9442 4.1278 10.7224 3.83209L10.9072 3.57334ZM14.3079 1.46639L13.7534 2.05782L13.4947 1.79907L14.3449 0.911933H14.7145V4.34959H14.2709L14.3079 1.46639ZM16.6366 2.90799H19.4089V3.24067H16.6366V2.90799ZM21.2941 0.911933H22.477C23.5489 0.911933 24.2512 1.65121 24.2512 2.64924C24.2512 3.64727 23.5489 4.38655 22.477 4.38655H21.2941V0.911933ZM22.44 3.97995C23.2901 3.97995 23.7707 3.38852 23.7707 2.64924C23.7707 1.90996 23.2901 1.31854 22.44 1.31854H21.7007V3.97995H22.44ZM25.9886 1.79907C26.7278 1.79907 27.1714 2.39049 27.1714 3.12977V3.24067H25.1384C25.1753 3.7212 25.508 4.09084 26.0255 4.09084C26.3212 4.09084 26.6169 3.97995 26.8017 3.75816L26.9866 4.01691C26.7278 4.27566 26.3952 4.38655 25.9886 4.38655C25.2493 4.38655 24.7318 3.86906 24.7318 3.05585C24.7318 2.35353 25.2493 1.79907 25.9886 1.79907ZM25.1384 2.94495H26.7648C26.7648 2.57531 26.506 2.09478 25.9516 2.09478C25.4341 2.09478 25.1753 2.57531 25.1384 2.94495ZM28.9087 1.79907C29.3522 1.79907 29.648 1.98389 29.8328 2.24264L29.5741 2.46442C29.4262 2.24264 29.2044 2.13175 28.9457 2.13175C28.4282 2.13175 28.0955 2.53835 28.0955 3.09281C28.0955 3.64727 28.4282 4.05388 28.9457 4.05388C29.2044 4.05388 29.4262 3.94298 29.5741 3.7212L29.8328 3.94298C29.648 4.20173 29.3892 4.38655 28.9087 4.38655C28.1694 4.38655 27.6519 3.83209 27.6519 3.05585C27.6519 2.35353 28.1694 1.79907 28.9087 1.79907ZM31.718 3.57334C31.9028 3.83209 32.2724 4.01691 32.679 4.01691C33.1965 4.01691 33.4922 3.75816 33.4922 3.35156C33.4922 2.90799 33.1226 2.72317 32.6421 2.72317C32.4942 2.72317 32.3464 2.72317 32.2724 2.72317V2.31657C32.3464 2.31657 32.4942 2.31657 32.6421 2.31657C33.0857 2.31657 33.4553 2.13175 33.4553 1.76211C33.4553 1.39247 33.0856 1.17068 32.679 1.17068C32.3094 1.17068 32.0137 1.31854 31.7549 1.57729L31.5332 1.31854C31.7919 1.02282 32.1985 0.801041 32.716 0.801041C33.3813 0.801041 33.8988 1.13372 33.8988 1.72514C33.8988 2.20567 33.4922 2.46442 33.1595 2.53835C33.4922 2.57531 33.9728 2.83406 33.9728 3.38852C33.9728 3.97995 33.5292 4.38655 32.7529 4.38655C32.1615 4.38655 31.7549 4.1278 31.5332 3.83209L31.718 3.57334ZM35.1187 1.46639L34.5642 2.05782L34.3055 1.79907L35.1556 0.911933H35.5253V4.34959H35.0817L35.1187 1.46639ZM36.2276 4.83012C36.3754 4.71923 36.5603 4.53441 36.5603 4.34959C36.5603 4.34959 36.5233 4.34959 36.4863 4.34959C36.3385 4.34959 36.2276 4.2387 36.2276 4.09084C36.2276 3.94298 36.3385 3.79513 36.4863 3.79513C36.6711 3.79513 36.819 3.94298 36.819 4.20173C36.819 4.53441 36.6342 4.83012 36.4124 4.97798L36.2276 4.83012ZM38.7411 4.01691C39.9979 3.05585 40.6633 2.46442 40.6633 1.873C40.6633 1.42943 40.2936 1.24461 39.9609 1.24461C39.5543 1.24461 39.2217 1.42943 39.0368 1.68818L38.7781 1.42943C39.0369 1.09675 39.4804 0.874969 39.9609 0.874969C40.5524 0.874969 41.1068 1.20764 41.1068 1.873C41.1068 2.57531 40.4045 3.2037 39.4434 3.97995H41.1438V4.34959H38.7781L38.7411 4.01691ZM43.1029 0.838005C44.027 0.838005 44.4336 1.76211 44.4336 2.61228C44.4336 3.46245 44.0639 4.38655 43.1029 4.38655C42.1418 4.38655 41.7722 3.42549 41.7722 2.61228C41.7722 1.79907 42.1418 0.838005 43.1029 0.838005ZM43.1029 1.24461C42.4375 1.24461 42.2157 1.94693 42.2157 2.64924C42.2157 3.35156 42.4375 4.05388 43.1029 4.05388C43.7682 4.05388 43.99 3.35156 43.99 2.64924C43.99 1.94693 43.7682 1.24461 43.1029 1.24461ZM45.6164 1.46639L45.062 2.05782L44.8032 1.79907L45.6534 0.911933H46.023V4.34959H45.5795L45.6164 1.46639ZM48.4627 1.28157H46.6145V0.911933H48.9802V1.20765L47.5755 4.34959H47.095L48.4627 1.28157Z" fill="#324C5B"/>
</svg>
