<svg width="28" height="6" viewBox="0 0 28 6" fill="none" xmlns="http://www.w3.org/2000/svg">
<path d="M2.96625 0.713531C4.26 0.713531 5.1841 1.71156 5.1841 3.0053C5.1841 4.29904 4.29696 5.29707 2.96625 5.29707C1.63555 5.29707 0.748413 4.29904 0.748413 3.0053C0.748413 1.71156 1.63555 0.713531 2.96625 0.713531ZM2.96625 1.19406C1.96823 1.19406 1.33984 1.97031 1.33984 3.0053C1.33984 4.04029 1.96823 4.81654 2.96625 4.81654C3.96428 4.81654 4.59267 4.04029 4.59267 3.0053C4.59267 1.97031 3.96428 1.19406 2.96625 1.19406ZM5.51677 2.00727H6.07123L7.1432 4.63172L8.21515 2.00727H8.76961L7.4389 5.22314H6.88444L5.51677 2.00727ZM10.6548 1.93334C11.6158 1.93334 12.2073 2.70959 12.2073 3.67065V3.78154H9.61978C9.65674 4.37297 10.1003 4.89047 10.7657 4.89047C11.1353 4.89047 11.505 4.74261 11.7637 4.48386L11.9855 4.81654C11.6528 5.14921 11.2462 5.29707 10.6917 5.29707C9.73067 5.29707 9.06532 4.59475 9.06532 3.59672C9.06532 2.67262 9.73068 1.93334 10.6548 1.93334ZM9.61978 3.4119H11.7267C11.7267 2.93137 11.3941 2.33995 10.6548 2.33995C9.95246 2.33995 9.61978 2.93137 9.61978 3.4119ZM13.0205 2.00727H13.538V2.52477C13.7967 2.19209 14.1664 1.93334 14.6099 1.93334V2.45084C14.536 2.45084 14.499 2.41388 14.4251 2.41388C14.1294 2.41388 13.6858 2.67263 13.538 2.93137V5.22314H13.0205V2.00727ZM14.7208 2.00727H15.2753L16.3472 4.63172L17.4192 2.00727H17.9737L16.6429 5.22314H16.0885L14.7208 2.00727ZM18.3803 1.12014C18.3803 0.935315 18.5281 0.787458 18.7129 0.787458C18.8978 0.787458 19.0456 0.935315 19.0456 1.12014C19.0456 1.30496 18.8978 1.45281 18.7129 1.45281C18.5281 1.45281 18.3803 1.30496 18.3803 1.12014ZM18.4542 2.00727H18.9717V5.22314H18.4542V2.00727ZM21.3743 1.93334C22.3354 1.93334 22.9268 2.70959 22.9268 3.67065V3.78154H20.3393C20.3763 4.37297 20.8199 4.89047 21.4852 4.89047C21.8549 4.89047 22.2245 4.74261 22.4833 4.48386L22.705 4.81654C22.3724 5.14921 21.9658 5.29707 21.4113 5.29707C20.4502 5.29707 19.7849 4.59475 19.7849 3.59672C19.7849 2.67262 20.4502 1.93334 21.3743 1.93334ZM20.3024 3.4119H22.4093C22.4093 2.93137 22.0767 2.33995 21.3374 2.33995C20.672 2.33995 20.3393 2.93137 20.3024 3.4119ZM25.6622 2.63566L24.812 5.22314H24.2945L23.2595 2.00727H23.777L24.5532 4.55779L25.4034 2.00727H25.847L26.6972 4.55779L27.4734 2.00727H27.9909L26.9559 5.22314H26.4384L25.6622 2.63566Z" fill="#334C5B"/>
</svg>
