<svg width="38" height="38" viewBox="0 0 38 38" fill="none" xmlns="http://www.w3.org/2000/svg">
<g clip-path="url(#clip0_3_2555)">
<g clip-path="url(#clip1_3_2555)">
<path d="M18.865 37.73C29.2839 37.73 37.73 29.2839 37.73 18.865C37.73 8.44615 29.2839 0 18.865 0C8.44615 0 0 8.44615 0 18.865C0 29.2839 8.44615 37.73 18.865 37.73Z" fill="#283139"/>
<path d="M23.6078 19.6028H20.2418V31.9348H15.1418V19.6028H12.7168V15.2698H15.1418V12.4658C15.1418 10.4598 16.0948 7.31982 20.2878 7.31982L24.0648 7.33482V11.5418H21.3248C20.8748 11.5418 20.2428 11.7668 20.2428 12.7238V15.2738H24.0538L23.6078 19.6028Z" fill="white"/>
</g>
</g>
<defs>
<clipPath id="clip0_3_2555">
<rect width="38" height="38" fill="white"/>
</clipPath>
<clipPath id="clip1_3_2555">
<rect width="38" height="38" fill="white"/>
</clipPath>
</defs>
</svg>
