<svg width="39" height="38" viewBox="0 0 39 38" fill="none" xmlns="http://www.w3.org/2000/svg">
<g clip-path="url(#clip0_3_2569)">
<g clip-path="url(#clip1_3_2569)">
<path d="M19.8592 0C9.39416 0 0.910156 8.484 0.910156 18.949C0.910156 29.414 9.39416 37.898 19.8592 37.898C30.3242 37.898 38.8082 29.414 38.8082 18.948C38.8082 8.485 30.3252 0 19.8592 0Z" fill="#283139"/>
<path d="M31.2579 24.6481C31.2579 27.8191 28.6779 30.3981 25.5079 30.3981H14.2109C11.0409 30.3981 8.46094 27.8191 8.46094 24.6481V13.3521C8.46094 10.1821 11.0409 7.60205 14.2109 7.60205H25.5069C28.6769 7.60205 31.2569 10.1821 31.2569 13.3521L31.2579 24.6481ZM25.5079 10.0831H14.2109C13.3439 10.0838 12.5126 10.4286 11.8996 11.0417C11.2865 11.6548 10.9417 12.486 10.9409 13.3531V24.6481C10.942 25.515 11.2869 26.3461 11.8999 26.9591C12.5129 27.5721 13.344 27.917 14.2109 27.918H25.5069C26.3739 27.917 27.205 27.5721 27.818 26.9591C28.431 26.3461 28.7759 25.515 28.7769 24.6481V13.3521C28.7759 12.4851 28.431 11.654 27.818 11.041C27.205 10.428 26.3739 10.0831 25.5069 10.0821L25.5079 10.0831ZM19.8599 24.8701C18.3036 24.8682 16.8115 24.2492 15.7109 23.1488C14.6103 22.0484 13.9911 20.5564 13.9889 19.0001C13.9908 17.4437 14.6098 15.9516 15.7102 14.851C16.8106 13.7504 18.3026 13.1312 19.8589 13.1291C21.4156 13.1306 22.9081 13.7497 24.009 14.8503C25.1098 15.951 25.7291 17.4434 25.7309 19.0001C25.7288 20.5565 25.1096 22.0486 24.009 23.1491C22.9085 24.2497 21.4164 24.8679 19.8599 24.8701ZM19.8599 15.6091C18.9613 15.6104 18.0998 15.968 17.4643 16.6034C16.8288 17.2389 16.4713 18.1004 16.4699 18.9991C16.4699 20.8691 17.9909 22.3891 19.8599 22.3891C21.7299 22.3891 23.2499 20.8691 23.2499 18.9991C23.2499 17.1301 21.7299 15.6091 19.8599 15.6091ZM25.9199 14.3421C25.5513 14.3421 25.1977 14.1956 24.9371 13.9349C24.6764 13.6743 24.5299 13.3207 24.5299 12.9521C24.5397 12.59 24.6903 12.246 24.9498 11.9934C25.2094 11.7407 25.5572 11.5993 25.9194 11.5993C26.2816 11.5993 26.6295 11.7407 26.889 11.9934C27.1486 12.246 27.2992 12.59 27.3089 12.9521C27.3089 13.3205 27.1626 13.6739 26.9022 13.9346C26.6417 14.1952 26.2884 14.3418 25.9199 14.3421Z" fill="white"/>
</g>
</g>
<defs>
<clipPath id="clip0_3_2569">
<rect width="38" height="38" fill="white" transform="translate(0.910156)"/>
</clipPath>
<clipPath id="clip1_3_2569">
<rect width="38" height="38" fill="white" transform="translate(0.910156)"/>
</clipPath>
</defs>
</svg>
