<svg width="29" height="30" viewBox="0 0 29 30" fill="none" xmlns="http://www.w3.org/2000/svg">
<rect y="0.0898438" width="29" height="29" rx="14.5" fill="#F963A0"/>
<g clip-path="url(#clip0_3_2415)">
<path d="M27.7691 21.6896C27.1208 21.6713 26.3914 21.6645 25.581 21.669C24.7706 21.6736 24.0928 21.689 23.5476 21.7153L21.4037 21.8151L11.4357 21.7684C10.92 21.7666 10.4153 21.7692 9.92174 21.7762C9.42813 21.7832 8.99714 21.7944 8.62877 21.8096L7.54577 21.8545C7.48683 21.8569 7.44631 21.8598 7.42421 21.8632C7.40211 21.8666 7.40579 21.8698 7.43526 21.8728C7.45 21.8765 7.48683 21.8797 7.54577 21.8824C7.60471 21.8852 7.67102 21.8869 7.74469 21.8875L17.0275 22.0157L12.6071 22.2181L8.73928 22.165C8.6214 22.1631 8.49984 22.1634 8.3746 22.1659C8.24935 22.1683 8.16463 22.1723 8.12042 22.1778L7.78889 22.2208C7.74469 22.2251 7.74101 22.2294 7.77784 22.2337C7.81468 22.2379 7.8773 22.2416 7.96571 22.2446L12.0546 22.3564L14.7731 22.5258C14.8321 22.5295 14.9131 22.5321 15.0162 22.5336C15.1194 22.5351 15.2225 22.5353 15.3257 22.5341L16.3645 22.5194C16.4971 22.5176 16.5929 22.5142 16.6518 22.5093C16.7107 22.5044 16.7181 22.4993 16.6739 22.4938L15.392 22.3335L20.2765 22.1512L23.3708 22.535C23.4003 22.5386 23.4445 22.5415 23.5034 22.5437C23.5623 22.5458 23.636 22.5475 23.7244 22.5487C23.7981 22.5493 23.8755 22.5492 23.9565 22.5482C24.0375 22.5473 24.1149 22.5457 24.1886 22.5432L25.2495 22.4983C25.6326 22.4831 25.9088 22.4654 26.0783 22.4452C26.2477 22.4251 26.303 22.404 26.2441 22.382L25.139 21.969L27.526 21.8801C27.5554 21.8795 27.5812 21.8785 27.6033 21.8769C27.6254 21.8754 27.6512 21.8746 27.6807 21.8746C28.2406 21.8514 28.5648 21.8238 28.6532 21.7918C28.7416 21.7597 28.5795 21.7309 28.1669 21.7052C28.1375 21.7034 28.108 21.7017 28.0785 21.7002C28.049 21.6986 28.0196 21.6973 27.9901 21.6961C27.9606 21.6954 27.9275 21.6945 27.8907 21.6933C27.8538 21.6921 27.8133 21.6909 27.7691 21.6896ZM26.5535 21.8261C26.583 21.8298 26.5866 21.8334 26.5645 21.8371C26.5424 21.8408 26.5019 21.8441 26.443 21.8472C26.4135 21.8478 26.384 21.8485 26.3546 21.8495C26.3251 21.8504 26.2883 21.8511 26.2441 21.8517C26.1114 21.8536 25.9862 21.8533 25.8683 21.8508C25.7504 21.8484 25.6694 21.8444 25.6252 21.8389C25.5368 21.8285 25.4005 21.8194 25.2163 21.8114C25.0321 21.8035 24.8074 21.7977 24.5422 21.794C24.4243 21.7922 24.3359 21.7889 24.277 21.784C24.218 21.7791 24.2033 21.7739 24.2328 21.7684C24.277 21.7629 24.3617 21.7589 24.4869 21.7565C24.6122 21.7541 24.7338 21.7537 24.8516 21.7556C25.2495 21.7611 25.5994 21.7701 25.9015 21.7826C26.2035 21.7951 26.4209 21.8096 26.5535 21.8261Z" fill="white"/>
</g>
<defs>
<clipPath id="clip0_3_2415">
<rect width="21.3726" height="1" fill="white" transform="matrix(1 0 0 -1 7.41 22.5898)"/>
</clipPath>
</defs>
</svg>
