<svg width="228" height="342" viewBox="0 0 228 342" fill="none" xmlns="http://www.w3.org/2000/svg">
<g clip-path="url(#clip0_3_2373)">
<path d="M227.4 341.3H0V300.5L86.5 213.5C112.1 187.3 129 168.8 137.3 157.8C145.6 146.8 151.7 136.6 155.5 126.9C159.3 117.3 161.2 106.9 161.2 95.8999C161.2 80.7999 156.6 68.7999 147.5 60.0999C137.123 50.9156 123.535 46.2066 109.7 46.9999C96.8 46.9999 84.4 49.3999 72.4 54.0999C60.4 58.7999 46.8 67.4999 31 79.8999L1.9 44.2999C20.6 28.4999 38.7 17.3999 56.3 10.7999C73.9 4.1999 92.6 0.899902 112.5 0.899902C143.7 0.899902 168.7 8.9999 187.5 25.2999C206.3 41.5999 215.7 63.4999 215.7 90.9999C215.7 106.1 213 120.5 207.6 134.1C202.2 147.7 193.8 161.8 182.6 176.2C171.4 190.6 152.7 210.2 126.5 234.8L68.2 291.3V293.6H227.5V341.3H227.4Z" fill="url(#paint0_linear_3_2373)"/>
</g>
<defs>
<linearGradient id="paint0_linear_3_2373" x1="104.636" y1="48.2471" x2="104.636" y2="286.483" gradientUnits="userSpaceOnUse">
<stop stop-color="#EFF2F6"/>
<stop offset="1" stop-color="white"/>
</linearGradient>
<clipPath id="clip0_3_2373">
<rect width="228" height="341" fill="white" transform="translate(0 0.299927)"/>
</clipPath>
</defs>
</svg>
