<svg width="13" height="12" viewBox="0 0 13 12" fill="none" xmlns="http://www.w3.org/2000/svg">
<g clip-path="url(#clip0_3_2264)">
<path d="M5.981 6.8226C5.981 6.6003 6.2033 6.4131 6.4958 6.3312V7.2672C6.1565 7.1736 5.981 7.0215 5.981 6.8226ZM7.0223 7.9341C7.3733 8.0394 7.5371 8.1798 7.5371 8.3904C7.5371 8.6127 7.3148 8.7999 7.0223 8.8818V7.9341ZM7.0223 9.3966C7.619 9.303 8.0636 8.8818 8.0636 8.3787C8.0636 7.8873 7.7243 7.5597 7.0223 7.3959V6.3312C7.3031 6.4014 7.5254 6.5769 7.5488 6.7875C7.5605 6.9279 7.6892 7.0449 7.8296 7.0215C7.97 7.0098 8.0753 6.8811 8.0636 6.7407C8.0285 6.261 7.5956 5.8866 7.0223 5.793V5.5122C7.0223 5.3718 6.9053 5.2548 6.7649 5.2548C6.6245 5.2548 6.5075 5.3718 6.5075 5.5122V5.793C5.9108 5.8866 5.4662 6.3078 5.4662 6.8109C5.4662 7.3023 5.8055 7.6299 6.5075 7.7937V8.8584C6.2267 8.7882 6.0044 8.6127 5.981 8.4021C5.9693 8.2617 5.8406 8.1564 5.7002 8.1681C5.5598 8.1798 5.4545 8.3085 5.4662 8.4489C5.5013 8.9286 5.9342 9.303 6.5075 9.3966V9.6774C6.5075 9.8178 6.6245 9.9348 6.7649 9.9348C6.9053 9.9348 7.0223 9.8178 7.0223 9.6774V9.3966ZM11.9597 11.1165C12.0416 11.6781 11.4098 11.76 11.4098 11.76H2.12C1.4765 11.76 1.5584 11.526 1.5701 11.1165L2.471 3.453C2.471 3.3711 2.5529 3.3009 2.6699 3.3009H3.5708C3.5357 3.5115 3.5123 3.7338 3.5123 3.9795C3.5123 4.2252 3.5123 4.4358 3.5123 4.6113C3.5123 4.9272 3.8516 5.1963 4.1675 5.1963C4.46 5.1963 4.7876 4.9506 4.811 4.6581C4.811 4.6464 4.811 5.0208 4.811 4.6113C4.811 4.0731 4.8695 3.6402 4.9748 3.3009H8.5667C8.6603 3.6168 8.7071 4.0497 8.7071 4.6113C8.7071 4.9272 9.0464 5.1963 9.3623 5.1963C9.6782 5.1963 10.0292 4.9272 10.0292 4.6113C10.0292 4.4592 10.0292 4.2486 10.0292 3.9795C10.0292 3.7104 9.9941 3.4881 9.9356 3.3126H10.8716C10.9535 3.3126 11.0705 3.3945 11.0705 3.4647L11.9597 11.1165ZM9.0464 4.5879C9.0347 4.4592 9.0347 4.3539 9.0347 4.2252C9.0347 2.2713 8.0168 0.691798 6.7649 0.691798C5.513 0.691798 4.4951 2.283 4.4951 4.2369C4.4951 4.3422 4.4951 4.4475 4.4951 4.5528C4.4951 4.5528 4.4951 4.5528 4.4951 4.5645C4.4834 4.7283 4.343 4.8687 4.1675 4.8687C3.992 4.8687 3.8516 4.74 3.8399 4.5645C3.8399 4.4475 3.8399 4.3422 3.8399 4.2369C3.8399 1.932 5.1503 0.0599976 6.7649 0.0599976C8.3795 0.0599976 9.6899 1.932 9.6899 4.2369C9.6899 4.3656 9.6899 4.4826 9.6899 4.5996H9.6782C9.6548 4.7517 9.5144 4.8687 9.3623 4.8687C9.1985 4.857 9.0698 4.74 9.0464 4.5879Z" fill="white"/>
</g>
<defs>
<clipPath id="clip0_3_2264">
<rect width="11.7" height="11.7" fill="white" transform="translate(0.949997 0.0599976)"/>
</clipPath>
</defs>
</svg>
