<svg width="13" height="13" viewBox="0 0 13 13" fill="none" xmlns="http://www.w3.org/2000/svg">
<g clip-path="url(#clip0_3_2259)">
<path d="M8.5539 2.2629V1.6311C8.5539 1.4556 8.6943 1.3035 8.8815 1.3035H10.1802C10.3557 1.3035 10.5078 1.4439 10.5078 1.6311V4.2168L12.333 6.0537C12.4032 6.1005 12.45 6.1707 12.45 6.2643C12.45 6.4047 12.3447 6.51 12.2043 6.51H11.4672V12.1143C11.4672 12.2547 11.3619 12.36 11.2215 12.36H8.2965C8.1678 12.36 8.0508 12.2547 8.0508 12.1143V7.9725H5.1258V12.1143C5.1258 12.2547 5.0205 12.36 4.8801 12.36H1.9551C1.8264 12.36 1.7094 12.2547 1.7094 12.1143V6.51H0.9957C0.9021 6.51 0.8085 6.4515 0.7734 6.3579C0.7266 6.2643 0.75 6.159 0.8202 6.0888L6.0033 0.893999C6.3192 0.578099 6.8691 0.578099 7.1733 0.893999L8.5539 2.2629Z" fill="white"/>
</g>
<defs>
<clipPath id="clip0_3_2259">
<rect width="11.7" height="11.7" fill="white" transform="translate(0.75 0.660004)"/>
</clipPath>
</defs>
</svg>
