<svg width="172" height="153" viewBox="0 0 172 153" fill="none" xmlns="http://www.w3.org/2000/svg">
<path d="M80.2803 114.397C101.34 114.397 118.412 97.325 118.412 76.265C118.412 55.205 101.34 38.1325 80.2803 38.1325C59.2207 38.1325 42.1486 55.205 42.1486 76.265C42.1486 97.325 59.2207 114.397 80.2803 114.397Z" stroke="#FEB100" stroke-width="28.3543" stroke-dasharray="101.68 307.17"/>
<path d="M80.2803 114.397C101.34 114.397 118.412 97.325 118.412 76.265C118.412 55.205 101.34 38.1325 80.2803 38.1325C59.2207 38.1325 42.1486 55.205 42.1486 76.265C42.1486 97.325 59.2207 114.397 80.2803 114.397Z" stroke="#1EADCF" stroke-width="28.3543" stroke-dasharray="68.44 307.17"/>
<path d="M80.2803 114.397C101.34 114.397 118.412 97.325 118.412 76.265C118.412 55.205 101.34 38.1325 80.2803 38.1325C59.2207 38.1325 42.1486 55.205 42.1486 76.265C42.1486 97.325 59.2207 114.397 80.2803 114.397Z" stroke="#F6534B" stroke-width="28.3543" stroke-dasharray="51.33 307.17"/>
<path d="M80.2803 114.397C101.34 114.397 118.412 97.325 118.412 76.265C118.412 55.205 101.34 38.1325 80.2803 38.1325C59.2207 38.1325 42.1486 55.205 42.1486 76.265C42.1486 97.325 59.2207 114.397 80.2803 114.397Z" stroke="#17B171" stroke-width="28.3543" stroke-dasharray="41.55 307.17"/>
<path d="M80.2803 114.397C101.34 114.397 118.412 97.325 118.412 76.265C118.412 55.205 101.34 38.1325 80.2803 38.1325C59.2207 38.1325 42.1486 55.205 42.1486 76.265C42.1486 97.325 59.2207 114.397 80.2803 114.397Z" stroke="#FCCD01" stroke-width="28.3543" stroke-dasharray="24.44 307.17"/>
<path d="M80.2803 114.397C101.34 114.397 118.412 97.325 118.412 76.265C118.412 55.205 101.34 38.1325 80.2803 38.1325C59.2207 38.1325 42.1486 55.205 42.1486 76.265C42.1486 97.325 59.2207 114.397 80.2803 114.397Z" stroke="#F964A0" stroke-width="28.3543" stroke-dasharray="58.66 307.17"/>
<path d="M80.2803 114.397C101.34 114.397 118.412 97.325 118.412 76.265C118.412 55.205 101.34 38.1325 80.2803 38.1325C59.2207 38.1325 42.1486 55.205 42.1486 76.265C42.1486 97.325 59.2207 114.397 80.2803 114.397Z" stroke="white" stroke-width="34.2207" stroke-dasharray="391.09 391.09"/>
</svg>
