<svg width="64" height="17" viewBox="0 0 64 17" fill="none" xmlns="http://www.w3.org/2000/svg">
<path d="M8.51187 16.1377C12.7989 16.1377 16.2743 12.6623 16.2743 8.37521C16.2743 4.08813 12.7989 0.612762 8.51187 0.612762C4.22479 0.612762 0.74942 4.08813 0.74942 8.37521C0.74942 12.6623 4.22479 16.1377 8.51187 16.1377Z" fill="#FFBD32"/>
<path d="M7.76821 4.41354C7.76821 4.33961 7.69428 4.26568 7.62035 4.26568C7.54643 4.26568 7.4725 4.33961 7.4725 4.41354L7.3616 6.22477C7.3616 6.33566 7.17678 6.33566 7.17678 6.22477L7.06589 4.41354C7.06589 4.33961 6.99197 4.26568 6.91804 4.26568C6.84411 4.26568 6.77019 4.33961 6.77019 4.41354L6.65929 6.22477C6.65929 6.33566 6.47447 6.33566 6.47447 6.22477L6.36358 4.41354C6.36358 4.33961 6.28965 4.26568 6.21572 4.26568C6.1418 4.26568 6.06786 4.33961 6.06786 4.41354L5.77215 6.48352C5.69822 7.07494 5.95697 7.66637 6.4375 7.92512L6.21572 11.6215C6.21572 11.8433 6.25269 12.0651 6.40055 12.2129C6.51144 12.3608 6.69626 12.4717 6.91804 12.4717C7.10286 12.4717 7.28768 12.3608 7.43553 12.2129C7.54643 12.0651 7.62035 11.8433 7.62035 11.6215L7.39857 7.92512C7.8791 7.66637 8.13785 7.11191 8.06393 6.48352L7.76821 4.41354Z" fill="white"/>
<path d="M9.50552 4.30264C9.54249 4.26568 9.61641 4.26568 9.65338 4.26568C9.65338 4.26568 11.095 4.82014 11.095 6.48352C11.095 7.70333 10.6884 8.29476 10.4666 8.55351L10.6884 8.77529C10.7253 8.81225 10.7253 8.84922 10.7253 8.88618L10.9102 11.6585C10.9102 12.139 10.6514 12.4717 10.1709 12.4717C9.76427 12.4717 9.46856 12.176 9.46856 11.7324V4.41354C9.43159 4.37657 9.46856 4.33961 9.50552 4.30264Z" fill="white"/>
<path d="M19.7489 5.78747H22.6691V6.268H20.3034V7.7096H22.5952V8.19013H20.3034V10.2232H19.7489V5.78747ZM23.1866 8.59673C23.1866 7.67263 23.815 6.89639 24.776 6.89639C25.7371 6.89639 26.3655 7.63567 26.3655 8.59673C26.3655 9.5578 25.7371 10.2971 24.776 10.2971C23.815 10.2971 23.1866 9.5578 23.1866 8.59673ZM25.848 8.59673C25.848 7.93138 25.4784 7.37692 24.776 7.37692C24.0737 7.37692 23.7041 7.96835 23.7041 8.59673C23.7041 9.26209 24.0737 9.85351 24.776 9.85351C25.4784 9.85351 25.848 9.26209 25.848 8.59673ZM26.9939 8.59673C26.9939 7.67263 27.6223 6.89639 28.5833 6.89639C29.5444 6.89639 30.1728 7.63567 30.1728 8.59673C30.1728 9.5578 29.5444 10.2971 28.5833 10.2971C27.6223 10.2971 26.9939 9.5578 26.9939 8.59673ZM29.6553 8.59673C29.6553 7.93138 29.2856 7.37692 28.5833 7.37692C27.881 7.37692 27.5114 7.96835 27.5114 8.59673C27.5114 9.26209 27.881 9.85351 28.5833 9.85351C29.2856 9.85351 29.6553 9.26209 29.6553 8.59673ZM33.3147 9.74262C33.093 10.0753 32.6863 10.2971 32.2428 10.2971C31.3926 10.2971 30.8012 9.66869 30.8012 8.59673C30.8012 7.56174 31.3926 6.89639 32.2428 6.89639C32.6863 6.89639 33.056 7.11817 33.3147 7.45085V5.78747H33.8322V10.2232H33.3147V9.74262ZM33.3147 7.89442C33.1299 7.5987 32.7603 7.37692 32.3537 7.37692C31.7253 7.37692 31.3187 7.89442 31.3187 8.6337C31.3187 9.33601 31.6883 9.85351 32.3537 9.85351C32.7603 9.85351 33.1299 9.63173 33.3147 9.33601V7.89442ZM38.5636 9.85351C38.3049 10.1492 37.9352 10.2971 37.4917 10.2971C36.9372 10.2971 36.3827 9.92744 36.3827 9.22512C36.3827 8.52281 36.9742 8.15317 37.4917 8.15317C37.9352 8.15317 38.3049 8.30102 38.5636 8.59673V8.00531C38.5636 7.56174 38.231 7.33996 37.7504 7.33996C37.3808 7.33996 37.0481 7.48781 36.7524 7.78353L36.5306 7.45085C36.8633 7.08121 37.3068 6.93335 37.8243 6.93335C38.4897 6.93335 39.0811 7.22907 39.0811 8.00531V10.2232H38.5636V9.85351ZM38.5636 8.92941C38.3788 8.67066 38.0461 8.52281 37.6765 8.52281C37.196 8.52281 36.9002 8.81852 36.9002 9.22512C36.9002 9.63173 37.2329 9.92744 37.6765 9.92744C38.0461 9.92744 38.3788 9.77958 38.5636 9.52083V8.92941ZM42.2231 8.1162C42.2231 7.56174 41.9273 7.37692 41.5207 7.37692C41.1141 7.37692 40.7445 7.5987 40.5597 7.89442V10.2601H40.0422V7.04425H40.5597V7.52478C40.7815 7.26603 41.225 6.97032 41.7056 6.97032C42.3709 6.97032 42.7406 7.30299 42.7406 8.00531V10.2601H42.2231V8.1162ZM46.0304 9.74262C45.8086 10.0753 45.402 10.2971 44.9584 10.2971C44.1082 10.2971 43.5168 9.66869 43.5168 8.59673C43.5168 7.56174 44.1082 6.89639 44.9584 6.89639C45.402 6.89639 45.7716 7.11817 46.0304 7.45085V5.78747H46.5479V10.2232H46.0304V9.74262ZM46.0304 7.89442C45.8455 7.5987 45.4759 7.37692 45.0693 7.37692C44.4409 7.37692 44.0343 7.89442 44.0343 8.6337C44.0343 9.33601 44.4039 9.85351 45.0693 9.85351C45.4759 9.85351 45.8455 9.63173 46.0304 9.33601V7.89442ZM51.575 9.74262C51.3532 10.0753 50.9466 10.2971 50.503 10.2971C49.6528 10.2971 49.0614 9.66869 49.0614 8.59673C49.0614 7.56174 49.6528 6.89639 50.503 6.89639C50.9466 6.89639 51.3162 7.11817 51.575 7.45085V5.78747H52.0925V10.2232H51.575V9.74262ZM51.575 7.89442C51.3901 7.5987 51.0205 7.37692 50.6139 7.37692C49.9855 7.37692 49.5789 7.89442 49.5789 8.6337C49.5789 9.33601 49.9485 9.85351 50.6139 9.85351C51.0205 9.85351 51.3901 9.63173 51.575 9.33601V7.89442ZM53.0905 7.00728H53.608V7.52478C53.8667 7.1921 54.2364 6.93335 54.6799 6.93335V7.45085C54.606 7.45085 54.569 7.41389 54.4951 7.41389C54.1994 7.41389 53.7558 7.67263 53.608 7.93138V10.2232H53.0905V7.00728ZM55.1974 6.12014C55.1974 5.93532 55.3453 5.78747 55.5301 5.78747C55.7149 5.78747 55.8628 5.93532 55.8628 6.12014C55.8628 6.30496 55.7149 6.45282 55.5301 6.45282C55.3453 6.45282 55.1974 6.30496 55.1974 6.12014ZM55.2714 7.00728H55.7889V10.2232H55.2714V7.00728ZM58.9308 8.1162C58.9308 7.56174 58.6351 7.37692 58.2285 7.37692C57.8219 7.37692 57.4522 7.5987 57.2674 7.89442V10.2601H56.7499V7.04425H57.2674V7.52478C57.4892 7.26603 57.9328 6.97032 58.4133 6.97032C59.0787 6.97032 59.4483 7.30299 59.4483 8.00531V10.2601H58.9308V8.1162ZM61.4813 8.78155L60.9638 9.29905V10.2232H60.4463V5.78747H60.9638V8.70763L62.6642 7.00728H63.2926L61.851 8.44888L63.2926 10.2232H62.6642L61.4813 8.78155Z" fill="#344C5B"/>
</svg>
