<svg width="33" height="9" viewBox="0 0 33 9" fill="none" xmlns="http://www.w3.org/2000/svg">
<path d="M2.0146 1.56687H0.129395V0.90152H4.60208V1.56687H2.71688V6.81576H1.9776L2.0146 1.56687ZM7.74402 6.22434C7.41134 6.59398 6.85685 6.92666 6.22846 6.92666C5.34132 6.92666 4.86081 6.48309 4.86081 5.55899V2.52793H5.52618V5.3372C5.52618 6.07648 5.89581 6.29827 6.48724 6.29827C7.00473 6.29827 7.52224 6.00256 7.74402 5.63292V2.49097H8.40935V6.81576H7.74402V6.22434ZM11.5882 2.41705C12.882 2.41705 13.6583 3.41507 13.6583 4.70882V4.89364H10.1836C10.2206 5.70684 10.812 6.3722 11.7361 6.3722C12.2166 6.3722 12.7341 6.18738 13.0668 5.81774L13.3995 6.2613C12.9559 6.70487 12.4015 6.92666 11.6992 6.92666C10.4424 6.92666 9.51827 6.00255 9.51827 4.67185C9.4813 3.41507 10.3684 2.41705 11.5882 2.41705ZM10.1836 4.4131H12.9929C12.9929 3.78471 12.5493 2.97151 11.5882 2.97151C10.6641 2.97151 10.2206 3.74775 10.1836 4.4131ZM14.6932 5.78077C14.9889 6.11345 15.5065 6.40916 16.0979 6.40916C16.7632 6.40916 17.0959 6.11345 17.0959 5.70684C17.0959 5.22631 16.5784 5.07845 15.987 4.9306C15.2477 4.74578 14.4345 4.56096 14.4345 3.67382C14.4345 3.00847 15.0259 2.45401 16.0239 2.45401C16.7632 2.45401 17.2807 2.71275 17.6134 3.0824L17.3177 3.52597C17.0589 3.23026 16.5784 2.97151 16.0239 2.97151C15.4325 2.97151 15.0629 3.23025 15.0629 3.63686C15.0629 4.04346 15.5434 4.19132 16.0979 4.30221C16.8372 4.48703 17.6873 4.67185 17.6873 5.63292C17.6873 6.33523 17.0959 6.92666 15.987 6.92666C15.2847 6.92666 14.6933 6.70487 14.2497 6.2613L14.6932 5.78077ZM21.9382 6.18738C21.6055 6.63095 21.088 6.92666 20.4966 6.92666C19.3877 6.92666 18.5745 6.07648 18.5745 4.67185C18.5745 3.30418 19.3507 2.41705 20.4966 2.41705C21.088 2.41705 21.6055 2.71276 21.9382 3.15633V0.90152H22.6035V6.81576H21.9382V6.18738ZM21.9382 3.71079C21.7164 3.34115 21.1989 3.00847 20.6444 3.00847C19.7943 3.00847 19.2768 3.71078 19.2768 4.67185C19.2768 5.63291 19.7943 6.33523 20.6444 6.33523C21.1619 6.33523 21.6794 6.03952 21.9382 5.66988V3.71079ZM26.6326 6.33523C26.263 6.74184 25.7824 6.92666 25.228 6.92666C24.4887 6.92666 23.7125 6.44612 23.7125 5.52202C23.7125 4.56096 24.4887 4.11739 25.228 4.11739C25.8194 4.11739 26.3 4.30221 26.6326 4.70882V3.93257C26.6326 3.34114 26.1891 3.04543 25.5607 3.04543C25.0432 3.04543 24.6366 3.23025 24.23 3.63686L23.9342 3.19329C24.3778 2.71276 24.9323 2.49097 25.6346 2.49097C26.5217 2.49097 27.298 2.89758 27.298 3.93257V6.88969H26.6326V6.33523ZM26.6326 5.11542C26.3739 4.74578 25.9303 4.59792 25.4498 4.59792C24.8214 4.59792 24.3778 5.00453 24.3778 5.52202C24.3778 6.07648 24.8214 6.44612 25.4498 6.44612C25.9303 6.44612 26.3739 6.26131 26.6326 5.92863V5.11542ZM28.8505 7.96165C29.1462 7.96165 29.331 7.85075 29.4788 7.51808L29.7746 6.85273L28.0003 2.52793H28.7026L30.1442 6.03952L31.5488 2.52793H32.2881L30.1442 7.66594C29.8855 8.29433 29.4419 8.51611 28.8874 8.55307C28.7396 8.55307 28.5178 8.51611 28.4069 8.47915L28.5178 7.88772C28.5917 7.92468 28.7396 7.96165 28.8505 7.96165Z" fill="#798893"/>
</svg>
