<svg width="48" height="7" viewBox="0 0 48 7" fill="none" xmlns="http://www.w3.org/2000/svg">
<path d="M0.6745 4.37613H2.81841V4.96756H0.6745V4.37613ZM8.21516 0.827585C8.9914 0.827585 9.5089 1.1233 9.84157 1.5299L9.47193 2.08436C9.17622 1.71472 8.80658 1.49294 8.21516 1.49294C7.06927 1.49294 6.55178 2.63882 6.55178 3.82167C6.55178 3.8956 6.55178 3.96953 6.55178 4.04345C6.81053 3.63685 7.47588 3.11935 8.21516 3.11935C9.28712 3.11935 10.1373 3.74774 10.1373 5.00452C10.1373 6.03951 9.36105 6.92665 8.06731 6.92665C6.40392 6.92665 5.77553 5.48505 5.77553 3.85863C5.77553 2.23222 6.55178 0.827585 8.21516 0.827585ZM8.06731 3.74774C7.47588 3.74774 6.92142 4.11738 6.58874 4.63488C6.66267 5.37416 7.03231 6.2613 8.06731 6.2613C8.99141 6.2613 9.43497 5.59595 9.43497 5.00452C9.43497 4.15435 8.84355 3.74774 8.06731 3.74774ZM15.9776 5.30023H13.1683V4.67184L15.7189 0.864546H16.7169V4.63488H17.5671V5.30023H16.7169V6.81576H15.9776V5.30023ZM13.9076 4.67184H15.9776V1.56687L13.9076 4.67184ZM19.711 3.74774C19.0456 3.56292 18.3803 3.11935 18.3803 2.34311C18.3803 1.27115 19.4153 0.790619 20.4133 0.790619C21.3744 0.790619 22.4463 1.27115 22.4463 2.34311C22.4463 3.11935 21.8179 3.56292 21.1156 3.74774C21.8549 3.96953 22.5202 4.52398 22.5202 5.30023C22.5202 6.29826 21.5592 6.88968 20.4133 6.88968C19.2304 6.88968 18.3063 6.29826 18.3063 5.30023C18.3063 4.52398 18.9717 3.96953 19.711 3.74774ZM20.4133 4.08042C20.0436 4.11738 19.0456 4.45006 19.0456 5.2263C19.0456 5.85469 19.711 6.2613 20.4133 6.2613C21.1526 6.2613 21.781 5.85469 21.781 5.2263C21.8179 4.45006 20.7829 4.15435 20.4133 4.08042ZM20.4133 1.45597C19.711 1.45597 19.1195 1.82562 19.1195 2.41704C19.1195 3.11936 20.0436 3.3781 20.4133 3.45203C20.7829 3.3781 21.707 3.15632 21.707 2.41704C21.707 1.82562 21.1526 1.45597 20.4133 1.45597ZM24.1097 5.66987C24.4054 6.03951 24.775 6.2613 25.3665 6.2613C26.5493 6.2613 27.0298 5.07845 27.0298 3.93256C27.0298 3.85863 27.0298 3.78471 27.0298 3.71078C26.7711 4.11738 26.1057 4.63488 25.3665 4.63488C24.2945 4.63488 23.4074 4.00649 23.4074 2.74971C23.4074 1.71472 24.1836 0.827585 25.4774 0.827585C27.1407 0.827585 27.7691 2.26918 27.7691 3.8956C27.7691 5.48505 27.0298 6.96361 25.3665 6.96361C24.6272 6.96361 24.1097 6.6679 23.7401 6.2613L24.1097 5.66987ZM25.5513 1.45597C24.6641 1.45597 24.1836 2.15829 24.1836 2.71275C24.1836 3.59988 24.775 4.00649 25.5513 4.00649C26.1427 4.00649 26.6972 3.63685 27.0298 3.11935C26.9559 2.38007 26.5863 1.45597 25.5513 1.45597ZM31.2437 0.901512H31.983V4.48702C31.983 5.55898 32.5744 6.2613 33.6464 6.2613C34.7553 6.2613 35.3098 5.59594 35.3098 4.48702V0.901512H36.0491V4.52399C36.0491 6.00255 35.2359 6.92665 33.6464 6.92665C32.057 6.92665 31.2437 5.96559 31.2437 4.52399V0.901512ZM37.5276 5.41112C37.9342 5.85469 38.5626 6.2613 39.3758 6.2613C40.4478 6.2613 40.7805 5.70683 40.7805 5.2263C40.7805 4.52399 40.0782 4.33917 39.2649 4.11738C38.3039 3.85863 37.2689 3.59989 37.2689 2.454C37.2689 1.49294 38.156 0.827585 39.3019 0.827585C40.189 0.827585 40.8914 1.1233 41.4089 1.64079L40.9653 2.19525C40.5217 1.71472 39.8933 1.49294 39.2649 1.49294C38.5626 1.49294 38.0451 1.86258 38.0451 2.41704C38.0451 3.00846 38.7105 3.19328 39.4867 3.3781C40.4478 3.63685 41.5567 3.93256 41.5567 5.18934C41.5567 6.03951 40.9653 6.92665 39.3758 6.92665C38.3408 6.92665 37.6016 6.52005 37.121 6.00255L37.5276 5.41112ZM42.6287 0.901512H44.6617C46.5099 0.901512 47.6927 2.19525 47.6927 3.85863C47.6927 5.55898 46.5099 6.81576 44.6617 6.81576H42.6287V0.901512ZM44.6617 6.1504C46.1033 6.1504 46.9165 5.11541 46.9165 3.85863C46.9165 2.56489 46.1033 1.56687 44.6617 1.56687H43.368V6.18737L44.6617 6.1504Z" fill="#F16667"></path>
</svg>
