<svg width="10" height="7" viewBox="0 0 10 7" fill="none" xmlns="http://www.w3.org/2000/svg">
<path d="M0.352661 6.22433C2.49657 4.56095 3.64247 3.56292 3.64247 2.52793C3.64247 1.78865 3.01408 1.45597 2.42266 1.45597C1.72034 1.45597 1.16587 1.75168 0.833189 2.19525L0.389639 1.71472C0.833207 1.1233 1.60944 0.790619 2.45962 0.790619C3.45764 0.790619 4.45568 1.34508 4.45568 2.52793C4.45568 3.74774 3.23585 4.8197 1.57247 6.1504H4.45568V6.81576H0.389639V6.22433H0.352661ZM8.18904 5.30023H5.37978V4.67184L7.93029 0.864546H8.92832V4.63488H9.77849V5.30023H8.92832V6.81576H8.18904V5.30023ZM6.11906 4.67184H8.18904V1.56687L6.11906 4.67184Z" fill="#334C5B"></path>
</svg>
