<svg width="32" height="6" viewBox="0 0 32 6" fill="none" xmlns="http://www.w3.org/2000/svg">
<path d="M2.95892 3.42922H1.22161L0.925901 4.20547H0.445374L1.85 0.767815H2.36751L3.77214 4.20547H3.29161L2.95892 3.42922ZM1.3325 3.05958H2.81106L2.07178 1.13745L1.3325 3.05958ZM3.6982 1.69192H4.1048L4.95499 3.72494L5.76818 1.69192H6.1748L5.13981 4.20547H4.73319L3.6982 1.69192ZM6.58139 1.69192H6.95103V2.09852C7.13585 1.83977 7.43156 1.65495 7.8012 1.65495V2.06156C7.76424 2.06156 7.69032 2.06156 7.65336 2.06156C7.43158 2.06156 7.0989 2.24638 6.98801 2.46816V4.24244H6.61837L6.58139 1.69192ZM8.50353 4.57511C8.72531 4.83386 8.9471 4.90778 9.31674 4.90778C9.72334 4.90778 10.13 4.72296 10.13 4.1685V3.79886C9.94513 4.05761 9.6494 4.24244 9.27976 4.24244C8.61441 4.24244 8.17084 3.7619 8.17084 2.9487C8.17084 2.13549 8.61441 1.65495 9.27976 1.65495C9.61244 1.65495 9.90817 1.80281 10.13 2.09852V1.72888H10.5365V4.1685C10.5365 4.98171 9.94512 5.24046 9.3537 5.24046C8.94709 5.24046 8.65137 5.16654 8.35566 4.87082L8.50353 4.57511ZM10.13 2.39424C9.9821 2.17245 9.68639 1.98763 9.39067 1.98763C8.87318 1.98763 8.57746 2.39424 8.57746 2.9487C8.57746 3.50316 8.87318 3.90976 9.39067 3.90976C9.68639 3.90976 10.0191 3.72494 10.13 3.50316V2.39424ZM13.7154 1.65495C14.4547 1.65495 14.8983 2.24638 14.8983 2.98566V3.09655H12.8653C12.9022 3.57708 13.2349 3.94672 13.7524 3.94672C14.0481 3.94672 14.3438 3.83583 14.5287 3.61404L14.7135 3.8728C14.4547 4.13154 14.1221 4.24244 13.7154 4.24244C12.9762 4.24244 12.4587 3.72494 12.4587 2.91173C12.4587 2.20941 12.9762 1.65495 13.7154 1.65495ZM12.8653 2.80084H14.4917C14.4917 2.4312 14.233 1.95066 13.6785 1.95066C13.161 1.95066 12.9022 2.4312 12.8653 2.80084ZM16.229 3.17048L15.4897 4.20547H15.0462L16.0072 2.91173L15.0831 1.69192H15.5267L16.229 2.65298L16.9313 1.69192H17.3749L16.4508 2.91173L17.4118 4.20547H16.9683L16.229 3.17048ZM17.8554 5.16654V1.72888H18.262V2.09852C18.4469 1.83977 18.7426 1.65495 19.1122 1.65495C19.7776 1.65495 20.2211 2.13549 20.2211 2.9487C20.2211 3.7619 19.7776 4.2794 19.1122 4.2794C18.7795 4.2794 18.4838 4.13154 18.262 3.83583V5.16654H17.8554ZM19.0013 1.98763C18.7056 1.98763 18.3729 2.17245 18.262 2.39424V3.54012C18.4099 3.7619 18.7056 3.94672 19.0013 3.94672C19.5188 3.94672 19.8145 3.54012 19.8145 2.98566C19.8145 2.4312 19.5188 1.98763 19.0013 1.98763ZM21.9215 1.65495C22.6607 1.65495 23.1043 2.24638 23.1043 2.98566V3.09655H21.0713C21.1083 3.57708 21.4409 3.94672 21.9584 3.94672C22.2542 3.94672 22.5499 3.83583 22.7347 3.61404L22.9195 3.8728C22.6608 4.13154 22.3281 4.24244 21.9215 4.24244C21.1822 4.24244 20.6647 3.72494 20.6647 2.91173C20.7017 2.20941 21.2191 1.65495 21.9215 1.65495ZM21.1083 2.80084H22.7347C22.7347 2.4312 22.4759 1.95066 21.9215 1.95066C21.404 1.95066 21.1452 2.4312 21.1083 2.80084ZM25.433 2.57906C25.433 2.13549 25.2113 1.98763 24.8786 1.98763C24.5829 1.98763 24.2872 2.17245 24.1393 2.39424V4.20547H23.7327V1.69192H24.1393V2.06156C24.3241 1.83977 24.6568 1.65495 25.0265 1.65495C25.5439 1.65495 25.8397 1.9137 25.8397 2.46816V4.20547H25.433V2.57906ZM26.5789 3.57708C26.7268 3.7619 27.0595 3.94672 27.3921 3.94672C27.7618 3.94672 27.9836 3.7619 27.9836 3.54012C27.9836 3.28137 27.6879 3.17048 27.3552 3.09655C26.9486 2.98566 26.4311 2.87477 26.4311 2.35727C26.4311 1.95066 26.7638 1.65495 27.3552 1.65495C27.7618 1.65495 28.0945 1.80281 28.2793 2.02459L28.0945 2.28334C27.9466 2.09852 27.6879 1.95066 27.3552 1.95066C27.0225 1.95066 26.8007 2.09852 26.8007 2.3203C26.8007 2.57905 27.0964 2.65298 27.4291 2.72691C27.8727 2.8378 28.3532 2.9487 28.3532 3.50316C28.3532 3.90976 28.0205 4.24244 27.3552 4.24244C26.9486 4.24244 26.6159 4.13154 26.3571 3.83583L26.5789 3.57708ZM30.0905 1.65495C30.8298 1.65495 31.2734 2.24638 31.2734 2.98566V3.09655H29.2403C29.2773 3.57708 29.61 3.94672 30.1275 3.94672C30.4232 3.94672 30.7189 3.83583 30.9037 3.61404L31.0885 3.8728C30.8298 4.13154 30.4971 4.24244 30.0905 4.24244C29.3512 4.24244 28.8337 3.72494 28.8337 2.91173C28.8707 2.20941 29.3882 1.65495 30.0905 1.65495ZM29.2773 2.80084H30.9037C30.9037 2.4312 30.645 1.95066 30.0905 1.95066C29.573 1.95066 29.3143 2.4312 29.2773 2.80084Z" fill="#93A1AA"></path>
</svg>
