<svg width="1000" height="1000" viewBox="0 0 1000 1000" fill="none" xmlns="http://www.w3.org/2000/svg">
<g clip-path="url('#clip0_3_2320')">
<path d="M500.373 979.765C234.518 979.765 19 764.466 19 498.882C19 233.298 234.518 18 500.373 18C766.227 18 981.745 233.298 981.745 498.882C981.745 764.466 766.227 979.765 500.373 979.765Z" stroke="url('#paint0_linear_3_2320')" stroke-width="1.96078"></path>
<path fill-rule="evenodd" clip-rule="evenodd" d="M517.647 981.373C251.251 981.373 35.2941 765.635 35.2941 499.51C35.2941 233.384 251.251 17.647 517.647 17.647C784.043 17.647 1000 233.384 1000 499.51C1000 765.635 784.043 981.373 517.647 981.373ZM517.647 667.967C610.776 667.967 686.275 592.547 686.275 499.51C686.275 406.474 610.776 331.055 517.647 331.055C424.518 331.055 349.02 406.474 349.02 499.51C349.02 592.547 424.518 667.967 517.647 667.967Z" fill="url('#paint1_linear_3_2320')"></path>
</g>
<defs>
<linearGradient id="paint0_linear_3_2320" x1="-50588.7" y1="17059.5" x2="-64729.8" y2="66454.7" gradientUnits="userSpaceOnUse">
<stop stop-color="#EBF1F7"></stop>
<stop offset="1" stop-color="white"></stop>
</linearGradient>
<linearGradient id="paint1_linear_3_2320" x1="50465.3" y1="19247.8" x2="65879" y2="66591.4" gradientUnits="userSpaceOnUse">
<stop stop-color="#F2F5F8"></stop>
<stop offset="1" stop-color="white"></stop>
</linearGradient>
<clipPath id="clip0_3_2320">
<rect width="1000" height="964.706" fill="white" transform="translate(0 17.647)"></rect>
</clipPath>
</defs>
</svg>
