<svg width="514" height="900" viewBox="0 0 514 900" fill="none" xmlns="http://www.w3.org/2000/svg">
<g clip-path="url('#clip0_3_2486')">
<path opacity="0.24" d="M63.1932 899.488C311.439 899.488 512.682 698.246 512.682 450C512.682 201.754 311.439 0.51123 63.1932 0.51123C-185.052 0.51123 -386.295 201.754 -386.295 450C-386.295 698.246 -185.052 899.488 63.1932 899.488Z" stroke="url('#paint0_linear_3_2486')" stroke-width="1.02273"></path>
<path fill-rule="evenodd" clip-rule="evenodd" d="M-216.369 843.654C-354.616 766.861 -448.17 619.356 -448.17 450C-448.17 201.472 -246.699 0 1.82958 0C250.358 0 451.83 201.472 451.83 450C451.83 529.815 431.05 604.777 394.606 669.771L110.91 515.466C122.174 496.618 128.648 474.576 128.648 451.023C128.648 381.548 72.3272 325.227 2.85231 325.227C-66.6226 325.227 -122.943 381.548 -122.943 451.023C-122.943 498.56 -96.5753 539.938 -57.6676 561.33C-132.457 693.676 -185.358 787.784 -216.369 843.654Z" fill="url('#paint1_linear_3_2486')"></path>
</g>
<defs>
<linearGradient id="paint0_linear_3_2486" x1="36390" y1="678.894" x2="65882.2" y2="60024.4" gradientUnits="userSpaceOnUse">
<stop stop-color="#12C48B"></stop>
<stop offset="1" stop-color="white"></stop>
</linearGradient>
<linearGradient id="paint1_linear_3_2486" x1="28286.6" y1="30285.1" x2="42323.5" y2="83398.7" gradientUnits="userSpaceOnUse">
<stop stop-color="#12C48B"></stop>
<stop offset="1" stop-color="#52EBBA"></stop>
</linearGradient>
<clipPath id="clip0_3_2486">
<rect width="512.386" height="900" fill="white" transform="translate(0.806824)"></rect>
</clipPath>
</defs>
</svg>
