<svg width="70" height="71" viewBox="0 0 70 71" fill="none" xmlns="http://www.w3.org/2000/svg">
<g filter="url('#filter0_d_3_2423')">
<rect x="8" y="4.08984" width="54" height="54" rx="27" fill="#24C1FD" shape-rendering="crispEdges"></rect>
<g clip-path="url('#clip0_3_2423')">
<path d="M40.7992 42.8955C41.1444 42.9202 41.8119 42.9453 42.8017 42.9707C43.7915 42.9961 44.8215 43.0238 45.8918 43.0537C46.9622 43.0837 47.9116 43.1169 48.7403 43.1533C49.5689 43.1898 49.9833 43.2311 49.9833 43.2773C49.9833 43.3203 49.6265 43.3607 48.9129 43.3984C48.1994 43.4368 47.2154 43.4702 45.9609 43.4985C44.7064 43.5269 43.2505 43.5492 41.5933 43.5654C39.913 43.5817 38.1291 43.5898 36.2416 43.5898C34.3542 43.5898 32.5703 43.5817 30.89 43.5654C29.2327 43.5492 27.7768 43.5269 26.5224 43.4985C25.2679 43.4702 24.2839 43.4368 23.5703 43.3984C22.8568 43.3607 22.5 43.3203 22.5 43.2773C22.5 43.2311 22.9143 43.1898 23.743 43.1533C24.5716 43.1169 25.5153 43.0837 26.5742 43.0537C27.633 43.0238 28.6688 42.9961 29.6816 42.9707C30.6713 42.9447 31.3388 42.9196 31.6841 42.8955H40.7992ZM36.9667 43.3662C37.7953 43.3623 38.4859 43.3527 39.0383 43.3374C39.5907 43.3221 39.8669 43.3044 39.8669 43.2842C39.8669 43.2646 39.6252 43.2484 39.1419 43.2354C38.6585 43.2223 37.9334 43.2122 36.9667 43.2051V43.1201C37.358 43.1227 37.6917 43.1274 37.968 43.1343C38.2442 43.1411 38.3938 43.1488 38.4168 43.1572C38.4398 43.1631 38.5261 43.1678 38.6758 43.1714C38.8254 43.175 39.0038 43.1764 39.2109 43.1758C39.3951 43.1758 39.5504 43.1735 39.677 43.1689C39.8036 43.1644 39.8669 43.1592 39.8669 43.1533C39.7979 43.1344 39.4929 43.118 38.952 43.104C38.4111 43.09 37.7493 43.0811 36.9667 43.0771V43.0547C36.9667 43.0495 36.8976 43.0448 36.7595 43.0405C36.6214 43.0363 36.4488 43.0342 36.2416 43.0342C36.0345 43.0342 35.8618 43.0363 35.7237 43.0405C35.5856 43.0448 35.5166 43.0495 35.5166 43.0547V43.0781C34.6879 43.0814 33.9974 43.0907 33.445 43.106C32.8925 43.1213 32.6163 43.139 32.6163 43.1592C32.6163 43.1787 32.858 43.1951 33.3414 43.2085C33.8248 43.2218 34.5498 43.2318 35.5166 43.2383V43.3232C35.1253 43.3206 34.7915 43.3159 34.5153 43.3091C34.2391 43.3022 34.0895 43.2946 34.0664 43.2861C34.0434 43.2809 33.9571 43.2764 33.8075 43.2725C33.6579 43.2686 33.4795 43.2669 33.2723 43.2676C33.0882 43.2682 32.9328 43.2707 32.8062 43.2749C32.6796 43.2791 32.6163 43.2842 32.6163 43.29C32.6854 43.3096 32.9904 43.3262 33.5313 43.3398C34.0722 43.3535 34.734 43.3623 35.5166 43.3662V43.3887C35.5166 43.3945 35.5856 43.3994 35.7237 43.4033C35.8618 43.4072 36.0345 43.4092 36.2416 43.4092C36.4488 43.4092 36.6214 43.4072 36.7595 43.4033C36.8976 43.3994 36.9667 43.3945 36.9667 43.3887V43.3662ZM36.9667 43.248C37.4501 43.252 37.8126 43.2568 38.0543 43.2627C38.296 43.2686 38.4168 43.2757 38.4168 43.2842C38.4168 43.2933 38.2787 43.3014 38.0025 43.3086C37.7263 43.3158 37.381 43.3206 36.9667 43.3232V43.248ZM34.0664 43.1592C34.0664 43.1507 34.2046 43.1429 34.4808 43.1357C34.757 43.1286 35.1022 43.1234 35.5166 43.1201V43.1953C35.0332 43.1914 34.6707 43.1865 34.429 43.1807C34.1873 43.1748 34.0664 43.1676 34.0664 43.1592ZM45.6329 42.6182C45.794 42.6234 45.9091 42.6294 45.9782 42.6362C46.0472 42.6431 46.0702 42.6504 46.0472 42.6582C45.9782 42.6855 45.2588 42.7161 43.8893 42.75C42.5197 42.7839 41.5127 42.8138 40.8682 42.8398H31.5115C30.959 42.8145 29.9923 42.7847 28.6112 42.7505C27.2302 42.7163 26.5051 42.6855 26.436 42.6582C26.413 42.6504 26.436 42.6431 26.5051 42.6362C26.5742 42.6294 26.6892 42.6234 26.8504 42.6182C26.9655 42.6143 27.1266 42.6108 27.3337 42.6079C27.5409 42.605 27.8056 42.6035 28.1279 42.6035C28.8644 42.6035 29.7333 42.6112 30.7346 42.6265C31.7359 42.6418 32.5243 42.6546 33.0997 42.665C33.514 42.6481 34.0089 42.6313 34.5843 42.6147C35.1598 42.5981 35.7122 42.5898 36.2416 42.5898C36.771 42.5898 37.3235 42.5981 37.8989 42.6147C38.4744 42.6313 38.9692 42.6481 39.3836 42.665C39.936 42.6546 40.7128 42.6418 41.7141 42.6265C42.7154 42.6112 43.5958 42.6035 44.3554 42.6035C44.6776 42.6035 44.9424 42.605 45.1495 42.6079C45.3567 42.6108 45.5178 42.6143 45.6329 42.6182Z" fill="white"></path>
</g>
</g>
<defs>
<filter id="filter0_d_3_2423" x="0" y="0.0898438" width="70" height="70" filterUnits="userSpaceOnUse" color-interpolation-filters="sRGB">
<feFlood flood-opacity="0" result="BackgroundImageFix"></feFlood>
<feColorMatrix in="SourceAlpha" type="matrix" values="0 0 0 0 0 0 0 0 0 0 0 0 0 0 0 0 0 0 127 0" result="hardAlpha"></feColorMatrix>
<feOffset dy="4"></feOffset>
<feGaussianBlur stdDeviation="4"></feGaussianBlur>
<feComposite in2="hardAlpha" operator="out"></feComposite>
<feColorMatrix type="matrix" values="0 0 0 0 0.152941 0 0 0 0 0.776471 0 0 0 0 0.992157 0 0 0 0.2 0"></feColorMatrix>
<feBlend mode="normal" in2="BackgroundImageFix" result="effect1_dropShadow_3_2423"></feBlend>
<feBlend mode="normal" in="SourceGraphic" in2="effect1_dropShadow_3_2423" result="shape"></feBlend>
</filter>
<clipPath id="clip0_3_2423">
<rect width="35.3553" height="1" fill="white" transform="matrix(1 0 0 -1 22.5 43.5898)"></rect>
</clipPath>
</defs>
</svg>
