<svg width="136" height="136" viewBox="0 0 136 136" fill="none" xmlns="http://www.w3.org/2000/svg">
<g filter="url('#filter0_d_3_2437')">
<rect x="28" y="18" width="80" height="80" rx="40" fill="white" shape-rendering="crispEdges"></rect>
<path d="M91.4568 76.7832H101.271V76.8438C101.271 76.8828 100.527 76.9162 99.0402 76.9438C97.5533 76.9715 95.7602 76.9854 93.661 76.9854H56.6097C54.5105 76.9854 52.7174 76.9715 51.2304 76.9438C49.7435 76.9162 49 76.8828 49 76.8438V76.4385C49 76.3994 49.7435 76.366 51.2304 76.3384C52.7174 76.3107 54.5105 76.2969 56.6097 76.2969H93.661C95.7602 76.2969 97.5533 76.3107 99.0402 76.3384C100.527 76.366 101.271 76.3994 101.271 76.4385V76.499H91.4568C89.3576 76.499 87.5645 76.5129 86.0775 76.5405C84.5906 76.5682 83.8471 76.6019 83.8471 76.6416C83.8471 76.6807 84.5906 76.714 86.0775 76.7417C87.5645 76.7694 89.3576 76.7832 91.4568 76.7832ZM56.6097 76.2559C56.2948 76.2559 55.9887 76.2562 55.6913 76.2568C55.3939 76.2575 55.1052 76.2585 54.8253 76.2598C54.9653 76.2578 55.1052 76.2562 55.2452 76.2549C55.3851 76.2536 55.5426 76.2523 55.7175 76.251L83.4273 76.0342C84.6868 76.0212 85.9988 76.0145 87.3633 76.0142C88.7278 76.0138 89.9873 76.0202 91.1419 76.0332C92.2965 76.0456 93.1887 76.0623 93.8184 76.0835C94.4482 76.1047 94.7631 76.1283 94.7631 76.1543V76.2578C94.5881 76.2578 94.4045 76.2575 94.212 76.2568C94.0196 76.2562 93.8359 76.2559 93.661 76.2559H81.538L87.5207 76.2139C87.8006 76.2119 88.0018 76.2085 88.1243 76.2036C88.2467 76.1987 88.2555 76.1937 88.1505 76.1885C88.0456 76.1833 87.8531 76.1794 87.5732 76.1768C87.2933 76.1742 87.0134 76.1738 86.7335 76.1758L75.2928 76.2559H56.6097ZM86.0513 76.6416C86.0513 76.6136 86.5848 76.5897 87.6519 76.5698C88.7191 76.55 89.9873 76.54 91.4568 76.54H101.271V76.7422H91.4568C89.9873 76.7422 88.7191 76.7323 87.6519 76.7124C86.5848 76.6925 86.0513 76.6689 86.0513 76.6416ZM94.7631 76.6416C94.7631 76.6247 94.4394 76.6102 93.7922 76.5981C93.1449 76.5861 92.3665 76.5801 91.4568 76.5801C90.5821 76.5801 89.8211 76.5861 89.1739 76.5981C88.5266 76.6102 88.203 76.6247 88.203 76.6416C88.203 76.6579 88.5266 76.672 89.1739 76.6841C89.8211 76.6961 90.5821 76.7021 91.4568 76.7021C92.3665 76.7021 93.1449 76.6961 93.7922 76.6841C94.4394 76.672 94.7631 76.6579 94.7631 76.6416ZM91.4568 76.6611C91.1769 76.6611 90.932 76.6592 90.7221 76.6553C90.5121 76.6514 90.4072 76.6468 90.4072 76.6416C90.4072 76.6357 90.5121 76.6309 90.7221 76.627C90.932 76.623 91.1769 76.6211 91.4568 76.6211C91.7717 76.6211 92.0341 76.623 92.244 76.627C92.4539 76.6309 92.5589 76.6357 92.5589 76.6416C92.5589 76.6468 92.4539 76.6514 92.244 76.6553C92.0341 76.6592 91.7717 76.6611 91.4568 76.6611Z" fill="#12C48B"></path>
</g>
<defs>
<filter id="filter0_d_3_2437" x="0" y="0" width="136" height="136" filterUnits="userSpaceOnUse" color-interpolation-filters="sRGB">
<feFlood flood-opacity="0" result="BackgroundImageFix"></feFlood>
<feColorMatrix in="SourceAlpha" type="matrix" values="0 0 0 0 0 0 0 0 0 0 0 0 0 0 0 0 0 0 127 0" result="hardAlpha"></feColorMatrix>
<feOffset dy="10"></feOffset>
<feGaussianBlur stdDeviation="14"></feGaussianBlur>
<feComposite in2="hardAlpha" operator="out"></feComposite>
<feColorMatrix type="matrix" values="0 0 0 0 0.501961 0 0 0 0 0.541176 0 0 0 0 0.576471 0 0 0 0.2 0"></feColorMatrix>
<feBlend mode="normal" in2="BackgroundImageFix" result="effect1_dropShadow_3_2437"></feBlend>
<feBlend mode="normal" in="SourceGraphic" in2="effect1_dropShadow_3_2437" result="shape"></feBlend>
</filter>
</defs>
</svg>
