<svg width="137" height="136" viewBox="0 0 137 136" fill="none" xmlns="http://www.w3.org/2000/svg">
<g filter="url('#filter0_d_3_2467')">
<rect x="28.97" y="18" width="80" height="80" rx="40" fill="white" shape-rendering="crispEdges"></rect>
<g clip-path="url('#clip0_3_2467')">
<path d="M93.3189 76.4043C94.7534 76.4062 96.1004 76.4131 97.3599 76.4248C98.6545 76.4365 99.7653 76.4518 100.692 76.4707C101.62 76.4896 102.363 76.5114 102.923 76.5361C103.448 76.5609 103.71 76.5876 103.71 76.6162C103.71 76.6455 103.413 76.6729 102.818 76.6982C102.223 76.7243 101.427 76.7469 100.43 76.7661C99.4329 76.7853 98.2521 76.8008 96.8876 76.8125C95.5231 76.8236 94.0712 76.8291 92.5317 76.8291H63.405C61.5507 76.8291 59.8013 76.8223 58.1569 76.8086C56.5475 76.7956 55.1306 76.7773 53.906 76.7539C52.6815 76.7305 51.7193 76.7035 51.0196 76.6729C50.3198 76.6416 49.97 76.6084 49.97 76.5732C49.97 76.54 50.2849 76.5088 50.9146 76.4795C51.5094 76.4502 52.3491 76.4243 53.4337 76.4019C54.5183 76.3794 55.7778 76.3607 57.2123 76.3457C58.6817 76.3314 60.2562 76.3226 61.9355 76.3193C62.6353 76.2939 63.51 76.2705 64.5596 76.249C65.5742 76.2282 66.7288 76.2101 68.0233 76.1948C69.3178 76.1795 70.6998 76.1676 72.1693 76.1592C73.6737 76.1514 75.2306 76.1475 76.84 76.1475C78.8693 76.1475 80.7936 76.154 82.6129 76.167C84.4672 76.18 86.1203 76.1979 87.5723 76.2207C89.0243 76.2435 90.2401 76.2705 91.2197 76.3018C92.2343 76.3337 92.9341 76.3678 93.3189 76.4043ZM82.3505 76.6631L78.0471 76.6025C77.9071 76.6006 77.7497 76.5994 77.5748 76.5991C77.3998 76.5988 77.2249 76.5996 77.05 76.6016C76.91 76.6029 76.7875 76.605 76.6826 76.6079C76.5776 76.6108 76.5251 76.6139 76.5251 76.6172V76.6445C74.4959 76.6413 72.764 76.6263 71.3296 76.5996C69.8951 76.5729 69.0204 76.5433 68.7055 76.5107C68.6706 76.5088 68.6531 76.5067 68.6531 76.5044C68.6531 76.5021 68.6706 76.5 68.7055 76.498C68.7055 76.4941 68.6443 76.4906 68.5219 76.4873C68.3994 76.484 68.2157 76.4821 67.9708 76.4814C67.9708 76.4814 67.9533 76.4814 67.9183 76.4814C67.8833 76.4814 67.8658 76.4814 67.8658 76.4814L65.2943 76.4844C65.0844 76.485 64.9094 76.4868 64.7695 76.4897C64.6295 76.4927 64.5596 76.4961 64.5596 76.5C64.5596 76.5 64.5596 76.5002 64.5596 76.5005C64.5596 76.5008 64.5596 76.501 64.5596 76.501C64.5946 76.5029 64.6121 76.5047 64.6121 76.5063C64.6121 76.508 64.6295 76.5094 64.6645 76.5107C64.8745 76.5381 65.3118 76.5638 65.9765 76.5879C66.6413 76.6113 67.4897 76.6322 68.5219 76.6504C69.554 76.6686 70.7523 76.6829 72.1168 76.6934C73.4813 76.7044 74.9507 76.7106 76.5251 76.7119V76.7373C76.5251 76.7406 76.5776 76.7437 76.6826 76.7466C76.7875 76.7495 76.91 76.7516 77.05 76.7529C77.2249 76.7542 77.3998 76.7547 77.5748 76.7544C77.7497 76.7541 77.9071 76.7529 78.0471 76.751L82.3505 76.6914C82.4555 76.6895 82.5429 76.6873 82.6129 76.6851C82.6829 76.6828 82.7179 76.68 82.7179 76.6768C82.7179 76.6742 82.6829 76.6717 82.6129 76.6694C82.5429 76.6672 82.4555 76.665 82.3505 76.6631ZM71.1196 76.375L75.4231 76.4355C75.563 76.4375 75.7204 76.4386 75.8954 76.439C76.0703 76.4393 76.2278 76.4388 76.3677 76.4375C76.5426 76.4355 76.6738 76.4333 76.7613 76.4307C76.8488 76.4281 76.8925 76.4248 76.8925 76.4209V76.3936C78.9567 76.3968 80.7061 76.4118 82.1406 76.4385C83.575 76.4652 84.4497 76.4948 84.7646 76.5273C84.7646 76.5293 84.7733 76.5314 84.7908 76.5337C84.8083 76.536 84.7996 76.5381 84.7646 76.54C84.7296 76.5439 84.7821 76.5475 84.922 76.5508C85.062 76.554 85.2369 76.556 85.4468 76.5566C85.4818 76.5566 85.5081 76.5566 85.5256 76.5566C85.5431 76.5566 85.5693 76.5566 85.6043 76.5566L88.1234 76.5537C88.3683 76.5537 88.5607 76.5521 88.7006 76.5488C88.8406 76.5456 88.9106 76.542 88.9106 76.5381C88.9106 76.5381 88.9106 76.5379 88.9106 76.5376C88.9106 76.5373 88.9106 76.5371 88.9106 76.5371C88.8756 76.5352 88.8493 76.5334 88.8318 76.5317C88.8143 76.5301 88.8056 76.5286 88.8056 76.5273C88.5957 76.5 88.1583 76.4743 87.4936 76.4502C86.8288 76.4268 85.9804 76.4061 84.9483 76.3882C83.9162 76.3703 82.7179 76.3558 81.3534 76.3447C79.9889 76.3337 78.5019 76.3275 76.8925 76.3262V76.3008C76.8925 76.2975 76.8488 76.2944 76.7613 76.2915C76.6738 76.2886 76.5426 76.2865 76.3677 76.2852C76.2278 76.2839 76.0703 76.2834 75.8954 76.2837C75.7204 76.284 75.563 76.2852 75.4231 76.2871L71.1196 76.3477C70.9797 76.349 70.8835 76.3509 70.831 76.3535C70.7785 76.3561 70.7523 76.3587 70.7523 76.3613C70.7523 76.3639 70.7785 76.3665 70.831 76.3691C70.8835 76.3717 70.9797 76.3737 71.1196 76.375Z" fill="#12C48B"></path>
</g>
</g>
<defs>
<filter id="filter0_d_3_2467" x="0.969971" y="0" width="136" height="136" filterUnits="userSpaceOnUse" color-interpolation-filters="sRGB">
<feFlood flood-opacity="0" result="BackgroundImageFix"></feFlood>
<feColorMatrix in="SourceAlpha" type="matrix" values="0 0 0 0 0 0 0 0 0 0 0 0 0 0 0 0 0 0 127 0" result="hardAlpha"></feColorMatrix>
<feOffset dy="10"></feOffset>
<feGaussianBlur stdDeviation="14"></feGaussianBlur>
<feComposite in2="hardAlpha" operator="out"></feComposite>
<feColorMatrix type="matrix" values="0 0 0 0 0.501961 0 0 0 0 0.541176 0 0 0 0 0.576471 0 0 0 0.2 0"></feColorMatrix>
<feBlend mode="normal" in2="BackgroundImageFix" result="effect1_dropShadow_3_2467"></feBlend>
<feBlend mode="normal" in="SourceGraphic" in2="effect1_dropShadow_3_2467" result="shape"></feBlend>
</filter>
<clipPath id="clip0_3_2467">
<rect width="53.7401" height="1" fill="white" transform="matrix(1 0 0 -1 49.97 77)"></rect>
</clipPath>
</defs>
</svg>
