<svg width="370" height="98" viewBox="0 0 370 98" fill="none" xmlns="http://www.w3.org/2000/svg">
<g clip-path="url('#clip0_3_2524')">
<path d="M137.9 42H5C3.67392 42 2.40215 41.4732 1.46447 40.5356C0.526784 39.5979 0 38.3261 0 37L0 5.00002C0 3.67394 0.526784 2.40217 1.46447 1.46449C2.40215 0.526808 3.67392 2.36104e-05 5 2.36104e-05H137.9C138.565 -0.0132786 139.226 0.106225 139.844 0.351536C140.462 0.596847 141.025 0.963035 141.5 1.42866C141.975 1.89428 142.353 2.44998 142.61 3.06322C142.868 3.67646 143 4.33491 143 5.00002V37C143 37.6651 142.868 38.3236 142.61 38.9368C142.353 39.5501 141.975 40.1058 141.5 40.5714C141.025 41.037 140.462 41.4032 139.844 41.6485C139.226 41.8938 138.565 42.0133 137.9 42Z" fill="#A6A6A6"></path>
<path d="M137.9 40.9998H5.1C4.56636 41.0131 4.03544 40.9195 3.53854 40.7245C3.04163 40.5295 2.5888 40.2369 2.2067 39.8642C1.82461 39.4914 1.521 39.0459 1.31376 38.554C1.10651 38.062 0.999833 37.5336 1 36.9998V4.99979C0.999833 4.46598 1.10651 3.93753 1.31376 3.4456C1.521 2.95366 1.82461 2.50818 2.2067 2.13541C2.5888 1.76264 3.04163 1.47011 3.53854 1.27508C4.03544 1.08004 4.56636 0.98644 5.1 0.999785H138C140.2 0.999785 142.1 2.79979 142.1 4.99979V36.9998C142 39.1998 140.2 40.9998 137.9 40.9998Z" fill="#283139"></path>
<path d="M137.9 40.9998H5.1C4.56636 41.0131 4.03544 40.9195 3.53854 40.7245C3.04163 40.5295 2.5888 40.2369 2.2067 39.8642C1.82461 39.4914 1.521 39.0459 1.31376 38.554C1.10651 38.062 0.999833 37.5336 1 36.9998V4.99979C0.999833 4.46598 1.10651 3.93753 1.31376 3.4456C1.521 2.95366 1.82461 2.50818 2.2067 2.13541C2.5888 1.76264 3.04163 1.47011 3.53854 1.27508C4.03544 1.08004 4.56636 0.98644 5.1 0.999785H138C140.2 0.999785 142.1 2.79979 142.1 4.99979V36.9998C142 39.1998 140.2 40.9998 137.9 40.9998Z" fill="black" fill-opacity="0.3"></path>
<path d="M31.9 20.8C31.9 17.4 34.7 15.8 34.8 15.7C34.2546 14.8718 33.5124 14.1917 32.6399 13.7206C31.7674 13.2494 30.7916 13.0018 29.8 13C27.8 12.8 25.7 14.2 24.7 14.2C23.6 14.2 22 13 20.2 13C19.0592 13.0058 17.9421 13.3264 16.9717 13.9262C16.0013 14.5261 15.2152 15.3821 14.7 16.4C12.3 20.5 14.1 26.6 16.4 29.9C17.5 31.5 18.9 33.3 20.6 33.3C22.3 33.2 23 32.2 25 32.2C27.1 32.2 27.7 33.3 29.4 33.2C31.2 33.2 32.4 31.6 33.5 29.9C34.8 28 35.4 26.2 35.4 26.1C35.4 26.1 31.9 24.8 31.9 20.8ZM28.5 10.8C29.0047 10.2105 29.3881 9.52732 29.6283 8.78946C29.8686 8.05159 29.9609 7.27359 29.9 6.5C28.6 6.6 26.9 7.4 25.9 8.5C25 9.5 24.3 11.1 24.5 12.6C26 12.8 27.5 11.9 28.5 10.8Z" fill="white"></path>
<path d="M56.7 33.0998H54.3L53 28.9998H48.4L47.1 33.0998H44.8L49.4 19.0998H52.2L56.7 33.0998ZM52.6 27.1998L51.4 23.5998L50.7 20.9998L50 23.5998L48.8 27.1998H52.6ZM68.4 27.8998C68.4602 29.3931 67.961 30.8552 67 31.9998C66.6085 32.4285 66.1285 32.7668 65.5932 32.9913C65.0579 33.2157 64.4801 33.321 63.9 33.2998C62.6 33.2998 61.6 32.7998 61 31.8998V37.1998H58.7V26.2998L58.6 22.9998H60.6L60.7 24.5998C61.0553 24.0244 61.5577 23.5542 62.1554 23.2378C62.7531 22.9213 63.4244 22.7701 64.1 22.7998C65.3 22.7998 66.3 23.2998 67.1 24.1998C67.5548 24.6971 67.9045 25.2812 68.1279 25.917C68.3513 26.5529 68.4438 27.2273 68.4 27.8998ZM66.1 27.9998C66.1 26.9998 65.9 26.1998 65.4 25.5998C64.9 24.8998 64.3 24.5998 63.4 24.5998C62.8 24.5998 62.3 24.7998 61.9 25.0998C61.4 25.4998 61.2 25.8998 61 26.4998L60.9 27.1998V28.8998C60.9 29.5998 61.1 30.1998 61.6 30.7998C62.1 31.2998 62.6 31.5998 63.4 31.5998C64.2 31.5998 64.9 31.2998 65.4 30.5998C65.8667 29.8135 66.1088 28.9142 66.1 27.9998ZM80 27.8998C80.0602 29.3931 79.561 30.8552 78.6 31.9998C78.2085 32.4285 77.7285 32.7668 77.1932 32.9913C76.6579 33.2157 76.0801 33.321 75.5 33.2998C74.2 33.2998 73.2 32.7998 72.6 31.8998V37.1998H70.3V26.2998L70.2 22.9998H72.2L72.4 24.5998C72.7553 24.0244 73.2577 23.5542 73.8554 23.2378C74.4531 22.9213 75.1244 22.7701 75.8 22.7998C77 22.7998 78 23.2998 78.8 24.1998C79.6 25.0998 80 26.3998 80 27.8998ZM77.7 27.9998C77.7 26.9998 77.5 26.1998 77 25.5998C76.5 24.8998 75.9 24.5998 75 24.5998C74.4 24.5998 73.9 24.7998 73.5 25.0998C73 25.4998 72.8 25.8998 72.6 26.4998L72.5 27.1998V28.8998C72.5 29.5998 72.7 30.1998 73.2 30.7998C73.7 31.2998 74.2 31.5998 75 31.5998C75.8 31.5998 76.5 31.2998 77 30.5998C77.5 29.8998 77.7 29.0998 77.7 27.9998ZM93.1 29.0998C93.1 30.2998 92.7 31.2998 91.9 31.9998C91 32.7998 89.7 33.1998 88.1 33.1998C86.6 33.1998 85.4 32.8998 84.5 32.2998L85 30.3998C86 30.9998 87.1 31.2998 88.3 31.2998C89.1 31.2998 89.8 31.0998 90.3 30.6998C90.8 30.2998 91 29.7998 91 29.1998C91 28.5998 90.8 28.1998 90.4 27.7998C90 27.3998 89.4 27.0998 88.5 26.6998C86 25.7998 84.8 24.4998 84.8 22.6998C84.8 21.5998 85.2 20.5998 86.1 19.8998C87 19.1998 88.1 18.7998 89.5 18.7998C90.8 18.7998 91.8 18.9998 92.7 19.4998L92.1 21.2998C91.259 20.8923 90.3344 20.6868 89.4 20.6998C88.6 20.6998 88 20.8998 87.5 21.2998C87.1 21.5998 86.9 22.0998 86.9 22.5998C86.9 23.1998 87.1 23.5998 87.5 23.9998L89.5 25.0998C90.5189 25.4511 91.4429 26.0328 92.2 26.7998C92.8 27.3998 93.1 28.1998 93.1 29.0998ZM100.5 24.6998H98V29.5998C98 30.7998 98.4 31.4998 99.3 31.4998L100.3 31.3998L100.4 33.0998C100 33.2998 99.4 33.2998 98.6 33.2998C97.7 33.2998 97 32.9998 96.5 32.4998C96 31.9998 95.7 31.0998 95.7 29.7998V24.6998H94.4V22.9998H95.9V21.1998L98.1 20.4998V22.9998H100.6V24.6998H100.5ZM111.7 27.8998C111.7 29.3998 111.3 30.6998 110.4 31.6998C109.5 32.6998 108.2 33.1998 106.7 33.1998C105.2 33.1998 104 32.6998 103.1 31.6998C102.2 30.6998 101.8 29.4998 101.8 27.9998C101.8 26.3998 102.3 25.1998 103.2 24.1998C104.1 23.1998 105.3 22.6998 106.9 22.6998C108.4 22.6998 109.6 23.1998 110.5 24.1998C111.3 25.1998 111.7 26.3998 111.7 27.8998ZM109.4 27.9998C109.4 27.0998 109.2 26.2998 108.8 25.5998C108.3 24.7998 107.7 24.3998 106.8 24.3998C105.9 24.3998 105.2 24.7998 104.7 25.5998C104.3 26.2998 104.1 27.0998 104.1 27.9998C104.1 28.8998 104.3 29.6998 104.7 30.3998C105.2 31.1998 105.9 31.5998 106.7 31.5998C107.6 31.5998 108.2 31.1998 108.7 30.3998C109.2 29.7998 109.4 28.8998 109.4 27.9998ZM119.1 24.9998L118.4 24.8998C118.047 24.8774 117.695 24.9488 117.379 25.1069C117.062 25.265 116.794 25.5041 116.6 25.7998C116.2 26.2998 116 26.9998 116 27.7998V33.0998H113.7V26.1998L113.6 22.9998H115.6L115.7 24.8998H115.8C115.979 24.2593 116.366 23.6965 116.9 23.2998C117.4 22.8998 117.9 22.7998 118.5 22.7998H119.1V24.9998ZM129.2 27.5998L129.1 28.5998H122.3C122.291 29.0326 122.375 29.4623 122.548 29.8593C122.721 30.2563 122.977 30.6113 123.3 30.8998C123.9 31.3998 124.6 31.5998 125.5 31.5998C126.5 31.5998 127.4 31.3998 128.2 31.0998L128.6 32.6998C127.516 33.1173 126.361 33.3211 125.2 33.2998C124.52 33.3304 123.842 33.222 123.206 32.9813C122.569 32.7406 121.989 32.3726 121.5 31.8998C121.045 31.4025 120.695 30.8184 120.472 30.1826C120.249 29.5467 120.156 28.8723 120.2 28.1998C120.2 26.6998 120.6 25.3998 121.5 24.3998C121.919 23.8796 122.453 23.4641 123.061 23.1864C123.669 22.9087 124.332 22.7763 125 22.7998C126.5 22.7998 127.6 23.2998 128.3 24.3998C128.9 25.1998 129.2 26.2998 129.2 27.5998ZM127 26.9998C127.038 26.406 126.899 25.8143 126.6 25.2998C126.406 25.0041 126.138 24.765 125.821 24.6069C125.505 24.4488 125.153 24.3774 124.8 24.3998C124.1 24.3998 123.5 24.6998 123 25.2998C122.6 25.7998 122.4 26.3998 122.3 26.9998H127Z" fill="white"></path>
<path d="M51.9 10.4999C51.9 11.6999 51.5 12.6999 50.8 13.2999C50.1 13.8999 49.1 14.1999 47.8 14.1999L46.2 14.0999V7.2999L48.1 7.1999C49.3 7.1999 50.2 7.4999 50.8 7.9999C51.6 8.5999 51.9 9.3999 51.9 10.4999ZM50.7 10.4999C50.7 9.6999 50.5 9.0999 50.1 8.6999C49.7 8.2999 49 8.0999 48.2 8.0999L47.3 8.1999V13.2999H48.1C48.9 13.2999 49.6 13.0999 50.1 12.5999C50.5 12.0999 50.7 11.3999 50.7 10.4999ZM58.1 11.5999C58.1 12.3999 57.9 12.9999 57.4 13.4999C56.9 13.9999 56.3 14.2999 55.6 14.2999C54.9 14.2999 54.3 14.0999 53.9 13.5999C53.4 12.9999 53.2 12.3999 53.2 11.6999C53.2 10.8999 53.4 10.2999 53.9 9.7999C54.3 9.2999 54.9 9.0999 55.7 9.0999C56.4 9.0999 57 9.2999 57.5 9.7999C57.9 10.1999 58.1 10.7999 58.1 11.5999ZM56.9 11.5999C56.9 11.0999 56.8 10.7999 56.6 10.3999C56.4 9.9999 56 9.7999 55.6 9.7999C55.2 9.7999 54.8 9.9999 54.6 10.3999L54.3 11.5999C54.3 12.0999 54.4 12.3999 54.6 12.7999C54.8 13.1999 55.2 13.3999 55.6 13.3999C56 13.3999 56.4 13.1999 56.6 12.7999C56.8 12.4999 56.9 12.0999 56.9 11.5999ZM66.4 9.1999L64.8 14.0999H63.8L63.2 11.9999L62.8 10.3999L62.4 11.9999L61.7 14.0999H60.7L59.2 9.1999H60.3L60.9 11.5999L61.2 13.1999L61.6 11.5999L62.3 9.1999H63.2L63.9 11.4999L64.3 13.0999L64.6 11.4999L65.2 9.1999H66.4ZM72.1 14.0999H71V11.2999C71 10.3999 70.7 9.9999 70 9.9999C69.8448 9.9999 69.6917 10.036 69.5528 10.1055C69.4139 10.1749 69.2932 10.2757 69.2 10.3999C69 10.5999 68.9 10.8999 68.9 11.1999V14.0999H67.8V10.5999V9.1999H68.8L68.9 9.9999L69.5 9.3999C69.8 9.1999 70.1 9.0999 70.5 9.0999C71 9.0999 71.4 9.1999 71.7 9.4999C72.1 9.8999 72.3 10.3999 72.3 11.0999V14.0999H72.1ZM75.2 14.0999H74.1V6.8999H75.2V14.0999ZM81.7 11.5999C81.7 12.3999 81.5 12.9999 81 13.4999C80.5 13.9999 79.9 14.2999 79.2 14.2999C78.5 14.2999 77.9 14.0999 77.5 13.5999C77.1 13.0999 76.8 12.4999 76.8 11.7999C76.8 10.9999 77 10.3999 77.5 9.8999C77.9 9.3999 78.6 9.1999 79.3 9.1999C80 9.1999 80.6 9.3999 81.1 9.8999C81.5 10.1999 81.7 10.7999 81.7 11.5999ZM80.6 11.5999C80.6 11.0999 80.5 10.7999 80.3 10.3999C80.1 9.9999 79.7 9.7999 79.3 9.7999C78.9 9.7999 78.5 9.9999 78.3 10.3999C78.1 10.6999 78 11.0999 78 11.5999C78 12.0999 78.1 12.3999 78.3 12.7999C78.5 13.1999 78.9 13.3999 79.3 13.3999C79.7 13.3999 80.1 13.1999 80.3 12.7999C80.5 12.4999 80.6 12.0999 80.6 11.5999ZM87.1 14.0999H86.1L86 13.4999C85.7 13.9999 85.2 14.1999 84.5 14.1999C84 14.1999 83.6 14.0999 83.4 13.7999C83.1 13.4999 83 13.1999 83 12.7999C83 12.1999 83.3 11.6999 83.8 11.3999C84.441 11.0439 85.1674 10.871 85.9 10.8999V10.7999C85.9 10.0999 85.6 9.7999 84.9 9.7999C84.4333 9.77727 83.9733 9.91879 83.6 10.1999L83.4 9.4999C83.9145 9.20093 84.5062 9.0617 85.1 9.0999C86.4 9.0999 87.1 9.7999 87.1 11.0999V12.8999V14.0999ZM85.9 12.3999V11.5999C84.7 11.5999 84.1 11.8999 84.1 12.5999L84.3 13.1999L84.9 13.3999L85.6 13.1999L86 12.5999L85.9 12.3999ZM93.4 14.0999H92.4L92.3 13.2999C92 13.8999 91.5 14.1999 90.7 14.1999C90.1 14.1999 89.6 13.9999 89.2 13.4999C88.8 12.9999 88.6 12.3999 88.6 11.6999C88.6 10.8999 88.8 10.2999 89.2 9.7999C89.6 9.2999 90.1 9.0999 90.7 9.0999C91.4 9.0999 91.8 9.2999 92.1 9.7999V6.8999H93.2V12.7999L93.4 14.0999ZM92.2 11.9999V11.1999V10.8999L91.8 10.1999C91.6154 10.0115 91.3638 9.90366 91.1 9.8999C90.7 9.8999 90.4 10.0999 90.1 10.3999C89.9 10.6999 89.7 11.0999 89.7 11.6999C89.7 12.1999 89.8 12.5999 90 12.8999C90.2 13.1999 90.6 13.3999 91 13.3999C91.4 13.3999 91.7 13.2999 91.9 12.9999C92.1 12.6999 92.2 12.3999 92.2 11.9999ZM102.9 11.5999C102.9 12.3999 102.7 12.9999 102.2 13.4999C101.7 13.9999 101.1 14.2999 100.4 14.2999C99.7 14.2999 99.1 14.0999 98.7 13.5999C98.3 13.0999 98 12.4999 98 11.7999C98 10.9999 98.2 10.3999 98.7 9.8999C99.1 9.2999 99.7 9.0999 100.5 9.0999C101.2 9.0999 101.8 9.2999 102.3 9.7999C102.6 10.1999 102.9 10.7999 102.9 11.5999ZM101.7 11.5999C101.7 11.0999 101.6 10.7999 101.4 10.3999C101.2 9.9999 100.8 9.7999 100.4 9.7999C100 9.7999 99.6 9.9999 99.4 10.3999C99.2 10.6999 99.1 11.0999 99.1 11.5999C99.1 12.0999 99.2 12.3999 99.4 12.7999C99.6 13.1999 100 13.3999 100.4 13.3999C100.8 13.3999 101.2 13.1999 101.4 12.7999C101.6 12.4999 101.7 12.0999 101.7 11.5999ZM108.8 14.0999H107.7V11.2999C107.7 10.3999 107.4 9.9999 106.7 9.9999C106.545 9.9999 106.392 10.036 106.253 10.1055C106.114 10.1749 105.993 10.2757 105.9 10.3999C105.7 10.5999 105.6 10.8999 105.6 11.1999V14.0999H104.5V10.5999V9.1999H105.5V9.8999L106.1 9.2999C106.4 9.0999 106.7 8.9999 107.1 8.9999C107.6 8.9999 108 9.0999 108.3 9.3999C108.7 9.7999 108.9 10.2999 108.9 10.9999V14.0999H108.8ZM116.3 9.9999H115.1V12.3999C115.1 12.9999 115.3 13.2999 115.7 13.2999L116.2 13.1999V13.9999L115.3 14.0999C114.9 14.0999 114.5 13.9999 114.3 13.6999C114.1 13.3999 113.9 12.9999 113.9 12.3999V9.9999H113.2V9.1999H113.9V8.1999L115 7.8999V9.0999H116.2L116.3 9.9999ZM122.1 14.0999H121V11.2999C121 10.3999 120.7 9.9999 120 9.9999C119.5 9.9999 119.1 10.2999 118.9 10.7999L118.8 11.1999V14.1999H117.7V6.8999H118.8V9.8999C119.1 9.3999 119.6 9.0999 120.3 9.0999C120.8 9.0999 121.1 9.1999 121.4 9.4999C121.8 9.8999 122 10.3999 122 11.1999V14.0999H122.1ZM128.2 11.3999V11.8999H124.9C124.9 12.3999 125.1 12.7999 125.4 12.9999C125.7 13.1999 126 13.2999 126.5 13.2999L127.8 13.0999L128 13.8999C127.5 14.0999 127 14.1999 126.3 14.1999C125.5 14.1999 124.9 13.9999 124.5 13.4999C124.1 12.9999 123.8 12.3999 123.8 11.6999C123.8 10.9999 124 10.2999 124.4 9.7999C124.8 9.2999 125.4 8.9999 126.1 8.9999C126.8 8.9999 127.4 9.2999 127.7 9.7999C128 10.2999 128.2 10.7999 128.2 11.3999ZM127.1 11.0999L126.9 10.2999C126.809 10.1428 126.678 10.0133 126.519 9.92518C126.361 9.8371 126.181 9.7938 126 9.7999C125.6 9.7999 125.3 9.8999 125.1 10.1999C124.9 10.3999 124.8 10.6999 124.8 11.0999H127.1Z" fill="white"></path>
</g>
<g clip-path="url('#clip1_3_2524')">
<path d="M294.65 41.5H163.25C162.567 41.5133 161.888 41.3918 161.252 41.1427C160.616 40.8936 160.036 40.5216 159.543 40.048C159.051 39.5744 158.657 39.0084 158.384 38.3825C158.11 37.7566 157.963 37.0829 157.95 36.4V5.6C157.95 2.8 160.35 0.5 163.25 0.5H294.75C297.65 0.5 300.05 2.8 300.05 5.6V36.4C299.973 37.7795 299.371 39.0772 298.366 40.0259C297.362 40.9746 296.032 41.5021 294.65 41.5Z" fill="#283139"></path>
<path d="M294.65 41.5H163.25C162.567 41.5133 161.888 41.3918 161.252 41.1427C160.616 40.8936 160.036 40.5216 159.543 40.048C159.051 39.5744 158.657 39.0084 158.384 38.3825C158.11 37.7566 157.963 37.0829 157.95 36.4V5.6C157.95 2.8 160.35 0.5 163.25 0.5H294.75C297.65 0.5 300.05 2.8 300.05 5.6V36.4C299.973 37.7795 299.371 39.0772 298.366 40.0259C297.362 40.9746 296.032 41.5021 294.65 41.5Z" fill="black" fill-opacity="0.3"></path>
<path d="M295.05 1C297.45 1 299.45 3 299.45 5.4V36.7C299.45 39.1 297.45 41.1 295.05 41.1H162.85C161.682 41.0494 160.577 40.5561 159.76 39.7202C158.943 38.8844 158.474 37.7687 158.45 36.6V5.4C158.45 3 160.45 1 162.85 1H295.05ZM295.15 8.40926e-08H162.75C161.362 -0.000247088 160.028 0.544396 159.037 1.51681C158.046 2.48923 157.476 3.81176 157.45 5.2V36.7C157.45 39.6 159.85 42 162.75 42H295.15C298.05 42 300.45 39.6 300.45 36.8V5.2C300.45 2.4 298.05 8.40926e-08 295.15 8.40926e-08Z" fill="#A6A6A6"></path>
<path d="M207.65 11.1002C207.65 12.0002 207.35 12.7002 206.85 13.2002C206.25 13.8002 205.45 14.1002 204.55 14.1002C203.692 14.1006 202.867 13.7667 202.251 13.1693C201.635 12.5719 201.276 11.758 201.25 10.9002C201.25 10.0002 201.55 9.2002 202.25 8.6002C202.85 8.0002 203.65 7.7002 204.55 7.7002C205.05 7.7002 205.45 7.8002 205.85 8.0002L206.85 8.7002L206.25 9.2002C205.85 8.7002 205.25 8.5002 204.55 8.5002C203.85 8.5002 203.35 8.7002 202.85 9.2002C202.35 9.7002 202.15 10.3002 202.15 11.0002C202.137 11.3237 202.189 11.6466 202.303 11.9494C202.418 12.2522 202.592 12.5287 202.817 12.7623C203.041 12.9958 203.31 13.1816 203.608 13.3084C203.906 13.4352 204.226 13.5005 204.55 13.5002C205.25 13.5002 205.85 13.3002 206.35 12.8002C206.65 12.5002 206.85 12.1002 206.85 11.5002H204.55V10.7002H207.65V11.1002ZM212.55 8.5002H209.65V10.5002H212.25V11.3002H209.65V13.3002H212.55V14.0002H208.85V7.8002H212.55V8.5002ZM215.95 14.0002H215.15V8.5002H213.45V7.8002H217.85V8.6002H216.05V14.0002H215.95ZM220.95 14.0002V7.8002H221.75V14.0002H220.95ZM225.35 14.0002H224.55V8.5002H222.75V7.8002H227.15V8.6002H225.35V14.0002ZM235.45 13.2002C234.85 13.8002 234.05 14.1002 233.15 14.1002C232.25 14.1002 231.45 13.8002 230.85 13.2002C230.25 12.6002 229.95 11.8002 229.95 10.9002C229.95 10.0002 230.25 9.2002 230.85 8.6002C231.45 8.0002 232.25 7.7002 233.15 7.7002C234.05 7.7002 234.85 8.0002 235.45 8.6002C236.05 9.2002 236.35 10.0002 236.35 10.9002C236.35 11.8002 236.05 12.6002 235.45 13.2002ZM231.35 12.7002C231.85 13.2002 232.35 13.4002 233.05 13.4002C233.75 13.4002 234.35 13.2002 234.75 12.7002C235.25 12.2002 235.45 11.6002 235.45 10.9002C235.45 10.2002 235.25 9.6002 234.75 9.1002C234.25 8.6002 233.75 8.4002 233.05 8.4002C232.35 8.4002 231.75 8.6002 231.35 9.1002C230.85 9.6002 230.65 10.2002 230.65 10.9002C230.65 11.6002 230.85 12.2002 231.35 12.7002ZM237.55 14.0002V7.8002H238.55L241.65 12.6002V7.8002H242.45V14.0002H241.55L238.35 8.9002V14.0002H237.55Z" fill="white" stroke="white" stroke-width="0.7"></path>
<path d="M229.65 23.0998C228.483 23.0998 227.364 23.5634 226.539 24.3885C225.714 25.2137 225.25 26.3328 225.25 27.4998C225.25 28.6668 225.714 29.7859 226.539 30.6111C227.364 31.4362 228.483 31.8998 229.65 31.8998C232.15 31.8998 234.15 29.9998 234.15 27.4998C234.15 24.8998 232.15 23.0998 229.65 23.0998ZM229.65 30.1998C228.25 30.1998 227.15 29.0998 227.15 27.4998C227.15 25.8998 228.35 24.7998 229.65 24.7998C231.05 24.7998 232.15 25.8998 232.15 27.4998C232.15 29.0998 230.95 30.1998 229.65 30.1998ZM219.75 23.0998C218.583 23.0998 217.464 23.5634 216.639 24.3885C215.814 25.2137 215.35 26.3328 215.35 27.4998C215.35 28.6668 215.814 29.7859 216.639 30.6111C217.464 31.4362 218.583 31.8998 219.75 31.8998C222.25 31.8998 224.25 29.9998 224.25 27.4998C224.25 24.8998 222.25 23.0998 219.75 23.0998ZM219.75 30.1998C218.35 30.1998 217.25 29.0998 217.25 27.4998C217.25 25.8998 218.45 24.7998 219.75 24.7998C221.15 24.7998 222.25 25.8998 222.25 27.4998C222.25 29.0998 221.15 30.1998 219.75 30.1998ZM208.05 24.3998V26.2998H212.65C212.55 27.2998 212.15 28.0998 211.65 28.6998C210.711 29.6052 209.455 30.1076 208.15 30.0998C205.35 30.0998 203.15 27.8998 203.15 25.0998C203.15 22.2998 205.35 20.0998 208.15 20.0998C209.406 20.0905 210.62 20.5547 211.55 21.3998L212.95 20.0998C212.319 19.4768 211.568 18.9875 210.743 18.661C209.919 18.3346 209.037 18.1777 208.15 18.1998C204.25 18.1998 201.05 21.2998 201.05 25.0998C201.05 28.8998 204.25 31.9998 208.15 31.9998C210.25 31.9998 211.85 31.2998 213.05 30.0998C213.616 29.5193 214.058 28.8301 214.351 28.0739C214.643 27.3176 214.779 26.51 214.75 25.6998L214.65 24.4998H208.05V24.3998ZM256.05 25.8998C255.65 24.8998 254.55 23.0998 252.15 23.0998C249.85 23.0998 247.95 24.8998 247.95 27.4998C247.95 29.9998 249.85 31.8998 252.45 31.8998C254.55 31.8998 255.75 30.6998 256.25 29.8998L254.75 28.8998C254.25 29.5998 253.55 30.0998 252.55 30.0998C251.55 30.0998 250.85 29.5998 250.35 28.7998L256.35 26.3998L256.05 25.8998ZM249.85 27.3998C249.75 25.6998 251.25 24.7998 252.25 24.7998C253.05 24.7998 253.75 25.1998 253.95 25.6998L249.85 27.3998ZM244.95 31.6998H246.95V18.6998H244.95V31.6998ZM241.75 24.0998C241.25 23.5998 240.35 23.0998 239.35 23.0998C238.2 23.1259 237.107 23.601 236.303 24.4234C235.5 25.2457 235.05 26.35 235.05 27.4998C235.05 29.9998 237.15 31.8998 239.35 31.8998C240.45 31.8998 241.25 31.3998 241.75 30.8998H241.85V31.4998C241.85 33.1998 240.95 34.0998 239.45 34.0998C238.25 34.0998 237.45 33.1998 237.15 32.4998L235.45 33.1998C235.774 33.9878 236.331 34.6585 237.045 35.1229C237.759 35.5872 238.598 35.8233 239.45 35.7998C241.75 35.7998 243.75 34.4998 243.75 31.1998V23.2998H241.85V24.0998H241.75ZM239.45 30.1998C238.05 30.1998 236.95 29.0998 236.95 27.4998C236.95 25.8998 238.05 24.7998 239.45 24.7998C240.75 24.7998 241.85 25.8998 241.85 27.4998C241.85 29.0998 240.85 30.1998 239.45 30.1998ZM265.35 18.6998H260.65V31.6998H262.65V26.7998H265.45C267.65 26.7998 269.75 25.1998 269.75 22.7998C269.698 21.6769 269.208 20.619 268.386 19.8526C267.564 19.0863 266.474 18.6725 265.35 18.6998ZM265.35 24.8998H262.55V20.3998H265.35C266.85 20.3998 267.65 21.5998 267.65 22.5998C267.65 23.6998 266.85 24.8998 265.35 24.8998ZM277.55 23.0998C276.15 23.0998 274.65 23.6998 274.05 25.0998L275.85 25.7998C276.031 25.4856 276.294 25.2265 276.611 25.0504C276.929 24.8742 277.288 24.7876 277.65 24.7998C278.65 24.7998 279.75 25.3998 279.75 26.4998V26.5998C279.35 26.3998 278.65 26.0998 277.65 26.0998C275.75 26.0998 273.85 27.0998 273.85 28.9998C273.85 30.6998 275.35 31.8998 277.15 31.8998C278.45 31.8998 279.25 31.2998 279.65 30.5998H279.75V31.5998H281.65V26.5998C281.65 24.3998 279.85 23.0998 277.55 23.0998ZM277.35 30.1998C276.75 30.1998 275.85 29.8998 275.85 29.0998C275.85 28.0998 276.95 27.6998 277.95 27.6998C278.85 27.6998 279.25 27.8998 279.75 28.0998C279.657 28.6745 279.366 29.1988 278.928 29.5822C278.49 29.9655 277.932 30.184 277.35 30.1998ZM288.55 23.2998L286.25 28.8998H286.15L283.85 23.2998H281.75L285.25 31.1998L283.25 35.5998H285.35L290.75 23.3998H288.55V23.2998ZM270.75 31.6998H272.75V18.6998H270.75V31.6998Z" fill="white"></path>
<path d="M168.55 8.2998C168.15 8.5998 168.05 9.0998 168.05 9.7998V32.7998C168.05 33.3998 168.25 33.8998 168.55 34.2998L168.65 34.3998L181.75 21.4998V21.1998L168.55 8.2998Z" fill="url('#paint0_linear_3_2524')"></path>
<path d="M186.05 25.6998L181.75 21.3998V21.0998L186.15 16.7998L186.25 16.8998L191.35 19.6998C192.85 20.4998 192.85 21.8998 191.35 22.6998L186.15 25.5998L186.05 25.6998Z" fill="url('#paint1_linear_3_2524')"></path>
<path d="M186.15 25.6002L181.65 21.2002L168.45 34.2002C168.95 34.7002 169.75 34.8002 170.65 34.3002L186.15 25.6002Z" fill="url('#paint2_linear_3_2524')"></path>
<path d="M186.15 16.7998L170.65 8.19982C169.75 7.69982 168.95 7.79982 168.45 8.29982L181.65 21.1998L186.15 16.7998Z" fill="url('#paint3_linear_3_2524')"></path>
</g>
<g clip-path="url('#clip2_3_2524')">
<path d="M137.9 91H5C3.67392 91 2.40215 90.4732 1.46447 89.5356C0.526784 88.5979 0 87.3261 0 86L0 54C0 52.6739 0.526784 51.4022 1.46447 50.4645C2.40215 49.5268 3.67392 49 5 49H137.9C138.565 48.9867 139.226 49.1062 139.844 49.3515C140.462 49.5968 141.025 49.963 141.5 50.4287C141.975 50.8943 142.353 51.45 142.61 52.0632C142.868 52.6765 143 53.3349 143 54V86C143 86.6651 142.868 87.3236 142.61 87.9368C142.353 88.5501 141.975 89.1058 141.5 89.5714C141.025 90.037 140.462 90.4032 139.844 90.6485C139.226 90.8938 138.565 91.0133 137.9 91Z" fill="#A6A6A6"></path>
<path d="M141.7 85.9998C141.7 86.5336 141.593 87.062 141.386 87.554C141.179 88.0459 140.875 88.4914 140.493 88.8642C140.111 89.2369 139.658 89.5295 139.161 89.7245C138.665 89.9195 138.134 90.0131 137.6 89.9998H4.99999C3.92971 90.0001 2.90173 89.5819 2.13565 88.8345C1.36956 88.0871 0.926098 87.0697 0.899994 85.9998V53.9998C0.899827 53.466 1.00651 52.9375 1.21375 52.4456C1.421 51.9537 1.72461 51.5082 2.1067 51.1354C2.48879 50.7626 2.94163 50.4701 3.43853 50.2751C3.93544 50.08 4.46635 49.9864 4.99999 49.9998H137.7C139.9 49.9998 141.8 51.7998 141.8 53.9998L141.7 85.9998Z" fill="#283139"></path>
<path d="M141.7 85.9998C141.7 86.5336 141.593 87.062 141.386 87.554C141.179 88.0459 140.875 88.4914 140.493 88.8642C140.111 89.2369 139.658 89.5295 139.161 89.7245C138.665 89.9195 138.134 90.0131 137.6 89.9998H4.99999C3.92971 90.0001 2.90173 89.5819 2.13565 88.8345C1.36956 88.0871 0.926098 87.0697 0.899994 85.9998V53.9998C0.899827 53.466 1.00651 52.9375 1.21375 52.4456C1.421 51.9537 1.72461 51.5082 2.1067 51.1354C2.48879 50.7626 2.94163 50.4701 3.43853 50.2751C3.93544 50.08 4.46635 49.9864 4.99999 49.9998H137.7C139.9 49.9998 141.8 51.7998 141.8 53.9998L141.7 85.9998Z" fill="black" fill-opacity="0.3"></path>
<path d="M48 55.9V60.5C48 61 47.9 61.5 47.7 61.9C47.5 62.3 47.1 62.6 46.7 62.8C46.3 63 45.8 63.1 45.2 63.1C44.3 63.1 43.6 62.9 43.1 62.4C42.6 61.9 42.4 61.3 42.4 60.5V55.9H43.6V60.4C43.6 61 43.7 61.4 44 61.7C44.3 62 44.7 62.1 45.3 62.1C46.4 62.1 47 61.5 47 60.4V55.9H48ZM53.3 61.5C53.3 62 53.1 62.4 52.7 62.7C52.3 63 51.8 63.1 51 63.1C50.4182 63.1249 49.8381 63.0225 49.3 62.8V61.8C49.8607 62.0717 50.477 62.2087 51.1 62.2C51.8 62.2 52.2 62 52.2 61.6L52.1 61.3L51.7 61L51 60.7C50.4 60.5 50 60.2 49.7 60C49.4 59.8 49.4 59.4 49.4 59.1C49.4 58.6 49.6 58.3 50 58C50.4 57.7 50.9 57.6 51.5 57.6C52.123 57.5913 52.7393 57.7283 53.3 58L52.9 58.9C52.3 58.7 51.8 58.5 51.4 58.5C50.8 58.5 50.5 58.7 50.5 59L50.7 59.4L51.7 59.9L52.7 60.4C52.9 60.6 53.1 60.7 53.1 60.9L53.3 61.5ZM56.9 63.1C56.1 63.1 55.4 62.9 54.9 62.4C54.4 61.9 54.2 61.2 54.2 60.4C54.2 59.5 54.4 58.8 54.9 58.3C55.4 57.8 55.9 57.5 56.7 57.5C57.4 57.5 58 57.7 58.4 58.1C58.8 58.5 59 59.1 59 59.9V60.5H55.4C55.4 61 55.6 61.4 55.8 61.7C56 62 56.4 62.1 56.9 62.1L57.8 62L58.7 61.7V62.6L57.9 62.9L56.9 63.1ZM56.7 58.4C56.3 58.4 56 58.5 55.8 58.7C55.6 58.9 55.4 59.3 55.4 59.7H57.9C57.9 59.3 57.8 58.9 57.6 58.7C57.4 58.5 57 58.4 56.7 58.4ZM64 63H62.9V57.6H64V63ZM62.8 56.2L63 55.7L63.5 55.5L64 55.7L64.2 56.2L64 56.7C63.9 56.9 63.7 56.9 63.5 56.9L63 56.7C62.8775 56.5615 62.8069 56.3848 62.8 56.2ZM67.7 62.2L68.5 62.1V63H68L67.4 63.1C66.3 63.1 65.8 62.5 65.8 61.4V58.5H65.1V58L65.9 57.6L66.3 56.5H67V57.7H68.5V58.6H67V61.5L67.2 62.1L67.7 62.2ZM77 60.3C77 61.2 76.8 61.9 76.3 62.4C75.8 62.9 75.2 63.1 74.4 63.1C73.9 63.1 73.4 63 73.1 62.8C72.7 62.6 72.4 62.2 72.2 61.8C72 61.4 71.9 60.9 71.9 60.3C71.9 59.4 72.1 58.7 72.6 58.2C73.1 57.7 73.7 57.5 74.5 57.5C75.3 57.5 75.9 57.8 76.4 58.3C76.9 58.8 77 59.4 77 60.3ZM73.1 60.3C73.1 61.5 73.6 62.2 74.5 62.2C75.4 62.2 75.9 61.6 75.9 60.3C75.9 59.1 75.4 58.4 74.5 58.4C74 58.4 73.7 58.6 73.5 58.9C73.3 59.2 73.1 59.7 73.1 60.3ZM83.1 63H81.9V59.7C81.9 59.3 81.8 59 81.6 58.8C81.4 58.6 81.2 58.5 80.8 58.5C80.3 58.5 80 58.6 79.7 58.9C79.4 59.2 79.4 59.7 79.4 60.3V63H78.3V57.6H79.2L79.4 58.3H79.5C79.7 58 79.9 57.8 80.2 57.7L81.2 57.5C82.5 57.5 83.1 58.2 83.1 59.5V63ZM86.4 57.6H87.6L88.7 60.7L89 61.9L89.2 61.2L90.4 57.6H91.6L89.3 63.7C88.9 64.8 88.2 65.4 87.2 65.4L86.5 65.3V64.4L87.1 64.5C87.7 64.5 88 64.2 88.3 63.5L88.5 63L86.4 57.6ZM97.4 60.3C97.4 61.2 97.2 61.9 96.7 62.4C96.2 62.9 95.6 63.1 94.8 63.1C94.3 63.1 93.8 63 93.5 62.8C93.1 62.6 92.8 62.2 92.6 61.8C92.4 61.4 92.3 60.9 92.3 60.3C92.3 59.4 92.5 58.7 93 58.2C93.5 57.7 94.1 57.5 94.9 57.5C95.7 57.5 96.3 57.8 96.8 58.3C97.3 58.8 97.4 59.4 97.4 60.3ZM93.5 60.3C93.5 61.5 94 62.2 94.9 62.2C95.8 62.2 96.3 61.6 96.3 60.3C96.3 59.1 95.8 58.4 94.9 58.4C94.4 58.4 94.1 58.6 93.9 58.9C93.7 59.2 93.5 59.7 93.5 60.3ZM102.5 63L102.3 62.3H102.2L101.5 62.9C101.2 63.1 100.9 63.1 100.5 63.1C99.8 63.1 99.4 62.9 99 62.6C98.6 62.3 98.5 61.8 98.5 61.1V57.6H99.7V60.9C99.7 61.3 99.8 61.6 100 61.8C100.2 62 100.4 62.1 100.8 62.1C101.3 62.1 101.6 62 101.9 61.7C102.1 61.4 102.2 60.9 102.2 60.3V57.6H103.4V63H102.5ZM107.8 57.5H108.4L108.3 58.6L107.8 58.5C107.3 58.5 107 58.6 106.7 58.9C106.4 59.2 106.3 59.6 106.3 60.1V63H105.2V57.6H106.1L106.3 58.6H106.4L107.1 57.8C107.4 57.6 107.5 57.5 107.8 57.5ZM54.1 81H51.9L49.8 73.8L49.5 72.4L49.3 71.2L49 72.6L48.7 73.9L46.7 81.1H44.5L43 74.9L41.4 68.8H43.4L45.1 75.9L45.7 78.9C45.932 77.9067 46.1321 76.9061 46.3 75.9L48.3 68.8H50.3L52.3 75.9L52.9 78.9L53.5 75.9L55.2 68.8H57.2L54.1 81ZM61.1 81.2C59.7 81.2 58.6 80.8 57.8 80C57 79.2 56.6 78 56.6 76.6C56.6 75.1 57 73.9 57.7 73.1C58.4 72.3 59.5 71.8 60.8 71.8C62 71.8 63 72.2 63.7 72.9C64.4 73.6 64.8 74.6 64.8 75.9V77H58.7C58.7 77.9 59 78.6 59.4 79.1C59.9 79.6 60.5 79.8 61.3 79.8L62.8 79.6L64.3 79.1V80.7L62.9 81.2H61.1ZM60.8 73.1C60.522 73.0902 60.245 73.1385 59.9867 73.2418C59.7284 73.3451 59.4945 73.5012 59.3 73.7C58.8945 74.1794 58.6497 74.774 58.6 75.4H62.8C62.8 74.6 62.6 74.1 62.3 73.7C62 73.3 61.4 73.1 60.8 73.1ZM70.4 71.7C71.5 71.7 72.4 72.1 73.1 72.9C73.7 73.7 74.1 74.9 74.1 76.4C74.1 77.9 73.8 79.1 73.1 79.9C72.5 80.7 71.6 81.2 70.4 81.2C69.2 81.2 68.3 80.8 67.7 79.9H67.6L67.1 81H65.6V68.1H67.6V73.1H67.7C68.2 72.1 69.1 71.7 70.4 71.7ZM69.8 73.2C69 73.2 68.4 73.4 68.1 73.9C67.8 74.4 67.6 75.1 67.6 76.2V76.3C67.6 77.4 67.8 78.2 68.1 78.7C68.5 79.2 69 79.5 69.8 79.5C70.5 79.5 71 79.2 71.4 78.7C71.8 78.2 71.9 77.4 71.9 76.3C72 74.3 71.3 73.2 69.8 73.2ZM78.4 68.9H82C83.7 68.9 84.9 69.1 85.6 69.6C86.3 70.1 86.7 70.9 86.7 71.9C86.7 72.6 86.5 73.2 86.2 73.7C85.8 74.2 85.3 74.5 84.6 74.6V74.7C85.5 74.9 86.1 75.2 86.5 75.7C86.9 76.2 87.1 76.8 87.1 77.6C87.1 78.7 86.7 79.5 86 80.2C85.3 80.9 84.1 81 82.7 81H78.3V68.9H78.4ZM80.3 73.9H82.2C83 73.9 83.6 73.8 84 73.5C84.4 73.2 84.6 72.8 84.6 72.2C84.6 71.6 84.4 71.2 84 71C83.6 70.7 82.9 70.6 82 70.6H80.3V73.9ZM80.3 75.5V79.3H82.4C83.2 79.3 83.9 79.1 84.3 78.8C84.7 78.5 84.9 78 84.9 77.3C84.9 76.7 84.7 76.2 84.3 75.9C83.9 75.6 83.2 75.4 82.3 75.4H80.3V75.5ZM92.8 71.7L93.8 71.8L93.6 73.6L92.7 73.5C91.9 73.5 91.3 73.8 90.8 74.3C90.3 74.8 90.1 75.5 90.1 76.3V81H88.1V71.8H89.6L89.9 73.4H90C90.3 72.9 90.7 72.4 91.2 72.1C91.7 71.8 92.2 71.7 92.8 71.7ZM102 76.4C102 77.9 101.6 79.1 100.8 79.9C100 80.7 99 81.2 97.6 81.2C96.7 81.2 96 81 95.3 80.6C94.6 80.2 94.1 79.7 93.8 78.9C93.4 78.2 93.3 77.3 93.3 76.4C93.3 74.9 93.7 73.7 94.4 72.9C95.2 72.1 96.2 71.6 97.6 71.6C98.9 71.6 100 72 100.8 72.9C101.6 73.8 102 74.9 102 76.4ZM95.3 76.4C95.3 78.5 96.1 79.6 97.6 79.6C99.1 79.6 99.9 78.5 99.9 76.4C99.9 74.3 99.1 73.3 97.6 73.3C96.8 73.3 96.2 73.6 95.8 74.1C95.4 74.6 95.3 75.4 95.3 76.4ZM110.2 81L109 76.7L108.2 73.5H108.1L107.3 76.7L106.1 81H104L101.4 71.8H103.4L104.6 76.3L105.2 79.2L105.5 77.8L105.8 76.6L107.2 71.8H109.3L110.7 76.6L111 77.8L111.2 79.1H111.3L111.9 76.2L113.1 71.7H115.1L112.5 80.9H110.2V81ZM121.4 78.4C121.4 79.3 121.1 80 120.4 80.5C119.7 81 118.8 81.2 117.6 81.2C116.598 81.2454 115.601 81.0392 114.7 80.6V78.9C115.8 79.4 116.8 79.6 117.7 79.6C118.9 79.6 119.5 79.2 119.5 78.5L119.3 77.9C119.2 77.7 118.9 77.6 118.6 77.4L117.3 76.8C116.2 76.4 115.5 76 115.2 75.6C114.9 75.2 114.6 74.7 114.6 74C114.6 73.2 114.9 72.6 115.6 72.2C116.3 71.8 117.1 71.5 118.2 71.5C119.3 71.5 120.3 71.7 121.3 72.2L120.7 73.7C119.7 73.3 118.9 73.1 118.2 73.1C117.2 73.1 116.7 73.4 116.7 74C116.7 74.3 116.8 74.5 117.1 74.7L118.9 75.5L120.6 76.3C121 76.5 121.2 76.8 121.4 77.1V78.4ZM126.3 81.2C124.9 81.2 123.8 80.8 123 80C122.2 79.2 121.8 78 121.8 76.6C121.8 75.1 122.2 73.9 122.9 73.1C123.6 72.2 124.7 71.8 126 71.8C126.532 71.781 127.063 71.8686 127.561 72.0575C128.059 72.2464 128.514 72.5328 128.9 72.9C129.28 73.2976 129.573 73.7692 129.763 74.2854C129.952 74.8016 130.033 75.3512 130 75.9V77H123.9C123.9 77.9 124.2 78.6 124.6 79.1C125 79.6 125.7 79.8 126.5 79.8L128 79.6L129.5 79.1V80.7L128.1 81.2H126.3ZM125.9 73.1C125.3 73.1 124.8 73.3 124.4 73.7C124 74.1 123.8 74.7 123.7 75.4H127.9C127.9 74.6 127.7 74.1 127.4 73.7C127.205 73.5012 126.972 73.3451 126.713 73.2418C126.455 73.1385 126.178 73.0902 125.9 73.1ZM135.5 71.7L136.5 71.8L136.3 73.6L135.4 73.5C134.6 73.5 134 73.8 133.5 74.3C133 74.8 132.8 75.5 132.8 76.3V81H130.8V71.8H132.3L132.6 73.4H132.7C133 72.9 133.4 72.4 133.9 72.1C134.4 71.8 134.9 71.7 135.5 71.7Z" fill="white"></path>
<path d="M33.6 68.9999C33.6 70.6546 33.2741 72.293 32.6409 73.8217C32.0077 75.3504 31.0796 76.7394 29.9095 77.9094C28.7395 79.0795 27.3505 80.0076 25.8218 80.6408C24.2931 81.274 22.6546 81.5999 21 81.5999M33.6 68.9999C33.6 65.6582 32.2725 62.4533 29.9095 60.0904C27.5466 57.7274 24.3417 56.3999 21 56.3999M33.6 68.9999H8.39999M21 81.5999C19.3453 81.5999 17.7069 81.274 16.1782 80.6408C14.6495 80.0076 13.2605 79.0795 12.0904 77.9094C10.9204 76.7394 9.99232 75.3504 9.35911 73.8217C8.7259 72.293 8.39999 70.6546 8.39999 68.9999M21 81.5999C25 81.5999 28.2 75.8999 28.2 68.9999C28.2 62.0999 25 56.3999 21 56.3999M21 81.5999C17 81.5999 13.8 75.8999 13.8 68.9999C13.8 62.0999 17 56.3999 21 56.3999M8.39999 68.9999C8.39999 65.6582 9.72749 62.4533 12.0904 60.0904C14.4534 57.7274 17.6583 56.3999 21 56.3999M21 56.3999V81.4999M11.1 61.7999H30.8M10.2 75.2999H31.7" stroke="white" stroke-miterlimit="10"></path>
</g>
<defs>
<linearGradient id="paint0_linear_3_2524" x1="180.113" y1="32.5955" x2="158.842" y2="26.5696" gradientUnits="userSpaceOnUse">
<stop stop-color="#00A1FF"></stop>
<stop offset="0.3" stop-color="#00BEFF"></stop>
<stop offset="0.5" stop-color="#00D2FF"></stop>
<stop offset="0.8" stop-color="#00DFFF"></stop>
<stop offset="1" stop-color="#00E3FF"></stop>
</linearGradient>
<linearGradient id="paint1_linear_3_2524" x1="193.053" y1="20.8602" x2="167.2" y2="20.8602" gradientUnits="userSpaceOnUse">
<stop stop-color="#FFE000"></stop>
<stop offset="0.4" stop-color="#FFBD00"></stop>
<stop offset="0.8" stop-color="#FFA500"></stop>
<stop offset="1" stop-color="#FF9C00"></stop>
</linearGradient>
<linearGradient id="paint2_linear_3_2524" x1="171.884" y1="24.7622" x2="156.287" y2="-2.23223" gradientUnits="userSpaceOnUse">
<stop stop-color="#FF3A44"></stop>
<stop offset="1" stop-color="#C31162"></stop>
</linearGradient>
<linearGradient id="paint3_linear_3_2524" x1="154.196" y1="35.081" x2="161.359" y2="22.4379" gradientUnits="userSpaceOnUse">
<stop stop-color="#32A071"></stop>
<stop offset="0.1" stop-color="#2DA771"></stop>
<stop offset="0.5" stop-color="#15CF74"></stop>
<stop offset="0.8" stop-color="#06E775"></stop>
<stop offset="1" stop-color="#00F076"></stop>
</linearGradient>
<clipPath id="clip0_3_2524">
<rect width="143" height="42" fill="white"></rect>
</clipPath>
<clipPath id="clip1_3_2524">
<rect width="143" height="42" fill="white" transform="translate(157.45)"></rect>
</clipPath>
<clipPath id="clip2_3_2524">
<rect width="143" height="42" fill="white" transform="translate(0 49)"></rect>
</clipPath>
</defs>
</svg>
