<svg width="43" height="10" viewBox="0 0 43 10" fill="none" xmlns="http://www.w3.org/2000/svg">
<path d="M0.980835 0.639893H5.33849V1.40543H1.80526V3.58426H5.27961V4.34979H1.80526V6.6464H5.33849V7.29416H0.980835V0.639893ZM8.34174 5.29199L6.86956 7.29416H5.98626L7.81176 4.82089L6.04514 2.4654H6.92845L8.28286 4.29091L9.63727 2.4654H10.5795L8.81285 4.82089L10.6972 7.29416H9.81393L8.34174 5.29199ZM11.5217 9.11966V2.4654H12.2872V3.17205C12.6405 2.70095 13.2294 2.34763 13.936 2.34763C15.2316 2.34763 16.1149 3.28982 16.1149 4.87978C16.1149 6.46974 15.2316 7.41193 13.936 7.41193C13.2883 7.41193 12.6994 7.1175 12.2872 6.58751V9.17855H11.5217V9.11966ZM13.7005 2.99538C13.1116 2.99538 12.5227 3.34871 12.2872 3.76092V5.93975C12.5227 6.35196 13.1116 6.70529 13.7005 6.70529C14.6427 6.70529 15.2316 5.88087 15.2316 4.82089C15.2904 3.81981 14.7016 2.99538 13.7005 2.99538ZM19.3537 2.34763C20.8259 2.34763 21.6503 3.46648 21.6503 4.93867V5.11533H17.7637C17.8226 5.99864 18.4704 6.76417 19.5303 6.76417C20.0603 6.76417 20.6492 6.52862 21.0025 6.1753L21.3558 6.6464C20.8847 7.1175 20.237 7.41193 19.4126 7.41193C17.9993 7.41193 16.9393 6.35196 16.9393 4.87978C16.9982 3.46649 17.9993 2.34763 19.3537 2.34763ZM17.7637 4.58534H20.9436C20.9436 3.8787 20.4725 2.99538 19.3537 2.99538C18.3526 2.9365 17.8226 3.81981 17.7637 4.58534ZM26.1846 4.11424C26.1846 3.28982 25.7724 2.99538 25.1246 2.99538C24.5358 2.99538 23.9469 3.34871 23.7113 3.76092V7.29416H22.9458V2.4654H23.7113V3.17205C24.0647 2.75984 24.7124 2.34763 25.4191 2.34763C26.4201 2.34763 26.9501 2.87761 26.9501 3.93758V7.29416H26.1846V4.11424ZM28.3634 6.11641C28.6579 6.46974 29.3056 6.82306 29.9534 6.82306C30.7189 6.82306 31.0722 6.46974 31.0722 5.99864C31.0722 5.46865 30.4834 5.29199 29.8356 5.11533C29.0112 4.93867 28.069 4.70312 28.069 3.70203C28.069 2.9365 28.7168 2.28874 29.8945 2.28874C30.7189 2.28874 31.3078 2.58317 31.6611 2.99538L31.3078 3.52537C31.0134 3.17205 30.4834 2.9365 29.8945 2.9365C29.2467 2.9365 28.8345 3.23094 28.8345 3.64315C28.8345 4.11425 29.3645 4.29091 30.0123 4.40868C30.8367 4.58534 31.8378 4.82089 31.8378 5.88086C31.8378 6.70529 31.19 7.35305 29.9534 7.35305C29.1879 7.35305 28.4812 7.1175 28.0101 6.58751L28.3634 6.11641ZM35.1944 2.34763C36.6665 2.34763 37.491 3.46648 37.491 4.93867V5.11533H33.6044C33.6633 5.99864 34.311 6.76417 35.371 6.76417C35.901 6.76417 36.4899 6.52862 36.8432 6.1753L37.1965 6.6464C36.7254 7.1175 36.0777 7.41193 35.2532 7.41193C33.8399 7.41193 32.78 6.35196 32.78 4.87978C32.78 3.46649 33.7811 2.34763 35.1944 2.34763ZM33.6044 4.58534H36.7843C36.7843 3.8787 36.3132 2.99538 35.1944 2.99538C34.1344 2.9365 33.6044 3.81981 33.6044 4.58534ZM38.6687 6.11641C38.9631 6.46974 39.6109 6.82306 40.2587 6.82306C41.0242 6.82306 41.3775 6.46974 41.3775 5.99864C41.3775 5.46865 40.7886 5.29199 40.1409 5.11533C39.3165 4.93867 38.3743 4.70312 38.3743 3.70203C38.3743 2.9365 39.022 2.28874 40.1998 2.28874C41.0242 2.28874 41.6131 2.58317 41.9664 2.99538L41.6131 3.52537C41.3186 3.17205 40.7887 2.9365 40.1998 2.9365C39.552 2.9365 39.1398 3.23094 39.1398 3.64315C39.1398 4.11425 39.6698 4.29091 40.3176 4.40868C41.142 4.58534 42.1431 4.82089 42.1431 5.88086C42.1431 6.70529 41.4953 7.35305 40.2587 7.35305C39.4931 7.35305 38.7865 7.1175 38.3154 6.58751L38.6687 6.11641Z" fill="#2A3E49"></path>
</svg>
