<svg width="75" height="13" viewBox="0 0 75 13" fill="none" xmlns="http://www.w3.org/2000/svg">
<path d="M2.13487 0.0912399H73.1058C73.919 0.0912399 74.5844 0.756592 74.5844 1.5698V11.1804C74.5844 11.9937 73.919 12.659 73.1058 12.659H2.13487C1.32166 12.659 0.656311 11.9937 0.656311 11.1804V1.5698C0.656311 0.756592 1.32166 0.0912399 2.13487 0.0912399Z" fill="white"></path>
<path d="M2.31969 0.276062H72.921C73.7342 0.276062 74.3995 0.941415 74.3995 1.75462V10.9956C74.3995 11.8088 73.7342 12.4742 72.921 12.4742H2.31969C1.50648 12.4742 0.841125 11.8088 0.841125 10.9956V1.75462C0.841125 0.941415 1.50648 0.276062 2.31969 0.276062Z" stroke="#E5EBEE" stroke-width="0.36964"></path>
<path d="M71.1837 6.00519L69.5573 7.63161L67.9308 6.00519" stroke="#BACDD7" stroke-width="0.739281"></path>
<path d="M4.02002 4.41603H4.46358V7.85369H4.02002V4.41603ZM6.94018 6.22727C6.94018 5.7837 6.71839 5.63584 6.38572 5.63584C6.09 5.63584 5.79429 5.82066 5.64643 6.04245V7.85369H5.23983V5.34013H5.64643V5.70977C5.83125 5.48799 6.16393 5.30317 6.53357 5.30317C7.05107 5.30317 7.34678 5.56192 7.34678 6.11638V7.85369H6.94018V6.22727ZM9.19498 5.30317C9.63855 5.30317 9.93426 5.48799 10.1191 5.74674L9.86033 5.96852C9.71248 5.74674 9.4907 5.63584 9.23195 5.63584C8.71445 5.63584 8.38177 6.04245 8.38177 6.59691C8.38177 7.15137 8.71445 7.55797 9.23195 7.55797C9.4907 7.55797 9.71248 7.44708 9.86033 7.2253L10.1191 7.44708C9.93426 7.70583 9.67552 7.89065 9.19498 7.89065C8.4557 7.89065 7.93821 7.33619 7.93821 6.55994C7.93821 5.85763 8.4557 5.30317 9.19498 5.30317ZM10.6366 4.41603H11.0062V7.85369H10.6366V4.41603ZM13.5198 7.48405C13.3349 7.70583 13.0023 7.89065 12.6326 7.89065C12.1151 7.89065 11.8194 7.6319 11.8194 7.07744V5.30317H12.1891V6.96655C12.1891 7.41012 12.4109 7.52101 12.7435 7.52101C13.0392 7.52101 13.335 7.33619 13.4828 7.15137V5.30317H13.8525V7.81672H13.4828V7.48405H13.5198ZM16.4769 7.48405C16.2921 7.74279 15.9964 7.92761 15.6267 7.92761C14.9614 7.92761 14.5178 7.44708 14.5178 6.63387C14.5178 5.82066 14.9614 5.30317 15.6267 5.30317C15.9594 5.30317 16.2551 5.45102 16.4769 5.74674V4.41603H16.8835V7.85369H16.4769V7.48405ZM16.4769 6.04245C16.329 5.82066 16.0333 5.63584 15.7376 5.63584C15.2201 5.63584 14.9244 6.04245 14.9244 6.59691C14.9244 7.15137 15.2201 7.55797 15.7376 7.55797C16.0333 7.55797 16.366 7.37315 16.4769 7.15137V6.04245ZM18.7317 5.30317C19.471 5.30317 19.9146 5.89459 19.9146 6.63387V6.74476H17.8815C17.9185 7.2253 18.2512 7.59494 18.7687 7.59494C19.0644 7.59494 19.3601 7.48405 19.5449 7.26226L19.7297 7.52101C19.471 7.77976 19.1383 7.89065 18.7317 7.89065C17.9924 7.89065 17.4749 7.37315 17.4749 6.55994C17.5119 5.85763 18.0294 5.30317 18.7317 5.30317ZM17.9185 6.44905H19.5449C19.5449 6.07941 19.2862 5.59888 18.7317 5.59888C18.1772 5.59888 17.9185 6.07941 17.9185 6.44905ZM23.4631 7.55797C23.2413 7.77976 22.9826 7.89065 22.6499 7.89065C22.2433 7.89065 21.7628 7.59494 21.7628 7.07744C21.7628 6.52298 22.2063 6.26423 22.6499 6.26423C22.9826 6.26423 23.2783 6.37512 23.4631 6.59691V6.15334C23.4631 5.82066 23.2043 5.63584 22.8347 5.63584C22.539 5.63584 22.2802 5.74674 22.0585 5.96852L21.8736 5.70977C22.1324 5.41406 22.4651 5.30317 22.8717 5.30317C23.3892 5.30317 23.8327 5.52495 23.8327 6.15334V7.89065H23.4261V7.55797H23.4631ZM23.4631 6.85566C23.3152 6.63387 23.0565 6.55994 22.7608 6.55994C22.3911 6.55994 22.1324 6.78173 22.1324 7.1144C22.1324 7.44708 22.3911 7.66887 22.7608 7.66887C23.0195 7.66887 23.3152 7.55797 23.4631 7.37315V6.85566ZM24.609 4.41603H25.0156V7.85369H24.609V4.41603ZM25.7918 4.41603H26.1615V7.85369H25.7918V4.41603ZM28.3793 5.70977H27.9727V5.3771H28.3793V5.19228C28.3793 4.67478 28.675 4.37907 29.1186 4.37907C29.2664 4.37907 29.4143 4.41603 29.4882 4.453L29.3773 4.74871C29.3034 4.71174 29.2295 4.67478 29.1556 4.67478C28.8968 4.67478 28.749 4.8596 28.749 5.15531V5.34013H29.2664V5.67281H28.749V7.81672H28.3793V5.70977ZM31.2995 7.55797C31.0777 7.77976 30.8189 7.89065 30.4863 7.89065C30.0797 7.89065 29.5991 7.59494 29.5991 7.07744C29.5991 6.52298 30.0427 6.26423 30.4863 6.26423C30.8189 6.26423 31.1146 6.37512 31.2995 6.59691V6.15334C31.2995 5.82066 31.0407 5.63584 30.6711 5.63584C30.3754 5.63584 30.1166 5.74674 29.8948 5.96852L29.71 5.70977C29.9688 5.41406 30.3014 5.30317 30.708 5.30317C31.2255 5.30317 31.6691 5.52495 31.6691 6.15334V7.89065H31.2625V7.55797H31.2995ZM31.2995 6.85566C31.1516 6.63387 30.8929 6.55994 30.5972 6.55994C30.2275 6.55994 29.9688 6.78173 29.9688 7.1144C29.9688 7.44708 30.2275 7.66887 30.5972 7.66887C30.8559 7.66887 31.1516 7.55797 31.2995 7.37315V6.85566ZM35.4764 6.15334C35.4764 5.82066 35.3285 5.63584 35.0328 5.63584C34.7741 5.63584 34.5153 5.82066 34.3675 6.00548V7.85369H33.9978V6.15334C33.9978 5.82066 33.85 5.63584 33.5543 5.63584C33.2955 5.63584 33.0368 5.82066 32.8889 6.04245V7.85369H32.5193V5.34013H32.8889V5.70977C32.9998 5.56191 33.3325 5.30317 33.7021 5.30317C34.0718 5.30317 34.2936 5.52495 34.3675 5.7837C34.5153 5.56192 34.848 5.30317 35.2177 5.30317C35.6612 5.30317 35.92 5.56192 35.92 6.04245V7.85369H35.5134L35.4764 6.15334ZM36.5853 4.67478C36.5853 4.52692 36.6962 4.41603 36.8441 4.41603C36.9919 4.41603 37.1028 4.52692 37.1028 4.67478C37.1028 4.82264 36.9919 4.93353 36.8441 4.93353C36.6962 4.93353 36.5853 4.82264 36.5853 4.67478ZM36.6593 5.34013H37.0289V7.85369H36.6593V5.34013ZM37.8051 4.41603H38.2117V7.85369H37.8051V4.41603ZM39.1358 8.51904C39.3207 8.51904 39.4316 8.44511 39.5055 8.26029L39.6533 7.89065L38.6184 5.3771H39.0249L39.8751 7.41012L40.6883 5.3771H41.0949L39.8382 8.37118C39.6903 8.74082 39.4316 8.88868 39.0989 8.88868C39.025 8.88868 38.8771 8.88868 38.8032 8.85171L38.8771 8.48207C38.951 8.51904 39.0619 8.51904 39.1358 8.51904ZM45.8633 6.15334C45.8633 5.82066 45.7154 5.63584 45.4197 5.63584C45.161 5.63584 44.9022 5.82066 44.7544 6.00548V7.85369H44.3847V6.15334C44.3847 5.82066 44.2369 5.63584 43.9412 5.63584C43.6824 5.63584 43.4237 5.82066 43.2758 6.04245V7.85369H42.9062V5.34013H43.2758V5.70977C43.3867 5.56191 43.7194 5.30317 44.089 5.30317C44.4587 5.30317 44.6804 5.52495 44.7544 5.7837C44.9022 5.56192 45.2349 5.30317 45.6046 5.30317C46.0481 5.30317 46.3069 5.56192 46.3069 6.04245V7.85369H45.9003L45.8633 6.15334ZM48.1181 5.30317C48.8574 5.30317 49.301 5.89459 49.301 6.63387V6.74476H47.2679C47.3049 7.2253 47.6376 7.59494 48.1551 7.59494C48.4508 7.59494 48.7465 7.48405 48.9313 7.26226L49.1161 7.52101C48.8574 7.77976 48.5247 7.89065 48.1181 7.89065C47.3788 7.89065 46.8613 7.37315 46.8613 6.55994C46.8983 5.85763 47.4158 5.30317 48.1181 5.30317ZM47.3049 6.44905H48.9313C48.9313 6.07941 48.6726 5.59888 48.1181 5.59888C47.6006 5.59888 47.3049 6.07941 47.3049 6.44905ZM52.9604 6.15334C52.9604 5.82066 52.8125 5.63584 52.5168 5.63584C52.2581 5.63584 51.9993 5.82066 51.8515 6.00548V7.85369H51.4818V6.15334C51.4818 5.82066 51.334 5.63584 51.0383 5.63584C50.7795 5.63584 50.5208 5.82066 50.3729 6.04245V7.85369H50.0033V5.34013H50.3729V5.70977C50.4838 5.56191 50.8165 5.30317 51.1861 5.30317C51.5558 5.30317 51.7775 5.52495 51.8515 5.7837C51.9993 5.56192 52.332 5.30317 52.7016 5.30317C53.1452 5.30317 53.404 5.56192 53.404 6.04245V7.85369H52.9974L52.9604 6.15334ZM54.1432 4.41603H54.5129V5.74674C54.6977 5.48799 55.0304 5.30317 55.3631 5.30317C56.0284 5.30317 56.472 5.82066 56.472 6.63387C56.472 7.44708 56.0284 7.92761 55.3631 7.92761C54.9934 7.92761 54.6977 7.74279 54.5129 7.48405V7.85369H54.1432V4.41603ZM55.2522 7.55797C55.7697 7.55797 56.0654 7.15137 56.0654 6.59691C56.0654 6.04245 55.7697 5.63584 55.2522 5.63584C54.9565 5.63584 54.6238 5.82066 54.5129 6.04245V7.18833C54.6607 7.41012 54.9565 7.55797 55.2522 7.55797ZM58.2093 5.30317C58.9486 5.30317 59.3921 5.89459 59.3921 6.63387V6.74476H57.3591C57.3961 7.2253 57.7287 7.59494 58.2462 7.59494C58.542 7.59494 58.8377 7.48405 59.0225 7.26226L59.2073 7.52101C58.9486 7.77976 58.6159 7.89065 58.2093 7.89065C57.47 7.89065 56.9525 7.37315 56.9525 6.55994C56.9525 5.85763 57.47 5.30317 58.2093 5.30317ZM57.3591 6.44905H58.9855C58.9855 6.07941 58.7268 5.59888 58.1723 5.59888C57.6548 5.59888 57.3961 6.07941 57.3591 6.44905ZM60.0205 5.34013H60.3902V5.74674C60.575 5.48799 60.8707 5.30317 61.2403 5.30317V5.70977C61.2034 5.70977 61.1294 5.70977 61.0925 5.70977C60.8707 5.70977 60.538 5.89459 60.4271 6.11638V7.89065H60.0575V5.34013H60.0205ZM61.7209 7.2253C61.8687 7.41012 62.2014 7.59494 62.5341 7.59494C62.9037 7.59494 63.1255 7.41012 63.1255 7.18833C63.1255 6.92958 62.8298 6.81869 62.4971 6.74476C62.0905 6.63387 61.573 6.52298 61.573 6.00548C61.573 5.59888 61.9057 5.30317 62.4971 5.30317C62.9037 5.30317 63.2364 5.45102 63.4212 5.67281L63.2364 5.93156C63.0885 5.74674 62.8298 5.59888 62.4971 5.59888C62.1644 5.59888 61.9426 5.74674 61.9426 5.96852C61.9426 6.22727 62.2384 6.3012 62.571 6.37512C63.0146 6.48602 63.4951 6.59691 63.4951 7.15137C63.4951 7.55797 63.1625 7.89065 62.4971 7.89065C62.0905 7.89065 61.7578 7.77976 61.4991 7.48405L61.7209 7.2253Z" fill="#798893"></path>
</svg>
