<svg width="405" height="117" viewBox="0 0 405 117" fill="none" xmlns="http://www.w3.org/2000/svg">
<path d="M15.0575 114.196H404.658" stroke="#E8EEF2" stroke-width="0.18482" stroke-linecap="square"></path>
<path d="M15.0575 101.629H404.658" stroke="#E8EEF2" stroke-width="0.18482" stroke-linecap="square"></path>
<path d="M15.0575 89.062H404.658" stroke="#E8EEF2" stroke-width="0.18482" stroke-linecap="square"></path>
<path d="M15.0575 76.4949H404.658" stroke="#E8EEF2" stroke-width="0.18482" stroke-linecap="square"></path>
<path d="M15.0575 63.9277H404.658" stroke="#E8EEF2" stroke-width="0.18482" stroke-linecap="square"></path>
<path d="M15.0575 51.3606H404.658" stroke="#E8EEF2" stroke-width="0.18482" stroke-linecap="square"></path>
<path d="M15.0575 38.7935H404.658" stroke="#E8EEF2" stroke-width="0.18482" stroke-linecap="square"></path>
<path d="M15.0575 26.2263H404.658" stroke="#E8EEF2" stroke-width="0.18482" stroke-linecap="square"></path>
<path d="M15.0575 13.6592H404.658" stroke="#E8EEF2" stroke-width="0.18482" stroke-linecap="square"></path>
<path d="M15.0575 1.09213H404.658" stroke="#E8EEF2" stroke-width="0.18482" stroke-linecap="square"></path>
<path d="M4.78145 38.313H3.192V37.9803H5.22503V38.2391L4.00521 40.9373H3.59861L4.78145 38.313ZM6.70359 37.9433C7.5168 37.9433 7.84947 38.7565 7.84947 39.4588C7.84947 40.1611 7.5168 40.9742 6.70359 40.9742C5.89038 40.9742 5.5577 40.1611 5.5577 39.4588C5.5577 38.7565 5.89038 37.9433 6.70359 37.9433ZM6.70359 38.276C6.14913 38.276 5.96431 38.8674 5.96431 39.4588C5.96431 40.0502 6.14913 40.6785 6.70359 40.6785C7.25805 40.6785 7.44287 40.0502 7.44287 39.4588C7.44287 38.8674 7.25805 38.276 6.70359 38.276ZM9.40196 37.9433C10.2152 37.9433 10.5478 38.7565 10.5478 39.4588C10.5478 40.1611 10.2152 40.9742 9.40196 40.9742C8.58875 40.9742 8.25607 40.1611 8.25607 39.4588C8.25607 38.7565 8.58875 37.9433 9.40196 37.9433ZM9.40196 38.276C8.8475 38.276 8.66268 38.8674 8.66268 39.4588C8.66268 40.0502 8.8475 40.6785 9.40196 40.6785C9.95642 40.6785 10.1412 40.0502 10.1412 39.4588C10.1412 38.8674 9.95642 38.276 9.40196 38.276ZM4.15307 50.5105C4.52271 50.5105 4.78145 50.6583 4.96627 50.8801L4.78145 51.1388C4.6336 50.954 4.44878 50.8431 4.15307 50.8431C3.59861 50.8431 3.30289 51.4345 3.30289 51.989C3.30289 52.0259 3.30289 52.0629 3.30289 52.0999C3.41378 51.8781 3.74647 51.6563 4.15307 51.6563C4.67057 51.6563 5.11413 51.989 5.11413 52.6173C5.11413 53.1348 4.70753 53.5783 4.07914 53.5783C3.26593 53.5783 2.93325 52.8391 2.93325 52.0629C2.93325 51.2867 3.3029 50.5105 4.15307 50.5105ZM4.04217 51.952C3.74646 51.952 3.45075 52.1368 3.30289 52.3956C3.33986 52.7652 3.52468 53.2087 4.04217 53.2087C4.48574 53.2087 4.70753 52.8761 4.70753 52.5804C4.7445 52.1738 4.44878 51.952 4.04217 51.952ZM6.70359 50.5105C7.5168 50.5105 7.84947 51.3237 7.84947 52.0259C7.84947 52.7282 7.5168 53.5414 6.70359 53.5414C5.89038 53.5414 5.5577 52.7282 5.5577 52.0259C5.5577 51.3237 5.89038 50.5105 6.70359 50.5105ZM6.70359 50.8431C6.14913 50.8431 5.96431 51.4345 5.96431 52.0259C5.96431 52.6173 6.14913 53.2457 6.70359 53.2457C7.25805 53.2457 7.44287 52.6173 7.44287 52.0259C7.44287 51.4345 7.25805 50.8431 6.70359 50.8431ZM9.40196 50.5105C10.2152 50.5105 10.5478 51.3237 10.5478 52.0259C10.5478 52.7282 10.2152 53.5414 9.40196 53.5414C8.58875 53.5414 8.25607 52.7282 8.25607 52.0259C8.25607 51.3237 8.58875 50.5105 9.40196 50.5105ZM9.40196 50.8431C8.8475 50.8431 8.66268 51.4345 8.66268 52.0259C8.66268 52.6173 8.8475 53.2457 9.40196 53.2457C9.95642 53.2457 10.1412 52.6173 10.1412 52.0259C10.1412 51.4345 9.95642 50.8431 9.40196 50.8431ZM3.22897 65.4062C3.41379 65.665 3.67253 65.8128 4.04217 65.8128C4.44878 65.8128 4.70753 65.5541 4.70753 65.1845C4.70753 64.7779 4.41181 64.5561 4.04217 64.5561C3.78342 64.5561 3.56164 64.63 3.37682 64.8518L3.11807 64.7409V63.1146H4.92931V63.4472H3.48771V64.4822C3.63557 64.3343 3.89431 64.2234 4.19003 64.2234C4.67056 64.2234 5.11413 64.5561 5.11413 65.1845C5.11413 65.7759 4.67056 66.1455 4.07914 66.1455C3.56164 66.1455 3.26593 65.9607 3.04415 65.665L3.22897 65.4062ZM6.70359 63.0776C7.5168 63.0776 7.84947 63.8908 7.84947 64.5931C7.84947 65.2953 7.5168 66.1085 6.70359 66.1085C5.89038 66.1085 5.5577 65.2953 5.5577 64.5931C5.5577 63.8908 5.89038 63.0776 6.70359 63.0776ZM6.70359 63.4103C6.14913 63.4103 5.96431 64.0017 5.96431 64.5931C5.96431 65.1845 6.14913 65.8128 6.70359 65.8128C7.25805 65.8128 7.44287 65.1845 7.44287 64.5931C7.44287 64.0017 7.25805 63.4103 6.70359 63.4103ZM9.40196 63.0776C10.2152 63.0776 10.5478 63.8908 10.5478 64.5931C10.5478 65.2953 10.2152 66.1085 9.40196 66.1085C8.58875 66.1085 8.25607 65.2953 8.25607 64.5931C8.25607 63.8908 8.58875 63.0776 9.40196 63.0776ZM9.40196 63.4103C8.8475 63.4103 8.66268 64.0017 8.66268 64.5931C8.66268 65.1845 8.8475 65.8128 9.40196 65.8128C9.95642 65.8128 10.1412 65.1845 10.1412 64.5931C10.1412 64.0017 9.95642 63.4103 9.40196 63.4103ZM4.41181 77.8994H3.00718V77.6038L4.26396 75.7187H4.78145V77.6038H5.18806V77.9364H4.78145V78.6757H4.41181V77.8994ZM3.37682 77.5668H4.41181V76.0144L3.37682 77.5668ZM6.70359 75.6448C7.5168 75.6448 7.84947 76.4579 7.84947 77.1602C7.84947 77.8625 7.5168 78.6757 6.70359 78.6757C5.89038 78.6757 5.5577 77.8625 5.5577 77.1602C5.5577 76.4579 5.89038 75.6448 6.70359 75.6448ZM6.70359 75.9774C6.14913 75.9774 5.96431 76.5688 5.96431 77.1602C5.96431 77.7516 6.14913 78.3799 6.70359 78.3799C7.25805 78.3799 7.44287 77.7516 7.44287 77.1602C7.44287 76.5688 7.25805 75.9774 6.70359 75.9774ZM9.40196 75.6448C10.2152 75.6448 10.5478 76.4579 10.5478 77.1602C10.5478 77.8625 10.2152 78.6757 9.40196 78.6757C8.58875 78.6757 8.25607 77.8625 8.25607 77.1602C8.25607 76.4579 8.58875 75.6448 9.40196 75.6448ZM9.40196 75.9774C8.8475 75.9774 8.66268 76.5688 8.66268 77.1602C8.66268 77.7516 8.8475 78.3799 9.40196 78.3799C9.95642 78.3799 10.1412 77.7516 10.1412 77.1602C10.1412 76.5688 9.95642 75.9774 9.40196 75.9774ZM0.863264 0.759417L0.382736 1.27688L0.16095 1.05512L0.90023 0.278908H1.2329V3.23588H0.863264V0.759417ZM2.12005 2.79234C2.26791 2.79234 2.37879 2.90322 2.37879 3.05107C2.37879 3.19892 2.26791 3.3098 2.12005 3.3098C1.97219 3.3098 1.8613 3.19892 1.8613 3.05107C1.8613 2.90322 1.97219 2.79234 2.12005 2.79234ZM3.96825 0.241943C4.78146 0.241943 5.11413 1.05511 5.11413 1.75739C5.11413 2.45968 4.78146 3.27285 3.96825 3.27285C3.15504 3.27285 2.82236 2.45968 2.82236 1.75739C2.85933 1.05511 3.15504 0.241943 3.96825 0.241943ZM3.96825 0.574606C3.41379 0.574606 3.22897 1.166 3.22897 1.75739C3.22897 2.34879 3.41379 2.97715 3.96825 2.97715C4.52271 2.97715 4.70753 2.34879 4.70753 1.75739C4.70753 1.166 4.52271 0.574606 3.96825 0.574606ZM6.70359 0.241943C7.5168 0.241943 7.84947 1.05511 7.84947 1.75739C7.84947 2.45968 7.5168 3.27285 6.70359 3.27285C5.89038 3.27285 5.5577 2.45968 5.5577 1.75739C5.5577 1.05511 5.89038 0.241943 6.70359 0.241943ZM6.70359 0.574606C6.14913 0.574606 5.96431 1.166 5.96431 1.75739C5.96431 2.34879 6.14913 2.97715 6.70359 2.97715C7.25805 2.97715 7.44287 2.34879 7.44287 1.75739C7.44287 1.166 7.25805 0.574606 6.70359 0.574606ZM9.40196 0.241943C10.2152 0.241943 10.5478 1.05511 10.5478 1.75739C10.5478 2.45968 10.2152 3.27285 9.40196 3.27285C8.58875 3.27285 8.25607 2.45968 8.25607 1.75739C8.25607 1.05511 8.58875 0.241943 9.40196 0.241943ZM9.40196 0.574606C8.8475 0.574606 8.66268 1.166 8.66268 1.75739C8.66268 2.34879 8.8475 2.97715 9.40196 2.97715C9.95642 2.97715 10.1412 2.34879 10.1412 1.75739C10.1412 1.166 9.95642 0.574606 9.40196 0.574606ZM3.26593 15.2116C3.41378 15.3964 3.59861 15.5073 3.89432 15.5073C4.48574 15.5073 4.74449 14.9159 4.74449 14.3615C4.74449 14.3245 4.74449 14.2876 4.74449 14.2506C4.63359 14.4724 4.30092 14.6942 3.89432 14.6942C3.37682 14.6942 2.93325 14.3615 2.93325 13.7331C2.93325 13.2157 3.33986 12.7721 3.96825 12.7721C4.78146 12.7721 5.11413 13.5114 5.11413 14.2876C5.11413 15.1007 4.74449 15.803 3.89432 15.803C3.52468 15.803 3.26593 15.6552 3.08111 15.4334L3.26593 15.2116ZM3.96825 13.1417C3.52468 13.1417 3.30289 13.4744 3.30289 13.7701C3.30289 14.2136 3.59861 14.3985 3.96825 14.3985C4.26396 14.3985 4.55968 14.2136 4.70753 13.9549C4.67057 13.5853 4.48575 13.1417 3.96825 13.1417ZM6.70359 12.8091C7.5168 12.8091 7.84947 13.6222 7.84947 14.3245C7.84947 15.0268 7.5168 15.84 6.70359 15.84C5.89038 15.84 5.5577 15.0268 5.5577 14.3245C5.5577 13.6222 5.89038 12.8091 6.70359 12.8091ZM6.70359 13.1417C6.14913 13.1417 5.96431 13.7331 5.96431 14.3245C5.96431 14.9159 6.14913 15.5443 6.70359 15.5443C7.25805 15.5443 7.44287 14.9159 7.44287 14.3245C7.44287 13.7331 7.25805 13.1417 6.70359 13.1417ZM9.40196 12.8091C10.2152 12.8091 10.5478 13.6222 10.5478 14.3245C10.5478 15.0268 10.2152 15.84 9.40196 15.84C8.58875 15.84 8.25607 15.0268 8.25607 14.3245C8.25607 13.6222 8.58875 12.8091 9.40196 12.8091ZM9.40196 13.1417C8.8475 13.1417 8.66268 13.7331 8.66268 14.3245C8.66268 14.9159 8.8475 15.5443 9.40196 15.5443C9.95642 15.5443 10.1412 14.9159 10.1412 14.3245C10.1412 13.7331 9.95642 13.1417 9.40196 13.1417ZM3.67253 26.8547C3.33986 26.7438 3.00718 26.522 3.00718 26.1524C3.00718 25.6349 3.52467 25.3762 4.00521 25.3762C4.48574 25.3762 5.00324 25.598 5.00324 26.1524C5.00324 26.559 4.67057 26.7808 4.33789 26.8547C4.70753 26.9656 5.04021 27.2243 5.04021 27.6309C5.04021 28.1484 4.55968 28.4441 3.96825 28.4441C3.37683 28.4441 2.89629 28.1484 2.89629 27.6309C2.97021 27.2243 3.30289 26.9656 3.67253 26.8547ZM4.04217 27.0025C3.85735 27.0395 3.33986 27.1874 3.33986 27.557C3.33986 27.8896 3.67253 28.0745 4.04217 28.0745C4.41181 28.0745 4.74449 27.8896 4.74449 27.557C4.74449 27.1874 4.22699 27.0395 4.04217 27.0025ZM4.04217 25.7089C3.67253 25.7089 3.41379 25.8937 3.41379 26.1894C3.41379 26.559 3.89432 26.6699 4.04217 26.7069C4.22699 26.6699 4.67057 26.559 4.67057 26.1894C4.67057 25.8937 4.41181 25.7089 4.04217 25.7089ZM6.70359 25.3762C7.5168 25.3762 7.84947 26.1894 7.84947 26.8917C7.84947 27.5939 7.5168 28.4071 6.70359 28.4071C5.89038 28.4071 5.5577 27.5939 5.5577 26.8917C5.5577 26.1894 5.89038 25.3762 6.70359 25.3762ZM6.70359 25.7089C6.14913 25.7089 5.96431 26.3003 5.96431 26.8917C5.96431 27.4831 6.14913 28.1114 6.70359 28.1114C7.25805 28.1114 7.44287 27.4831 7.44287 26.8917C7.44287 26.3003 7.25805 25.7089 6.70359 25.7089ZM9.40196 25.3762C10.2152 25.3762 10.5478 26.1894 10.5478 26.8917C10.5478 27.5939 10.2152 28.4071 9.40196 28.4071C8.58875 28.4071 8.25607 27.5939 8.25607 26.8917C8.25607 26.1894 8.58875 25.3762 9.40196 25.3762ZM9.40196 25.7089C8.8475 25.7089 8.66268 26.3003 8.66268 26.8917C8.66268 27.4831 8.8475 28.1114 9.40196 28.1114C9.95642 28.1114 10.1412 27.4831 10.1412 26.8917C10.1412 26.3003 9.95642 25.7089 9.40196 25.7089ZM3.192 90.5405C3.37682 90.7623 3.67253 90.9471 4.00521 90.9471C4.44877 90.9471 4.70753 90.7253 4.70753 90.3927C4.70753 90.023 4.41182 89.8752 3.96825 89.8752C3.85736 89.8752 3.7095 89.8752 3.67253 89.8752V89.5425C3.7095 89.5425 3.85736 89.5425 3.96825 89.5425C4.33789 89.5425 4.67057 89.3947 4.67057 89.062C4.67057 88.7294 4.37485 88.5445 4.00521 88.5445C3.67253 88.5445 3.45076 88.6554 3.22897 88.9142L3.00718 88.6924C3.22897 88.4337 3.56164 88.2488 4.00521 88.2488C4.55967 88.2488 5.00324 88.5445 5.00324 89.0251C5.00324 89.4686 4.63359 89.6534 4.37485 89.7273C4.63359 89.7643 5.04021 89.9861 5.04021 90.4666C5.04021 90.9471 4.63359 91.3167 4.00521 91.3167C3.48771 91.3167 3.11807 91.0949 2.97022 90.8362L3.192 90.5405ZM6.70359 88.2119C7.5168 88.2119 7.84947 89.0251 7.84947 89.7273C7.84947 90.4296 7.5168 91.2428 6.70359 91.2428C5.89038 91.2428 5.5577 90.4296 5.5577 89.7273C5.5577 89.0251 5.89038 88.2119 6.70359 88.2119ZM6.70359 88.5445C6.14913 88.5445 5.96431 89.1359 5.96431 89.7273C5.96431 90.3187 6.14913 90.9471 6.70359 90.9471C7.25805 90.9471 7.44287 90.3187 7.44287 89.7273C7.44287 89.1359 7.25805 88.5445 6.70359 88.5445ZM9.40196 88.2119C10.2152 88.2119 10.5478 89.0251 10.5478 89.7273C10.5478 90.4296 10.2152 91.2428 9.40196 91.2428C8.58875 91.2428 8.25607 90.4296 8.25607 89.7273C8.25607 89.0251 8.58875 88.2119 9.40196 88.2119ZM9.40196 88.5445C8.8475 88.5445 8.66268 89.1359 8.66268 89.7273C8.66268 90.3187 8.8475 90.9471 9.40196 90.9471C9.95642 90.9471 10.1412 90.3187 10.1412 89.7273C10.1412 89.1359 9.95642 88.5445 9.40196 88.5445ZM2.97022 103.477C4.04218 102.627 4.59663 102.147 4.59663 101.629C4.59663 101.26 4.30093 101.075 3.96825 101.075C3.59861 101.075 3.33986 101.223 3.15504 101.444L2.93325 101.223C3.15504 100.927 3.56165 100.742 3.96825 100.742C4.44878 100.742 4.96627 101.038 4.96627 101.629C4.96627 102.221 4.33789 102.775 3.52468 103.44H4.96627V103.773H2.93325V103.477H2.97022ZM6.70359 100.779C7.5168 100.779 7.84947 101.592 7.84947 102.294C7.84947 102.997 7.5168 103.81 6.70359 103.81C5.89038 103.81 5.5577 102.997 5.5577 102.294C5.5577 101.592 5.89038 100.779 6.70359 100.779ZM6.70359 101.112C6.14913 101.112 5.96431 101.703 5.96431 102.294C5.96431 102.886 6.14913 103.514 6.70359 103.514C7.25805 103.514 7.44287 102.886 7.44287 102.294C7.44287 101.703 7.25805 101.112 6.70359 101.112ZM9.40196 100.779C10.2152 100.779 10.5478 101.592 10.5478 102.294C10.5478 102.997 10.2152 103.81 9.40196 103.81C8.58875 103.81 8.25607 102.997 8.25607 102.294C8.25607 101.592 8.58875 100.779 9.40196 100.779ZM9.40196 101.112C8.8475 101.112 8.66268 101.703 8.66268 102.294C8.66268 102.886 8.8475 103.514 9.40196 103.514C9.95642 103.514 10.1412 102.886 10.1412 102.294C10.1412 101.703 9.95642 101.112 9.40196 101.112ZM4.6336 113.864L4.15307 114.381L3.93129 114.159L4.67057 113.383H5.00324V116.34H4.6336V113.864ZM6.70359 113.346C7.5168 113.346 7.84947 114.159 7.84947 114.862C7.84947 115.564 7.5168 116.377 6.70359 116.377C5.89038 116.377 5.5577 115.564 5.5577 114.862C5.5577 114.159 5.89038 113.346 6.70359 113.346ZM6.70359 113.679C6.14913 113.679 5.96431 114.27 5.96431 114.862C5.96431 115.453 6.14913 116.081 6.70359 116.081C7.25805 116.081 7.44287 115.453 7.44287 114.862C7.44287 114.27 7.25805 113.679 6.70359 113.679ZM9.40196 113.346C10.2152 113.346 10.5478 114.159 10.5478 114.862C10.5478 115.564 10.2152 116.377 9.40196 116.377C8.58875 116.377 8.25607 115.564 8.25607 114.862C8.25607 114.159 8.58875 113.346 9.40196 113.346ZM9.40196 113.679C8.8475 113.679 8.66268 114.27 8.66268 114.862C8.66268 115.453 8.8475 116.081 9.40196 116.081C9.95642 116.081 10.1412 115.453 10.1412 114.862C10.1412 114.27 9.95642 113.679 9.40196 113.679Z" fill="#93A1AA"></path>
</svg>
