<svg width="244" height="95" viewBox="0 0 244 95" fill="none" xmlns="http://www.w3.org/2000/svg">
<path d="M8.94409 74.097H0.0727234V94.1304H8.94409V74.097Z" fill="#FFB62A"></path>
<path d="M20.0333 53.7678H11.1619V94.1305H20.0333V53.7678Z" fill="#FFB62A"></path>
<path d="M31.8618 62.6387H22.9904V94.1305H31.8618V62.6387Z" fill="#FFB62A"></path>
<path d="M76.2186 73.7274H67.3473V94.1305H76.2186V73.7274Z" fill="#FFB62A"></path>
<path d="M88.7864 0.172638H79.915V94.1305H88.7864V0.172638Z" fill="#FFB62A"></path>
<path d="M109.486 62.0843H100.615V94.1305H109.486V62.0843Z" fill="#FFB62A"></path>
<path d="M170.847 37.5044H161.975V94.1305H170.847V37.5044Z" fill="#FFB62A"></path>
<path d="M194.873 23.0892H186.002V94.1304H194.873V23.0892Z" fill="#FFB62A"></path>
<path d="M230.728 78.1259H221.857V94.1313H230.728V78.1259Z" fill="#FFB62A"></path>
<path d="M243.296 53.7678H234.425V94.1305H243.296V53.7678Z" fill="#FFB62A"></path>
</svg>
