<svg width="114" height="68" viewBox="0 0 114 68" fill="none" xmlns="http://www.w3.org/2000/svg">
<path d="M72.2866 21.6771H79.6794C80.0861 21.6771 80.4187 22.0098 80.4187 22.4163V66.7709C80.4187 67.1775 80.0861 67.5102 79.6794 67.5102H72.2866C71.88 67.5102 71.5474 67.1775 71.5474 66.7709V22.4163C71.5474 22.0098 71.88 21.6771 72.2866 21.6771Z" fill="#FB6666"></path>
<path d="M105.554 46.0721H112.947C113.354 46.0721 113.686 46.4047 113.686 46.8113V66.4013C113.686 66.8079 113.354 67.1405 112.947 67.1405H105.554C105.148 67.1405 104.815 66.8079 104.815 66.4013V46.8113C104.815 46.4047 105.148 46.0721 105.554 46.0721Z" fill="#FB6666"></path>
<path d="M37.1708 33.8746H44.5636C44.9702 33.8746 45.3029 34.2072 45.3029 34.6138V66.7709C45.3029 67.1775 44.9702 67.5101 44.5636 67.5101H37.1708C36.7642 67.5101 36.4315 67.1775 36.4315 66.7709V34.6138C36.4315 34.2072 36.7642 33.8746 37.1708 33.8746Z" fill="#FB6666"></path>
<path d="M0.946068 0.239014H8.33887C8.74548 0.239014 9.07815 0.571673 9.07815 0.978257V66.4013C9.07815 66.8079 8.74548 67.1405 8.33887 67.1405H0.946068C0.539463 67.1405 0.206787 66.8079 0.206787 66.4013V0.978257C0.206787 0.571673 0.539463 0.239014 0.946068 0.239014Z" fill="#FB6666"></path>
</svg>
