<svg width="37" height="36" viewBox="0 0 37 36" fill="none" xmlns="http://www.w3.org/2000/svg">
<path d="M18.5264 34.2797C9.57552 34.2797 2.33238 27.0366 2.33238 18.1446C2.33238 9.25262 9.57552 1.95059 18.5264 1.95059C27.4773 1.95059 34.7204 9.19373 34.7204 18.1446C34.7204 27.0955 27.4184 34.2797 18.5264 34.2797ZM18.5853 25.2111C22.4718 25.2111 25.6517 22.0312 25.6517 18.1446C25.6517 14.258 22.4718 11.0781 18.5853 11.0781C14.6987 11.0781 11.5188 14.258 11.5188 18.1446C11.5188 22.0312 14.6398 25.2111 18.5853 25.2111Z" fill="#5EC4AC"></path>
<path d="M11.5188 18.1446C11.5188 14.3169 14.6398 11.137 18.4675 11.0781L18.5264 1.95059C9.57552 1.95059 2.33238 9.25262 2.33238 18.1446C2.33238 19.5579 2.50904 20.9712 2.86236 22.2667L11.7543 19.9112C11.5777 19.3223 11.5188 18.7335 11.5188 18.1446Z" fill="#6E8FB2"></path>
<path d="M18.5264 24.0333C21.7786 24.0333 24.4151 21.3969 24.4151 18.1446C24.4151 14.8924 21.7786 12.2559 18.5264 12.2559C15.2741 12.2559 12.6377 14.8924 12.6377 18.1446C12.6377 21.3969 15.2741 24.0333 18.5264 24.0333Z" stroke="white" stroke-width="23.5549" stroke-dasharray="235.55 235.55"></path>
</svg>
