<svg width="208" height="106" viewBox="0 0 208 106" fill="none" xmlns="http://www.w3.org/2000/svg">
<path d="M2.12498 0.750977H205.875C206.523 0.750977 207.053 1.28096 207.053 1.92872V104.393C207.053 105.04 206.523 105.57 205.875 105.57H2.12498C1.47722 105.57 0.947235 105.04 0.947235 104.393V1.92872C0.947235 1.28096 1.47722 0.750977 2.12498 0.750977Z" fill="white"></path>
<path d="M2.12498 0.750977H205.875C206.523 0.750977 207.053 1.28096 207.053 1.92872V104.393C207.053 105.04 206.523 105.57 205.875 105.57H2.12498C1.47722 105.57 0.947235 105.04 0.947235 104.393V1.92872C0.947235 1.28096 1.47722 0.750977 2.12498 0.750977Z" fill="white"></path>
</svg>
