<svg width="39" height="38" viewBox="0 0 39 38" fill="none" xmlns="http://www.w3.org/2000/svg">
<g clip-path="url('#clip0_3_2562')">
<g clip-path="url('#clip1_3_2562')">
<path d="M19.3142 37.73C29.7331 37.73 38.1792 29.2839 38.1792 18.865C38.1792 8.44615 29.7331 0 19.3142 0C8.89537 0 0.449219 8.44615 0.449219 18.865C0.449219 29.2839 8.89537 37.73 19.3142 37.73Z" fill="#283139"></path>
<path d="M30.8686 12.3702C30.0606 12.7292 29.1906 12.9712 28.2786 13.0802C29.2209 12.5169 29.9261 11.6301 30.2626 10.5852C29.3773 11.1105 28.4087 11.4805 27.3986 11.6792C26.7198 10.9534 25.8202 10.4722 24.8397 10.3103C23.8592 10.1484 22.8527 10.3148 21.9766 10.7838C21.1004 11.2528 20.4037 11.998 19.9947 12.9037C19.5856 13.8093 19.4872 14.8248 19.7146 15.7922C17.9215 15.7025 16.1673 15.2367 14.5659 14.4249C12.9645 13.6131 11.5518 12.4735 10.4196 11.0802C9.84185 12.0725 9.66449 13.248 9.92372 14.3667C10.183 15.4854 10.8592 16.463 11.8146 17.1002C11.0986 17.0782 10.3984 16.8848 9.77262 16.5361V16.5932C9.77275 17.6345 10.1331 18.6438 10.7925 19.4498C11.452 20.2558 12.3699 20.8088 13.3906 21.0151C12.7266 21.1969 12.0296 21.2236 11.3536 21.0932C11.6418 21.9891 12.2028 22.7726 12.9582 23.334C13.7136 23.8954 14.6256 24.2066 15.5666 24.2242C13.9691 25.4779 11.9963 26.1577 9.96562 26.1541C9.60636 26.1544 9.2474 26.1334 8.89062 26.0911C10.9518 27.4163 13.3512 28.1197 15.8016 28.1172C24.0956 28.1172 28.6316 21.2471 28.6316 15.2871C28.6316 15.0921 28.6276 14.8972 28.6186 14.7042C29.5017 14.0664 30.2636 13.276 30.8686 12.3702Z" fill="white"></path>
</g>
</g>
<defs>
<clipPath id="clip0_3_2562">
<rect width="38" height="38" fill="white" transform="translate(0.449219)"></rect>
</clipPath>
<clipPath id="clip1_3_2562">
<rect width="38" height="38" fill="white" transform="translate(0.449219)"></rect>
</clipPath>
</defs>
</svg>
