<svg width="29" height="30" viewBox="0 0 29 30" fill="none" xmlns="http://www.w3.org/2000/svg">
<rect y="0.0898438" width="29" height="29" rx="14.5" fill="#FFBF53"></rect>
<g clip-path="url('#clip0_3_2406')">
<path d="M15.8619 21.6509L16.7029 21.8773C16.8295 21.9109 16.6893 21.942 16.2824 21.9707C15.8755 21.9995 15.2922 22.0205 14.5325 22.034L15.265 22.44C15.2831 22.4522 15.2424 22.4642 15.143 22.4758C15.0435 22.4874 14.8852 22.4975 14.6682 22.506C14.4692 22.5152 14.2251 22.5222 13.9357 22.5271C13.6463 22.532 13.3479 22.5344 13.0404 22.5344C12.7329 22.5344 12.439 22.532 12.1587 22.5271C11.8784 22.5222 11.6387 22.5152 11.4398 22.506C11.2227 22.4975 11.0645 22.4874 10.965 22.4758C10.8655 22.4642 10.8248 22.4522 10.8429 22.44L11.5754 22.034C10.8158 22.0205 10.2325 21.9995 9.82556 21.9707C9.41861 21.942 9.27844 21.9109 9.40505 21.8773L10.2461 21.6509C10.2642 21.646 10.3184 21.642 10.4088 21.639C10.4993 21.6359 10.5988 21.6344 10.7073 21.6344C10.7073 21.6344 10.7163 21.6344 10.7344 21.6344C10.8429 21.635 10.9424 21.6368 11.0328 21.6399C11.1233 21.6429 11.1685 21.6469 11.1685 21.6518L11.5754 21.8488C11.5935 21.855 11.693 21.858 11.8738 21.858C12.0547 21.858 12.1542 21.855 12.1723 21.8488L12.5792 21.6518C12.5973 21.6469 12.6516 21.6428 12.742 21.6394C12.8324 21.6361 12.9319 21.6344 13.0404 21.6344C13.167 21.6344 13.2755 21.6361 13.366 21.6394C13.4564 21.6428 13.5107 21.6469 13.5287 21.6518L13.9357 21.8488C13.9357 21.855 14.0306 21.858 14.2206 21.858C14.4105 21.858 14.5054 21.855 14.5054 21.8488L14.9395 21.6518C14.9395 21.6469 14.9847 21.6429 15.0751 21.6399C15.1656 21.6368 15.265 21.635 15.3736 21.6344C15.3736 21.6344 15.3781 21.6344 15.3871 21.6344C15.3962 21.6344 15.4007 21.6344 15.4007 21.6344C15.5092 21.6344 15.6087 21.6359 15.6991 21.639C15.7895 21.642 15.8438 21.646 15.8619 21.6509ZM21.3963 21.638C21.4687 21.6362 21.5455 21.6351 21.6269 21.6348C21.7083 21.6345 21.7942 21.635 21.8847 21.6362C21.8847 21.6362 22.1288 21.6402 22.6172 21.6481C23.1055 21.6561 23.639 21.6695 24.2178 21.6885C24.7966 21.7074 25.3301 21.7324 25.8185 21.7636C26.3068 21.7942 26.551 21.8323 26.551 21.8782C26.551 21.9442 26.2932 21.9949 25.7778 22.0303C25.2623 22.0658 24.8418 22.0902 24.5162 22.1036L25.1673 22.1275C25.2216 22.1293 25.2623 22.1311 25.2894 22.133C25.3166 22.1348 25.3301 22.1369 25.3301 22.1394L25.8998 22.4446C25.8998 22.4703 25.6918 22.4917 25.2759 22.5088C24.8599 22.5259 24.2721 22.5344 23.5124 22.5344C22.8252 22.5344 22.2645 22.5272 21.8304 22.5129C21.3963 22.4985 21.1793 22.4788 21.1793 22.4538V21.6536C21.1793 21.6506 21.2019 21.6477 21.2471 21.6449C21.2923 21.6422 21.3421 21.6399 21.3963 21.638Z" fill="white"></path>
</g>
<defs>
<clipPath id="clip0_3_2406">
<rect width="19.0178" height="1" fill="white" transform="matrix(1 0 0 -1 9.35999 22.5898)"></rect>
</clipPath>
</defs>
</svg>
