<svg width="29" height="30" viewBox="0 0 29 30" fill="none" xmlns="http://www.w3.org/2000/svg">
<rect y="0.0898438" width="29" height="29" rx="14.5" fill="#FF5154"></rect>
<g clip-path="url('#clip0_3_2397')">
<path d="M17.52 22.4924L18.0175 22.1944C15.8247 22.1944 14.134 22.1944 12.9454 22.1944C11.7569 22.1944 11.0705 22.1944 10.8862 22.1944C10.6282 22.1944 10.3703 22.1938 10.1123 22.1926C9.8543 22.1913 9.67003 22.1864 9.55946 22.1779C9.4489 22.1693 9.45351 22.1609 9.57328 22.1527C9.69306 22.1444 9.8543 22.1342 10.057 22.122C10.1491 22.1158 10.5822 22.0896 11.3561 22.0431C12.1485 21.996 13.0099 21.945 13.9405 21.89C14.8711 21.835 15.7418 21.7836 16.5526 21.7359C17.3633 21.6883 17.8517 21.6608 18.0175 21.6534C18.3308 21.6387 18.6164 21.6296 18.8744 21.6259C19.1323 21.6222 19.3903 21.6204 19.6483 21.6204C19.9247 21.6204 20.109 21.627 20.2011 21.6401C20.2933 21.6533 20.3301 21.6705 20.3117 21.6919C20.2933 21.6993 20.2656 21.7106 20.2288 21.7259C20.1735 21.7417 20.1044 21.7619 20.0215 21.7864C19.9385 21.8108 19.8418 21.8399 19.7312 21.8735C19.6207 21.9065 19.4825 21.9438 19.3166 21.9853H26.669C26.9454 21.9853 27.2172 21.9856 27.4844 21.9863C27.7516 21.9869 27.9405 21.9911 28.0511 21.9991C28.1432 22.0077 28.1202 22.0167 27.982 22.0261C27.8438 22.0356 27.6917 22.0452 27.5259 22.055L19.7312 22.5226C19.5285 22.5337 19.312 22.5425 19.0817 22.5492C18.8513 22.556 18.5519 22.5593 18.1833 22.5593C17.8332 22.5593 17.6305 22.5503 17.5753 22.5323C17.52 22.5142 17.5015 22.5009 17.52 22.4924Z" fill="white"></path>
</g>
<defs>
<clipPath id="clip0_3_2397">
<rect width="18.8786" height="1" fill="white" transform="matrix(1 0 0 -1 9.48001 22.5898)"></rect>
</clipPath>
</defs>
</svg>
