<svg width="13" height="12" viewBox="0 0 13 12" fill="none" xmlns="http://www.w3.org/2000/svg">
<g clip-path="url('#clip0_3_2269')">
<path d="M4.15999 8.25C4.38615 8.25 4.56949 8.07714 4.56949 7.8639C4.56949 7.65066 4.38615 7.4778 4.15999 7.4778C3.93383 7.4778 3.75049 7.65066 3.75049 7.8639C3.75049 8.07714 3.93383 8.25 4.15999 8.25Z" fill="white"></path>
<path d="M8.71129 8.25C8.93745 8.25 9.12079 8.07714 9.12079 7.8639C9.12079 7.65066 8.93745 7.4778 8.71129 7.4778C8.48513 7.4778 8.30179 7.65066 8.30179 7.8639C8.30179 8.07714 8.48513 8.25 8.71129 8.25Z" fill="white"></path>
<path d="M9.893 2.54039C9.776 2.82119 9.5303 3.23069 9.2846 3.76889H7.8455L9.074 2.54039H9.893ZM11.2034 0.118493C11.1215 0.0365929 11.0045 0.0365929 10.9226 0.118493L8.9102 2.13089L8.5007 2.54039L7.2722 3.76889L6.5819 4.45919L6.3011 4.73999C6.1373 4.65809 5.9384 4.57619 5.7278 4.57619C5.1545 4.57619 4.7099 5.02079 4.7099 5.59409C4.7099 6.16739 5.1545 6.61199 5.7278 6.61199C6.3011 6.61199 6.7457 6.16739 6.7457 5.59409C6.7457 5.39519 6.6638 5.18459 6.5819 5.02079L6.8627 4.73999C7.0265 4.98569 7.1435 5.26649 7.1435 5.59409C7.1435 6.36629 6.4883 7.02149 5.7161 7.02149C4.9439 7.02149 4.2887 6.36629 4.2887 5.59409C4.2887 4.82189 4.9439 4.16669 5.7161 4.16669C5.8799 4.16669 6.0437 4.20179 6.2075 4.24859L6.6989 3.75719H2.9783C2.7326 3.23069 2.4869 2.82119 2.3699 2.52869H7.9391L8.3486 2.11919H2.0423C1.9604 2.11919 1.9253 2.15429 1.8785 2.20109C1.8434 2.23619 1.8434 2.31809 1.8785 2.39999C1.8785 2.39999 2.2061 3.13709 2.6975 4.03799C4.043 6.61199 5.1545 8.00429 5.9267 8.21489V11.3388H4.0898C3.9728 11.3388 3.8909 11.4207 3.8909 11.5377C3.8909 11.6547 3.9728 11.7366 4.0898 11.7366H8.1848C8.3018 11.7366 8.3837 11.6547 8.3837 11.5377C8.3837 11.4207 8.3018 11.3388 8.1848 11.3388H6.3362V8.22659C7.1084 8.02769 8.2199 6.63539 9.5654 4.04969C10.0568 3.14879 10.3844 2.41169 10.3844 2.41169C10.4195 2.32979 10.4195 2.29469 10.3844 2.21279C10.3493 2.17769 10.3025 2.13089 10.2206 2.13089H9.4835L11.1683 0.446093C11.2502 0.364193 11.2502 0.200393 11.2034 0.118493Z" fill="white"></path>
</g>
<defs>
<clipPath id="clip0_3_2269">
<rect width="11.7" height="11.7" fill="white" transform="translate(0.649994 0.0599976)"></rect>
</clipPath>
</defs>
</svg>
