<svg width="12" height="12" viewBox="0 0 12 12" fill="none" xmlns="http://www.w3.org/2000/svg">
<g clip-path="url('#clip0_3_2283')">
<path d="M5.0108 0.270598C4.9991 0.153598 4.9055 0.0599976 4.8119 0.0599976C4.8119 0.0599976 4.8119 0.0599976 4.8002 0.0599976C4.6949 0.0599976 4.613 0.165298 4.6013 0.282298L4.4258 2.8446C4.4141 3.0084 4.1801 3.0084 4.1684 2.8446L3.9812 0.282298C3.9812 0.153598 3.8876 0.0599976 3.7823 0.0599976C3.677 0.0599976 3.5834 0.153598 3.5717 0.282298L3.3962 2.8446C3.3845 3.0084 3.1505 3.0084 3.1388 2.8446L2.9516 0.282298C2.9516 0.165298 2.858 0.0599976 2.7527 0.0599976C2.7527 0.0599976 2.7527 0.0599976 2.741 0.0599976C2.6357 0.0599976 2.5538 0.153598 2.5421 0.270598L2.1794 3.219C2.0741 4.0848 2.4602 4.9155 3.1388 5.2548L2.8229 10.5315C2.7995 10.8474 2.8931 11.1633 3.0803 11.3973C3.2675 11.6313 3.5249 11.76 3.794 11.76C4.0631 11.76 4.3205 11.6313 4.5077 11.3973C4.6949 11.1633 4.7885 10.8474 4.7651 10.5315L4.4492 5.2548C5.1161 4.9155 5.5139 4.0848 5.4086 3.219L5.0108 0.270598Z" fill="white"></path>
<path d="M7.45611 0.106798C7.51461 0.0599976 7.58481 0.0482976 7.65501 0.0716976C7.67841 0.0833976 9.70251 0.843898 9.70251 3.219C9.70251 4.9272 9.10581 5.8047 8.81331 6.1557L9.10581 6.4716C9.14091 6.5067 9.16431 6.5652 9.17601 6.6237L9.42171 10.6017C9.42171 11.2686 9.04731 11.7717 8.38041 11.7717C7.78371 11.7717 7.36251 11.3739 7.36251 10.7187V0.305698C7.35081 0.223798 7.39761 0.153598 7.45611 0.106798Z" fill="white"></path>
</g>
<defs>
<clipPath id="clip0_3_2283">
<rect width="11.7" height="11.7" fill="white" transform="translate(0.0500031 0.0599976)"></rect>
</clipPath>
</defs>
</svg>
