<svg width="226" height="327" viewBox="0 0 226 327" fill="none" xmlns="http://www.w3.org/2000/svg">
<g clip-path="url('#clip0_3_2384')">
<path d="M209.858 78.2455C209.858 98.3143 204.016 114.991 192.333 128.276C180.65 141.561 164.255 150.606 143.056 155.223V156.919C168.401 160.122 187.434 167.943 200.153 180.568C212.873 193.193 219.186 209.965 219.186 230.881C219.186 261.314 208.445 284.775 186.962 301.263C165.48 317.752 134.953 326.043 95.2867 326.043C60.237 326.043 30.7462 320.39 6.62601 308.989V263.764C33.3672 276.895 62.6734 283.972 92.4601 284.492C116.957 284.492 135.236 279.97 147.39 270.83C159.545 261.691 165.575 247.652 165.575 228.62C165.575 211.755 158.885 199.318 145.506 191.403C132.127 183.489 111.021 179.532 82.3786 179.532H54.8665V138.263H82.7555C133.163 138.263 158.414 120.833 158.414 85.9715C158.414 72.4039 153.986 61.9455 145.223 54.5963C136.461 47.2472 123.458 43.5726 106.31 43.5726C94.3445 43.5726 82.8497 45.2686 71.7318 48.6605C60.6139 52.0524 47.5173 58.6478 32.348 68.4466L7.47398 33.02C36.4936 11.7264 70.1301 0.985352 108.477 0.985352C140.324 0.985352 165.198 7.86339 183.099 21.5252C201.001 35.1871 209.858 54.1252 209.858 78.2455Z" fill="url('#paint0_linear_3_2384')"></path>
</g>
<defs>
<linearGradient id="paint0_linear_3_2384" x1="123.264" y1="51.9256" x2="123.264" y2="279.418" gradientUnits="userSpaceOnUse">
<stop stop-color="#EFF2F6"></stop>
<stop offset="1" stop-color="white"></stop>
</linearGradient>
<clipPath id="clip0_3_2384">
<rect width="226" height="326" fill="white" transform="translate(0 0.420044)"></rect>
</clipPath>
</defs>
</svg>
