<svg width="13" height="12" viewBox="0 0 13 12" fill="none" xmlns="http://www.w3.org/2000/svg">
<g clip-path="url('#clip0_3_2252')">
<path d="M4.16 8.25C4.38616 8.25 4.5695 8.07714 4.5695 7.8639C4.5695 7.65066 4.38616 7.4778 4.16 7.4778C3.93384 7.4778 3.7505 7.65066 3.7505 7.8639C3.7505 8.07714 3.93384 8.25 4.16 8.25Z" fill="white"></path>
<path d="M8.7113 8.25C8.93746 8.25 9.1208 8.07714 9.1208 7.8639C9.1208 7.65066 8.93746 7.4778 8.7113 7.4778C8.48514 7.4778 8.3018 7.65066 8.3018 7.8639C8.3018 8.07714 8.48514 8.25 8.7113 8.25Z" fill="white"></path>
<path d="M11.18 2.1543C11.2151 2.2596 11.18 2.3649 11.1098 2.4351C11.0864 2.4585 11.0513 2.4819 11.0045 2.5053C10.8641 2.5521 10.712 2.4702 10.6652 2.3298C10.5716 2.049 10.3493 1.8267 10.0685 1.7331C9.9281 1.6863 9.8462 1.5342 9.893 1.3938C9.9398 1.2534 10.0919 1.1715 10.2323 1.2183C10.6886 1.3704 11.0396 1.7097 11.18 2.1543ZM11.8586 0.3408C11.1449 -0.1506 10.1387 -0.0102004 9.5303 0.6801L8.3603 2.0022L2.873 1.3938C2.2997 1.3353 1.7381 1.5225 1.3286 1.932L0.7319 2.5287C0.6617 2.5989 0.6383 2.6925 0.6617 2.7861C0.6851 2.8797 0.755301 2.9499 0.837201 2.985L5.9384 4.6815L3.5048 7.3725L1.3871 6.6705C1.2467 6.6237 1.0946 6.7056 1.0478 6.846L0.8606 7.4193C0.8255 7.5363 0.8606 7.665 0.965901 7.7235L3.2006 9.2211L4.6982 11.4558C4.7684 11.5611 4.8971 11.5962 5.0024 11.5611L5.5757 11.3739C5.7161 11.3271 5.798 11.175 5.7512 11.0346L5.0492 8.9169L7.7285 6.4833L9.425 11.5611C9.4601 11.6547 9.5303 11.7132 9.6239 11.7366C9.7175 11.76 9.8111 11.7366 9.8813 11.6664L10.478 11.0697C10.8875 10.6602 11.0864 10.0986 11.0162 9.5253L10.4078 4.038L11.7299 2.868C11.7533 2.8446 11.7767 2.7978 11.8118 2.7978C12.4319 2.1777 12.5372 1.23 12.0692 0.5397C12.0341 0.4929 12.0107 0.4578 11.9756 0.4227C11.9405 0.3993 11.8937 0.3759 11.8586 0.3408Z" fill="white"></path>
</g>
<defs>
<clipPath id="clip0_3_2252">
<rect width="11.7" height="11.7" fill="white" transform="translate(0.650002 0.0599976)"></rect>
</clipPath>
</defs>
</svg>
