<svg width="13" height="13" viewBox="0 0 13 13" fill="none" xmlns="http://www.w3.org/2000/svg">
<g clip-path="url('#clip0_3_2276')">
<path d="M2.9485 11.8761L3.2761 11.49H9.3952L9.7228 11.8761H2.9485ZM6.3415 11.1039C7.2073 11.1039 8.1199 10.9869 8.8687 10.788C8.8687 10.788 8.8687 10.788 8.8687 10.8231L9.0793 11.0922H6.3415H3.6037L3.8143 10.8231C3.8143 10.8231 3.8143 10.8231 3.8143 10.788C4.5631 10.9869 5.464 11.1039 6.3415 11.1039ZM4.06 7.98001C4.5163 7.98001 4.8907 8.33101 4.8907 8.76391C4.8907 9.19681 4.5163 9.54781 4.06 9.54781C3.6037 9.54781 3.2293 9.19681 3.2293 8.76391C3.241 8.33101 3.6037 7.98001 4.06 7.98001ZM7.3711 8.95111C7.3711 9.06811 7.2892 9.15001 7.1605 9.15001H5.5108C5.3821 9.15001 5.3002 9.06811 5.3002 8.95111C5.3002 8.83411 5.3821 8.75221 5.5108 8.75221H7.1605C7.2892 8.76391 7.3711 8.83411 7.3711 8.95111ZM3.8143 3.96691C3.8143 3.58081 4.1419 3.30001 4.5163 3.30001H8.2018C8.5762 3.30001 8.8687 3.56911 8.9038 3.96691L9.0676 6.50581C9.0676 7.17271 6.8329 7.20781 6.3766 7.20781C5.9203 7.20781 3.6856 7.17271 3.6856 6.50581L3.8143 3.96691ZM9.442 8.76391C9.442 9.19681 9.0676 9.54781 8.6113 9.54781C8.155 9.54781 7.7806 9.19681 7.7806 8.76391C7.7806 8.33101 8.155 7.98001 8.6113 7.98001C9.0676 7.98001 9.442 8.33101 9.442 8.76391ZM6.3415 1.34611C6.5053 1.34611 6.6691 1.34611 6.7978 1.34611L6.3415 2.20021L5.8852 1.34611C6.0022 1.34611 6.1777 1.34611 6.3415 1.34611ZM10.6354 12.3441L9.2782 10.671C9.8983 10.4721 10.2727 10.203 10.2727 9.93391L9.8164 3.61591C9.7696 2.99581 9.2782 2.52781 8.6581 2.52781H6.6223L7.2424 1.39291C8.3539 1.47481 8.6932 1.70881 8.6932 1.70881C8.74 1.74391 8.7751 1.74391 8.8219 1.74391C8.8687 1.74391 8.9506 1.70881 8.9857 1.66201C9.0676 1.58011 9.0325 1.46311 8.9389 1.39291C8.9038 1.34611 8.3188 0.960007 6.3415 0.960007C4.3525 0.960007 3.7792 1.34611 3.7324 1.39291C3.6505 1.47481 3.6037 1.59181 3.6856 1.66201C3.7675 1.74391 3.8962 1.77901 3.9781 1.69711C3.9781 1.69711 4.3057 1.46311 5.4289 1.38121L6.049 2.51611H4.0249C3.4048 2.51611 2.9134 2.98411 2.8666 3.60421L2.4103 9.92221C2.4103 10.1913 2.8198 10.4721 3.4048 10.6593L2.0359 12.3441C1.954 12.426 1.9891 12.543 2.0827 12.6249C2.1295 12.66 2.1646 12.66 2.2114 12.66C2.2582 12.66 2.3401 12.6249 2.3752 12.5781L2.6209 12.2622H10.0621L10.3078 12.5781C10.3546 12.6132 10.3897 12.66 10.4716 12.66C10.5184 12.66 10.5535 12.66 10.6003 12.6249C10.6822 12.543 10.7173 12.426 10.6354 12.3441Z" fill="white"></path>
<path d="M4.06 9.15001C4.28616 9.15001 4.4695 8.97714 4.4695 8.76391C4.4695 8.55067 4.28616 8.37781 4.06 8.37781C3.83384 8.37781 3.6505 8.55067 3.6505 8.76391C3.6505 8.97714 3.83384 9.15001 4.06 9.15001Z" fill="white"></path>
<path d="M8.6113 9.15001C8.83746 9.15001 9.0208 8.97714 9.0208 8.76391C9.0208 8.55067 8.83746 8.37781 8.6113 8.37781C8.38514 8.37781 8.2018 8.55067 8.2018 8.76391C8.2018 8.97714 8.38514 9.15001 8.6113 9.15001Z" fill="white"></path>
</g>
<defs>
<clipPath id="clip0_3_2276">
<rect width="11.7" height="11.7" fill="white" transform="translate(0.550003 0.960007)"></rect>
</clipPath>
</defs>
</svg>
