<svg width="570" height="362" viewBox="0 0 570 362" fill="none" xmlns="http://www.w3.org/2000/svg">
<path opacity="0.243" d="M1.47821 218.963L56.587 104.023L160.192 168.474L228.841 86.1788L315.021 104.023L382.306 97.4103L481.922 2.09937L569.152 39.7829V360.775H1.47821V218.963Z" fill="url('#paint0_linear_3_2352')"></path>
<path d="M1.47821 219.488L56.587 104.023L160.192 168.474L228.841 86.1788L315.021 104.023L382.306 97.4103L481.922 2.09937L569.152 39.7829" stroke="url('#paint1_linear_3_2352')" stroke-width="3.14908"></path>
<path d="M9.4559 333.379C9.4559 334.848 9.03602 336.003 8.19627 336.738C7.35651 337.472 6.30682 337.997 4.83725 337.997H2.31799V328.97H5.04719C6.41179 328.97 7.56645 329.39 8.30124 330.125C9.03602 330.859 9.4559 332.014 9.4559 333.379ZM8.40621 333.484C8.40621 332.329 8.0913 331.384 7.56645 330.859C7.04161 330.334 6.09688 330.02 4.94222 330.02H3.36769V337.157H4.62732C5.88695 337.157 6.83167 336.843 7.46148 336.213C8.0913 335.583 8.40621 334.638 8.40621 333.484ZM14.1795 338.102C13.2348 338.102 12.395 337.787 11.8702 337.157C11.3453 336.528 11.0304 335.688 11.0304 334.638C11.0304 333.588 11.3453 332.644 11.8702 332.014C12.395 331.384 13.1298 331.069 14.0745 331.069C14.9143 331.069 15.5441 331.384 16.069 331.909C16.5938 332.434 16.8037 333.169 16.8037 334.113V334.743H12.1851C12.1851 335.583 12.395 336.108 12.8149 336.528C13.2348 336.948 13.7596 337.157 14.3895 337.157C15.1242 337.157 15.859 337.052 16.5938 336.738V337.682C16.2789 337.787 15.859 337.997 15.5441 337.997C15.2292 337.997 14.5994 338.102 14.1795 338.102ZM13.8646 332.014C13.3398 332.014 12.9199 332.224 12.605 332.539C12.2901 332.854 12.0801 333.379 12.0801 334.008H15.6491C15.6491 333.379 15.5441 332.854 15.2292 332.539C14.9143 332.224 14.3895 332.014 13.8646 332.014ZM21.1075 338.102C20.1628 338.102 19.428 337.787 18.7982 337.157C18.1683 336.528 17.9584 335.688 17.9584 334.638C17.9584 333.484 18.2733 332.644 18.7982 332.014C19.323 331.384 20.1628 331.069 21.1075 331.069C21.4224 331.069 21.7373 331.069 22.0522 331.174C22.3671 331.279 22.682 331.279 22.787 331.384L22.4721 332.224C22.2621 332.119 22.0522 332.014 21.7373 332.014C21.4224 332.014 21.2124 331.909 21.0025 331.909C19.6379 331.909 18.9031 332.749 18.9031 334.533C18.9031 335.373 19.1131 336.003 19.428 336.423C19.7429 336.843 20.2677 337.052 20.8975 337.052C21.4224 337.052 22.0522 336.947 22.577 336.738V337.682C22.3671 337.997 21.7373 338.102 21.1075 338.102ZM30.0299 332.539C30.9746 332.539 31.7094 332.749 32.2342 333.274C32.7591 333.798 33.074 334.428 33.074 335.163C33.074 336.108 32.7591 336.843 32.2342 337.367C31.7094 337.892 30.8696 338.207 29.8199 338.207C28.7702 338.207 28.0354 337.997 27.5106 337.682V336.738C27.8255 336.947 28.1404 337.052 28.5603 337.157C28.9802 337.262 29.4 337.262 29.8199 337.262C30.5547 337.262 31.0796 337.052 31.4994 336.738C31.9193 336.423 32.1292 335.898 32.1292 335.268C32.1292 334.008 31.3945 333.379 29.8199 333.379C29.4 333.379 28.8752 333.484 28.2454 333.588L27.7205 333.274L28.0354 329.075H32.5491V330.02H28.9802L28.7702 332.749C29.0851 332.539 29.505 332.539 30.0299 332.539ZM136.469 333.379C136.469 334.848 136.049 336.003 135.209 336.738C134.369 337.472 133.215 337.892 131.745 337.892H129.226V328.865H131.955C133.32 328.865 134.474 329.285 135.209 330.02C135.944 330.754 136.469 332.014 136.469 333.379ZM135.419 333.484C135.419 332.329 135.104 331.384 134.579 330.859C134.054 330.334 133.11 330.02 131.955 330.02H130.485V337.157H131.745C133.005 337.157 133.949 336.843 134.579 336.213C135.209 335.583 135.419 334.638 135.419 333.484ZM141.192 338.102C140.248 338.102 139.408 337.787 138.883 337.157C138.358 336.528 138.043 335.688 138.043 334.638C138.043 333.588 138.358 332.644 138.883 332.014C139.408 331.384 140.143 331.069 141.087 331.069C141.927 331.069 142.557 331.384 143.082 331.909C143.607 332.434 143.816 333.169 143.816 334.113V334.743H139.198C139.198 335.583 139.408 336.108 139.828 336.528C140.248 336.948 140.772 337.157 141.402 337.157C142.137 337.157 142.872 337.052 143.607 336.738V337.682C143.292 337.787 142.872 337.997 142.557 337.997C142.242 337.997 141.612 338.102 141.192 338.102ZM140.877 332.014C140.352 332.014 139.933 332.224 139.618 332.539C139.303 332.854 139.093 333.379 139.093 334.008H142.662C142.662 333.379 142.557 332.854 142.242 332.539C141.927 332.224 141.402 332.014 140.877 332.014ZM148.12 338.102C147.175 338.102 146.441 337.787 145.811 337.157C145.181 336.528 144.971 335.688 144.971 334.638C144.971 333.484 145.286 332.644 145.811 332.014C146.336 331.384 147.175 331.069 148.12 331.069C148.435 331.069 148.75 331.069 149.065 331.174C149.38 331.279 149.695 331.279 149.8 331.384L149.485 332.224C149.275 332.119 149.065 332.014 148.75 332.014C148.435 332.014 148.225 331.909 148.015 331.909C146.651 331.909 145.916 332.749 145.916 334.533C145.916 335.373 146.126 336.003 146.441 336.423C146.756 336.843 147.28 337.052 147.91 337.052C148.435 337.052 149.065 336.947 149.59 336.738V337.682C149.38 337.997 148.75 338.102 148.12 338.102ZM157.987 337.997H157.043V330.125L156.728 330.439C156.623 330.544 156.098 330.964 155.258 331.594L154.733 330.859L157.148 328.97H157.987V337.997ZM167.33 333.484C167.33 335.058 167.12 336.213 166.595 336.948C166.07 337.682 165.335 338.102 164.39 338.102C163.446 338.102 162.711 337.682 162.186 336.948C161.661 336.213 161.451 335.058 161.451 333.484C161.451 331.909 161.661 330.754 162.186 330.02C162.711 329.285 163.446 328.865 164.39 328.865C165.335 328.865 166.07 329.285 166.595 330.02C167.12 330.754 167.33 332.014 167.33 333.484ZM162.501 333.484C162.501 334.743 162.606 335.793 162.921 336.318C163.236 336.843 163.761 337.262 164.39 337.262C165.02 337.262 165.545 336.948 165.86 336.318C166.175 335.688 166.28 334.743 166.28 333.484C166.28 332.224 166.175 331.279 165.86 330.649C165.545 330.02 165.02 329.705 164.39 329.705C163.761 329.705 163.236 330.02 162.921 330.544C162.606 331.069 162.501 332.224 162.501 333.484ZM264.531 333.379C264.531 334.848 264.111 336.003 263.271 336.738C262.432 337.472 261.277 337.892 259.807 337.892H257.288V328.865H260.017C261.382 328.865 262.537 329.285 263.271 330.02C264.006 330.754 264.531 332.014 264.531 333.379ZM263.481 333.484C263.481 332.329 263.166 331.384 262.642 330.859C262.117 330.334 261.172 330.02 260.017 330.02H258.548V337.157H259.807C261.067 337.157 262.012 336.843 262.642 336.213C263.271 335.583 263.481 334.638 263.481 333.484ZM269.255 338.102C268.31 338.102 267.47 337.787 266.945 337.157C266.42 336.528 266.106 335.688 266.106 334.638C266.106 333.588 266.42 332.644 266.945 332.014C267.47 331.384 268.205 331.069 269.15 331.069C269.989 331.069 270.619 331.384 271.144 331.909C271.669 332.434 271.879 333.169 271.879 334.113V334.743H267.26C267.26 335.583 267.47 336.108 267.89 336.528C268.31 336.948 268.835 337.157 269.465 337.157C270.199 337.157 270.934 337.052 271.669 336.738V337.682C271.354 337.787 270.934 337.997 270.619 337.997C270.304 337.997 269.675 338.102 269.255 338.102ZM268.94 332.014C268.415 332.014 267.995 332.224 267.68 332.539C267.365 332.854 267.155 333.379 267.155 334.008H270.724C270.724 333.379 270.619 332.854 270.304 332.539C269.989 332.224 269.465 332.014 268.94 332.014ZM276.183 338.102C275.238 338.102 274.503 337.787 273.873 337.157C273.243 336.528 273.034 335.688 273.034 334.638C273.034 333.484 273.348 332.644 273.873 332.014C274.398 331.384 275.238 331.069 276.183 331.069C276.498 331.069 276.812 331.069 277.127 331.174C277.442 331.279 277.757 331.279 277.862 331.384L277.547 332.224C277.337 332.119 277.127 332.014 276.812 332.014C276.498 332.014 276.288 331.909 276.078 331.909C274.713 331.909 273.978 332.749 273.978 334.533C273.978 335.373 274.188 336.003 274.503 336.423C274.818 336.843 275.343 337.052 275.973 337.052C276.498 337.052 277.127 336.947 277.652 336.738V337.682C277.442 337.997 276.812 338.102 276.183 338.102ZM286.05 337.997H285.105V330.125L284.79 330.439C284.685 330.544 284.16 330.964 283.32 331.594L282.796 330.859L285.21 328.97H286.05V337.997ZM292.243 332.539C293.188 332.539 293.922 332.749 294.447 333.274C294.972 333.798 295.287 334.428 295.287 335.163C295.287 336.108 294.972 336.843 294.447 337.367C293.922 337.892 293.083 338.207 292.033 338.207C290.983 338.207 290.248 337.997 289.724 337.682V336.738C290.039 336.947 290.353 337.052 290.773 337.157C291.193 337.262 291.613 337.262 292.033 337.262C292.768 337.262 293.293 337.052 293.712 336.738C294.132 336.423 294.342 335.898 294.342 335.268C294.342 334.008 293.607 333.379 292.033 333.379C291.613 333.379 291.088 333.484 290.458 333.588L289.934 333.274L290.248 329.075H294.762V330.02H291.193L290.983 332.749C291.298 332.539 291.823 332.539 292.243 332.539Z" fill="#6C767F"></path>
<path d="M385.141 336.948V327.92H388.29C389.024 327.92 389.549 327.92 389.864 328.025C390.389 328.13 390.809 328.34 391.229 328.655C391.754 329.075 392.069 329.6 392.279 330.23C392.488 330.859 392.593 331.594 392.593 332.329C392.593 333.064 392.488 333.588 392.383 334.113C392.278 334.638 392.069 335.058 391.754 335.478C391.439 335.898 391.229 336.108 390.914 336.318C390.599 336.528 390.284 336.633 389.864 336.738C389.444 336.843 388.919 336.843 388.395 336.843H385.141V336.948ZM386.4 335.898H388.29C388.919 335.898 389.339 335.793 389.654 335.688C389.969 335.583 390.284 335.373 390.494 335.268C390.809 334.953 391.019 334.638 391.124 334.113C391.229 333.588 391.334 333.064 391.334 332.329C391.334 331.384 391.229 330.649 390.914 330.125C390.599 329.6 390.179 329.285 389.759 329.075C389.444 328.97 388.919 328.865 388.185 328.865H386.295V335.898H386.4ZM398.577 334.848L399.731 334.953C399.521 335.583 399.206 336.108 398.682 336.528C398.157 336.948 397.527 337.052 396.792 337.052C395.847 337.052 395.113 336.738 394.483 336.213C393.853 335.688 393.643 334.848 393.643 333.693C393.643 332.644 393.958 331.699 394.483 331.174C395.008 330.649 395.742 330.23 396.687 330.23C397.527 330.23 398.262 330.544 398.787 331.069C399.311 331.594 399.626 332.539 399.626 333.588V333.903H394.798C394.798 334.638 395.008 335.163 395.428 335.583C395.847 336.003 396.267 336.108 396.792 336.108C397.212 336.108 397.527 336.003 397.842 335.793C398.157 335.583 398.472 335.268 398.577 334.848ZM395.008 333.064H398.682C398.682 332.539 398.472 332.119 398.262 331.804C397.947 331.384 397.422 331.174 396.897 331.174C396.372 331.174 395.952 331.384 395.638 331.699C395.323 332.014 395.008 332.434 395.008 333.064ZM405.4 334.533L406.449 334.638C406.344 335.373 406.029 336.003 405.505 336.423C404.98 336.843 404.455 337.052 403.72 337.052C402.775 337.052 402.146 336.738 401.516 336.213C400.886 335.688 400.676 334.743 400.676 333.693C400.676 332.959 400.781 332.329 400.991 331.804C401.201 331.279 401.621 330.859 402.041 330.649C402.461 330.439 403.09 330.23 403.615 330.23C404.35 330.23 404.875 330.439 405.4 330.754C405.925 331.069 406.134 331.594 406.239 332.329L405.19 332.539C405.085 332.119 404.875 331.804 404.665 331.594C404.455 331.384 404.14 331.279 403.72 331.279C403.195 331.279 402.67 331.489 402.356 331.909C402.041 332.329 401.831 332.959 401.831 333.798C401.831 334.638 402.041 335.268 402.356 335.688C402.67 336.108 403.09 336.318 403.72 336.318C404.14 336.318 404.56 336.213 404.77 335.898C404.98 335.583 405.295 335.058 405.4 334.533ZM416.421 335.898V336.948H410.438C410.438 336.633 410.438 336.423 410.543 336.213C410.648 335.793 410.963 335.373 411.278 335.058C411.593 334.743 412.118 334.218 412.748 333.693C413.692 332.854 414.427 332.224 414.742 331.804C415.057 331.384 415.267 330.859 415.267 330.439C415.267 330.02 415.162 329.6 414.847 329.285C414.532 328.97 414.112 328.865 413.587 328.865C413.062 328.865 412.643 329.075 412.328 329.39C412.013 329.705 411.803 330.125 411.803 330.754L410.648 330.649C410.753 329.81 411.068 329.18 411.488 328.76C411.908 328.34 412.643 328.13 413.587 328.13C414.427 328.13 415.162 328.34 415.687 328.865C416.211 329.39 416.421 329.915 416.421 330.649C416.421 330.964 416.316 331.384 416.211 331.699C416.107 332.014 415.792 332.434 415.477 332.749C415.162 333.064 414.532 333.693 413.797 334.323C413.167 334.848 412.747 335.268 412.538 335.478C412.328 335.688 412.223 335.898 412.118 336.108H416.421V335.898ZM417.576 332.539C417.576 331.489 417.681 330.649 417.891 329.915C418.101 329.18 418.416 328.76 418.836 328.445C419.256 328.13 419.78 327.92 420.515 327.92C421.04 327.92 421.46 328.025 421.775 328.235C422.09 328.445 422.405 328.76 422.72 329.075C423.034 329.39 423.139 329.915 423.244 330.439C423.349 330.964 423.454 331.699 423.454 332.539C423.454 333.588 423.349 334.428 423.139 335.058C422.93 335.688 422.615 336.213 422.195 336.528C421.775 336.843 421.25 337.052 420.515 337.052C419.675 337.052 418.941 336.738 418.416 336.108C417.891 335.373 417.576 334.218 417.576 332.539ZM418.731 332.539C418.731 334.008 418.941 334.953 419.256 335.478C419.57 336.003 419.99 336.213 420.515 336.213C421.04 336.213 421.46 336.003 421.775 335.478C422.09 334.953 422.3 334.008 422.3 332.539C422.3 331.069 422.09 330.02 421.775 329.6C421.46 329.18 421.04 328.865 420.515 328.865C419.99 328.865 419.57 329.075 419.256 329.495C418.941 330.02 418.731 331.069 418.731 332.539ZM515.302 336.948V327.92H518.451C519.186 327.92 519.711 327.92 520.026 328.025C520.551 328.13 520.971 328.34 521.391 328.655C521.915 329.075 522.23 329.6 522.44 330.23C522.65 330.859 522.755 331.594 522.755 332.329C522.755 333.064 522.65 333.588 522.545 334.113C522.44 334.638 522.23 335.058 521.915 335.478C521.601 335.898 521.391 336.108 521.076 336.318C520.761 336.528 520.446 336.633 520.026 336.738C519.606 336.843 519.081 336.843 518.556 336.843H515.302V336.948ZM516.562 335.898H518.451C519.081 335.898 519.501 335.793 519.816 335.688C520.131 335.583 520.446 335.373 520.656 335.268C520.971 334.953 521.181 334.638 521.286 334.113C521.391 333.588 521.496 333.064 521.496 332.329C521.496 331.384 521.391 330.649 521.076 330.125C520.761 329.6 520.341 329.285 519.921 329.075C519.606 328.97 519.081 328.865 518.346 328.865H516.457V335.898H516.562ZM528.738 334.848L529.893 334.953C529.683 335.583 529.368 336.108 528.843 336.528C528.319 336.948 527.689 337.052 526.954 337.052C526.009 337.052 525.274 336.738 524.645 336.213C524.015 335.688 523.805 334.848 523.805 333.693C523.805 332.644 524.12 331.699 524.645 331.174C525.169 330.649 525.904 330.23 526.849 330.23C527.689 330.23 528.424 330.544 528.948 331.069C529.473 331.594 529.788 332.539 529.788 333.588V333.903H524.96C524.96 334.638 525.17 335.163 525.589 335.583C526.009 336.003 526.429 336.108 526.954 336.108C527.374 336.108 527.689 336.003 528.004 335.793C528.319 335.583 528.633 335.268 528.738 334.848ZM525.169 333.064H528.843C528.843 332.539 528.633 332.119 528.424 331.804C528.109 331.384 527.584 331.174 527.059 331.174C526.534 331.174 526.114 331.384 525.799 331.699C525.484 332.014 525.169 332.434 525.169 333.064ZM535.561 334.533L536.611 334.638C536.506 335.373 536.191 336.003 535.666 336.423C535.142 336.843 534.617 337.052 533.882 337.052C532.937 337.052 532.307 336.738 531.678 336.213C531.048 335.688 530.838 334.743 530.838 333.693C530.838 332.959 530.943 332.329 531.153 331.804C531.363 331.279 531.783 330.859 532.202 330.649C532.622 330.439 533.252 330.23 533.777 330.23C534.512 330.23 535.037 330.439 535.561 330.754C536.086 331.069 536.296 331.594 536.401 332.329L535.352 332.539C535.247 332.119 535.037 331.804 534.827 331.594C534.617 331.384 534.302 331.279 533.882 331.279C533.357 331.279 532.832 331.489 532.517 331.909C532.202 332.329 531.992 332.959 531.992 333.798C531.992 334.638 532.202 335.268 532.517 335.688C532.832 336.108 533.252 336.318 533.882 336.318C534.302 336.318 534.722 336.213 534.932 335.898C535.142 335.583 535.456 335.058 535.561 334.533ZM546.583 335.898V336.948H540.6C540.6 336.633 540.6 336.423 540.705 336.213C540.81 335.793 541.125 335.373 541.44 335.058C541.755 334.743 542.279 334.218 542.909 333.693C543.854 332.854 544.589 332.224 544.904 331.804C545.219 331.384 545.429 330.859 545.429 330.439C545.429 330.02 545.324 329.6 545.009 329.285C544.694 328.97 544.274 328.865 543.749 328.865C543.224 328.865 542.804 329.075 542.489 329.39C542.174 329.705 541.965 330.125 541.965 330.754L540.81 330.649C540.915 329.81 541.23 329.18 541.65 328.76C542.07 328.34 542.804 328.13 543.749 328.13C544.589 328.13 545.324 328.34 545.848 328.865C546.373 329.39 546.583 329.915 546.583 330.649C546.583 330.964 546.478 331.384 546.373 331.699C546.268 332.014 545.953 332.434 545.638 332.749C545.324 333.064 544.694 333.693 543.959 334.323C543.329 334.848 542.909 335.268 542.699 335.478C542.489 335.688 542.384 335.898 542.279 336.108H546.583V335.898ZM547.738 334.638L548.893 334.533C548.998 335.058 549.207 335.478 549.522 335.793C549.837 336.108 550.257 336.213 550.677 336.213C551.202 336.213 551.622 336.003 552.042 335.583C552.462 335.163 552.566 334.638 552.566 334.008C552.566 333.379 552.357 332.854 552.042 332.539C551.727 332.224 551.202 332.014 550.677 332.014C550.362 332.014 550.047 332.119 549.732 332.224C549.417 332.329 549.207 332.644 549.102 332.854L548.053 332.749L548.893 328.13H553.406V329.18H549.837L549.312 331.594C549.837 331.174 550.467 331.069 550.992 331.069C551.832 331.069 552.461 331.384 552.986 331.909C553.511 332.434 553.826 333.169 553.826 334.008C553.826 334.848 553.616 335.478 553.091 336.108C552.462 336.843 551.727 337.157 550.677 337.157C549.837 337.157 549.207 336.948 548.683 336.423C548.158 335.898 547.843 335.373 547.738 334.638Z" fill="#7F8993"></path>
<defs>
<linearGradient id="paint0_linear_3_2352" x1="285.412" y1="360.954" x2="285.412" y2="2.24847" gradientUnits="userSpaceOnUse">
<stop stop-color="white" stop-opacity="0"></stop>
<stop offset="1" stop-color="#12C48B"></stop>
</linearGradient>
<linearGradient id="paint1_linear_3_2352" x1="-178.437" y1="138.845" x2="-14.1317" y2="-227.644" gradientUnits="userSpaceOnUse">
<stop stop-color="#52EBBA"></stop>
<stop offset="1" stop-color="#12C48B"></stop>
</linearGradient>
</defs>
</svg>
