<svg width="34" height="6" viewBox="0 0 34 6" fill="none" xmlns="http://www.w3.org/2000/svg">
<path d="M1.67252 1.13745H0.563599V0.767815H3.18805V1.13745H2.07913V4.20547H1.63555V1.13745H1.67252ZM3.00323 2.9487C3.00323 2.20942 3.48375 1.65495 4.22304 1.65495C4.96232 1.65495 5.44285 2.24638 5.44285 2.9487C5.44285 3.65101 4.96232 4.2794 4.22304 4.2794C3.48375 4.2794 3.00323 3.68798 3.00323 2.9487ZM5.07321 2.9487C5.07321 2.4312 4.7775 1.98763 4.26 1.98763C3.74251 1.98763 3.40983 2.4312 3.40983 2.9487C3.40983 3.46619 3.70554 3.90976 4.26 3.90976C4.7775 3.90976 5.07321 3.46619 5.07321 2.9487ZM6.18214 3.68798V2.06156H5.77553V1.72888H6.18214V1.06353H6.58874V1.72888H7.10624V2.06156H6.58874V3.61404C6.58874 3.79886 6.66266 3.94672 6.84748 3.94672C6.95838 3.94672 7.06927 3.90976 7.10624 3.83583L7.21712 4.13154C7.10623 4.24244 6.99534 4.2794 6.7366 4.2794C6.36696 4.2794 6.18214 4.05762 6.18214 3.68798ZM9.21318 3.90976C8.99139 4.13154 8.73265 4.24244 8.39998 4.24244C7.99337 4.24244 7.51284 3.94672 7.51284 3.42922C7.51284 2.87476 7.95641 2.61602 8.39998 2.61602C8.73265 2.61602 9.02836 2.72691 9.21318 2.9487V2.50512C9.21318 2.17245 8.95444 1.98763 8.5848 1.98763C8.28909 1.98763 8.03033 2.09852 7.80855 2.3203L7.62373 2.06156C7.88248 1.76584 8.21516 1.65495 8.62176 1.65495C9.13926 1.65495 9.58282 1.87673 9.58282 2.50512V4.24244H9.17622V3.90976H9.21318ZM9.21318 3.20744C9.06532 2.98566 8.80658 2.91173 8.51086 2.91173C8.14122 2.91173 7.88248 3.13351 7.88248 3.46619C7.88248 3.79887 8.14122 4.02065 8.51086 4.02065C8.76961 4.02065 9.06532 3.90976 9.21318 3.72494V3.20744ZM10.3591 0.767815H10.7657V4.20547H10.3591V0.767815ZM13.9446 1.65495C14.6839 1.65495 15.1274 2.24638 15.1274 2.98566V3.09655H13.0944C13.1314 3.57708 13.4641 3.94672 13.9815 3.94672C14.2773 3.94672 14.573 3.83583 14.7578 3.61404L14.9426 3.8728C14.6839 4.13154 14.3512 4.24244 13.9446 4.24244C13.2053 4.24244 12.6878 3.72494 12.6878 2.91173C12.7248 2.20941 13.2423 1.65495 13.9446 1.65495ZM13.1314 2.80084H14.7578C14.7578 2.4312 14.499 1.95066 13.9446 1.95066C13.4271 1.95066 13.1683 2.4312 13.1314 2.80084ZM16.4951 3.17048L15.7558 4.20547H15.3122L16.2733 2.91173L15.3492 1.69192H15.7928L16.4951 2.65298L17.1974 1.69192H17.641L16.7169 2.91173L17.678 4.20547H17.2344L16.4951 3.17048ZM18.1215 5.16654V1.72888H18.5281V2.09852C18.7129 1.83977 19.0086 1.65495 19.3783 1.65495C20.0436 1.65495 20.4872 2.13549 20.4872 2.9487C20.4872 3.7619 20.0436 4.2794 19.3783 4.2794C19.0456 4.2794 18.7499 4.13154 18.5281 3.83583V5.16654H18.1215ZM19.2674 1.98763C18.9717 1.98763 18.639 2.17245 18.5281 2.39424V3.54012C18.676 3.7619 18.9717 3.94672 19.2674 3.94672C19.7849 3.94672 20.0806 3.54012 20.0806 2.98566C20.0806 2.4312 19.7479 1.98763 19.2674 1.98763ZM22.1876 1.65495C22.9268 1.65495 23.3704 2.24638 23.3704 2.98566V3.09655H21.3374C21.3744 3.57708 21.707 3.94672 22.2245 3.94672C22.5202 3.94672 22.8159 3.83583 23.0008 3.61404L23.1856 3.8728C22.9268 4.13154 22.5942 4.24244 22.1876 4.24244C21.4483 4.24244 20.9308 3.72494 20.9308 2.91173C20.9677 2.20941 21.4852 1.65495 22.1876 1.65495ZM21.3744 2.80084H23.0008C23.0008 2.4312 22.742 1.95066 22.1876 1.95066C21.6331 1.95066 21.3744 2.4312 21.3744 2.80084ZM25.6991 2.57906C25.6991 2.13549 25.4774 1.98763 25.1447 1.98763C24.849 1.98763 24.5533 2.17245 24.4054 2.39424V4.20547H23.9988V1.69192H24.4054V2.06156C24.5902 1.83977 24.9229 1.65495 25.2925 1.65495C25.81 1.65495 26.1057 1.9137 26.1057 2.46816V4.20547H25.6991V2.57906ZM26.845 3.57708C26.9929 3.7619 27.3256 3.94672 27.6582 3.94672C28.0279 3.94672 28.2497 3.7619 28.2497 3.54012C28.2497 3.28137 27.9539 3.17048 27.6213 3.09655C27.2147 2.98566 26.6972 2.87477 26.6972 2.35727C26.6972 1.95066 27.0298 1.65495 27.6213 1.65495C28.0279 1.65495 28.3606 1.80281 28.5454 2.02459L28.3606 2.28334C28.2127 2.09852 27.9539 1.95066 27.6213 1.95066C27.2886 1.95066 27.0668 2.09852 27.0668 2.3203C27.0668 2.57905 27.3625 2.65298 27.6952 2.72691C28.1388 2.8378 28.6193 2.9487 28.6193 3.50316C28.6193 3.90976 28.2866 4.24244 27.6213 4.24244C27.2147 4.24244 26.882 4.13154 26.6232 3.83583L26.845 3.57708ZM30.3566 1.65495C31.0959 1.65495 31.5395 2.24638 31.5395 2.98566V3.09655H29.5064C29.5434 3.57708 29.8761 3.94672 30.3936 3.94672C30.6893 3.94672 30.985 3.83583 31.1698 3.61404L31.3546 3.8728C31.0959 4.13154 30.7632 4.24244 30.3566 4.24244C29.6173 4.24244 29.0998 3.72494 29.0998 2.91173C29.1368 2.20941 29.6543 1.65495 30.3566 1.65495ZM29.5434 2.80084H31.1698C31.1698 2.4312 30.9111 1.95066 30.3566 1.95066C29.8021 1.95066 29.5434 2.4312 29.5434 2.80084ZM32.1678 3.57708C32.3157 3.7619 32.6484 3.94672 32.9811 3.94672C33.3507 3.94672 33.5725 3.7619 33.5725 3.54012C33.5725 3.28137 33.2768 3.17048 32.9441 3.09655C32.5375 2.98566 32.02 2.87477 32.02 2.35727C32.02 1.95066 32.3527 1.65495 32.9441 1.65495C33.3507 1.65495 33.6834 1.80281 33.8682 2.02459L33.6834 2.28334C33.5355 2.09852 33.2768 1.95066 32.9441 1.95066C32.6114 1.95066 32.3896 2.09852 32.3896 2.3203C32.3896 2.57905 32.6853 2.65298 33.018 2.72691C33.4616 2.8378 33.9421 2.9487 33.9421 3.50316C33.9421 3.90976 33.6094 4.24244 32.9441 4.24244C32.5375 4.24244 32.2048 4.13154 31.9461 3.83583L32.1678 3.57708Z" fill="#93A1AA"></path>
</svg>
