<svg width="40" height="5" viewBox="0 0 40 5" fill="none" xmlns="http://www.w3.org/2000/svg">
<path d="M1.12894 1.13745H0.0200195V0.767815H2.64446V1.13745H1.53554V4.20547H1.09196V1.13745H1.12894ZM2.45964 2.9487C2.45964 2.20942 2.94016 1.65495 3.67944 1.65495C4.41873 1.65495 4.89925 2.24638 4.89925 2.9487C4.89925 3.65101 4.41873 4.2794 3.67944 4.2794C2.94016 4.2794 2.45964 3.68798 2.45964 2.9487ZM4.52961 2.9487C4.52961 2.4312 4.23392 1.98763 3.71642 1.98763C3.19893 1.98763 2.86623 2.4312 2.86623 2.9487C2.86623 3.46619 3.16196 3.90976 3.71642 3.90976C4.23392 3.90976 4.52961 3.46619 4.52961 2.9487ZM5.63853 3.68798V2.06156H5.23194V1.72888H5.63853V1.06353H6.04515V1.72888H6.56263V2.06156H6.04515V3.61404C6.04515 3.79886 6.11908 3.94672 6.3039 3.94672C6.4148 3.94672 6.52567 3.90976 6.56263 3.83583L6.67354 4.13154C6.56265 4.24244 6.45174 4.2794 6.19299 4.2794C5.82335 4.2794 5.63853 4.05762 5.63853 3.68798ZM8.66959 3.90976C8.4478 4.13154 8.18905 4.24244 7.85638 4.24244C7.44977 4.24244 6.96925 3.94672 6.96925 3.42922C6.96925 2.87476 7.41281 2.61602 7.85638 2.61602C8.18905 2.61602 8.48477 2.72691 8.66959 2.9487V2.50512C8.66959 2.17245 8.41084 1.98763 8.0412 1.98763C7.74548 1.98763 7.48674 2.09852 7.26496 2.3203L7.08014 2.06156C7.33889 1.76584 7.67157 1.65495 8.07817 1.65495C8.59567 1.65495 9.03923 1.87673 9.03923 2.50512V4.24244H8.63263L8.66959 3.90976ZM8.66959 3.20744C8.52173 2.98566 8.263 2.91173 7.96729 2.91173C7.59765 2.91173 7.33889 3.13351 7.33889 3.46619C7.33889 3.79887 7.59765 4.02065 7.96729 4.02065C8.22603 4.02065 8.52173 3.90976 8.66959 3.72494V3.20744ZM9.81549 0.767815H10.2221V4.20547H9.81549V0.767815ZM12.403 3.68798V2.06156H11.9964V1.72888H12.403V1.06353H12.8096V1.72888H13.3271V2.06156H12.8096V3.61404C12.8096 3.79886 12.8835 3.94672 13.0683 3.94672C13.1792 3.94672 13.2901 3.90976 13.3271 3.83583L13.438 4.13154C13.3271 4.24244 13.2162 4.2794 12.9574 4.2794C12.5878 4.2794 12.403 4.05762 12.403 3.68798ZM13.8446 1.69192H14.2512V2.09852C14.436 1.83977 14.7317 1.65495 15.1013 1.65495V2.06156C15.0644 2.06156 14.9904 2.06156 14.9535 2.06156C14.7317 2.06156 14.399 2.24638 14.2881 2.46816V4.24244H13.8815L13.8446 1.69192ZM17.0974 3.90976C16.8756 4.13154 16.6169 4.24244 16.2842 4.24244C15.8776 4.24244 15.397 3.94672 15.397 3.42922C15.397 2.87476 15.8406 2.61602 16.2842 2.61602C16.6169 2.61602 16.9126 2.72691 17.0974 2.9487V2.50512C17.0974 2.17245 16.8387 1.98763 16.469 1.98763C16.1733 1.98763 15.9145 2.09852 15.6928 2.3203L15.5079 2.06156C15.7667 1.76584 16.0994 1.65495 16.506 1.65495C17.0235 1.65495 17.467 1.87673 17.467 2.50512V4.24244H17.0604L17.0974 3.90976ZM17.0974 3.20744C16.9495 2.98566 16.6908 2.91173 16.3951 2.91173C16.0254 2.91173 15.7667 3.13351 15.7667 3.46619C15.7667 3.79887 16.0254 4.02065 16.3951 4.02065C16.6538 4.02065 16.9495 3.90976 17.0974 3.72494V3.20744ZM19.9806 2.57906C19.9806 2.13549 19.7588 1.98763 19.4261 1.98763C19.1304 1.98763 18.8347 2.17245 18.6869 2.39424V4.20547H18.2802V1.69192H18.6869V2.06156C18.8717 1.83977 19.2043 1.65495 19.574 1.65495C20.0915 1.65495 20.3872 1.9137 20.3872 2.46816V4.20547H19.9806V2.57906ZM21.1265 3.57708C21.2743 3.7619 21.607 3.94672 21.9397 3.94672C22.3093 3.94672 22.5311 3.7619 22.5311 3.54012C22.5311 3.28137 22.2354 3.17048 21.9027 3.09655C21.4961 2.98566 20.9786 2.87477 20.9786 2.35727C20.9786 1.95066 21.3113 1.65495 21.9027 1.65495C22.3093 1.65495 22.642 1.80281 22.8268 2.0246L22.642 2.28334C22.4941 2.09852 22.2354 1.95066 21.9027 1.95066C21.57 1.95066 21.3482 2.09852 21.3482 2.3203C21.3482 2.57905 21.644 2.65298 21.9766 2.72691C22.4202 2.8378 22.9007 2.9487 22.9007 3.50316C22.9007 3.90976 22.5681 4.24244 21.9027 4.24244C21.4961 4.24244 21.1634 4.13154 20.9047 3.83583L21.1265 3.57708ZM25.1186 3.90976C24.8968 4.13154 24.638 4.24244 24.3054 4.24244C23.8988 4.24244 23.4182 3.94672 23.4182 3.42922C23.4182 2.87476 23.8618 2.61602 24.3054 2.61602C24.638 2.61602 24.9338 2.72691 25.1186 2.9487V2.50512C25.1186 2.17245 24.8598 1.98763 24.4902 1.98763C24.1945 1.98763 23.9357 2.09852 23.714 2.3203L23.5291 2.06156C23.7879 1.76584 24.1206 1.65495 24.5272 1.65495C25.0447 1.65495 25.4882 1.87673 25.4882 2.50512V4.24244H25.0816L25.1186 3.90976ZM25.1186 3.20744C24.9707 2.98566 24.712 2.91173 24.4163 2.91173C24.0466 2.91173 23.7879 3.13351 23.7879 3.46619C23.7879 3.79887 24.0466 4.02065 24.4163 4.02065C24.675 4.02065 24.9707 3.90976 25.1186 3.72494V3.20744ZM27.3734 1.65495C27.817 1.65495 28.1127 1.83977 28.2975 2.09852L28.0387 2.3203C27.8909 2.09852 27.6691 1.98763 27.4104 1.98763C26.8929 1.98763 26.5602 2.39424 26.5602 2.9487C26.5602 3.50316 26.8929 3.90976 27.4104 3.90976C27.6691 3.90976 27.8909 3.79887 28.0387 3.57708L28.2975 3.79886C28.1127 4.05761 27.8539 4.24244 27.3734 4.24244C26.6341 4.24244 26.1166 3.68797 26.1166 2.91173C26.1166 2.20941 26.6341 1.65495 27.3734 1.65495ZM28.8889 3.68798V2.06156H28.4823V1.72888H28.8889V1.06353H29.2955V1.72888H29.813V2.06156H29.2955V3.61404C29.2955 3.79886 29.3694 3.94672 29.5543 3.94672C29.6652 3.94672 29.7761 3.90976 29.813 3.83583L29.9239 4.13154C29.813 4.24244 29.7021 4.2794 29.4434 4.2794C29.0737 4.2794 28.8889 4.05762 28.8889 3.68798ZM30.2935 1.02656C30.2935 0.878706 30.4044 0.767815 30.5523 0.767815C30.7002 0.767815 30.8111 0.878706 30.8111 1.02656C30.8111 1.17442 30.7002 1.28531 30.5523 1.28531C30.4044 1.28531 30.2935 1.17442 30.2935 1.02656ZM30.3305 1.69192H30.7371V4.20547H30.3305V1.69192ZM31.3655 2.9487C31.3655 2.20942 31.846 1.65495 32.5853 1.65495C33.3246 1.65495 33.8051 2.24638 33.8051 2.9487C33.8051 3.65101 33.3246 4.2794 32.5853 4.2794C31.846 4.2794 31.3655 3.68798 31.3655 2.9487ZM33.4355 2.9487C33.4355 2.4312 33.1398 1.98763 32.6223 1.98763C32.1048 1.98763 31.7721 2.4312 31.7721 2.9487C31.7721 3.46619 32.0678 3.90976 32.6223 3.90976C33.1398 3.90976 33.4355 3.46619 33.4355 2.9487ZM36.1708 2.57906C36.1708 2.13549 35.9491 1.98763 35.6164 1.98763C35.3207 1.98763 35.025 2.17245 34.8771 2.39424V4.20547H34.4705V1.69192H34.8771V2.06156C35.0619 1.83977 35.3946 1.65495 35.7642 1.65495C36.2817 1.65495 36.5774 1.9137 36.5774 2.46816V4.20547H36.1708V2.57906ZM37.3167 3.57708C37.4646 3.7619 37.7972 3.94672 38.1299 3.94672C38.4996 3.94672 38.7213 3.7619 38.7213 3.54012C38.7213 3.28137 38.4256 3.17048 38.093 3.09655C37.6864 2.98566 37.1689 2.87477 37.1689 2.35727C37.1689 1.95066 37.5015 1.65495 38.093 1.65495C38.4996 1.65495 38.8323 1.80281 39.0171 2.0246L38.8323 2.28334C38.6844 2.09852 38.4256 1.95066 38.093 1.95066C37.7603 1.95066 37.5385 2.09852 37.5385 2.3203C37.5385 2.57905 37.8342 2.65298 38.1669 2.72691C38.6104 2.8378 39.091 2.9487 39.091 3.50316C39.091 3.90976 38.7583 4.24244 38.093 4.24244C37.6864 4.24244 37.3537 4.13154 37.0949 3.83583L37.3167 3.57708Z" fill="#93A1AA"></path>
</svg>
