<svg width="21" height="5" viewBox="0 0 21 5" fill="none" xmlns="http://www.w3.org/2000/svg">
<path d="M0.935211 2.10374C0.935211 1.03178 1.71145 0.329468 2.70948 0.329468C3.33787 0.329468 3.74448 0.625181 4.04019 0.994821L3.67055 1.17964C3.48573 0.883929 3.11608 0.662142 2.70948 0.662142C1.9702 0.662142 1.37877 1.25357 1.37877 2.06678C1.37877 2.87999 1.9702 3.47141 2.70948 3.47141C3.11608 3.47141 3.48573 3.24963 3.67055 2.95392L4.04019 3.13874C3.74448 3.54534 3.33787 3.80408 2.70948 3.80408C1.71145 3.91498 0.935211 3.17569 0.935211 2.10374ZM6.25803 2.17767C6.25803 1.7341 6.03624 1.62321 5.70357 1.62321C5.40786 1.62321 5.11214 1.80803 4.96429 2.02982V3.84105H4.55768V0.403395H4.96429V1.7341C5.14911 1.51231 5.48178 1.3275 5.85142 1.3275C6.36892 1.3275 6.66464 1.58624 6.66464 2.1407V3.91498H6.25803V2.17767ZM8.99337 3.54534C8.77158 3.76713 8.51283 3.87802 8.18015 3.87802C7.77355 3.87802 7.29302 3.5823 7.29302 3.0648C7.29302 2.51034 7.73658 2.2516 8.18015 2.2516C8.51283 2.2516 8.80854 2.36249 8.99337 2.58428V2.1407C8.99337 1.80803 8.73461 1.62321 8.36497 1.62321C8.06926 1.62321 7.81052 1.7341 7.58874 1.95588L7.40392 1.69714C7.66266 1.40143 7.99533 1.29053 8.40194 1.29053C8.91943 1.29053 9.36301 1.51231 9.36301 2.1407V3.87802H8.9564V3.54534H8.99337ZM8.99337 2.84302C8.84551 2.62123 8.58676 2.54731 8.29105 2.54731C7.92141 2.54731 7.66266 2.76909 7.66266 3.10177C7.66266 3.43445 7.92141 3.65623 8.29105 3.65623C8.5498 3.65623 8.84551 3.54534 8.99337 3.36052V2.84302ZM11.8396 2.21464C11.8396 1.77107 11.6178 1.62321 11.2851 1.62321C10.9894 1.62321 10.6937 1.80803 10.5459 2.02982V3.84105H10.1393V1.3275H10.5459V1.69714C10.7307 1.47536 11.0634 1.29053 11.433 1.29053C11.9505 1.29053 12.2462 1.54928 12.2462 2.10374V3.84105H11.8396V2.21464ZM13.2073 4.21069C13.429 4.46944 13.6508 4.54337 14.0205 4.54337C14.4271 4.54337 14.8337 4.35855 14.8337 3.80408V3.43444C14.6489 3.69319 14.3531 3.87802 13.9835 3.87802C13.3182 3.87802 12.8746 3.39748 12.8746 2.58428C12.8746 1.77107 13.3182 1.29053 13.9835 1.29053C14.3162 1.29053 14.6119 1.43838 14.8337 1.7341V1.36446H15.2403V3.80408C15.2403 4.61729 14.6489 4.87604 14.0574 4.87604C13.6508 4.87604 13.3551 4.80211 13.0594 4.5064L13.2073 4.21069ZM14.7967 2.02982C14.6489 1.80803 14.3532 1.62321 14.0574 1.62321C13.5399 1.62321 13.2442 2.02982 13.2442 2.58428C13.2442 3.13874 13.5399 3.54534 14.0574 3.54534C14.3532 3.54534 14.6858 3.36052 14.7967 3.13874V2.02982ZM17.0515 1.29053C17.7908 1.29053 18.2344 1.88196 18.2344 2.62124V2.73213H16.2014C16.2383 3.21266 16.571 3.5823 17.0885 3.5823C17.3842 3.5823 17.6799 3.47141 17.8647 3.24962L18.0496 3.50838C17.7908 3.76713 17.4581 3.87802 17.0515 3.87802C16.3122 3.87802 15.7947 3.36052 15.7947 2.54731C15.8317 1.84499 16.3492 1.29053 17.0515 1.29053ZM16.2383 2.43642H17.8647C17.8647 2.06678 17.606 1.58624 17.0515 1.58624C16.534 1.58624 16.2383 2.06678 16.2383 2.43642ZM18.8628 3.21266C19.0106 3.39748 19.3433 3.5823 19.676 3.5823C20.0456 3.5823 20.2674 3.39749 20.2674 3.1757C20.2674 2.91695 19.9717 2.80606 19.639 2.73213C19.2324 2.62124 18.7149 2.51035 18.7149 1.99285C18.7149 1.58624 19.0476 1.29053 19.639 1.29053C20.0456 1.29053 20.3783 1.43839 20.5631 1.66018L20.3783 1.91892C20.2304 1.7341 19.9717 1.58624 19.639 1.58624C19.3063 1.58624 19.0845 1.7341 19.0845 1.95588C19.0845 2.21463 19.3803 2.28856 19.7129 2.36249C20.1565 2.47338 20.637 2.58428 20.637 3.13874C20.637 3.54534 20.3044 3.87802 19.639 3.87802C19.2324 3.87802 18.8997 3.76712 18.641 3.47141L18.8628 3.21266Z" fill="#334C5B"></path>
</svg>
