<svg width="15" height="5" viewBox="0 0 15 5" fill="none" xmlns="http://www.w3.org/2000/svg">
<path d="M0.452698 0.950836H1.85733C2.55964 0.950836 2.92928 1.43136 2.92928 1.98582C2.92928 2.54028 2.52268 3.02081 1.85733 3.02081H0.896259V4.38849H0.452698V0.950836ZM1.78341 1.32048H0.859304V2.65117H1.78341C2.19001 2.65117 2.48572 2.39243 2.48572 1.98582C2.48572 1.57922 2.19001 1.32048 1.78341 1.32048ZM3.48374 0.950836H3.89035V4.38849H3.48374V0.950836ZM6.18212 4.09278C5.96034 4.31456 5.70159 4.42544 5.36891 4.42544C4.9623 4.42544 4.48177 4.12975 4.48177 3.61225C4.48177 3.05779 4.92534 2.79904 5.36891 2.79904C5.70159 2.79904 5.9973 2.90992 6.18212 3.1317V2.68815C6.18212 2.35547 5.92337 2.17064 5.55373 2.17064C5.25802 2.17064 4.99927 2.28155 4.77748 2.50333L4.59266 2.24458C4.85141 1.94886 5.18409 1.83796 5.5907 1.83796C6.10819 1.83796 6.55176 2.05976 6.55176 2.68815V4.42544H6.14516V4.09278H6.18212ZM6.18212 3.39045C6.03427 3.16867 5.77552 3.09475 5.47981 3.09475C5.11017 3.09475 4.85141 3.31653 4.85141 3.64921C4.85141 3.98188 5.11017 4.20367 5.47981 4.20367C5.73856 4.20367 6.03427 4.09278 6.18212 3.90796V3.39045ZM8.47389 1.83796C8.91745 1.83796 9.21317 2.02278 9.39799 2.28153L9.13924 2.50333C8.99139 2.28155 8.7696 2.17064 8.51085 2.17064C7.99336 2.17064 7.66068 2.57724 7.66068 3.1317C7.66068 3.68616 7.99336 4.09278 8.51085 4.09278C8.7696 4.09278 8.99139 3.98188 9.13924 3.76009L9.39799 3.98189C9.21317 4.24064 8.95442 4.42544 8.47389 4.42544C7.7346 4.42544 7.21711 3.87099 7.21711 3.09475C7.21711 2.39243 7.7346 1.83796 8.47389 1.83796ZM11.0244 1.83796C11.7637 1.83796 12.2073 2.4294 12.2073 3.16868V3.27957H10.1742C10.2112 3.7601 10.5439 4.12973 11.0614 4.12973C11.3571 4.12973 11.6528 4.01886 11.8376 3.79707L12.0224 4.0558C11.7637 4.31455 11.431 4.42544 11.0244 4.42544C10.2851 4.42544 9.76763 3.90795 9.76763 3.09475C9.76763 2.39243 10.2851 1.83796 11.0244 1.83796ZM10.1742 2.98386H11.8006C11.8006 2.61422 11.5419 2.13369 10.9874 2.13369C10.4699 2.13369 10.2112 2.61422 10.1742 2.98386ZM12.8356 3.76009C12.9835 3.94491 13.3162 4.12973 13.6488 4.12973C14.0185 4.12973 14.2403 3.94492 14.2403 3.72314C14.2403 3.46439 13.9446 3.35349 13.6119 3.27957C13.2053 3.16867 12.6878 3.05778 12.6878 2.54028C12.6878 2.13368 13.0205 1.83796 13.6119 1.83796C14.0185 1.83796 14.3512 1.98582 14.536 2.2076L14.3512 2.46635C14.2033 2.28153 13.9446 2.13369 13.6119 2.13369C13.2792 2.13369 13.0574 2.28155 13.0574 2.50333C13.0574 2.76208 13.3531 2.836 13.6858 2.90993C14.1294 3.02082 14.6099 3.1317 14.6099 3.68616C14.6099 4.09277 14.2772 4.42544 13.6119 4.42544C13.2053 4.42544 12.8726 4.31456 12.6139 4.01885L12.8356 3.76009Z" fill="#334C5B"></path>
</svg>
