<svg width="47" height="5" viewBox="0 0 47 5" fill="none" xmlns="http://www.w3.org/2000/svg">
<path d="M0.452698 0.234423H1.63554C2.7075 0.234423 3.40982 0.973708 3.40982 1.97174C3.40982 2.96977 2.7075 3.70903 1.63554 3.70903H0.452698V0.234423ZM1.63554 3.30243C2.48571 3.30243 2.96625 2.71102 2.96625 1.97174C2.96625 1.23246 2.48571 0.641018 1.63554 0.641018H0.896259V3.33939H1.63554V3.30243ZM5.14712 1.12155C5.8864 1.12155 6.32998 1.71298 6.32998 2.45226V2.56315H4.29695C4.33392 3.04368 4.66659 3.41332 5.18409 3.41332C5.4798 3.41332 5.77552 3.30244 5.96034 3.08066L6.14516 3.33939C5.88641 3.59814 5.55373 3.70903 5.14712 3.70903C4.40784 3.70903 3.89035 3.19154 3.89035 2.37833C3.92731 1.67602 4.44481 1.12155 5.14712 1.12155ZM4.33392 2.26744H5.96034C5.96034 1.8978 5.70158 1.41728 5.14712 1.41728C4.59266 1.41728 4.33392 1.8978 4.33392 2.26744ZM8.06729 1.12155C8.51086 1.12155 8.80657 1.30637 8.99139 1.56512L8.73264 1.78692C8.58478 1.56513 8.36299 1.45423 8.10425 1.45423C7.58675 1.45423 7.25408 1.86083 7.25408 2.41529C7.25408 2.96975 7.58675 3.37637 8.10425 3.37637C8.36299 3.37637 8.58478 3.26546 8.73264 3.04368L8.99139 3.26548C8.80657 3.52423 8.54782 3.70903 8.06729 3.70903C7.32801 3.70903 6.8105 3.15458 6.8105 2.37833C6.8105 1.67602 7.32801 1.12155 8.06729 1.12155ZM11.3941 0.788883L10.8396 1.3803L10.5808 1.12155L11.431 0.234423H11.8006V3.67207H11.3571V0.788883H11.3941ZM13.7228 2.23047H16.4951V2.56315H13.7228V2.23047ZM18.3803 0.234423H19.5631C20.6351 0.234423 21.3374 0.973708 21.3374 1.97174C21.3374 2.96977 20.6351 3.70903 19.5631 3.70903H18.3803V0.234423ZM19.5631 3.30243C20.4133 3.30243 20.8938 2.71102 20.8938 1.97174C20.8938 1.23246 20.4133 0.641018 19.5631 0.641018H18.8238V3.33939H19.5631V3.30243ZM23.0747 1.12155C23.814 1.12155 24.2575 1.71298 24.2575 2.45226V2.56315H22.2245C22.2615 3.04368 22.5941 3.41332 23.1116 3.41332C23.4074 3.41332 23.7031 3.30244 23.8879 3.08066L24.0727 3.33939C23.814 3.59814 23.4813 3.70903 23.0747 3.70903C22.3354 3.70903 21.8179 3.19154 21.8179 2.37833C21.8549 1.67602 22.3724 1.12155 23.0747 1.12155ZM22.2615 2.26744H23.8879C23.8879 1.8978 23.6291 1.41728 23.0747 1.41728C22.5202 1.41728 22.2615 1.8978 22.2615 2.26744ZM25.9948 1.12155C26.4384 1.12155 26.7341 1.30637 26.9189 1.56512L26.6602 1.78692C26.5123 1.56513 26.2905 1.45423 26.0318 1.45423C25.5143 1.45423 25.1816 1.86083 25.1816 2.41529C25.1816 2.96975 25.5143 3.37637 26.0318 3.37637C26.2905 3.37637 26.5123 3.26546 26.6602 3.04368L26.9189 3.26548C26.7341 3.52423 26.4754 3.70903 25.9948 3.70903C25.2556 3.70903 24.7381 3.15458 24.7381 2.37833C24.7381 1.67602 25.2556 1.12155 25.9948 1.12155ZM28.8041 2.89584C28.9889 3.15459 29.3586 3.33939 29.7652 3.33939C30.2827 3.33939 30.5784 3.08064 30.5784 2.67404C30.5784 2.23047 30.2087 2.04565 29.7282 2.04565C29.5803 2.04565 29.4325 2.04565 29.3586 2.04565V1.63905C29.4325 1.63905 29.5803 1.63905 29.7282 1.63905C30.1718 1.63905 30.5414 1.45423 30.5414 1.08459C30.5414 0.714951 30.1718 0.493175 29.7652 0.493175C29.3955 0.493175 29.0998 0.641023 28.8411 0.899771L28.6193 0.641018C28.878 0.345306 29.2846 0.123535 29.8021 0.123535C30.4675 0.123535 30.985 0.456211 30.985 1.04764C30.985 1.52817 30.5784 1.7869 30.2457 1.86083C30.5784 1.89779 31.0589 2.15656 31.0589 2.71102C31.0589 3.30244 30.6153 3.70903 29.8391 3.70903C29.2477 3.70903 28.8411 3.45028 28.6193 3.15457L28.8041 2.89584ZM32.2048 0.788883L31.6503 1.3803L31.3916 1.12155L32.2418 0.234423H32.6114V3.67207H32.2048V0.788883ZM33.3507 4.1526C33.4985 4.04171 33.6834 3.85689 33.6834 3.67207C33.6834 3.67207 33.6464 3.67207 33.6094 3.67207C33.4616 3.67207 33.3507 3.56118 33.3507 3.41332C33.3507 3.26546 33.4616 3.11761 33.6094 3.11761C33.7942 3.11761 33.9421 3.26546 33.9421 3.52421C33.9421 3.85688 33.7573 4.15261 33.5355 4.30047L33.3507 4.1526ZM35.8642 3.33939C37.121 2.37832 37.7864 1.7869 37.7864 1.19548C37.7864 0.75191 37.4167 0.567085 37.0841 0.567085C36.6774 0.567085 36.3448 0.75191 36.16 1.01066L35.9012 0.751906C36.1599 0.419229 36.6035 0.197445 37.0841 0.197445C37.6755 0.197445 38.2299 0.530126 38.2299 1.19548C38.2299 1.8978 37.5276 2.52619 36.5665 3.30243H38.2669V3.67207H35.9012V3.33939H35.8642ZM40.189 0.16049C41.1131 0.16049 41.5197 1.08459 41.5197 1.93476C41.5197 2.78493 41.1501 3.70903 40.189 3.70903C39.228 3.70903 38.8583 2.74797 38.8583 1.93476C38.8583 1.12155 39.228 0.16049 40.189 0.16049ZM40.189 0.567085C39.5237 0.567085 39.3019 1.26942 39.3019 1.97174C39.3019 2.67405 39.5237 3.37637 40.189 3.37637C40.8544 3.37637 41.0762 2.67405 41.0762 1.97174C41.0762 1.26942 40.8544 0.567085 40.189 0.567085ZM42.7026 0.788883L42.1481 1.3803L41.8894 1.12155L42.7395 0.234423H43.1092V3.67207H42.6656V0.788883H42.7026ZM45.5488 0.604063H43.7006V0.234423H46.0663V0.53013L44.6617 3.67207H44.1811L45.5488 0.604063Z" fill="#93A1AA"></path>
</svg>
