<svg width="46" height="5" viewBox="0 0 46 5" fill="none" xmlns="http://www.w3.org/2000/svg">
<path d="M0.0830688 0.686949H1.26591C2.33787 0.686949 3.04019 1.42622 3.04019 2.42425C3.04019 3.42228 2.33787 4.16156 1.26591 4.16156H0.0830688V0.686949ZM1.26591 3.75496C2.11608 3.75496 2.59662 3.16353 2.59662 2.42425C2.59662 1.68497 2.11608 1.09354 1.26591 1.09354H0.52663V3.79192L1.26591 3.75496ZM4.77749 1.57408C5.51677 1.57408 5.96035 2.16551 5.96035 2.90479V3.01568H3.92733C3.96429 3.49621 4.29696 3.86585 4.81446 3.86585C5.11017 3.86585 5.40589 3.75496 5.59071 3.53317L5.77553 3.79192C5.51678 4.05067 5.1841 4.16156 4.77749 4.16156C4.03821 4.16156 3.52072 3.64407 3.52072 2.83086C3.55768 2.12854 4.07518 1.57408 4.77749 1.57408ZM3.96429 2.71997H5.59071C5.59071 2.35033 5.33195 1.86979 4.77749 1.86979C4.22303 1.86979 3.96429 2.35033 3.96429 2.71997ZM7.69766 1.57408C8.14123 1.57408 8.43694 1.7589 8.62176 2.01764L8.36301 2.23943C8.21515 2.01765 7.99336 1.90676 7.73462 1.90676C7.21712 1.90676 6.88445 2.31336 6.88445 2.86782C6.88445 3.42228 7.21712 3.82889 7.73462 3.82889C7.99336 3.82889 8.21515 3.71799 8.36301 3.49621L8.62176 3.71799C8.43694 3.97674 8.17819 4.16156 7.69766 4.16156C6.95838 4.16156 6.44088 3.6071 6.44088 2.83086C6.44088 2.12854 6.95838 1.57408 7.69766 1.57408ZM11.0244 1.24141L10.47 1.83282L10.2112 1.57408L11.0614 0.686949H11.431V4.1246H10.9875V1.24141H11.0244ZM13.3532 2.683H16.1255V3.01568H13.3532V2.683ZM18.0106 0.686949H19.1935C20.2654 0.686949 20.9677 1.42622 20.9677 2.42425C20.9677 3.42228 20.2654 4.16156 19.1935 4.16156H18.0106V0.686949ZM19.1935 3.75496C20.0436 3.75496 20.5242 3.16353 20.5242 2.42425C20.5242 1.68497 20.0436 1.09354 19.1935 1.09354H18.4542V3.79192L19.1935 3.75496ZM22.705 1.57408C23.4443 1.57408 23.8879 2.16551 23.8879 2.90479V3.01568H21.8549C21.8918 3.49621 22.2245 3.86585 22.742 3.86585C23.0377 3.86585 23.3334 3.75496 23.5183 3.53317L23.7031 3.79192C23.4443 4.05067 23.1117 4.16156 22.705 4.16156C21.9658 4.16156 21.4483 3.64407 21.4483 2.83086C21.4852 2.12854 22.0027 1.57408 22.705 1.57408ZM21.8918 2.71997H23.5183C23.5183 2.35033 23.2595 1.86979 22.705 1.86979C22.1506 1.86979 21.8918 2.35033 21.8918 2.71997ZM25.6252 1.57408C26.0688 1.57408 26.3645 1.7589 26.5493 2.01764L26.2906 2.23943C26.1427 2.01765 25.9209 1.90676 25.6622 1.90676C25.1447 1.90676 24.812 2.31336 24.812 2.86782C24.812 3.42228 25.1447 3.82889 25.6622 3.82889C25.9209 3.82889 26.1427 3.71799 26.2906 3.49621L26.5493 3.71799C26.3645 3.97674 26.1057 4.16156 25.6252 4.16156C24.8859 4.16156 24.3684 3.6071 24.3684 2.83086C24.3684 2.12854 24.8859 1.57408 25.6252 1.57408ZM28.4345 3.34835C28.6193 3.6071 28.9889 3.79192 29.3955 3.79192C29.913 3.79192 30.2088 3.53317 30.2088 3.12657C30.2088 2.683 29.8391 2.49818 29.3586 2.49818C29.2107 2.49818 29.0629 2.49818 28.9889 2.49818V2.09158C29.0629 2.09158 29.2107 2.09158 29.3586 2.09158C29.8021 2.09158 30.1718 1.90676 30.1718 1.53712C30.1718 1.16748 29.8021 0.94569 29.3955 0.94569C29.0259 0.94569 28.7302 1.09355 28.4714 1.3523L28.2497 1.09354C28.5084 0.797832 28.915 0.57605 29.4325 0.57605C30.0979 0.57605 30.6154 0.908726 30.6154 1.50015C30.6154 1.98068 30.2088 2.23944 29.8761 2.31336C30.2088 2.35033 30.6893 2.60907 30.6893 3.16353C30.6893 3.75496 30.2457 4.16156 29.4695 4.16156C28.878 4.16156 28.4714 3.90282 28.2497 3.6071L28.4345 3.34835ZM31.8352 1.24141L31.2807 1.83282L31.022 1.57408L31.8721 0.686949H32.2418V4.1246H31.8352V1.24141ZM32.9811 4.60513C33.1289 4.49423 33.3137 4.30942 33.3137 4.1246C33.3137 4.1246 33.2768 4.1246 33.2398 4.1246C33.0919 4.1246 32.9811 4.0137 32.9811 3.86585C32.9811 3.71799 33.0919 3.57014 33.2398 3.57014C33.4246 3.57014 33.5725 3.718 33.5725 3.97674C33.5725 4.30942 33.3877 4.60514 33.1659 4.75299L32.9811 4.60513ZM35.4946 3.79192C36.7514 2.83086 37.4167 2.23943 37.4167 1.648C37.4167 1.20444 37.0471 1.01962 36.7144 1.01962C36.3078 1.01962 35.9751 1.20444 35.7903 1.46318L35.5316 1.20444C35.7903 0.871767 36.2339 0.649982 36.7144 0.649982C37.3058 0.649982 37.8603 0.982652 37.8603 1.648C37.8603 2.35032 37.158 2.97871 36.1969 3.75496H37.8973V4.1246H35.5316V3.79192H35.4946ZM39.8194 0.613016C40.7435 0.613016 41.1501 1.53711 41.1501 2.38728C41.1501 3.23746 40.7805 4.16156 39.8194 4.16156C38.8583 4.16156 38.4887 3.20049 38.4887 2.38728C38.4887 1.57408 38.8583 0.613016 39.8194 0.613016ZM39.8194 1.01962C39.154 1.01962 38.9323 1.72193 38.9323 2.42425C38.9323 3.12657 39.154 3.82889 39.8194 3.82889C40.4848 3.82889 40.7065 3.12657 40.7065 2.42425C40.7065 1.72193 40.4848 1.01962 39.8194 1.01962ZM42.3329 1.24141L41.7785 1.83282L41.5197 1.57408L42.3699 0.686949H42.7396V4.1246H42.296V1.24141H42.3329ZM45.1792 1.05659H43.331V0.686949H45.6967V0.982656L44.292 4.1246H43.8115L45.1792 1.05659Z" fill="#93A1AA"></path>
</svg>
